<svg width="14" height="14" viewBox="0 0 14 14" fill="none" xmlns="http://www.w3.org/2000/svg">
<path d="M6.76611 9.90469C6.65778 9.90469 6.55622 9.88762 6.46143 9.8535C6.36663 9.81992 6.27861 9.7625 6.19736 9.68125L3.27236 6.75625C3.1234 6.60729 3.04893 6.41771 3.04893 6.1875C3.04893 5.95729 3.1234 5.76771 3.27236 5.61875C3.42132 5.46979 3.61415 5.39179 3.85086 5.38475C4.08811 5.37825 4.28122 5.44948 4.43018 5.59844L5.95361 7.12187V1.3125C5.95361 1.08229 6.03161 0.889188 6.18761 0.733188C6.34307 0.577729 6.5359 0.5 6.76611 0.5C6.99632 0.5 7.18943 0.577729 7.34543 0.733188C7.50088 0.889188 7.57861 1.08229 7.57861 1.3125V7.12187L9.10205 5.59844C9.25101 5.44948 9.44411 5.37825 9.68136 5.38475C9.91807 5.39179 10.1109 5.46979 10.2599 5.61875C10.4088 5.76771 10.4833 5.95729 10.4833 6.1875C10.4833 6.41771 10.4088 6.60729 10.2599 6.75625L7.33486 9.68125C7.25361 9.7625 7.16559 9.81992 7.0708 9.8535C6.97601 9.88762 6.87445 9.90469 6.76611 9.90469ZM1.89111 13.5C1.44424 13.5 1.06182 13.341 0.743863 13.0231C0.425363 12.7046 0.266113 12.3219 0.266113 11.875V10.25C0.266113 10.0198 0.343843 9.82669 0.499301 9.67069C0.655301 9.51523 0.848405 9.4375 1.07861 9.4375C1.30882 9.4375 1.50193 9.51523 1.65793 9.67069C1.81338 9.82669 1.89111 10.0198 1.89111 10.25V11.875H11.6411V10.25C11.6411 10.0198 11.7191 9.82669 11.8751 9.67069C12.0306 9.51523 12.2234 9.4375 12.4536 9.4375C12.6838 9.4375 12.8767 9.51523 13.0321 9.67069C13.1881 9.82669 13.2661 10.0198 13.2661 10.25V11.875C13.2661 12.3219 13.1071 12.7046 12.7892 13.0231C12.4707 13.341 12.088 13.5 11.6411 13.5H1.89111Z" fill="#F3F6FD"/>
</svg>
