<svg width="11" height="14" viewBox="0 0 11 14" fill="none" xmlns="http://www.w3.org/2000/svg">
<path d="M7.97204 2.54057C8.04464 2.54057 8.10272 2.54057 8.1579 2.54057C8.68642 2.54057 9.21204 2.53766 9.74056 2.54057C10.1936 2.54347 10.5595 2.8571 10.6176 3.28979C10.6814 3.75152 10.4056 4.16098 9.95255 4.27424C9.88286 4.29166 9.81026 4.29456 9.73766 4.29456C6.9905 4.29456 4.24335 4.29747 1.49329 4.29456C1.02866 4.29456 0.680181 3.9577 0.630813 3.48436C0.587254 3.04876 0.895074 2.6393 1.33357 2.55509C1.41488 2.54057 1.4962 2.54057 1.58041 2.54057C2.10312 2.54057 2.62584 2.53766 3.14855 2.54347C3.26762 2.54347 3.29956 2.50572 3.29375 2.39537C3.28504 2.22694 3.29085 2.0556 3.29085 1.88717C3.29666 1.36736 3.67998 0.952096 4.19979 0.946288C5.15229 0.934672 6.10479 0.934672 7.05729 0.946288C7.5742 0.952096 7.96043 1.36736 7.96914 1.90169C7.97495 2.10788 7.97204 2.31406 7.97204 2.54057ZM4.48438 2.29373C5.25393 2.29373 6.01767 2.29373 6.77561 2.29373C6.85402 1.87556 6.61589 1.59387 6.20643 1.6142C5.8202 1.63453 5.43107 1.63453 5.04484 1.6142C4.65571 1.59387 4.39436 1.86685 4.48438 2.29373Z" fill="#B23632"/>
<path d="M9.6008 6.22192V4.74751H1.64934V4.85098C1.64934 6.91257 1.64676 8.97156 1.64934 11.0332C1.65193 12.1558 2.52881 13.0456 3.65661 13.0559C4.96288 13.0689 6.26916 13.0585 7.57543 13.0585C7.65044 13.0585 7.72287 13.0559 7.7953 13.0482V13.0508H7.92463C8.85325 13.0508 9.60598 12.298 9.60598 11.3694V6.22192H9.6008ZM4.45589 10.1666C4.45589 10.252 4.44813 10.3399 4.42227 10.4201C4.37571 10.5572 4.24637 10.6426 4.12997 10.6374C4.00581 10.6296 3.88424 10.5262 3.84802 10.3891C3.8325 10.3347 3.82992 10.2778 3.82992 10.2235C3.82992 8.72842 3.82992 7.23331 3.82992 5.73563C3.82992 5.69165 3.8325 5.65026 3.83768 5.60629C3.86354 5.42781 3.99805 5.29589 4.14808 5.29848C4.29811 5.30106 4.43261 5.44074 4.45072 5.61664C4.45848 5.67613 4.45589 5.73563 4.45589 5.79771C4.45589 6.52198 4.45589 7.24625 4.45589 7.97052C4.45848 8.69996 4.45848 9.43458 4.45589 10.1666ZM5.94582 10.1433C5.94582 10.2365 5.93289 10.3322 5.90443 10.4227C5.86305 10.5546 5.74406 10.6374 5.62507 10.6374C5.51385 10.6374 5.38968 10.5469 5.34571 10.4201C5.32502 10.3606 5.31467 10.2934 5.31467 10.2313C5.31208 8.72324 5.31467 7.21521 5.31467 5.70458C5.31467 5.68648 5.31467 5.67096 5.31467 5.65285C5.3276 5.46144 5.45435 5.30882 5.60955 5.29589C5.76734 5.28554 5.90443 5.41746 5.93547 5.61664C5.94323 5.67096 5.94582 5.72787 5.94582 5.78477C5.94582 6.51422 5.94582 7.24107 5.94582 7.97052C5.94841 8.69479 5.94841 9.41906 5.94582 10.1433ZM7.43058 10.1977C7.43058 10.327 7.40988 10.446 7.31676 10.5417C7.16932 10.6917 6.95463 10.6607 6.85633 10.4641C6.81753 10.3865 6.79943 10.2908 6.79943 10.2028C6.79684 8.71548 6.79425 7.22814 6.80201 5.7408C6.80201 5.6244 6.84599 5.49248 6.91324 5.39677C7.02447 5.24416 7.23916 5.25709 7.33746 5.42005C7.39178 5.51058 7.4254 5.62957 7.4254 5.73563C7.43316 6.48059 7.43058 7.22814 7.43058 7.97311C7.43058 8.7129 7.43058 9.45527 7.43058 10.1977Z" fill="#B23632"/>
</svg>
