<svg width="11" height="13" viewBox="0 0 11 13" fill="none" xmlns="http://www.w3.org/2000/svg">
<path d="M3.64795 8.49753C3.07136 7.93025 2.48548 7.34436 1.92749 6.78638C3.04346 5.6611 4.18733 4.51723 5.29401 3.40126C5.86129 3.96855 6.45648 4.56373 7.02376 5.13102C5.91709 6.23769 4.77322 7.38156 3.64795 8.49753Z" fill="#B23632"/>
<path d="M0.663995 12.8126C0.570997 12.515 0.645396 12.3941 0.961588 12.3941C4.06771 12.4034 7.18313 12.4034 10.2893 12.3941C10.5961 12.3941 10.6891 12.5057 10.5868 12.8126C7.30403 12.8126 3.99331 12.8126 0.663995 12.8126Z" fill="#B23632"/>
<path d="M6.82983 1.78307C7.21112 1.37388 7.57382 0.806598 8.3085 0.964694C8.89438 1.08559 9.29427 1.49478 9.45237 2.07137C9.66626 2.83395 9.06178 3.20594 8.65259 3.60583C8.0481 2.99204 7.44362 2.39686 6.82983 1.78307Z" fill="#B23632"/>
<path d="M6.42877 2.22017C7.02396 2.81535 7.60984 3.40124 8.23293 4.02432C7.98184 4.24752 7.71214 4.48931 7.47035 4.71251C6.88446 4.13592 6.28928 3.54074 5.69409 2.94555C5.92659 2.72236 6.17768 2.47126 6.42877 2.22017Z" fill="#B23632"/>
<path d="M1.56722 7.29787C2.08801 7.82795 2.5995 8.33014 3.12028 8.86023C2.46 9.04622 1.74392 9.24152 0.925537 9.47401C1.15803 8.69283 1.36263 7.97675 1.56722 7.29787Z" fill="#B23632"/>
</svg>
