<svg width="16" height="16" viewBox="0 0 16 16" fill="none" xmlns="http://www.w3.org/2000/svg">
<path d="M8.04599 0.505615C10.2275 0.505615 12.3976 0.505615 14.579 0.505615C15.3857 0.505615 15.5107 0.619233 15.4993 1.42592C15.4766 2.44848 15.522 3.4824 15.3743 4.48224C15.0789 6.44783 14.0223 7.98167 12.3635 9.09513C11.7158 9.52688 11.0228 9.87909 10.3865 10.3222C10.2047 10.4472 10.0457 10.7199 10.0457 10.9357C10.0116 11.9583 10.0116 12.9809 10.0343 14.0034C10.0457 14.4806 9.84115 14.7306 9.37532 14.8328C8.56863 15.0146 7.76194 15.2419 6.95526 15.435C6.23946 15.6054 6.00086 15.4236 5.9895 14.6965C5.97814 13.4694 5.97814 12.231 6.00087 11.0039C6.01223 10.629 5.87589 10.4131 5.55775 10.2427C4.93286 9.89046 4.30796 9.52688 3.71714 9.12922C1.66066 7.7658 0.592652 5.8343 0.513119 3.38015C0.490396 2.72116 0.501758 2.05082 0.513119 1.39184C0.513119 0.653319 0.649461 0.516977 1.42206 0.516977C3.61489 0.505615 5.83044 0.505615 8.04599 0.505615ZM1.61521 2.66436C5.90997 2.66436 10.1252 2.66436 14.3518 2.66436C14.3518 2.28942 14.3518 1.95992 14.3518 1.64179C10.0797 1.64179 5.85316 1.64179 1.61521 1.64179C1.61521 2.00537 1.61521 2.3235 1.61521 2.66436Z" fill="white"/>
</svg>
