<svg width="14" height="16" viewBox="0 0 14 16" fill="none" xmlns="http://www.w3.org/2000/svg">
<path d="M2.00004 15.5C1.54171 15.5 1.14948 15.3369 0.823374 15.0108C0.496707 14.6842 0.333374 14.2917 0.333374 13.8333V6.33332C0.333374 6.06943 0.392541 5.81943 0.510874 5.58332C0.628652 5.34721 0.791708 5.15277 1.00004 4.99999L6.00004 1.24999C6.15282 1.13888 6.31254 1.05555 6.47921 0.99999C6.64587 0.944434 6.81949 0.916656 7.00004 0.916656C7.1806 0.916656 7.35421 0.944434 7.52087 0.99999C7.68754 1.05555 7.84726 1.13888 8.00004 1.24999L13 4.99999C13.2084 5.15277 13.3717 5.34721 13.49 5.58332C13.6078 5.81943 13.6667 6.06943 13.6667 6.33332V13.8333C13.6667 14.2917 13.5037 14.6842 13.1775 15.0108C12.8509 15.3369 12.4584 15.5 12 15.5H8.66671V9.66666H5.33337V15.5H2.00004Z" fill="#B23632"/>
</svg>
