<svg width="16" height="16" viewBox="0 0 16 16" fill="none" xmlns="http://www.w3.org/2000/svg">
<g clip-path="url(#clip0_131_20472)">
<path d="M7.75177 10C8.85637 10 9.75182 9.10458 9.75182 7.99998C9.75182 6.89538 8.85637 5.99992 7.75177 5.99992C6.64716 5.99992 5.75171 6.89538 5.75171 7.99998C5.75171 9.10458 6.64716 10 7.75177 10Z" fill="#001253"/>
<path d="M15.2217 7.82999C14.6336 6.30878 13.6126 4.99322 12.285 4.04593C10.9574 3.09864 9.38125 2.56113 7.75146 2.49984C6.12168 2.56113 4.54557 3.09864 3.21794 4.04593C1.89031 4.99322 0.86935 6.30878 0.281253 7.82999C0.241535 7.93985 0.241535 8.06015 0.281253 8.17C0.86935 9.69122 1.89031 11.0068 3.21794 11.9541C4.54557 12.9014 6.12168 13.4389 7.75146 13.5002C9.38125 13.4389 10.9574 12.9014 12.285 11.9541C13.6126 11.0068 14.6336 9.69122 15.2217 8.17C15.2614 8.06015 15.2614 7.93985 15.2217 7.82999ZM7.75146 11.2501C7.10866 11.2501 6.48029 11.0595 5.94581 10.7024C5.41134 10.3452 4.99476 9.83763 4.74877 9.24376C4.50278 8.64988 4.43842 7.99639 4.56382 7.36594C4.68923 6.73548 4.99877 6.15637 5.4533 5.70184C5.90784 5.2473 6.48695 4.93776 7.1174 4.81236C7.74786 4.68695 8.40134 4.75131 8.99522 4.99731C9.5891 5.2433 10.0967 5.65987 10.4538 6.19435C10.8109 6.72882 11.0016 7.35719 11.0016 8C11.0002 8.86157 10.6574 9.68748 10.0482 10.2967C9.43894 10.9059 8.61304 11.2488 7.75146 11.2501Z" fill="#B23632"/>
</g>
<defs>
<clipPath id="clip0_131_20472">
<rect width="15" height="15" fill="white" transform="translate(0.251465 0.5)"/>
</clipPath>
</defs>
</svg>
