<svg width="1056" height="886" viewBox="0 0 1056 886" fill="none" xmlns="http://www.w3.org/2000/svg">
<g opacity="0.5">
<path d="M1014.57 427.665C1012.11 408.417 1008.42 389.305 1008.56 369.647C1008.56 350.535 1011.02 331.559 1010.2 312.447C1010.06 308.488 1009.24 304.803 1008.01 301.117C1002.01 284.598 992.724 269.582 983.168 255.248C968.288 233.269 954.773 210.471 940.576 188.083C926.105 165.149 908.222 145.491 883.513 134.023C856.756 121.601 834.504 103.308 812.253 84.7418C803.106 77.097 793.687 69.5887 784.677 61.6709C765.019 44.4701 741.538 36.9618 716.42 32.5933C715.737 31.6377 714.781 31.2282 713.689 31.3647C710.55 31.0917 707.273 31.0917 704.27 30.5456C676.148 25.4946 647.753 22.6278 619.495 19.0784C595.468 16.0751 571.442 12.9353 547.688 8.15732C520.112 2.56024 492.536 -0.579591 464.005 0.785551C439.569 2.01418 415.679 5.01749 392.335 12.3893C370.356 19.3515 348.378 26.9963 332.132 44.8796C330.221 46.9273 327.764 48.0194 325.17 48.975C305.376 56.2103 285.445 63.036 265.923 70.8173C242.306 80.2368 219.508 91.4309 195.755 100.304C173.093 108.768 151.388 118.87 132.685 134.296C123.948 141.532 115.621 149.449 110.979 160.098C105.382 172.52 102.789 185.489 103.608 199.141C104.7 217.434 102.379 235.317 98.5566 253.2C92.823 279.957 81.0828 304.12 65.3837 326.372C52.0053 345.484 44.0875 366.78 37.9444 388.895C32.3473 409.236 29.7535 430.123 27.9788 451.146C26.0676 472.852 28.3884 494.284 30.5726 515.58C32.4838 534.283 34.122 552.985 36.7157 571.551C39.5825 591.619 43.6779 611.004 55.2816 628.478C64.1551 641.856 73.9841 654.688 81.2193 669.022C91.5944 689.363 99.5122 710.523 103.744 733.047C107.157 751.204 109.068 770.043 120.399 785.742C122.993 789.428 125.04 793.523 127.225 797.482C124.085 801.578 121.354 805.673 122.31 812.362C125.859 808.403 125.586 803.079 130.091 801.441C131.457 802.806 133.095 804.171 134.323 805.809C153.162 829.972 175.551 850.177 202.58 864.784C206.539 866.968 210.362 870.79 215.822 869.152C218.007 873.247 220.327 877.206 222.511 881.302C172.82 894.68 138.965 862.599 129.272 824.239C128.18 820.143 125.177 822.191 123.948 820.417C122.856 825.468 118.351 820.417 116.44 823.01C118.488 825.195 119.034 828.061 119.989 830.928C129.136 857.548 144.562 878.845 171.865 889.493C179.373 892.359 187.291 893.042 194.936 894.953C194.936 894.68 194.799 894.271 194.799 893.998C194.799 892.769 194.936 891.95 195.345 891.131C194.936 891.813 194.799 892.769 194.799 893.998C194.799 894.271 194.799 894.544 194.936 894.953C194.936 896.045 194.936 897.137 194.936 898.23C179.646 898.093 164.629 900.277 149.749 903.008C138.692 905.055 127.225 906.147 116.85 911.198C114.529 912.291 112.072 913.383 111.799 916.249C111.525 919.253 113.983 920.618 116.303 921.573C119.58 923.075 122.993 924.44 126.542 925.396C139.784 928.536 153.026 930.856 166.541 932.768C192.751 936.453 219.235 937.819 245.582 940.276C267.152 942.324 288.994 943.552 310.7 944.371C335.409 945.327 360.118 945.873 384.827 947.102C406.123 948.194 427.556 947.921 448.852 948.194C525.436 949.149 602.021 949.422 678.605 946.965C691.574 946.556 704.406 946.419 717.375 945.736C748.773 944.098 780.172 942.187 811.707 940.412C820.034 939.866 828.498 939.593 836.825 938.638C855.937 936.59 875.049 934.542 894.161 932.222C909.451 930.31 924.467 927.034 939.211 922.256C941.805 921.437 944.262 919.526 944.262 916.386C944.262 913.656 941.941 911.881 939.62 910.925C935.388 909.151 931.156 907.649 926.788 906.557C900.714 900.414 873.957 899.049 847.61 895.363C848.565 890.039 847.2 887.718 841.057 888.128C832.457 888.674 823.856 888.264 814.027 888.264C816.758 884.578 818.532 882.257 820.307 879.937C825.085 878.708 829.999 877.752 834.777 876.251C851.842 871.063 867.95 863.691 881.465 851.678C904.946 830.792 913.956 802.397 898.939 768.951C902.898 763.354 905.901 756.937 910.816 752.569C928.836 736.733 947.675 721.717 965.968 706.154C974.295 699.055 982.213 691.274 983.987 679.807C984.67 675.575 985.353 671.343 986.581 667.248C991.632 649.91 998.731 632.573 998.731 614.417C998.867 589.981 1003.92 566.773 1011.7 543.975C1018.8 523.362 1024.81 502.612 1021.12 480.087C1018.25 462.749 1016.75 445.139 1014.57 427.665ZM214.457 447.46C214.184 447.05 213.775 446.777 213.365 446.641C213.775 446.914 214.184 447.187 214.457 447.46ZM206.13 458.244C205.174 456.47 204.082 454.832 203.126 453.057C201.761 452.511 199.85 452.238 199.031 451.282C199.85 452.238 201.761 452.647 203.126 453.057C204.082 454.832 205.174 456.606 206.13 458.244C206.403 459.337 206.676 460.429 206.949 461.521C206.676 460.565 206.403 459.337 206.13 458.244ZM203.126 447.05C202.99 447.323 202.99 447.596 202.853 447.869C202.853 447.596 202.99 447.323 203.126 447.05ZM184.014 471.896C184.424 472.442 184.834 472.852 185.38 473.398C184.97 472.852 184.561 472.442 184.014 471.896C183.605 471.35 183.332 470.94 182.922 470.394C183.332 470.94 183.741 471.486 184.014 471.896ZM206.266 467.118C206.266 466.981 206.13 466.845 206.13 466.572C206.13 466.708 206.13 466.981 206.266 467.118ZM222.375 448.552C222.511 448.552 222.648 448.689 222.785 448.825C222.648 448.689 222.648 448.689 222.375 448.552ZM223.331 449.098C223.877 449.508 224.423 449.917 224.969 450.463C224.559 449.917 224.013 449.508 223.331 449.098ZM184.834 337.156C184.561 338.249 184.288 339.204 184.014 340.296C184.288 339.341 184.561 338.249 184.834 337.156C185.38 336.201 186.062 335.382 186.472 334.426C186.062 335.382 185.516 336.337 184.834 337.156ZM293.499 413.058C293.226 413.331 293.089 413.468 292.816 413.741C293.089 413.604 293.226 413.331 293.499 413.058ZM756.145 399.27C755.599 399.27 754.917 399.134 754.371 399.27C754.917 399.134 755.599 399.134 756.145 399.27ZM795.871 299.888C795.188 299.342 794.642 298.796 793.96 298.25C793.96 297.84 793.823 297.567 793.277 297.567C793.687 297.567 793.96 297.84 793.96 298.25C794.642 298.796 795.325 299.342 795.871 299.888ZM787.817 287.875C787.271 287.602 786.861 287.056 786.588 286.646C786.861 287.192 787.271 287.602 787.817 287.875C788.499 288.284 788.909 288.694 789.045 289.376C788.772 288.83 788.499 288.284 787.817 287.875ZM792.185 296.066C792.048 295.929 791.775 295.929 791.639 295.793C791.912 295.929 792.048 295.929 792.185 296.066ZM790.547 293.472C790.001 292.789 789.591 292.107 789.045 291.288C789.455 291.97 790.001 292.653 790.547 293.472ZM791.639 295.793C791.229 295.11 790.82 294.427 790.274 293.745C790.683 294.427 791.229 295.11 791.639 295.793ZM801.195 228.901C801.604 229.31 802.151 229.856 802.56 230.266C802.151 229.856 801.604 229.447 801.195 228.901ZM825.494 281.049C823.856 280.913 822.218 280.64 820.58 280.367C822.218 280.776 823.856 280.913 825.494 281.049ZM817.44 238.593C817.986 238.593 818.532 238.593 819.078 238.73C818.669 238.593 817.986 238.593 817.44 238.593ZM804.608 233.952C804.198 233.815 803.925 233.542 803.516 233.269C803.789 233.542 804.198 233.679 804.608 233.952ZM808.157 270.128C808.021 269.309 808.021 268.49 808.021 267.671C808.021 268.353 808.021 269.309 808.157 270.128ZM809.932 275.316C809.249 274.087 808.84 272.858 808.567 271.63C808.84 272.995 809.249 274.087 809.932 275.316ZM808.157 266.442C808.294 265.623 808.567 264.94 808.84 264.121C808.567 264.94 808.43 265.623 808.157 266.442ZM722.563 521.314C693.758 521.451 664.954 521.314 636.013 521.314C664.954 521.314 693.758 521.314 722.563 521.314ZM497.041 412.649C497.041 412.785 497.041 413.058 497.041 413.195C497.041 413.058 497.041 412.922 497.041 412.649ZM497.861 416.198C498.134 416.744 498.543 417.427 498.816 417.973C498.543 417.427 498.134 416.881 497.861 416.198ZM742.494 415.925C742.494 415.789 742.357 415.652 742.221 415.516C742.357 415.652 742.357 415.789 742.494 415.925ZM635.603 516.4C635.194 516.536 634.784 516.673 634.511 516.673C634.921 516.536 635.33 516.536 635.603 516.4ZM399.161 380.568C399.843 381.66 400.526 382.889 401.345 383.981C400.662 382.889 399.98 381.66 399.161 380.568ZM624.136 509.164C626.32 507.936 627.549 505.205 630.279 505.205C627.549 505.205 626.184 507.936 624.136 509.164ZM619.358 542.747C561.613 542.747 504.004 542.747 446.258 542.747C504.004 542.747 561.749 542.747 619.358 542.747ZM450.49 756.664C450.627 764.173 450.49 771.681 450.49 779.189C450.49 771.681 450.49 764.173 450.49 756.664ZM518.884 758.985C521.204 758.985 523.662 758.985 525.982 759.395C523.662 758.849 521.341 758.985 518.884 758.985C511.239 759.122 509.464 758.439 509.055 761.579C509.464 758.303 511.239 758.985 518.884 758.985ZM441.753 643.494C447.35 642.539 452.947 641.993 458.544 642.675C452.947 641.993 447.35 642.402 441.753 643.494ZM438.613 645.951C439.023 644.996 439.569 644.177 440.388 643.631C439.706 644.177 439.023 644.996 438.613 645.951ZM385.782 563.77C385.782 564.179 385.782 564.589 385.782 564.999C385.919 564.589 385.919 564.179 385.782 563.77ZM375.68 592.847C375.953 592.438 376.09 591.892 376.363 591.482C376.09 591.892 375.953 592.301 375.68 592.847ZM380.322 439.269C380.458 439.542 380.595 439.815 380.595 440.225C380.458 439.815 380.458 439.542 380.322 439.269ZM380.458 440.634C381.004 441.044 381.55 441.453 381.96 441.863C381.55 441.59 381.004 441.18 380.458 440.634ZM383.325 443.774C383.462 443.91 383.598 443.911 383.598 444.047C383.598 443.911 383.462 443.774 383.325 443.774ZM592.874 469.712C594.649 466.026 596.424 462.476 598.198 458.791C596.424 462.476 594.649 466.162 592.874 469.712ZM612.396 513.123C610.621 513.396 608.847 513.533 607.072 513.806C608.847 513.669 610.621 513.396 612.396 513.123C609.12 508.755 605.98 504.386 602.703 499.881C605.98 504.386 609.256 508.755 612.396 513.123ZM654.715 440.771C653.896 441.453 653.077 442.409 652.395 443.501C653.077 442.409 653.76 441.453 654.715 440.771ZM661.541 438.04C663.589 436.266 665.5 434.355 667.548 432.58C665.5 434.491 663.452 436.266 661.541 438.04C661.814 439.679 662.36 440.771 663.043 441.59C662.36 440.907 661.814 439.679 661.541 438.04ZM668.503 443.228C667.957 443.228 667.411 443.364 666.865 443.364C667.411 443.228 667.957 443.228 668.503 443.228ZM673.827 426.983C673.691 427.119 673.691 427.256 673.554 427.256C673.691 427.119 673.827 427.119 673.827 426.983ZM683.793 415.379C683.929 415.243 684.066 415.106 684.202 414.969C684.475 414.56 684.748 414.15 685.021 413.877C684.748 414.287 684.475 414.696 684.202 414.969C683.929 414.969 683.793 415.106 683.793 415.379ZM685.294 413.468C685.704 412.922 686.114 412.512 686.523 411.966C686.114 412.512 685.704 413.058 685.294 413.468ZM688.571 409.236C689.526 407.188 690.346 405.141 691.301 403.093C690.346 405.141 689.526 407.325 688.571 409.236ZM701.676 413.741C702.222 413.468 702.632 413.195 703.178 412.922C702.632 413.195 702.086 413.468 701.676 413.741ZM694.987 335.382C695.806 335.928 696.079 336.747 696.216 337.566C696.079 336.883 695.806 336.064 694.987 335.382ZM693.349 330.604C694.441 331.423 694.85 332.378 694.987 333.471C694.85 332.378 694.577 331.286 693.349 330.604ZM693.485 330.331C693.622 330.194 693.622 330.058 693.622 330.058L693.485 330.331ZM692.393 327.191C693.212 327.6 693.485 328.146 693.622 328.829C693.485 328.146 693.076 327.464 692.393 327.191ZM692.393 326.645C692.393 325.143 692.12 323.915 690.755 322.959C692.257 323.915 692.393 325.143 692.393 326.645ZM686.933 313.403C688.025 313.949 688.161 314.905 688.298 315.86C688.161 314.768 688.025 313.949 686.933 313.403ZM659.766 363.913C659.766 363.913 659.903 363.913 660.039 363.913H659.766ZM660.039 358.999C660.312 356.541 660.449 354.63 660.585 352.992C660.585 354.63 660.312 356.541 660.039 358.999ZM659.766 363.913L659.22 364.05C659.22 364.05 659.493 364.05 659.766 363.913ZM376.09 434.764C375.817 434.218 375.544 433.808 375.134 433.399C375.544 433.672 375.817 434.218 376.09 434.764ZM368.309 426.983C369.128 427.256 369.81 427.665 370.356 428.348C369.81 427.802 369.128 427.256 368.309 426.983ZM365.578 424.116C365.578 423.979 365.442 423.979 365.442 423.843C365.578 423.979 365.578 424.116 365.578 424.116ZM365.442 423.024C365.305 422.341 364.896 421.795 364.213 421.522C364.896 421.932 365.305 422.478 365.442 423.024ZM365.851 424.389C366.261 424.799 366.534 425.208 366.943 425.754C366.67 425.208 366.261 424.799 365.851 424.389ZM367.08 426.846C366.943 426.437 366.943 426.027 366.943 425.618C366.943 426.027 367.08 426.437 367.08 426.846ZM429.74 461.93C428.648 461.657 427.419 461.384 426.191 461.248C427.419 461.521 428.511 461.657 429.74 461.93ZM412.266 542.747C417.181 542.747 422.095 542.747 427.01 542.747C432.607 541.109 438.34 540.972 443.937 542.201C438.34 540.972 432.607 541.245 427.01 542.747C422.095 542.747 417.181 542.747 412.266 542.747C411.447 542.337 410.491 541.928 409.672 541.655C411.72 535.375 414.587 529.368 417.727 523.498C414.587 529.368 411.72 535.238 409.672 541.655C410.491 542.064 411.311 542.337 412.266 542.747ZM389.059 557.49C389.605 556.398 390.014 555.306 390.56 554.214C390.014 555.443 389.605 556.535 389.059 557.49ZM728.706 543.02C729.661 543.293 730.617 543.566 731.573 543.839C730.754 543.566 729.798 543.293 728.706 543.02ZM637.105 542.747C633.146 542.747 629.051 542.747 625.092 542.747C629.187 542.747 633.146 542.747 637.105 542.747ZM637.105 451.828C635.603 452.238 634.102 452.784 633.01 454.286C633.965 454.286 634.921 454.422 635.74 454.422C634.784 454.422 633.829 454.286 633.01 454.286C634.238 452.92 635.603 452.238 637.105 451.828ZM729.388 413.195C728.842 413.604 728.433 414.014 727.887 414.56C728.296 414.15 728.842 413.604 729.388 413.195ZM727.068 415.516C726.931 415.789 726.658 415.925 726.522 416.198C726.658 415.925 726.931 415.652 727.068 415.516ZM736.487 412.376C736.76 412.239 736.897 411.966 737.17 411.83C737.033 411.966 736.76 412.103 736.487 412.376ZM683.929 306.714C683.52 305.758 682.974 304.666 682.564 303.71C682.974 304.666 683.383 305.622 683.929 306.714ZM681.063 299.888C681.063 300.025 681.199 300.161 681.199 300.161C681.199 300.025 681.063 299.888 681.063 299.888ZM661.677 355.859C661.677 356.814 661.814 357.907 661.814 358.862C661.814 357.907 661.677 356.951 661.677 355.859ZM637.105 379.749C633.01 376.199 628.778 372.787 624.819 369.101C628.778 372.787 632.873 376.199 637.105 379.749ZM550.965 385.073C551.238 385.346 551.511 385.619 551.784 385.892C551.374 385.755 551.238 385.346 550.965 385.073ZM549.599 380.704C549.326 380.158 549.19 379.749 548.917 379.203C549.19 379.749 549.463 380.295 549.599 380.704C549.736 382.07 549.872 383.298 550.555 384.527C550.009 383.435 549.872 382.07 549.599 380.704ZM540.316 417.154C540.18 417.29 540.043 417.427 540.043 417.7C540.18 417.427 540.18 417.29 540.316 417.154ZM537.996 418.519C538.542 418.519 539.224 418.655 539.907 418.655C540.043 418.519 540.043 418.246 540.043 418.109C540.043 418.382 539.907 418.519 539.907 418.655C539.088 418.519 538.542 418.519 537.996 418.519C537.45 418.519 536.904 418.382 536.494 418.246C536.904 418.382 537.313 418.382 537.996 418.519ZM375.271 352.856C375.271 353.402 375.271 353.948 374.998 354.357C374.998 354.63 375.134 354.903 375.134 355.313C375.134 355.04 374.998 354.767 374.998 354.357C374.042 352.992 374.179 351.49 374.042 349.989C374.042 351.49 373.906 353.129 374.998 354.357C375.271 353.948 375.407 353.538 375.271 352.856ZM372.404 304.12C372.814 303.437 373.223 302.618 373.769 301.936C373.36 302.618 372.95 303.437 372.404 304.12ZM366.807 319.137C366.807 318.317 366.807 317.498 366.943 316.679C366.807 317.362 366.67 318.181 366.807 319.137ZM370.902 307.533C370.902 307.669 370.902 307.806 370.902 308.079C370.902 307.942 370.902 307.806 370.902 307.533ZM366.943 427.119C367.626 427.938 368.172 428.621 368.855 429.44C368.172 428.621 367.49 427.802 366.943 427.119C366.397 426.846 365.988 426.437 365.715 426.027C365.988 426.437 366.397 426.71 366.943 427.119ZM732.938 850.313C737.443 847.719 740.583 844.579 742.63 840.894C743.449 839.255 744.132 837.617 744.678 835.843C745.088 834.614 745.361 833.385 745.497 832.157C745.224 833.385 744.951 834.614 744.678 835.843C744.132 837.617 743.449 839.392 742.63 840.894C740.446 844.579 737.443 847.719 732.938 850.313C730.89 853.862 728.296 856.32 725.293 857.685C728.296 856.183 730.89 853.862 732.938 850.313ZM651.439 479.814C651.439 479.677 651.439 479.677 651.439 479.814V479.814ZM739.354 415.106C738.945 414.696 738.398 414.15 737.989 413.741C738.398 414.15 738.808 414.696 739.354 415.106C740.31 415.516 741.265 416.062 742.084 416.471C742.084 416.471 742.084 416.471 742.084 416.335V416.471C741.129 416.062 740.173 415.516 739.354 415.106ZM765.292 405.55C765.428 405.414 765.701 405.14 765.838 405.004C765.565 405.14 765.428 405.277 765.292 405.55ZM764.473 403.639C764.746 403.912 765.019 404.185 765.155 404.458C764.882 404.048 764.746 403.775 764.473 403.639C764.336 403.775 764.063 404.048 763.927 404.185C764.063 403.912 764.336 403.775 764.473 403.639C762.152 401.318 759.695 399.953 757.101 399.407C759.695 399.816 762.152 401.318 764.473 403.639ZM685.158 178.527C685.704 180.029 685.977 181.53 686.25 182.895C686.387 183.851 686.387 184.807 686.387 185.899C686.387 187.4 686.25 188.902 686.114 190.267C686.25 188.766 686.387 187.264 686.387 185.899C686.387 184.943 686.387 183.988 686.25 182.895C686.114 181.394 685.704 179.892 685.158 178.527ZM670.005 174.841C670.141 174.432 670.141 174.022 670.141 173.749C670.141 174.159 670.141 174.568 670.005 174.841ZM667.138 175.933C667.548 175.933 667.957 175.933 668.23 175.797C668.503 175.66 668.64 175.66 668.776 175.524C668.64 175.66 668.367 175.797 668.23 175.797C667.957 175.797 667.548 175.933 667.138 175.933C667.957 175.524 668.64 174.978 669.459 174.568C668.776 174.978 667.957 175.387 667.138 175.933ZM656.49 182.076C655.261 183.441 654.033 184.943 652.395 185.353C654.169 184.807 655.398 183.441 656.49 182.076ZM643.385 363.231C642.975 365.278 642.566 367.463 642.156 369.51C642.566 367.326 643.112 365.278 643.385 363.231C643.658 361.865 643.794 360.5 644.067 358.999C643.931 360.364 643.658 361.729 643.385 363.231ZM503.321 419.338C503.185 419.474 502.912 419.747 502.639 419.884C502.912 419.611 503.048 419.474 503.321 419.338C503.458 419.201 503.731 418.928 503.867 418.792C503.594 418.928 503.458 419.201 503.321 419.338ZM517.246 229.174C517.792 229.037 518.065 228.628 518.338 228.082C518.201 228.628 517.928 229.174 517.246 229.174ZM504.959 417.563C504.823 417.7 504.55 417.973 504.413 418.109C504.55 417.836 504.823 417.7 504.959 417.563ZM394.11 369.92C397.659 367.872 400.935 365.551 404.621 364.05C400.935 365.688 397.523 368.009 394.11 369.92ZM374.452 299.888C374.179 297.567 373.769 295.247 373.496 292.926C373.769 295.247 374.042 297.567 374.452 299.888ZM410.765 500.837C410.765 501.383 410.765 501.929 410.765 502.475C410.901 501.929 410.901 501.383 410.765 500.837C402.983 500.7 395.338 500.564 387.557 500.564C395.338 500.427 403.12 500.7 410.765 500.837ZM242.989 523.908C239.439 527.321 236.982 531.143 235.48 535.375C236.982 531.143 239.303 527.321 242.989 523.908C247.63 518.857 253.091 515.853 259.097 514.488C252.954 515.853 247.494 518.72 242.989 523.908ZM252.272 884.305C251.862 884.169 251.316 884.169 250.906 884.032C251.452 884.169 251.862 884.305 252.272 884.305ZM788.226 885.534C787.271 885.943 786.451 886.216 785.496 886.626C786.451 886.216 787.407 885.943 788.226 885.534ZM652.531 505.069C652.804 504.796 652.941 504.523 653.077 504.113C652.941 504.386 652.804 504.796 652.531 505.069ZM767.203 411.42C767.203 411.557 767.066 411.693 767.066 411.83C767.066 411.693 767.066 411.557 767.203 411.42ZM784.813 373.196C784.54 373.196 784.267 373.196 783.858 373.196C784.131 373.196 784.404 373.196 784.813 373.196ZM840.238 309.308C842.695 308.898 844.606 310.127 846.654 311.082C844.606 310.127 842.695 309.034 840.238 309.308ZM852.524 313.403C852.524 313.403 852.524 313.13 852.388 312.993L852.524 313.403ZM870.271 309.854C874.913 311.901 877.233 315.724 878.599 319.956C877.233 315.587 874.913 311.765 870.271 309.854ZM832.32 164.329C832.184 164.603 832.047 164.876 831.774 165.149C832.047 165.012 832.184 164.739 832.32 164.329ZM834.914 134.842C835.46 140.849 835.87 146.719 836.416 152.726C835.733 154.91 835.187 157.094 834.504 159.142C835.187 156.958 835.733 154.774 836.416 152.726C835.87 146.719 835.46 140.849 834.914 134.842ZM798.465 184.124C799.011 183.715 799.557 183.305 800.103 182.759C799.557 183.168 799.011 183.578 798.465 184.124ZM787.68 252.518C788.09 252.108 788.363 251.835 788.909 251.562C788.363 251.835 787.953 252.108 787.68 252.518C787.27 252.927 786.997 253.337 786.861 253.883C786.451 254.702 786.315 255.657 786.315 256.75C785.905 257.159 785.632 257.569 785.223 257.842C785.632 257.432 785.905 257.023 786.315 256.75C786.315 255.521 786.451 254.565 786.861 253.883C786.997 253.337 787.27 252.791 787.68 252.518ZM663.316 177.981C662.497 178.663 661.677 179.619 660.722 180.029C661.677 179.619 662.497 178.527 663.316 177.981C663.998 177.298 664.681 176.616 665.363 175.933C664.681 176.479 663.998 177.162 663.316 177.981ZM648.299 187.537C648.163 188.083 648.026 188.629 647.89 189.039C648.026 188.493 648.163 187.946 648.299 187.537C648.982 186.854 649.664 186.172 650.483 185.489C649.801 186.172 648.982 186.854 648.299 187.537ZM644.34 191.632C644.204 191.632 644.067 191.632 643.931 191.769C643.931 191.769 644.067 191.632 644.34 191.632ZM642.975 193.544C642.156 194.909 641.064 195.864 639.835 196.683C641.064 195.864 642.156 194.772 642.975 193.544ZM635.603 198.868C635.194 199.277 634.784 199.823 634.511 200.233C634.921 199.823 635.194 199.414 635.603 198.868ZM505.232 417.29C505.096 417.427 505.096 417.427 504.959 417.563C505.096 417.427 505.232 417.29 505.232 417.29C511.921 416.062 518.474 414.697 525.163 413.468C518.474 414.697 511.921 415.925 505.232 417.29ZM364.213 209.789C363.804 206.785 363.804 203.782 364.213 200.779C364.077 200.506 363.804 200.233 363.667 199.823C363.804 200.096 364.077 200.369 364.213 200.779C363.667 203.782 363.804 206.785 364.213 209.789ZM358.753 409.372C358.48 408.417 358.207 407.461 358.07 406.506C358.343 407.461 358.616 408.417 358.753 409.372ZM361.619 418.792C360.118 417.154 358.48 415.379 356.978 413.741C358.48 415.379 360.118 417.017 361.619 418.792ZM828.498 726.904V726.768C828.634 669.022 828.634 611.413 828.771 553.668C828.771 611.413 828.634 669.159 828.634 726.768C828.498 726.768 828.498 726.904 828.498 726.904ZM828.498 728.269C828.498 728.542 828.498 728.679 828.634 728.952C828.634 728.679 828.634 728.406 828.498 728.269ZM839.419 741.102C841.194 741.102 843.105 741.238 844.879 741.511C842.968 741.238 841.194 741.102 839.419 741.102ZM850.34 223.304C854.982 223.85 859.623 224.942 863.855 226.853C859.623 224.805 855.118 223.85 850.34 223.304ZM630.143 203.1C630.552 202.69 630.962 202.28 631.371 201.871C630.962 202.144 630.552 202.553 630.143 203.1C629.733 203.509 629.46 204.055 629.051 204.465C629.46 203.919 629.733 203.509 630.143 203.1ZM600.11 235.18C602.294 231.904 604.478 228.764 607.208 225.761C604.478 228.628 602.294 231.904 600.11 235.18ZM587.687 236.819C590.69 236.272 593.83 237.911 596.833 237.365C593.83 237.911 590.827 236.136 587.687 236.819ZM571.578 234.361C571.851 234.361 572.124 234.361 572.397 234.361C572.124 234.498 571.851 234.498 571.578 234.361ZM577.039 234.907C577.721 235.044 578.54 235.044 579.223 235.18C578.54 235.044 577.721 234.907 577.039 234.907ZM557.244 220.573C557.108 220.573 556.971 220.573 556.698 220.573C556.835 220.573 556.971 220.573 557.244 220.573ZM550.282 222.485C550.282 222.485 550.145 222.485 550.145 222.621C550.145 222.485 550.145 222.485 550.282 222.485ZM543.866 225.488C543.456 225.761 543.183 225.897 542.774 226.17C543.183 225.897 543.593 225.624 543.866 225.488ZM514.515 222.075C514.788 221.938 515.061 221.665 515.334 221.529C515.061 221.665 514.788 221.802 514.515 222.075ZM512.877 222.348C512.468 222.621 512.058 222.894 511.648 223.44C511.922 222.894 512.331 222.621 512.877 222.348ZM508.782 225.078C508.372 225.351 507.963 225.761 507.69 226.307C507.963 225.761 508.236 225.351 508.782 225.078ZM501.137 231.768C500.318 232.041 499.499 232.587 498.953 233.133C499.635 232.45 500.318 232.041 501.137 231.768ZM494.584 235.999C494.721 235.999 494.994 235.863 495.13 235.863C494.994 235.999 494.857 235.999 494.584 235.999ZM471.786 240.095C470.831 240.231 469.739 240.504 468.783 240.777C468.1 241.05 467.418 241.187 466.735 241.597C467.418 241.323 468.1 241.05 468.783 240.777C469.739 240.368 470.831 240.231 471.786 240.095ZM464.278 242.416C464.142 242.416 464.142 242.416 464.278 242.416V242.416ZM454.039 245.282C455.814 244.054 457.589 243.508 459.637 243.644C457.589 243.508 455.678 244.054 454.039 245.282ZM360.8 340.569C360.8 340.296 360.937 340.16 360.937 339.887C360.8 340.16 360.8 340.433 360.8 340.569ZM359.162 352.173C359.162 352.309 359.026 352.446 359.026 352.583C359.026 352.446 359.026 352.309 359.162 352.173ZM357.66 413.058C358.07 413.058 358.343 413.058 358.753 413.195C358.343 413.195 358.07 413.058 357.66 413.058C355.34 410.874 352.883 409.645 350.562 409.918C352.883 409.645 355.203 410.874 357.66 413.058ZM341.825 418.382C342.234 416.608 342.917 414.969 344.282 413.741C342.917 414.833 342.234 416.608 341.825 418.382ZM310.836 415.789C311.519 415.652 312.065 415.516 312.747 415.379C312.201 415.652 311.519 415.789 310.836 415.789ZM212.819 847.719C212.819 850.45 212.273 853.18 213.502 855.774C212.409 853.18 212.819 850.45 212.819 847.719ZM887.335 829.426C897.164 814.41 898.803 797.482 891.567 778.916C898.803 797.482 897.301 814.41 887.335 829.426Z" fill="#95D6E7"/>
<path d="M21.2899 309.444C29.6173 314.358 40.2654 313.13 47.0911 306.577C53.5073 300.434 60.06 294.427 65.7936 287.738C78.6259 272.722 85.8611 255.111 88.1819 239.276C88.5914 225.624 85.7246 216.205 83.5404 206.785C81.7657 198.867 74.5305 197.093 67.4317 197.093C61.5616 197.093 56.6471 199.277 53.6438 205.284C45.999 221.665 36.9891 237.774 27.0235 253.2C20.4709 263.439 14.0547 273.95 11.3244 286.237C9.2767 295.793 12.9626 304.529 21.2899 309.444Z" fill="#F08B3C"/>
<path d="M826.724 78.4618C833.823 86.1066 842.56 92.9323 854.436 92.5228C864.538 92.5228 868.907 88.2908 866.04 81.0556C863.992 76.1411 861.808 71.0901 857.44 67.4042C852.662 63.5818 848.02 59.4864 843.788 55.1179C835.188 46.2445 825.359 38.3267 819.216 27.1325C815.257 20.0338 806.793 18.1226 801.059 21.6719C795.872 24.8118 793.551 31.9105 798.056 40.1013C805.701 54.4353 815.939 66.8581 826.724 78.4618Z" fill="#D4ACFF"/>
<path d="M42.5857 620.423C39.3094 612.778 34.2584 605.816 32.4837 597.489C31.9376 594.895 31.3916 592.165 30.436 589.571C28.1152 583.155 21.4261 579.878 13.6447 581.38C5.31739 583.018 1.08545 588.615 1.08545 598.717C0.402876 602.813 1.49499 607.591 2.72362 612.096C5.72693 623.017 8.04767 634.348 18.9688 640.9C25.658 644.859 35.214 644.313 40.538 639.399C45.316 635.03 45.8621 628.068 42.5857 620.423Z" fill="#B23632"/>
<path d="M969.652 720.488C953.134 730.726 938.254 742.603 925.968 757.62C922.555 761.715 918.596 765.674 918.46 772.773C918.187 774.684 919.688 776.322 922.009 777.687C925.149 779.598 927.743 777.96 930.063 776.186C941.804 767.585 952.452 757.756 962.008 746.835C967.195 740.965 972.792 735.231 976.205 727.86C977.434 725.129 977.707 722.672 975.25 720.488C973.338 718.986 971.7 719.259 969.652 720.488Z" fill="#95D6E7"/>
<path d="M1042.01 452.647C1046.37 452.511 1047.33 448.961 1047.88 445.412C1048.29 443.228 1047.88 440.907 1047.88 439.951C1048.7 421.522 1042.28 406.232 1036.14 390.943C1034.63 387.12 1033.13 383.434 1027.26 385.209C1021.39 387.12 1020.03 390.533 1021.26 396.13C1023.17 405.413 1024.67 414.833 1026.58 424.116C1028.22 432.034 1030.13 439.951 1033.13 447.596C1034.91 451.692 1038.32 452.784 1042.01 452.647Z" fill="#FFC4E8"/>
<path d="M176.232 84.3322C178.007 84.1956 179.918 84.3322 182.512 84.3322C188.518 85.0147 194.661 82.967 200.532 79.9637C208.449 75.7318 212.272 65.4932 208.586 58.531C205.583 52.7974 195.617 49.521 189.474 53.3434C182.375 57.7119 175.276 62.2169 169.406 68.36C166.813 71.0903 165.174 74.3666 167.359 78.189C169.27 81.7384 171.727 84.6052 176.232 84.3322Z" fill="#F08B3C"/>
<path d="M945.898 167.606C955.864 167.606 959.959 160.507 956.273 151.088C953.952 145.218 950.13 140.576 946.035 136.071C942.349 131.839 937.298 129.518 931.428 131.839C925.284 134.296 922.281 138.801 922.554 145.491C923.1 154.91 936.479 167.606 945.898 167.606Z" fill="#D4ACFF"/>
<path d="M50.7758 650.866C42.1754 650.729 35.6227 657.282 35.3497 666.155C35.0767 676.121 41.9024 683.629 51.0488 683.629C59.6492 683.629 66.3384 677.35 66.6114 668.886C66.8845 658.238 60.4683 650.866 50.7758 650.866Z" fill="#B23632"/>
<path d="M900.304 122.419C903.58 125.15 907.812 125.559 911.771 123.648C915.594 121.737 917.095 118.324 917.095 115.184C916.822 105.628 909.997 98.666 897.983 93.888C893.069 91.9768 888.7 92.7959 885.697 96.4818C882.557 100.441 883.649 105.355 886.789 109.041C891.021 113.819 895.526 118.324 900.304 122.419Z" fill="#D4ACFF"/>
<path d="M1053.88 498.926C1052.65 492.783 1048.42 490.872 1042.96 491.281C1037.23 491.691 1034.77 495.377 1034.63 500.974C1034.5 505.342 1035.45 509.574 1036.68 513.67C1038.87 520.905 1045.56 522.133 1051.15 517.355C1054.43 514.489 1055.25 511.076 1055.11 506.98C1055.25 504.114 1054.43 501.52 1053.88 498.926Z" fill="#FFC4E8"/>
<path d="M241.35 58.3946C248.721 58.1216 255.274 52.115 255.001 45.9718C254.865 40.6478 250.086 37.781 241.486 38.054C234.387 38.1905 230.155 42.4224 230.428 48.8386C230.702 54.5722 235.343 58.5311 241.35 58.3946Z" fill="#F08B3C"/>
<path d="M116.848 812.772C119.578 811.543 118.213 808.813 118.622 806.492C118.486 805.263 118.486 803.625 117.94 802.124C117.394 800.485 117.53 798.028 115.483 797.618C112.616 797.072 113.298 799.803 112.889 801.304C112.343 803.625 110.705 803.898 108.793 803.625C106.336 803.352 103.333 799.393 101.695 803.079C100.057 806.628 105.381 806.628 106.746 809.086C107.292 810.041 108.384 810.724 109.066 811.543C111.524 813.591 114.254 813.864 116.848 812.772Z" fill="#95D6E7"/>
</g>
</svg>
