<svg width="233" height="148" viewBox="0 0 233 148" fill="none" xmlns="http://www.w3.org/2000/svg">
<path d="M189.242 101.44L206.928 128.404L174.908 130.326L142.661 132.186L156.994 103.301L171.556 74.4772L189.242 101.44Z" fill="#F4D643"/>
<path d="M31.6108 66.1665L48.5957 81.2642L27.1287 88.5771L5.42578 95.6541L9.9079 73.2435L14.6259 51.0688L31.6108 66.1665Z" fill="#714B9A"/>
<path d="M127.376 73.3615L78.6211 83.3862L88.6458 132.141L137.401 122.116L127.376 73.3615Z" fill="#F86738"/>
<path d="M103.833 76.4725L60.584 56.4634L40.5749 99.7123L83.8239 119.721L103.833 76.4725Z" fill="#0992BA"/>
<path d="M62.1594 132.141C71.9307 132.141 79.852 124.22 79.852 114.448C79.852 104.677 71.9307 96.7559 62.1594 96.7559C52.388 96.7559 44.4668 104.677 44.4668 114.448C44.4668 124.22 52.388 132.141 62.1594 132.141Z" fill="#714B9A"/>
<path d="M20.2875 41.1482C31.492 41.1482 40.575 32.0652 40.575 20.8608C40.575 9.65628 31.492 0.573242 20.2875 0.573242C9.08302 0.573242 0 9.65628 0 20.8608C0 32.0652 9.08302 41.1482 20.2875 41.1482Z" fill="#F4D643"/>
<path d="M218.039 131.06C225.856 131.06 232.193 124.723 232.193 116.906C232.193 109.088 225.856 102.751 218.039 102.751C210.222 102.751 203.885 109.088 203.885 116.906C203.885 124.723 210.222 131.06 218.039 131.06Z" fill="#F86738"/>
<path d="M19.108 131.059C29.661 131.059 38.216 122.505 38.216 111.951C38.216 101.398 29.661 92.8435 19.108 92.8435C8.55494 92.8435 0 101.398 0 111.951C0 122.505 8.55494 131.059 19.108 131.059Z" fill="#2F9306"/>
<path d="M48.5967 73.7027C63.1886 73.7027 75.0176 61.8736 75.0176 47.2818C75.0176 32.6899 63.1886 20.8608 48.5967 20.8608C34.0048 20.8608 22.1758 32.6899 22.1758 47.2818C22.1758 61.8736 34.0048 73.7027 48.5967 73.7027Z" fill="#A2BF01"/>
</svg>
