<svg width="241" height="235" viewBox="0 0 241 235" fill="none" xmlns="http://www.w3.org/2000/svg">
<path d="M198.828 1.58154L165.208 34.1683C199.997 70.06 199.103 127.32 163.211 162.108C127.32 196.897 70.0596 196.003 35.2711 160.112L1.65104 192.698C54.4064 247.127 141.37 248.484 195.798 195.729C250.226 142.973 251.583 56.0097 198.828 1.58154Z" stroke="black" stroke-width="2" stroke-miterlimit="10"/>
<path d="M205.016 40.8746L205.73 58.1574L190.462 50.223L175.105 42.1976L189.659 32.8493L204.301 23.5918L205.016 40.8746Z" fill="#F4D643"/>
<path d="M38.8005 180.48L39.3263 192.659L28.495 187.121L17.6664 181.403L27.9719 174.763L38.2747 168.302L38.8005 180.48Z" fill="#714B9A"/>
<path d="M194.506 135.123C199.954 140.744 208.927 140.884 214.547 135.436C220.168 129.988 220.308 121.015 214.86 115.395C209.412 109.774 200.44 109.634 194.819 115.082C189.199 120.53 189.059 129.503 194.506 135.123Z" fill="#A2BF01"/>
<path d="M203.614 179.783L181.551 164.747L166.514 186.81L188.578 201.847L203.614 179.783Z" fill="#F86738"/>
<path d="M65.2384 212.459L56.7988 188.33L32.6698 196.77L41.1094 220.899L65.2384 212.459Z" fill="#0992BA"/>
<path d="M134.028 220C137.676 223.764 143.685 223.858 147.449 220.21C151.212 216.562 151.306 210.553 147.658 206.789C144.01 203.026 138.002 202.932 134.238 206.58C130.474 210.228 130.38 216.237 134.028 220Z" fill="#714B9A"/>
<path d="M65.0919 227.605C69.275 231.921 76.1648 232.028 80.4805 227.845C84.7963 223.662 84.9038 216.772 80.7207 212.457C76.5376 208.141 69.6479 208.033 65.3321 212.217C61.0163 216.4 60.9088 223.289 65.0919 227.605Z" fill="#F4D643"/>
<path d="M42.8024 187.881C45.7209 190.892 50.5276 190.967 53.5387 188.049C56.5497 185.131 56.6247 180.324 53.7062 177.313C50.7878 174.302 45.981 174.227 42.97 177.145C39.959 180.064 39.884 184.87 42.8024 187.881Z" fill="#F86738"/>
<path d="M13.6774 202.014C17.6173 206.079 24.1065 206.18 28.1713 202.24C32.2362 198.301 32.3374 191.811 28.3975 187.747C24.4576 183.682 17.9685 183.58 13.9036 187.52C9.83876 191.46 9.73748 197.949 13.6774 202.014Z" fill="#2F9306"/>
</svg>
