<svg width="159" height="92" viewBox="0 0 159 92" fill="none" xmlns="http://www.w3.org/2000/svg">
<g opacity="0.4">
<path d="M0.458984 0.940918L31.6612 43.792L52.3379 21.2016L0.458984 0.940918Z" fill="#466EB6"/>
<path d="M55.1253 9.34472L52.3379 21.2016L0.458984 0.940918L55.1253 9.34472Z" fill="#9BC1F9"/>
<path d="M52.3379 25.6947L0.458984 0.940918L48.6768 43.792L52.3379 25.6947Z" fill="#9BC1F9"/>
<path d="M83.8317 77.0328C83.4573 76.9912 74.3462 76.0759 62.7806 68.8786C51.1734 61.6397 46.8467 49.034 46.8467 47.0371C46.8467 46.2466 47.4707 45.6226 48.2612 45.6226C49.01 45.6226 49.634 46.2466 49.6757 46.9955C49.8005 48.3268 53.5032 59.7676 64.2783 66.5072C75.2199 73.3301 84.0397 74.2454 84.1229 74.2454C84.8718 74.3286 85.4542 74.9943 85.371 75.7847C85.2878 76.5336 84.5806 77.116 83.8317 77.0328Z" fill="#F7CC7F"/>
<path d="M140.536 89.6801C124.353 86.4351 108.918 80.4859 94.565 71.9573C82.7497 64.9264 73.2227 54.2344 61.1994 48.2852C60.4922 47.9524 60.2426 47.1203 60.5754 46.413C60.9082 45.7058 61.7403 45.4562 62.4475 45.789C74.9284 51.9462 84.3723 62.6382 96.0211 69.5859C110.083 77.9481 125.268 83.8141 141.119 86.9759C146.943 88.1408 153.849 88.5569 161.629 88.2656C162.419 88.224 163.043 88.8481 163.085 89.5969C163.127 90.3874 162.503 91.0114 161.754 91.053C154.806 91.3026 147.359 91.053 140.536 89.6801Z" fill="#F7CC7F"/>
</g>
</svg>
