<svg width="45" height="27" viewBox="0 0 45 27" fill="none" xmlns="http://www.w3.org/2000/svg">
<g clip-path="url(#clip0_143_57)">
<path fill-rule="evenodd" clip-rule="evenodd" d="M13.9985 4.51245H31.0938V21.6711H13.9985V4.51245Z" fill="#006ECE"/>
<path fill-rule="evenodd" clip-rule="evenodd" d="M15.5447 11.9327L15.2161 11.1334L14.889 11.9327H15.5447ZM31.0879 14.6757H30.2112C30.1239 14.6757 30.0653 14.6793 30.0178 14.712C29.9677 14.7445 29.9472 14.7938 29.9472 14.857C29.9472 14.9322 29.9899 14.9844 30.0531 15.0066C30.1024 15.0242 30.1571 15.0288 30.2381 15.0298L30.4975 15.0364C30.7595 15.0439 30.9353 15.0884 31.0432 15.1972C31.0608 15.213 31.0737 15.2316 31.0879 15.2485V14.6759V14.6757ZM31.0879 16.0002C30.9696 16.1722 30.7429 16.2577 30.4354 16.2577H29.5077V15.8264H30.4316C30.5227 15.8264 30.5869 15.8143 30.6259 15.7762C30.6584 15.7464 30.6835 15.7019 30.6835 15.6461C30.6836 15.5876 30.6584 15.5402 30.625 15.5132C30.5886 15.4816 30.5386 15.4687 30.4558 15.4676C30.005 15.4529 29.4426 15.4816 29.4426 14.8459C29.4426 14.5548 29.6276 14.2483 30.1303 14.2483H31.0879V13.8486H30.1983C29.9297 13.8486 29.7352 13.9127 29.5968 14.0131V13.8486H28.2826C28.0734 13.8486 27.8271 13.9017 27.709 14.0131L27.7099 13.8486H25.3619V14.0131C25.1751 13.8793 24.8609 13.8486 24.7142 13.8486H23.1673V14.0131C23.0186 13.8699 22.6913 13.8486 22.4905 13.8486H20.7575L20.3611 14.279L19.9902 13.8486H17.401V16.6529H19.9414L20.3498 16.217L20.7351 16.6529L22.2991 16.6538V15.9939H22.4542C22.6606 15.9968 22.9069 15.9893 23.1225 15.8964V16.653H24.4137V15.9215H24.476C24.5558 15.9215 24.5633 15.9261 24.5633 16.0042V16.653H28.4859C28.734 16.653 28.9943 16.5889 29.1384 16.4738V16.653H30.383C30.6423 16.653 30.8942 16.6168 31.0876 16.5239V16.0006L31.0879 16.0002ZM29.1711 15.1971C29.266 15.2948 29.3152 15.4173 29.3152 15.6229C29.3152 16.0561 29.0448 16.2577 28.5614 16.2577H27.6254V15.8264H28.5577C28.6497 15.8264 28.7128 15.8143 28.7537 15.7762C28.7862 15.7464 28.8105 15.7019 28.8105 15.6461C28.8105 15.5876 28.7854 15.5402 28.7509 15.5132C28.7146 15.4816 28.6645 15.4687 28.5808 15.4676C28.1319 15.4529 27.5695 15.4816 27.5695 14.8459C27.5695 14.5548 27.7525 14.2483 28.2555 14.2483H29.2184V14.6758H28.3382C28.25 14.6758 28.1932 14.6794 28.1449 14.7121C28.0929 14.7446 28.0734 14.7939 28.0734 14.8571C28.0734 14.9324 28.1179 14.9845 28.1784 15.0067C28.2286 15.0244 28.2826 15.0289 28.3644 15.03L28.6238 15.0365C28.885 15.0441 29.0625 15.0885 29.1712 15.1973L29.1711 15.1971ZM24.8387 15.0744C24.7754 15.1116 24.6955 15.1153 24.6026 15.1153H24.0187V14.6644H24.6104C24.6956 14.6644 24.782 14.6662 24.8387 14.6997C24.901 14.7331 24.9381 14.7945 24.9381 14.881C24.9381 14.9666 24.901 15.0361 24.8387 15.0744ZM25.1287 15.3235C25.2356 15.3625 25.323 15.433 25.3639 15.4926C25.4317 15.5912 25.4428 15.6823 25.4437 15.8599V16.2577H24.9623V16.0058C24.9623 15.8849 24.9735 15.7065 24.8841 15.6134C24.8145 15.54 24.7075 15.5233 24.5328 15.5233H24.0187V16.2575H23.5373V14.248H24.6449C24.889 14.248 25.0659 14.2582 25.2232 14.3437C25.3742 14.434 25.4689 14.5613 25.4689 14.79C25.4689 15.1097 25.2556 15.2731 25.1288 15.3235H25.1287ZM25.7356 14.248H27.3389V14.6644H26.2141V15.0288H27.3111V15.4388H26.2141V15.8386L27.3389 15.8403V16.2577H25.7356V14.2482V14.248ZM22.4971 15.1747H21.8753V14.6644H22.5018C22.6755 14.6644 22.7955 14.7342 22.7955 14.9107C22.7955 15.0846 22.6811 15.1747 22.4971 15.1747ZM21.397 16.0754L20.6608 15.2564L21.397 14.4645V16.0754ZM19.4937 15.8384H18.3133V15.4386H19.3674V15.0287H18.3133V14.6643H19.5166L20.0418 15.2489L19.4938 15.8383L19.4937 15.8384ZM23.3103 14.9107C23.3103 15.4674 22.8949 15.5838 22.4742 15.5838H21.8752V16.2577H20.9432L20.3517 15.5931L19.7371 16.2577H17.8358V14.2482H19.7669L20.3572 14.9062L20.9678 14.2482H22.5015C22.8826 14.2482 23.3101 14.3541 23.3101 14.9108L23.3103 14.9107ZM22.7838 11.6155C22.7182 11.6527 22.6404 11.6565 22.5464 11.6565H21.9626V11.2102H22.5539C22.6385 11.2102 22.7258 11.2131 22.783 11.2448C22.8448 11.2754 22.883 11.3376 22.883 11.4222C22.883 11.5106 22.8458 11.5803 22.784 11.6156L22.7838 11.6155ZM26.9449 11.9326L26.6121 11.1332L26.283 11.9326H26.9449ZM19.1889 12.7989H18.6971L18.6943 11.228L17.9986 12.7989H17.5776L16.8781 11.2243V12.7989H15.9016L15.718 12.3509H14.7177L14.5323 12.7989H14.0104L14.8687 10.7902H15.583L16.3992 12.6929V10.7902H17.1842L17.8116 12.1537L18.3893 10.7902H19.1886V12.7989H19.1889ZM21.1502 12.7989H19.5464V10.7902H21.1502V11.2102H20.0274V11.5709H21.1229V11.9836L20.0274 11.9817V12.3833H21.1502V12.7988V12.7989ZM23.4122 11.333C23.4122 11.6509 23.1984 11.8181 23.0743 11.8675C23.1793 11.9084 23.2685 11.9771 23.3103 12.0376C23.3781 12.1351 23.3913 12.2272 23.3913 12.4037V12.7988H22.907L22.9051 12.5458C22.9051 12.4271 22.9172 12.2521 22.8279 12.1565C22.7577 12.0849 22.6523 12.07 22.4789 12.07H21.9624V12.7988H21.4833V10.79H22.5881C22.832 10.79 23.0138 10.7984 23.169 10.8878C23.3214 10.977 23.4121 11.1079 23.4121 11.3329L23.4122 11.333ZM24.181 12.7989H23.691V10.7902H24.181V12.7989ZM29.8635 12.7989H29.1831L28.2732 11.293L28.2741 12.7989H27.2963L27.1095 12.3509H26.1103L25.9309 12.7989H25.3684C25.1342 12.7989 24.8387 12.7469 24.6727 12.5777C24.5021 12.4056 24.4158 12.1761 24.4158 11.81C24.4158 11.5116 24.4688 11.2401 24.6746 11.0253C24.8303 10.8645 25.0728 10.7902 25.4037 10.7902H25.8675V11.2205H25.414C25.2388 11.2205 25.1384 11.2474 25.0426 11.3405C24.9623 11.4251 24.9056 11.5849 24.9056 11.7959C24.9056 12.0116 24.9474 12.1648 25.0384 12.2673C25.1111 12.3462 25.2458 12.3704 25.3722 12.3704H25.5883L26.2646 10.7902H26.984L27.7964 12.6902V10.7902H28.529L29.373 12.1891V10.7902H29.8637V12.7989H29.8635ZM14.0045 13.1949H14.8252L15.0102 12.7469H15.4244L15.6083 13.1949H17.2229V12.8528L17.3675 13.1958H18.2045L18.3482 12.8491V13.1947H22.36L22.358 12.4622H22.4358C22.4905 12.4631 22.5063 12.4698 22.5063 12.559V13.1949H24.5801V13.0239C24.7475 13.1141 25.0088 13.1949 25.3498 13.1949H26.2235L26.4104 12.7469H26.8249L27.0081 13.1949H28.6895V12.77L28.9443 13.1949H30.2912V10.3923H28.9572V10.7242L28.7713 10.3923H27.4021V10.7242L27.2311 10.3923H25.3824C25.0728 10.3923 24.7995 10.4351 24.5801 10.5559V10.3923H23.3058V10.5559C23.1644 10.4314 22.9739 10.3923 22.7629 10.3923H18.1018L17.7876 11.1164L17.4684 10.3923H16V10.7242L15.8372 10.3923H14.5858L14.0044 11.7234V13.1949H14.0045Z" fill="white"/>
<path d="M4.86928 0.0917969H40.2228C41.3504 0.0917969 42.3751 0.552725 43.1175 1.29507C43.8599 2.03755 44.3209 3.06222 44.3209 4.18972V21.9939C44.3209 23.1212 43.8598 24.1459 43.1175 24.8884C42.375 25.6307 41.3503 26.0918 40.2229 26.0918H4.86941C3.74204 26.0918 2.71724 25.6309 1.97476 24.8884C1.23241 24.146 0.771484 23.1215 0.771484 21.9939V4.18972C0.771484 3.06209 1.23241 2.03742 1.97476 1.29507C2.7171 0.552725 3.74191 0.0917969 4.86954 0.0917969H4.86928ZM40.2228 1.50424H4.86928C4.13151 1.50424 3.46023 1.80669 2.97318 2.29375C2.48612 2.78081 2.18367 3.45208 2.18367 4.18985V21.994C2.18367 22.7316 2.48612 23.4029 2.97318 23.89C3.46036 24.3772 4.13164 24.6796 4.86928 24.6796H40.2228C40.9603 24.6796 41.6316 24.3772 42.1188 23.89C42.6058 23.4028 42.9084 22.7315 42.9084 21.9941V4.18998C42.9084 3.45247 42.606 2.78107 42.1189 2.29388C41.6319 1.80682 40.9605 1.50437 40.2228 1.50437V1.50424Z" fill="#808080"/>
</g>
<defs>
<clipPath id="clip0_143_57">
<rect width="43.5495" height="26" fill="white" transform="translate(0.771362 0.0917969)"/>
</clipPath>
</defs>
</svg>
