<svg width="23" height="23" viewBox="0 0 23 23" fill="none" xmlns="http://www.w3.org/2000/svg">
<path d="M7.20717 18.259C5.98402 18.259 5.0044 19.2497 5.0044 20.4728C5.0044 21.696 5.98402 22.6866 7.20717 22.6866C8.43031 22.6866 9.421 21.696 9.421 20.4728C9.421 19.2497 8.43031 18.259 7.20717 18.259ZM0.565674 0.54834V2.76217H2.7795L6.75886 11.1581L5.26453 13.8701C5.09296 14.1911 4.99333 14.5508 4.99333 14.9382C4.99333 16.1614 5.98402 17.1521 7.20717 17.1521H20.4901V14.9382H7.6776C7.52264 14.9382 7.40088 14.8165 7.40088 14.6615C7.40088 14.6117 7.41194 14.5674 7.43408 14.5287L8.42477 12.7244H16.6713C17.5015 12.7244 18.2265 12.265 18.6084 11.5843L22.5656 4.4004C22.6542 4.24544 22.704 4.0628 22.704 3.86909C22.704 3.25475 22.2059 2.76217 21.5971 2.76217H5.23132L4.17975 0.54834H0.565674ZM18.2763 18.259C17.0532 18.259 16.0736 19.2497 16.0736 20.4728C16.0736 21.696 17.0532 22.6866 18.2763 22.6866C19.4995 22.6866 20.4901 21.696 20.4901 20.4728C20.4901 19.2497 19.4995 18.259 18.2763 18.259Z" fill="#B23632"/>
</svg>
