<svg xmlns="http://www.w3.org/2000/svg" width="18" height="18" viewBox="0 0 18 18" fill="none">
<path d="M12.0284 9.74512C11.9459 9.74512 11.9459 9.66176 11.8634 9.66176C13.1009 8.74482 13.7609 7.32772 13.7609 5.74391C13.7609 5.57719 13.7609 5.41048 13.7609 5.24376V5.1604L14.0084 3.15979C14.1734 1.82606 13.2659 0.659037 12.0284 0.408962L11.2859 0.242244C9.63592 -0.00783143 7.98593 -0.00783143 6.33595 0.242244L5.67595 0.408962C4.35596 0.659037 3.44847 1.82606 3.61347 3.15979L3.86097 5.1604V5.24376C3.86097 5.41048 3.86097 5.57719 3.86097 5.74391C3.86097 7.24436 4.52096 8.74482 5.75845 9.66176C5.67595 9.66176 5.67595 9.74512 5.59345 9.74512C2.87098 10.9121 0.973491 13.4963 0.643494 16.4972C0.560994 16.914 0.890992 17.3308 1.38599 17.4141C1.88098 17.4975 15.8234 17.4141 16.2359 17.4141H16.3184C16.7309 17.3308 17.0609 16.914 17.0609 16.4972C16.6484 13.4963 14.7509 10.9121 12.0284 9.74512Z" fill="#B23632"/>
</svg>