<svg width="18" height="19" viewBox="0 0 18 19" fill="none" xmlns="http://www.w3.org/2000/svg">
<path d="M3.58971 2.64343C3.58971 3.12436 3.58698 3.5889 3.59244 4.05344C3.59244 4.18461 3.60064 4.31851 3.62523 4.44694C3.78372 5.23666 4.52699 5.78591 5.32764 5.71213C6.14468 5.63561 6.77318 4.96886 6.78411 4.15728C6.78957 3.7064 6.78411 3.25553 6.78684 2.80465C6.78684 2.75546 6.78684 2.70628 6.78684 2.65162C8.20232 2.65162 9.60414 2.65162 11.0196 2.65162C11.0224 2.70081 11.0251 2.74726 11.0251 2.79645C11.0251 3.23913 11.0224 3.67908 11.0251 4.12176C11.0306 4.96066 11.6509 5.63561 12.487 5.71213C13.2959 5.78591 14.0337 5.22573 14.1894 4.41415C14.2113 4.30211 14.214 4.18734 14.2168 4.0753C14.2195 3.65175 14.2168 3.2282 14.2168 2.80465C14.2168 2.75546 14.2168 2.70628 14.2168 2.64343C14.49 2.64343 14.7496 2.64069 15.0065 2.64343C15.2169 2.64616 15.4273 2.6325 15.635 2.65982C16.5094 2.77459 17.1188 3.4796 17.1188 4.35676C17.1188 7.5457 17.1188 10.7319 17.1188 13.9208C17.1188 14.8499 17.1188 15.779 17.1188 16.7081C17.1188 17.6863 16.381 18.4323 15.4 18.4323C11.0688 18.4351 6.73766 18.4351 2.40923 18.4323C1.43369 18.4323 0.69043 17.6863 0.69043 16.7163C0.69043 12.5955 0.69043 8.47478 0.69043 4.35403C0.69043 3.39216 1.43643 2.64889 2.39557 2.64343C2.78633 2.64069 3.17982 2.64343 3.58971 2.64343ZM1.778 7.19866C1.778 7.25877 1.778 7.29703 1.778 7.33802C1.778 10.4395 1.778 13.541 1.778 16.6425C1.778 17.1125 2.01574 17.342 2.48848 17.342C6.76498 17.342 11.0415 17.342 15.3153 17.342C15.7962 17.342 16.0285 17.1125 16.0285 16.6316C16.0285 13.5383 16.0285 10.4477 16.0285 7.35441C16.0285 7.30523 16.0285 7.25604 16.0285 7.19866C11.2738 7.19866 6.53544 7.19866 1.778 7.19866Z" fill="#B23632"/>
<path d="M4.13989 2.73074C4.13989 2.2744 4.13989 1.82079 4.13989 1.36445C4.13989 0.75508 4.59896 0.287807 5.19467 0.290539C5.77944 0.293272 6.23578 0.760545 6.23578 1.36172C6.23578 2.2826 6.23852 3.20075 6.23578 4.12163C6.23305 4.63809 5.85869 5.07804 5.37229 5.15182C4.8367 5.23107 4.35303 4.94688 4.19181 4.44408C4.15628 4.32931 4.14262 4.20361 4.13989 4.08064C4.13715 3.6325 4.13989 3.18162 4.13989 2.73074Z" fill="#B23632"/>
<path d="M11.5715 2.73074C11.5715 2.2744 11.5715 1.82079 11.5715 1.36445C11.5715 0.763278 12.0279 0.293272 12.6126 0.290539C13.2083 0.287807 13.6674 0.75508 13.6674 1.36172C13.6674 2.2826 13.6702 3.20075 13.6674 4.12163C13.6647 4.63809 13.2903 5.07804 12.8039 5.15182C12.2683 5.23107 11.7847 4.94688 11.6234 4.44408C11.5879 4.32931 11.5743 4.20361 11.5715 4.08064C11.5688 3.6325 11.5715 3.18162 11.5715 2.73074Z" fill="#B23632"/>
<path d="M4.24841 7.93371C4.44516 7.93371 4.63917 7.93098 4.83592 7.93371C5.10918 7.93644 5.28953 8.11406 5.28953 8.38732C5.29226 8.77808 5.29226 9.16884 5.28953 9.56233C5.2868 9.82193 5.11738 10.0077 4.86051 10.0132C4.45062 10.0214 4.04074 10.0214 3.63085 10.0159C3.39038 10.0132 3.21276 9.84379 3.20729 9.60332C3.19636 9.18524 3.19636 8.76715 3.20729 8.34633C3.21276 8.1004 3.39858 7.93917 3.64724 7.93644C3.84945 7.93371 4.04893 7.93371 4.24841 7.93371Z" fill="#B23632"/>
<path d="M12.5145 8.97481C12.5145 8.77806 12.5117 8.58405 12.5145 8.3873C12.5172 8.11404 12.6948 7.93642 12.9681 7.93369C13.3588 7.93096 13.7496 7.93096 14.1431 7.93369C14.4136 7.93642 14.594 8.10311 14.5967 8.37364C14.6022 8.77533 14.6049 9.17429 14.5967 9.57598C14.5912 9.8465 14.4109 10.0159 14.1431 10.0159C13.7523 10.0187 13.3616 10.0187 12.9681 10.0159C12.6893 10.0132 12.5145 9.83011 12.5145 9.54865C12.5145 9.45301 12.5117 9.35737 12.5117 9.26173C12.5145 9.16609 12.5145 9.07045 12.5145 8.97481Z" fill="#B23632"/>
<path d="M5.29246 12.2755C5.29246 12.4722 5.29519 12.6662 5.29246 12.863C5.28973 13.1144 5.12031 13.3002 4.86891 13.3056C4.45082 13.3138 4.03273 13.3111 3.61192 13.3056C3.39058 13.3029 3.21569 13.1308 3.21022 12.9012C3.19929 12.4777 3.19929 12.0541 3.21022 11.6333C3.21569 11.3956 3.40151 11.2316 3.64197 11.2261C4.0464 11.2207 4.45082 11.2207 4.85798 11.2261C5.11211 11.2289 5.28699 11.4174 5.28973 11.6743C5.29246 11.8738 5.29246 12.0732 5.29246 12.2755Z" fill="#B23632"/>
<path d="M12.5145 12.259C12.5145 12.0622 12.5117 11.8682 12.5145 11.6715C12.5172 11.4146 12.6948 11.2288 12.9489 11.2233C13.3534 11.2179 13.7578 11.2179 14.1649 11.2233C14.4054 11.2261 14.5885 11.3928 14.594 11.6305C14.6049 12.054 14.6049 12.4776 14.594 12.8984C14.5885 13.1389 14.4054 13.2974 14.1622 13.3001C13.7605 13.3056 13.3616 13.3083 12.9599 13.3028C12.6866 13.3001 12.5145 13.117 12.5117 12.841C12.5145 12.6497 12.5145 12.453 12.5145 12.259Z" fill="#B23632"/>
<path d="M5.29241 15.5573C5.29241 15.7541 5.29514 15.9481 5.29241 16.1448C5.28968 16.4154 5.11206 16.5984 4.8388 16.6012C4.44804 16.6039 4.05728 16.6039 3.66379 16.6012C3.39599 16.5984 3.21291 16.4263 3.20744 16.1585C3.19924 15.7595 3.19924 15.3578 3.20744 14.9562C3.21291 14.6856 3.39326 14.5189 3.66105 14.5162C4.05181 14.5135 4.44257 14.5135 4.83607 14.5162C5.12026 14.5189 5.28968 14.6966 5.29241 14.9835C5.29241 15.1748 5.29241 15.366 5.29241 15.5573Z" fill="#B23632"/>
<path d="M13.5602 14.5164C13.7569 14.5164 13.9509 14.5136 14.1477 14.5164C14.41 14.5218 14.5903 14.6858 14.5958 14.9481C14.604 15.3525 14.604 15.7569 14.5958 16.1641C14.5903 16.4237 14.4073 16.5986 14.1477 16.6013C13.7514 16.6041 13.3552 16.6041 12.959 16.6013C12.6885 16.5986 12.5108 16.4155 12.5108 16.1422C12.5081 15.7542 12.5081 15.3689 12.5108 14.9809C12.5108 14.6994 12.6857 14.5245 12.9699 14.5191C13.1694 14.5136 13.3661 14.5164 13.5602 14.5164Z" fill="#B23632"/>
<path d="M6.30883 8.97749C6.30883 8.77801 6.3061 8.5758 6.30883 8.37632C6.31156 8.11946 6.48918 7.93911 6.74878 7.93638C7.1532 7.93364 7.55763 7.93364 7.96478 7.93638C8.20252 7.93911 8.3856 8.10853 8.39107 8.34626C8.39926 8.76982 8.39653 9.19337 8.39107 9.61692C8.38833 9.83006 8.20798 10.0077 7.99484 10.0131C7.57129 10.0213 7.15047 10.0241 6.72692 10.0159C6.48918 10.0131 6.31156 9.8164 6.31156 9.57866C6.30883 9.37645 6.30883 9.17697 6.30883 8.97749Z" fill="#B23632"/>
<path d="M7.3601 13.306C7.16882 13.306 6.97754 13.3087 6.78626 13.306C6.48294 13.3032 6.31078 13.1311 6.31078 12.8332C6.31078 12.4507 6.30805 12.0681 6.31078 11.6855C6.31078 11.4041 6.49114 11.2237 6.77259 11.2237C7.16062 11.221 7.54592 11.221 7.93394 11.2237C8.2154 11.2265 8.39302 11.4013 8.39575 11.6855C8.39848 12.0736 8.39848 12.4589 8.39575 12.8469C8.39302 13.1338 8.21813 13.306 7.93394 13.3087C7.73993 13.3087 7.54865 13.306 7.3601 13.306Z" fill="#B23632"/>
<path d="M10.4571 11.2234C10.6539 11.2234 10.8479 11.2206 11.0446 11.2234C11.3152 11.2288 11.4955 11.4092 11.4955 11.6825C11.4982 12.0732 11.4982 12.464 11.4955 12.8575C11.4928 13.1253 11.3179 13.3056 11.0528 13.3083C10.6511 13.3111 10.2522 13.3111 9.85049 13.3083C9.59909 13.3056 9.41874 13.1307 9.41328 12.8793C9.40781 12.4749 9.40781 12.0705 9.41328 11.6633C9.41601 11.4065 9.59909 11.2288 9.85596 11.2261C10.0582 11.2207 10.2576 11.2234 10.4571 11.2234Z" fill="#B23632"/>
<path d="M10.4548 7.93383C10.6543 7.93383 10.8565 7.9311 11.056 7.93383C11.3156 7.93656 11.4959 8.11418 11.4986 8.37105C11.5014 8.77547 11.5014 9.17989 11.4986 9.58705C11.4959 9.81932 11.3156 10.0079 11.086 10.0133C10.6679 10.0188 10.2498 10.0215 9.83176 10.0133C9.60222 10.0106 9.42187 9.82205 9.41914 9.58978C9.41367 9.18536 9.41367 8.78093 9.41914 8.37378C9.42187 8.10598 9.60222 7.93656 9.87275 7.93383C10.064 7.93383 10.258 7.93383 10.4548 7.93383Z" fill="#B23632"/>
<path d="M7.34727 16.6015C7.15053 16.6015 6.95651 16.6042 6.75977 16.6015C6.4947 16.596 6.31162 16.4157 6.31162 16.1533C6.30889 15.7571 6.30889 15.3609 6.31162 14.9646C6.31435 14.7051 6.48377 14.522 6.74337 14.5192C7.15326 14.5138 7.56315 14.5138 7.97304 14.5192C8.21077 14.522 8.38839 14.6969 8.39385 14.9346C8.40205 15.3472 8.40205 15.7626 8.39385 16.1779C8.38839 16.4266 8.20257 16.596 7.94844 16.6015C7.74623 16.6042 7.54675 16.6015 7.34727 16.6015Z" fill="#B23632"/>
<path d="M10.4626 14.5164C10.6539 14.5164 10.8452 14.5136 11.0364 14.5164C11.3206 14.5218 11.4955 14.6967 11.4955 14.9782C11.4982 15.3662 11.4982 15.7515 11.4955 16.1395C11.4955 16.4182 11.3152 16.5986 11.0337 16.6013C10.6457 16.6041 10.2604 16.6041 9.87235 16.6013C9.59909 16.5986 9.41601 16.4237 9.41328 16.1504C9.40781 15.7542 9.40781 15.358 9.41328 14.9618C9.41601 14.694 9.59363 14.5218 9.86142 14.5164C10.0636 14.5136 10.2631 14.5164 10.4626 14.5164Z" fill="#B23632"/>
</svg>
