<svg width="25px" height="25px" viewBox="0 0 0.625 0.625" fill="none" xmlns="http://www.w3.org/2000/svg"><path fill-rule="evenodd" clip-rule="evenodd" d="M0.516 0.188H0.234A0.078 0.078 0 0 0 0.158 0.283l0.029 0.125A0.078 0.078 0 0 0 0.263 0.469H0.487a0.078 0.078 0 0 0 0.076 -0.061l0.029 -0.125A0.078 0.078 0 0 0 0.516 0.188ZM0.231 0.25A0.016 0.016 0 0 1 0.234 0.25h0.282a0.016 0.016 0 0 1 0.015 0.019l-0.029 0.125A0.016 0.016 0 0 1 0.487 0.406H0.263a0.016 0.016 0 0 1 -0.015 -0.012l-0.029 -0.125a0.016 0.016 0 0 1 0.012 -0.019Z" fill="#B23632"/><path d="M0.109 0.063H0.063a0.031 0.031 0 0 1 0 -0.063h0.072a0.031 0.031 0 0 1 0.03 0.024l0.085 0.375a0.031 0.031 0 1 1 -0.061 0.014L0.109 0.063Z" fill="#B23632"/><path d="M0.313 0.539a0.055 0.055 0 1 1 -0.109 0 0.055 0.055 0 0 1 0.109 0Z" fill="#B23632"/><path d="M0.531 0.539a0.055 0.055 0 1 1 -0.109 0 0.055 0.055 0 0 1 0.109 0Z" fill="#B23632"/></svg>