<svg width="32" height="32" viewBox="0 0 32 32" fill="none" xmlns="http://www.w3.org/2000/svg">
<path d="M10.1435 25.6485C8.41841 25.6485 7.03675 27.0458 7.03675 28.7709C7.03675 30.496 8.41841 31.8933 10.1435 31.8933C11.8686 31.8933 13.2659 30.496 13.2659 28.7709C13.2659 27.0458 11.8686 25.6485 10.1435 25.6485ZM0.776367 0.669434V3.79182H3.89875L9.51125 15.6335L7.40363 19.4584C7.16165 19.9111 7.02114 20.4185 7.02114 20.965C7.02114 22.6901 8.41841 24.0873 10.1435 24.0873H28.8779V20.965H10.807C10.5885 20.965 10.4167 20.7932 10.4167 20.5747C10.4167 20.5044 10.4324 20.442 10.4636 20.3873L11.8608 17.8426H23.4917C24.6626 17.8426 25.6852 17.1947 26.2238 16.2345L31.8051 6.10239C31.93 5.88382 32.0002 5.62622 32.0002 5.35301C32.0002 4.48655 31.2977 3.79182 30.439 3.79182H7.3568L5.87366 0.669434H0.776367ZM25.7555 25.6485C24.0303 25.6485 22.6487 27.0458 22.6487 28.7709C22.6487 30.496 24.0303 31.8933 25.7555 31.8933C27.4806 31.8933 28.8779 30.496 28.8779 28.7709C28.8779 27.0458 27.4806 25.6485 25.7555 25.6485Z" fill="#B23632"/>
</svg>
