<svg width="23" height="23" viewBox="0 0 23 23" fill="none" xmlns="http://www.w3.org/2000/svg">
<path d="M7.20424 17.7998C5.98109 17.7998 5.00147 18.7904 5.00147 20.0136C5.00147 21.2367 5.98109 22.2274 7.20424 22.2274C8.42738 22.2274 9.41807 21.2367 9.41807 20.0136C9.41807 18.7904 8.42738 17.7998 7.20424 17.7998ZM0.562744 0.0891113V2.30294H2.77657L6.75593 10.6989L5.2616 13.4108C5.09003 13.7318 4.99041 14.0916 4.99041 14.479C4.99041 15.7022 5.98109 16.6928 7.20424 16.6928H20.4872V14.479H7.67467C7.51971 14.479 7.39795 14.3572 7.39795 14.2023C7.39795 14.1525 7.40901 14.1082 7.43115 14.0695L8.42184 12.2652H16.6684C17.4985 12.2652 18.2236 11.8058 18.6055 11.1251L22.5627 3.94118C22.6512 3.78621 22.701 3.60357 22.701 3.40986C22.701 2.79552 22.2029 2.30294 21.5941 2.30294H5.22839L4.17682 0.0891113H0.562744ZM18.2734 17.7998C17.0502 17.7998 16.0706 18.7904 16.0706 20.0136C16.0706 21.2367 17.0502 22.2274 18.2734 22.2274C19.4965 22.2274 20.4872 21.2367 20.4872 20.0136C20.4872 18.7904 19.4965 17.7998 18.2734 17.7998Z" fill="#B23632"/>
</svg>
