<svg width="38" height="26" viewBox="0 0 38 26" fill="none" xmlns="http://www.w3.org/2000/svg">
<path d="M23.2877 12.9346C23.2877 10.7655 23.2425 8.73202 23.2877 6.69853C23.3781 3.33198 25.5245 1.00476 28.5522 0.914385C31.8057 0.824007 34.2007 3.17382 34.2685 6.56297C34.3137 8.61905 34.2685 10.6977 34.2685 12.8216C34.9238 12.9798 35.5338 13.1153 36.1439 13.2735C36.9798 13.4768 37.4543 14.0191 37.4543 14.8777C37.4769 17.589 37.5221 20.3003 37.4769 22.989C37.4543 24.2995 36.7087 24.9999 35.3982 25.0225C30.9698 25.0677 26.5187 25.0677 22.0902 25.0225C20.8475 25.0225 20.0793 24.2995 20.0567 23.0568C19.9889 20.3907 19.9889 17.7246 20.0567 15.0584C20.1019 13.7706 20.7571 13.2283 22.0676 13.0701C22.4291 13.0475 22.7906 12.9798 23.2877 12.9346ZM30.9246 12.912C30.9246 10.5396 30.9472 8.28014 30.902 6.0207C30.8794 4.91358 29.9304 4.12278 28.7781 4.12278C27.6032 4.10018 26.6542 4.93617 26.5865 6.08849C26.5413 6.8115 26.5413 7.51193 26.5413 8.23495C26.5413 9.79396 26.5413 11.353 26.5413 12.912C28.1229 12.912 29.4559 12.912 30.9246 12.912ZM29.84 19.0802C29.84 18.4928 29.9756 17.8375 29.7948 17.2953C29.6819 16.8886 29.1396 16.3237 28.8233 16.3463C28.4166 16.3915 27.7614 16.8886 27.7162 17.2501C27.5806 18.425 27.5806 19.6451 27.7162 20.82C27.7614 21.1815 28.394 21.7012 28.8007 21.7464C29.117 21.7689 29.6593 21.2267 29.7948 20.82C29.9756 20.3003 29.84 19.6677 29.84 19.0802Z" fill="white"/>
<path d="M0.105745 10.9236C6.36437 10.9236 12.5326 10.9236 18.9042 10.9236C17.6389 11.85 17.6841 13.0475 17.6841 14.2676C17.6841 16.6852 17.6841 19.0802 17.6841 21.4978C17.6841 21.9045 17.6841 22.3112 17.6841 22.7857C17.1871 22.8309 16.8255 22.876 16.464 22.876C11.9904 22.876 7.49409 22.8986 3.02041 22.876C0.715792 22.876 0.128339 22.3112 0.105745 20.0066C0.0831507 17.0015 0.105745 13.9965 0.105745 10.9236Z" fill="white"/>
<path d="M21.752 2.0215C21.3905 3.53532 21.0741 4.89098 20.7352 6.24664C13.9117 6.24664 7.15603 6.24664 0.242163 6.24664C0.242163 5.29768 0.106597 4.30353 0.287352 3.39975C0.535889 2.24744 1.55263 2.0215 2.59197 2.0215C5.98112 2.0215 9.37027 2.0215 12.7368 2.0215C15.6741 2.0215 18.6113 2.0215 21.752 2.0215Z" fill="white"/>
</svg>
