<svg width="41" height="41" viewBox="0 0 41 41" fill="none" xmlns="http://www.w3.org/2000/svg">
<circle cx="20.8479" cy="20.2029" r="19.9846" fill="#B23632"/>
<path d="M13.7606 25.3025L18.8602 20.2029L13.7606 15.1033C13.21 14.5527 13.21 13.6664 13.7606 13.1158C14.3111 12.5652 15.1975 12.5652 15.7481 13.1158L20.8477 18.2154L25.9472 13.1158C26.4978 12.5652 27.3842 12.5652 27.9347 13.1158C28.4853 13.6664 28.4853 14.5527 27.9347 15.1033L22.8352 20.2029L27.9347 25.3025C28.4853 25.853 28.4853 26.7394 27.9347 27.29C27.3842 27.8405 26.4978 27.8405 25.9472 27.29L20.8477 22.1904L15.7481 27.29C15.1975 27.8405 14.3111 27.8405 13.7606 27.29C13.2139 26.7394 13.2139 25.8491 13.7606 25.3025Z" fill="white"/>
</svg>
