<svg width="233" height="148" viewBox="0 0 233 148" fill="none" xmlns="http://www.w3.org/2000/svg">
<path d="M190.002 101.203L207.688 128.166L175.669 130.088L143.421 131.949L157.755 103.064L172.317 74.2397L190.002 101.203Z" fill="#F4D643"/>
<path d="M32.3715 65.9288L49.3564 81.0265L27.8894 88.3394L6.18652 95.4165L10.6686 73.0059L15.3867 50.8312L32.3715 65.9288Z" fill="#714B9A"/>
<path d="M128.137 73.1238L79.3818 83.1486L89.4066 131.903L138.161 121.879L128.137 73.1238Z" fill="#F86738"/>
<path d="M104.594 76.2349L61.3447 56.2258L41.3356 99.4748L84.5846 119.484L104.594 76.2349Z" fill="#0992BA"/>
<path d="M62.9206 131.903C72.692 131.903 80.6132 123.982 80.6132 114.211C80.6132 104.439 72.692 96.5181 62.9206 96.5181C53.1493 96.5181 45.228 104.439 45.228 114.211C45.228 123.982 53.1493 131.903 62.9206 131.903Z" fill="#714B9A"/>
<path d="M21.0482 40.9106C32.2527 40.9106 41.3357 31.8276 41.3357 20.6231C41.3357 9.41861 32.2527 0.335571 21.0482 0.335571C9.84377 0.335571 0.760742 9.41861 0.760742 20.6231C0.760742 31.8276 9.84377 40.9106 21.0482 40.9106Z" fill="#F4D643"/>
<path d="M218.8 130.822C226.618 130.822 232.954 124.485 232.954 116.668C232.954 108.851 226.618 102.514 218.8 102.514C210.983 102.514 204.646 108.851 204.646 116.668C204.646 124.485 210.983 130.822 218.8 130.822Z" fill="#F86738"/>
<path d="M19.8687 130.822C30.4218 130.822 38.9767 122.267 38.9767 111.714C38.9767 101.161 30.4218 92.6058 19.8687 92.6058C9.31568 92.6058 0.760742 101.161 0.760742 111.714C0.760742 122.267 9.31568 130.822 19.8687 130.822Z" fill="#2F9306"/>
<path d="M49.3565 73.4649C63.9483 73.4649 75.7774 61.6358 75.7774 47.044C75.7774 32.4521 63.9483 20.623 49.3565 20.623C34.7646 20.623 22.9355 32.4521 22.9355 47.044C22.9355 61.6358 34.7646 73.4649 49.3565 73.4649Z" fill="#A2BF01"/>
</svg>
