<svg width="258" height="513" viewBox="0 0 258 513" fill="none" xmlns="http://www.w3.org/2000/svg">
<path d="M0.640747 0.591797L0.640747 87.8752C93.8217 87.8752 169.31 163.364 169.31 256.544C169.31 349.725 93.8217 425.214 0.640747 425.214L0.640747 512.497C141.946 512.497 256.593 397.849 256.593 256.544C256.593 115.24 141.946 0.591797 0.640747 0.591797Z" stroke="black" stroke-miterlimit="10"/>
<path d="M61.2671 43.2899L85.329 64.7569L54.8977 74.9006L24.2306 85.0444L30.5999 53.4336L37.2052 21.8229L61.2671 43.2899Z" fill="#F4D643"/>
<path d="M32.4869 446.917L49.4718 462.014L28.0048 469.327L6.30188 476.404L10.784 453.994L15.502 431.819L32.4869 446.917Z" fill="#714B9A"/>
<path d="M173.792 179.641C188.384 179.641 200.213 167.812 200.213 153.22C200.213 138.628 188.384 126.799 173.792 126.799C159.2 126.799 147.371 138.628 147.371 153.22C147.371 167.812 159.2 179.641 173.792 179.641Z" fill="#A2BF01"/>
<path d="M245.393 225.392L196.638 235.417L206.663 284.171L255.417 274.147L245.393 225.392Z" fill="#F86738"/>
<path d="M109.595 453.018L66.3458 433.009L46.3367 476.258L89.5857 496.267L109.595 453.018Z" fill="#0992BA"/>
<path d="M208.942 370.721C218.713 370.721 226.634 362.799 226.634 353.028C226.634 343.257 218.713 335.335 208.942 335.335C199.17 335.335 191.249 343.257 191.249 353.028C191.249 362.799 199.17 370.721 208.942 370.721Z" fill="#714B9A"/>
<path d="M129.679 472.866C140.884 472.866 149.967 463.783 149.967 452.578C149.967 441.374 140.884 432.291 129.679 432.291C118.475 432.291 109.392 441.374 109.392 452.578C109.392 463.783 118.475 472.866 129.679 472.866Z" fill="#F4D643"/>
<path d="M47.5849 451.163C55.4019 451.163 61.7389 444.826 61.7389 437.009C61.7389 429.192 55.4019 422.855 47.5849 422.855C39.7678 422.855 33.4308 429.192 33.4308 437.009C33.4308 444.826 39.7678 451.163 47.5849 451.163Z" fill="#F86738"/>
<path d="M28.7136 508.487C39.2666 508.487 47.8216 499.932 47.8216 489.379C47.8216 478.826 39.2666 470.271 28.7136 470.271C18.1605 470.271 9.60559 478.826 9.60559 489.379C9.60559 499.932 18.1605 508.487 28.7136 508.487Z" fill="#2F9306"/>
</svg>
