<svg width="105" height="107" viewBox="0 0 105 107" fill="none" xmlns="http://www.w3.org/2000/svg">
<path d="M101.033 55.7966C101.033 49.5343 97.7996 44.0464 92.9265 40.8811C94.7482 38.1029 95.7957 34.7783 95.7957 31.2031C95.7957 21.3885 87.8484 13.4412 78.0338 13.4412C76.4853 13.4412 74.9824 13.6461 73.5477 14.0105C71.4983 6.47304 64.5985 0.916748 56.4007 0.916748C50.3661 0.916748 45.0376 3.92261 41.8268 8.54527C39.208 7.01956 36.1794 6.15424 32.9458 6.15424C23.1312 6.15424 15.1839 14.1016 15.1839 23.9162C15.1839 25.2825 15.3433 26.6032 15.6393 27.9012C8.37513 30.1328 3.11487 36.8733 3.11487 44.8661C3.11487 50.3541 5.59698 55.25 9.49094 58.5064C7.62367 61.3073 6.53062 64.6775 6.53062 68.321C6.53062 78.1356 14.4779 86.0829 24.2926 86.0829C25.4767 86.0829 26.638 85.9691 27.7538 85.7413C29.2112 94.0758 36.4754 100.429 45.2425 100.429C51.4137 100.429 56.8333 97.2866 60.0214 92.5273C62.7312 94.2124 65.942 95.1916 69.3805 95.1916C79.1951 95.1916 87.1424 87.2443 87.1424 77.4297C87.1424 75.9951 86.9603 74.5832 86.6415 73.2397C94.8393 71.6684 101.033 64.4498 101.033 55.7966Z" fill="#B23632"/>
<path d="M95.4523 43.0464L95.177 43.4664L95.5981 43.7399C100.633 47.0103 103.972 52.6788 103.972 59.1466C103.972 68.084 97.5745 75.5406 89.1077 77.1634L88.5947 77.2617L88.7153 77.7699C89.0454 79.1609 89.2334 80.6201 89.2334 82.1002C89.2334 92.2378 81.0248 100.446 70.8872 100.446C67.3348 100.446 64.0191 99.435 61.2208 97.6948L60.8103 97.4396L60.5413 97.8412C57.2472 102.759 51.6493 106.004 45.2758 106.004C36.2213 106.004 28.7174 99.4419 27.2121 90.8331L27.1235 90.3265L26.6196 90.4293C25.4701 90.6639 24.2715 90.7817 23.047 90.7817C12.9094 90.7817 4.7008 82.5731 4.7008 72.4355C4.7008 68.6713 5.82969 65.1914 7.75785 62.2991L8.00664 61.926L7.66258 61.6382C3.6396 58.274 1.07654 53.2175 1.07654 47.5489C1.07654 39.2937 6.50883 32.3315 14.0123 30.0264L14.4562 29.89L14.353 29.4372C14.0467 28.0943 13.8823 26.7303 13.8823 25.3201C13.8823 15.1825 22.0909 6.97395 32.2284 6.97395C35.5688 6.97395 38.6957 7.86754 41.3998 9.44296L41.7988 9.67539L42.0622 9.29617C45.3794 4.52034 50.8826 1.41675 57.115 1.41675C65.5818 1.41675 72.7094 7.15541 74.8263 14.9409L74.9553 15.4154L75.4319 15.2944C76.9166 14.9173 78.47 14.7057 80.0687 14.7057C90.2062 14.7057 98.4148 22.9143 98.4148 33.0519C98.4148 36.7462 97.3328 40.1788 95.4523 43.0464Z" stroke="#B23632"/>
<path d="M70.8567 40.8094C70.846 41.0023 70.8353 41.1416 70.8353 41.2809C70.8353 49.8747 70.8353 58.4578 70.8353 67.0517C70.8353 68.6911 70.846 70.3413 70.8353 71.9808C70.8246 73.4167 70.0745 74.1453 68.6386 74.1453C56.5301 74.1453 44.4216 74.1453 32.3131 74.1453C30.8772 74.1453 30.1164 73.3631 30.1164 71.9165C30.1164 57.8256 30.1164 43.7347 30.1164 29.6439C30.1164 29.0224 30.1164 28.4009 30.1164 27.7258C29.9449 27.6936 29.7949 27.6615 29.6449 27.6294C28.4448 27.4043 27.5768 26.3006 27.6304 25.0791C27.6947 23.8575 28.5948 22.9253 29.8485 22.8074C34.6812 22.3788 39.5246 21.9501 44.3573 21.5215C48.9435 21.1143 53.5297 20.6964 58.116 20.2785C61.7592 19.9571 65.4025 19.6249 69.0458 19.3034C70.6424 19.1641 71.5103 19.9035 71.8854 21.543C72.9248 26.0435 73.9856 30.5333 75.1108 35.0123C75.4215 36.2553 75.9144 37.4447 76.3752 38.6449C76.8252 39.8022 76.193 40.7987 74.9393 40.8201C73.782 40.8308 72.614 40.8201 71.4568 40.8201C71.2746 40.8094 71.0817 40.8094 70.8567 40.8094ZM69.1208 32.3763C68.9922 32.3763 68.9601 32.3656 68.9279 32.3763C68.7243 32.4192 68.51 32.4728 68.3064 32.5263C65.4561 33.2443 62.5522 33.78 59.6161 33.48C56.2086 33.1371 52.8332 32.5906 49.4471 32.0977C46.8004 31.712 44.143 31.2833 41.4534 31.5084C39.2031 31.6905 36.9529 32.0441 34.7133 32.3227C33.9097 32.4192 33.0953 32.5263 32.2702 32.6228C32.2702 32.8585 32.2702 33.0407 32.2702 33.2121C32.2702 37.359 32.2702 41.4952 32.2702 45.6421C32.2702 52.4679 32.2809 59.2829 32.2595 66.1087C32.2595 66.8695 32.5488 67.3303 33.256 67.6303C35.3884 68.5411 37.4994 69.5055 39.621 70.427C39.8139 70.5128 40.0282 70.5556 40.2318 70.5556C48.2792 70.5663 56.3372 70.5556 64.3845 70.5663C65.006 70.5663 65.4347 70.3413 65.7668 69.8377C66.7098 68.3911 67.6742 66.9445 68.6172 65.4979C68.9493 64.9836 69.1315 64.4371 69.1208 63.7941C69.1101 54.8896 69.1101 45.9743 69.1101 37.0697C69.1208 35.4945 69.1208 33.9515 69.1208 32.3763ZM69.3458 20.6C69.2065 20.6 69.1208 20.5893 69.0351 20.6C64.9846 20.9643 60.9342 21.3179 56.873 21.6823C52.3296 22.1002 47.7755 22.5074 43.2214 22.9145C38.7959 23.311 34.3704 23.6968 29.9449 24.0932C29.2806 24.1575 28.8841 24.6397 28.927 25.2934C28.9698 25.9256 29.4092 26.3221 30.0628 26.3221C31.4237 26.3221 32.7738 26.3221 34.1347 26.3221C45.4931 26.3221 56.8516 26.3221 68.1993 26.3221C68.6386 26.3221 69.0779 26.3221 69.6244 26.3221C68.66 24.404 68.3707 22.5395 69.3458 20.6ZM70.4174 21.5001C69.9137 22.3788 69.8602 23.7075 70.3424 24.8112C70.6102 25.4327 70.9746 26.0006 71.3175 26.59C71.5425 26.965 71.6175 27.3508 71.1996 27.5543C70.8353 27.7258 70.8353 27.9615 70.8353 28.2723C70.8353 31.787 70.8353 35.3124 70.8353 38.827C70.8353 39.0199 70.8353 39.2021 70.8353 39.4164C72.3033 39.4164 73.707 39.4164 75.1536 39.4164C72.9677 33.6086 71.7782 27.5758 70.4174 21.5001Z" fill="white"/>
<path d="M39.964 45.7278C40.2318 45.0527 40.4676 44.4527 40.7033 43.8419C41.0462 42.9525 41.0569 42.9418 42.0213 42.9525C43.7251 42.9739 44.8609 44.2384 44.6788 45.9207C44.5931 46.6601 44.4645 47.3994 44.3573 48.1388C44.2823 48.6424 43.993 48.8674 43.4786 48.8674C41.0891 48.8567 38.6995 48.8567 36.31 48.8674C35.7956 48.8674 35.4956 48.6531 35.4206 48.1495C35.292 47.3244 35.1313 46.4993 35.0563 45.6635C34.9384 44.3562 36.085 43.0918 37.4351 42.9739C37.5637 42.9632 37.6816 42.9632 37.8101 42.9632C38.721 42.9418 38.721 42.9418 39.0531 43.7883C39.2782 44.3669 39.5032 44.9456 39.7389 45.5242C39.7604 45.5671 39.8139 45.5885 39.964 45.7278Z" fill="white"/>
<path d="M63.9772 63.719C63.9665 66.0014 62.1234 67.8338 59.8517 67.8231C57.5801 67.8123 55.737 65.9478 55.7584 63.6762C55.7799 61.3938 57.6122 59.5721 59.8946 59.5828C62.1663 59.5828 63.9772 61.4152 63.9772 63.719ZM56.9693 63.6547C56.9586 65.3263 58.1801 66.5693 59.8517 66.6015C61.4055 66.6229 62.7664 65.2835 62.7771 63.719C62.7878 62.0903 61.5019 60.7937 59.8732 60.7723C58.2766 60.7615 56.98 62.0367 56.9693 63.6547Z" fill="white"/>
<path d="M54.0868 53.6679C50.5186 53.6679 46.9503 53.6679 43.3821 53.6679C43.2749 53.6679 43.1678 53.6679 43.0606 53.6679C42.7391 53.6572 42.482 53.5286 42.4713 53.175C42.4605 52.8107 42.6856 52.6178 43.0499 52.6178C43.4464 52.6178 43.8321 52.6178 44.2286 52.6178C51.1508 52.6178 58.073 52.6178 64.9952 52.6178C65.6917 52.6178 66.0025 52.9071 65.7132 53.3357C65.5953 53.5179 65.2417 53.6572 65.0059 53.6572C63.3986 53.6893 61.7913 53.6679 60.184 53.6679C58.148 53.6786 56.1228 53.6786 54.0868 53.6679C54.0868 53.6786 54.0868 53.6786 54.0868 53.6679Z" fill="white"/>
<path d="M54.0441 57.9541C50.4759 57.9541 46.9076 57.9541 43.3286 57.9541C43.2 57.9541 43.0393 57.997 42.9643 57.9327C42.7821 57.7826 42.4928 57.5791 42.5035 57.4076C42.5142 57.2362 42.8036 56.9361 42.9857 56.9254C43.6608 56.8611 44.3359 56.8933 45.0217 56.8933C51.6974 56.8933 58.3732 56.8933 65.0489 56.8933C65.4025 56.8933 65.7776 56.904 65.7669 57.3862C65.7561 57.8577 65.4025 57.9434 65.0168 57.9434C61.3735 57.9648 57.7088 57.9648 54.0441 57.9541C54.0441 57.9648 54.0441 57.9648 54.0441 57.9541Z" fill="white"/>
<path d="M37.9603 35.8052C37.9603 35.8052 37.8638 35.7838 37.5959 35.7409C38.121 35.4945 38.5282 35.3016 38.9889 35.0873C38.7746 35.0551 38.6246 35.023 38.4425 35.0015C39.8783 34.5729 40.7356 34.38 41.7214 35.6338C41.8285 35.7731 41.9571 35.9016 42.0857 36.0195C42.7179 36.5982 43.0394 37.3161 42.9537 38.1626C42.8358 39.3735 42.6322 40.5629 41.8928 41.5916C40.6927 43.2632 38.9675 43.2846 37.7459 41.6237C36.6423 40.145 36.6423 38.5055 37.1566 36.8339C37.2745 36.4481 37.6924 36.1374 37.9603 35.8052ZM37.6602 37.959C37.6281 37.9483 37.5959 37.9376 37.5638 37.9269C37.3923 38.3448 37.0709 38.7841 37.0923 39.1913C37.178 40.4129 37.6817 41.4951 38.8068 42.1059C39.1604 42.2988 39.739 42.3309 40.1141 42.1809C41.5714 41.6344 42.4393 39.2449 41.7428 37.8519C41.6678 37.7126 41.5178 37.5304 41.3785 37.5197C40.4034 37.4125 39.439 37.4447 38.6889 38.2162C38.6568 38.2483 38.6032 38.2483 38.5496 38.2805C38.5389 38.1198 38.5282 37.9805 38.5067 37.734C38.196 37.9805 37.9388 38.1733 37.6709 38.3876C37.6817 38.2483 37.6709 38.109 37.6602 37.959Z" fill="white"/>
<path d="M58.9302 43.3811C56.8943 43.3811 54.8584 43.3811 52.8331 43.3811C52.4474 43.3811 52.0723 43.3383 52.083 42.8454C52.0938 42.3953 52.4367 42.331 52.8117 42.331C56.8943 42.331 60.9769 42.331 65.0702 42.331C65.4131 42.331 65.7989 42.3417 65.7882 42.8347C65.7774 43.3168 65.4346 43.3811 65.0381 43.3811C62.9914 43.3811 60.9662 43.3811 58.9302 43.3811Z" fill="white"/>
<path d="M58.9197 38.752C60.9771 38.752 63.0238 38.752 65.0812 38.752C65.3919 38.752 65.7777 38.6984 65.7884 39.1806C65.7991 39.6521 65.4991 39.7699 65.0812 39.7699C60.9771 39.7699 56.8731 39.7699 52.7691 39.7699C52.394 39.7699 52.0618 39.6949 52.0833 39.2342C52.094 38.8055 52.4154 38.752 52.7691 38.752C54.8157 38.752 56.8731 38.752 58.9197 38.752Z" fill="white"/>
<path d="M37.8314 53.6679C37.3385 53.6679 36.8349 53.6679 36.3419 53.6679C35.9991 53.6679 35.7204 53.55 35.7097 53.175C35.699 52.7785 35.9562 52.6178 36.3312 52.6178C37.3814 52.6178 38.4315 52.6178 39.4709 52.6285C39.7709 52.6285 40.0602 52.6714 40.0709 53.0678C40.0817 53.4536 39.8673 53.6679 39.4816 53.6679C38.9351 53.6786 38.3779 53.6786 37.8314 53.6679Z" fill="white"/>
<path d="M37.8423 57.9541C37.3387 57.9541 36.8458 57.9541 36.3421 57.9541C35.9778 57.9541 35.6885 57.8256 35.6992 57.4184C35.7099 57.054 35.9671 56.904 36.3207 56.904C37.3494 56.904 38.3888 56.904 39.4175 56.9147C39.7282 56.9147 40.0497 56.9683 40.0604 57.3862C40.0604 57.8256 39.7818 57.9649 39.3853 57.9649C38.871 57.9649 38.3566 57.9649 37.8423 57.9541C37.8423 57.9649 37.8423 57.9649 37.8423 57.9541Z" fill="white"/>
<path d="M59.2519 68.391C59.1233 68.766 58.9947 69.1304 58.834 69.6018C58.3625 68.9268 57.8482 68.5089 57.0338 69.0768C57.0231 69.0232 57.0124 68.9696 57.0016 68.9268C57.1517 68.5196 57.291 68.1231 57.441 67.7159C58.0411 67.9409 58.6197 68.1552 59.2519 68.391Z" fill="white"/>
<path d="M62.7773 68.9482C61.9844 68.466 61.4486 68.8089 60.9985 69.5376C60.8378 69.0768 60.7092 68.7232 60.5806 68.3589C61.1914 68.1553 61.7379 67.9624 62.3594 67.7588C62.5094 68.091 62.6701 68.4446 62.8309 68.8089C62.8094 68.8625 62.788 68.9054 62.7773 68.9482Z" fill="white"/>
<path d="M61.7807 63.3011C60.8592 63.7726 60.9556 64.5548 61.1378 65.3799C60.3234 64.8441 59.5948 64.7906 58.7911 65.3692C59.0268 64.4584 58.9518 63.7297 58.1375 63.194C59.0054 63.0761 59.6483 62.7761 59.7984 61.8438C59.8519 61.8545 59.9055 61.8652 59.9591 61.8867C60.1412 62.2081 60.2591 62.626 60.5377 62.8296C60.827 63.0439 61.2557 63.0547 61.6307 63.1511C61.6736 63.2047 61.7271 63.2583 61.7807 63.3011Z" fill="white"/>
</svg>
