<svg width="107" height="70" viewBox="0 0 107 70" fill="none" xmlns="http://www.w3.org/2000/svg">
<path d="M106.512 3.24037C101.356 1.59069 95.995 0.765847 90.6335 1.17827C85.4783 1.7969 80.1168 3.859 76.8175 7.77699C75.1678 9.63288 73.7243 11.9012 72.8995 14.3757C72.0746 16.644 71.8684 19.3248 72.0746 21.7993C72.2808 24.2738 73.1057 26.7483 74.7554 28.398C76.1988 30.0477 78.6734 30.6663 80.5292 29.8415C82.3851 29.0166 83.0038 27.1607 82.5913 24.6862C82.1789 22.4179 81.1479 19.9434 79.7044 18.0875C78.2609 16.2316 76.1988 14.5819 74.1367 13.3447C71.8684 12.1074 69.6001 11.2826 67.1256 10.6639C57.2275 8.39562 46.2984 12.726 40.3183 20.7682C37.2251 24.6862 35.9879 29.6353 36.8127 34.5843C37.2251 37.0588 37.8437 39.5334 39.081 41.183C40.3183 42.8327 42.3804 43.4514 44.6487 43.2451C46.7108 43.0389 48.3605 41.8017 48.9791 39.9458C49.5977 38.0899 48.7729 35.6154 47.5356 33.7595C44.8549 29.8415 39.6996 27.7794 34.7506 27.367C29.5953 27.1607 24.4401 28.1918 19.2848 29.8415C16.8103 30.6663 14.542 31.9036 12.2737 33.1408C10.2116 34.5843 8.14948 36.4402 6.70601 38.5023C3.40665 42.6265 1.75696 47.7818 1.13833 53.1432C0.519703 58.5047 0.725913 63.8662 1.75696 69.2276C0.519703 63.8662 -0.305138 58.5047 0.107283 52.937C0.519703 47.5756 1.96317 41.8017 5.26254 37.265C6.70601 34.7905 8.97432 32.9346 11.0364 31.0787C13.3047 29.4291 15.7793 27.9856 18.46 27.1607C21.1407 26.1297 23.6152 25.5111 26.5022 24.8924C29.1829 24.2738 32.0699 23.8614 34.9568 24.0676C40.7307 24.2738 46.7108 26.5421 50.4226 31.4912C52.2785 33.9657 53.5157 37.265 52.6909 40.5644C52.2785 42.2141 51.2474 43.8638 50.0101 44.8948C48.5667 45.9259 46.917 46.5445 45.2673 46.9569C41.9679 47.3693 38.4624 46.1321 36.1941 43.4514C34.132 40.7706 33.5133 37.6775 33.1009 34.9967C32.6885 32.1098 32.6885 29.0166 33.3071 26.1297C33.9257 23.2428 35.3692 20.3558 37.2251 18.0875C40.7307 13.5509 45.6797 10.0453 51.0412 7.9832C56.4027 5.9211 62.589 5.50868 68.1566 6.74594C71.0436 7.36457 73.7243 8.39562 76.1988 9.83909C78.6733 11.2826 81.1479 13.1385 82.7976 15.613C84.4472 18.0875 85.6845 20.7682 86.0969 23.8614C86.3031 25.3049 86.3031 27.1607 85.4783 28.8104C84.8596 30.4601 83.4162 31.6974 81.7665 32.5222C78.4671 33.7595 74.7554 32.5222 72.6933 30.2539C70.4249 27.9856 69.6001 24.8924 69.3939 22.0055C69.1877 19.1186 69.6001 16.0254 70.8374 13.5509C71.8684 10.8701 73.5181 8.39562 75.374 6.33352C79.4982 2.20932 85.0659 0.353427 90.6335 0.147217C93.3143 0.147217 96.2012 0.353427 98.8819 0.765847C101.563 1.38448 104.037 2.20932 106.512 3.24037Z" fill="#55C6E8"/>
</svg>
