<svg width="233" height="153" viewBox="0 0 233 153" fill="none" xmlns="http://www.w3.org/2000/svg">
<path d="M0.634766 1.20312C4.45856 26.7763 18.799 54.186 38.2977 69.5861C66.0528 91.6852 108.105 90.976 137.78 71.219C150.484 62.7232 160.665 49.0454 161.694 33.736C161.972 30.058 161.667 26.2778 159.879 23.1873C153.296 11.623 142.179 23.4074 138.777 31.2482C133.01 44.2494 128.375 59.0457 127.665 73.2626C126.945 87.8772 131.371 108.382 145.886 115.009C150.82 117.318 156.587 117.343 162.086 116.274C168.371 115.009 174.398 112.152 179.475 108.097C182.361 105.823 185.066 102.951 186.124 99.3756C188.553 91.3316 177.866 84.0252 172.324 91.3593C170.711 93.5399 170.062 96.3214 169.611 99.0043C167.007 114.804 169.272 131.421 180.345 143.303C188.65 152.19 200.729 154.133 211.975 149.608C219.571 146.559 226.041 141.417 232.129 135.875" stroke="#B23632" stroke-linecap="round" stroke-linejoin="round" stroke-dasharray="3.98 3.98"/>
</svg>
