<svg width="38" height="38" viewBox="0 0 38 38" fill="none" xmlns="http://www.w3.org/2000/svg">
<circle opacity="0.2" cx="19.2034" cy="19.1033" r="18.7971" fill="#B23632"/>
<path d="M19.2216 14.2596C21.5689 14.2596 23.9162 14.2596 26.2681 14.2596C26.9705 14.2596 27.2605 14.5949 27.2016 15.2973C27.052 16.9875 26.9161 18.6823 26.7711 20.3726C26.6306 22.0402 26.4811 23.7123 26.3406 25.3799C26.2137 26.8843 26.0823 28.3888 25.9645 29.8933C25.9237 30.4053 25.6337 30.6953 25.1171 30.6999C21.1747 30.6999 17.2323 30.6999 13.2898 30.6999C12.7914 30.6999 12.4968 30.4053 12.4561 29.9068C12.311 28.1939 12.1615 26.4765 12.0165 24.7636C11.8896 23.2501 11.7627 21.7411 11.6358 20.2275C11.4954 18.5645 11.3549 16.9014 11.2054 15.2429C11.151 14.6266 11.4591 14.2596 12.0845 14.2596C14.4635 14.2596 16.8426 14.2596 19.2216 14.2596ZM18.4422 22.448C18.4422 23.5446 18.4422 24.6367 18.4422 25.7333C18.4422 26.2998 18.4376 26.8662 18.4467 27.4326C18.4512 27.8813 18.7684 28.2075 19.1899 28.2121C19.6158 28.2166 19.933 27.913 19.9648 27.4644C19.9693 27.3828 19.9693 27.2967 19.9693 27.2151C19.9693 25.0128 19.9693 22.806 19.9693 20.6037C19.9693 19.5931 19.9693 18.5826 19.9693 17.5676C19.9693 17.1552 19.788 16.8697 19.4754 16.7519C18.9452 16.5616 18.4467 16.9331 18.4467 17.5358C18.4376 19.1717 18.4422 20.8121 18.4422 22.448ZM13.9016 17.7398C13.9786 18.5781 14.0602 19.5252 14.1463 20.4722C14.2913 22.0583 14.4363 23.6443 14.5859 25.2303C14.6584 26.0052 14.7309 26.7801 14.8079 27.5505C14.8351 27.8088 14.971 28.0036 15.1976 28.126C15.7187 28.4024 16.335 28.0308 16.3033 27.4372C16.2625 26.6714 16.1764 25.901 16.1084 25.1352C15.977 23.7077 15.8456 22.2803 15.7142 20.8529C15.61 19.6974 15.5103 18.5373 15.3925 17.3818C15.3607 17.0646 15.175 16.838 14.8623 16.7428C14.3049 16.5661 13.8427 16.9966 13.9016 17.7398ZM22.1036 27.3556C22.09 27.8178 22.3665 28.1668 22.7607 28.2075C23.2003 28.2528 23.5356 27.981 23.6081 27.5142C23.6353 27.3194 23.6489 27.1245 23.667 26.9296C23.7939 25.5385 23.9208 24.1473 24.0522 22.7607C24.17 21.4964 24.2833 20.2366 24.3966 18.9723C24.4419 18.492 24.4917 18.0116 24.5235 17.5313C24.5506 17.0782 24.2425 16.7338 23.8075 16.7066C23.4042 16.6794 23.0552 16.9921 23.0145 17.4135C22.9193 18.4104 22.8332 19.4119 22.738 20.4133C22.6248 21.6686 22.5069 22.9238 22.3891 24.179C22.2894 25.2394 22.1988 26.3088 22.1036 27.3556Z" fill="#B23632"/>
<path d="M21.2519 8.95349C22.0404 8.95349 22.7745 8.94443 23.5041 8.95349C25.2124 8.97615 26.667 10.0592 27.1519 11.6633C27.3422 12.2932 27.0069 12.7464 26.3453 12.7509C23.2729 12.7554 20.2006 12.7509 17.1282 12.7554C15.4425 12.7554 13.7613 12.7554 12.0756 12.7554C11.5817 12.7554 11.2644 12.5243 11.2055 12.1074C11.1874 11.9715 11.2101 11.8219 11.2509 11.686C11.7085 10.1226 13.1631 8.9988 14.7945 8.96708C15.5648 8.94896 16.3352 8.96255 17.1463 8.96255C17.0738 8.89458 17.0285 8.8538 16.9832 8.80848C16.7566 8.57284 16.6932 8.30095 16.8065 7.99734C16.9198 7.69826 17.1509 7.52153 17.459 7.517C18.6236 7.50341 19.7837 7.50341 20.9483 7.517C21.2564 7.52153 21.4921 7.69826 21.6008 7.99734C21.7141 8.30095 21.6507 8.57737 21.4241 8.80848C21.3833 8.84473 21.338 8.87645 21.2519 8.95349Z" fill="#B23632"/>
</svg>
