<svg width="140" height="138" viewBox="0 0 140 138" fill="none" xmlns="http://www.w3.org/2000/svg">
<g opacity="0.7">
<path d="M69.7876 118.192C43.0224 118.192 21.3249 96.4946 21.3249 69.7294C21.3249 42.9641 43.0224 21.2666 69.7876 21.2666C96.5529 21.2666 118.25 42.9641 118.25 69.7294C118.25 96.4946 96.5529 118.192 69.7876 118.192Z" fill="white"/>
</g>
<path d="M81.4356 7.74815C77.6236 7.04221 73.7056 6.68925 69.7523 6.65395C58.4926 6.65395 47.48 9.65419 37.8439 15.3017C37.3497 15.5841 36.785 15.7253 36.2555 15.7253C35.1966 15.7253 34.1377 15.1605 33.5729 14.1722C32.6905 12.6897 33.1847 10.7837 34.6672 9.90127C45.2563 3.65371 57.3984 0.371094 69.7523 0.371094C74.0586 0.371094 78.3648 0.759347 82.5651 1.57118C84.2594 1.88885 85.3889 3.51251 85.0712 5.20676C84.7889 6.93631 83.1299 8.06582 81.4356 7.74815Z" fill="#F5A73D"/>
<path d="M3.60616 66.5879C5.33571 66.5879 6.71229 67.9998 6.71229 69.694C6.71229 84.9423 12.2186 99.6611 22.2076 111.133C23.3371 112.439 23.196 114.415 21.89 115.545C21.2899 116.074 20.584 116.321 19.8428 116.321C18.9603 116.321 18.1132 115.968 17.4779 115.262C6.50051 102.661 0.429434 86.4954 0.429434 69.7293C0.464729 67.9998 1.87661 66.5879 3.60616 66.5879Z" fill="#BCF0FF"/>
<path d="M7.27667 61.2583C7.06488 62.8113 5.7236 63.9761 4.17054 63.9761C4.02935 63.9761 3.88816 63.9761 3.74697 63.9408C2.05272 63.729 0.852627 62.1407 1.06441 60.4464C3.28812 43.8921 11.477 28.6791 24.078 17.6312C25.384 16.5017 27.3606 16.6076 28.4902 17.9136C29.6197 19.2196 29.5137 21.1962 28.2078 22.3257C16.7362 32.35 9.28859 46.1865 7.27667 61.2583Z" fill="#B23632"/>
<path d="M84.7537 131.005C99.5078 127.405 112.497 118.546 121.321 106.086C122.31 104.674 124.251 104.356 125.663 105.344C127.075 106.333 127.392 108.274 126.404 109.686C116.733 123.381 102.437 133.123 86.2361 137.076C85.9891 137.147 85.742 137.182 85.4949 137.182C84.083 137.182 82.8123 136.229 82.4594 134.782C82.0711 133.088 83.0947 131.394 84.7537 131.005Z" fill="#55C6E8"/>
<path d="M127.216 95.779C130.922 87.5901 132.828 78.8012 132.828 69.7299C132.828 63.5529 131.946 57.4818 130.181 51.6225C129.687 49.9635 130.64 48.234 132.263 47.7398C133.922 47.2457 135.652 48.1987 136.146 49.8224C138.052 56.2464 139.04 62.9528 139.04 69.6946C139.04 79.6836 136.958 89.3197 132.863 98.3204C132.334 99.4852 131.204 100.156 130.004 100.156C129.581 100.156 129.122 100.05 128.698 99.8735C127.216 99.2028 126.51 97.3321 127.216 95.779Z" fill="#FFC4E8"/>
<path d="M35.2887 65.6199C35.2887 65.1236 35.2289 64.6787 35.2973 64.2423C35.4428 63.3439 36.1957 62.822 37.3337 62.8049C38.6856 62.7792 40.0461 62.7877 41.398 62.7877C49.9715 62.7877 58.5364 62.7963 67.1099 62.7963C69.4629 62.7963 71.8159 62.822 74.1689 62.7877C75.1957 62.7706 76.0599 63.0958 76.8556 63.6947C78.1391 64.6616 79.1487 65.9023 80.1669 67.1344C81.4932 68.7515 82.8109 70.3858 84.1884 71.9602C84.9671 72.8415 85.9083 73.526 87.1147 73.7741C87.6024 73.8768 87.8934 74.2875 88.1158 74.7068C88.5779 75.5539 88.7747 76.4865 88.8945 77.4363C89.2025 79.8406 89.1084 82.2449 88.8945 84.6407C88.8859 84.7691 88.8431 84.8889 88.8174 85.0172C87.9533 85.0172 87.1147 85.0172 86.2334 85.0172C86.0024 83.0321 85.104 81.4321 83.4269 80.3198C82.2633 79.5497 80.9627 79.216 79.5766 79.3272C78.0621 79.447 76.753 80.0545 75.6663 81.1326C74.5967 82.2022 74.0235 83.5027 73.8609 85.0172C68.5816 85.0172 63.328 85.0172 58.0915 85.0172C57.9033 84.3755 57.7664 83.7166 57.5182 83.1091C56.4743 80.5936 53.839 79.0278 51.2293 79.3272C48.3971 79.6609 46.1553 81.7316 45.7361 84.4867C45.6591 85.0087 45.4623 85.0429 45.0516 85.0429C42.6558 85.0258 40.26 85.0429 37.8642 85.0258C37.0599 85.0172 36.2727 84.9145 35.6567 84.2985C35.1604 83.8022 35.1775 83.1947 35.323 82.5872C35.3401 82.5016 35.5797 82.4075 35.7166 82.4075C36.9829 82.3904 38.2578 82.4246 39.5242 82.3818C39.9349 82.3733 40.3712 82.2535 40.7477 82.0824C41.1926 81.8856 41.3894 81.4235 41.3039 81.0813C41.1841 80.5936 40.8761 80.3625 40.2857 80.354C39.199 80.3369 38.1209 80.3454 37.0342 80.3454C35.708 80.3454 34.3818 80.3454 33.0555 80.3454C32.8416 80.3454 32.6363 80.3026 32.4224 80.2684C32.0288 80.2 31.8748 79.9262 31.8748 79.5668C31.8748 79.1818 32.1143 78.9593 32.4823 78.908C32.7646 78.8652 33.047 78.8566 33.3379 78.8566C34.8353 78.8481 36.3326 78.8566 37.83 78.8395C38.1466 78.8395 38.4888 78.7882 38.7883 78.6769C39.2161 78.5144 39.4215 78.1037 39.3873 77.6502C39.353 77.1881 39.0878 76.9229 38.66 76.8202C38.4717 76.7689 38.2664 76.7518 38.0696 76.7518C35.5283 76.7432 32.9956 76.7518 30.4544 76.7432C30.2063 76.7432 29.941 76.7175 29.7014 76.632C29.3506 76.5036 29.1025 76.0416 29.1538 75.7507C29.2223 75.3913 29.5389 75.1175 29.9838 75.0661C30.1806 75.049 30.3859 75.0576 30.5827 75.0576C33.7229 75.0576 36.8546 75.0661 39.9948 75.049C40.3798 75.049 40.7819 74.9292 41.1413 74.7923C41.5263 74.6469 41.6632 74.3046 41.6205 73.8854C41.5862 73.4832 41.3467 73.2607 40.9873 73.1752C40.6622 73.0982 40.3113 73.064 39.9776 73.064C38.5059 73.0554 37.0428 73.064 35.5711 73.0468C35.2802 73.0468 34.9465 73.0126 34.7155 72.8586C34.5016 72.7217 34.2705 72.4051 34.2705 72.1741C34.2705 71.9687 34.5529 71.6778 34.7754 71.5923C35.1518 71.4468 35.5797 71.3869 35.9818 71.3869C38.1038 71.3869 40.2258 71.4297 42.3563 71.4297C42.6216 71.4297 42.9381 71.3612 43.1521 71.2072C43.7681 70.7537 43.7082 70.0093 43.0152 69.5986C42.7242 69.4275 42.3478 69.3334 42.0055 69.3334C39.1648 69.3163 36.3326 69.3334 33.4919 69.3077C33.1497 69.3077 32.7817 69.2221 32.4823 69.0596C32.3026 68.9655 32.1229 68.6574 32.14 68.4521C32.1571 68.2553 32.3796 68.0242 32.5678 67.8959C32.7475 67.7847 33.0042 67.7676 33.2267 67.7676C35.4513 67.7676 37.676 67.7676 39.9006 67.7761C40.3456 67.7761 40.7905 67.7847 41.1413 67.451C41.5948 67.0232 41.5862 66.3386 41.0386 66.0306C40.6622 65.8167 40.2001 65.6541 39.7637 65.6456C38.4289 65.5942 37.0856 65.6285 35.7508 65.6285C35.6053 65.6199 35.4684 65.6199 35.2887 65.6199ZM68.8383 72.4051C73.4502 72.4051 78.0364 72.4051 82.6654 72.4051C82.6141 72.3367 82.5884 72.2939 82.5542 72.2511C80.1755 69.5644 77.7968 66.8777 75.4096 64.1995C75.2984 64.0798 75.0759 64.0028 74.8962 63.9942C73.0053 63.9771 71.1057 63.9856 69.2148 63.9856C69.095 63.9856 68.9667 64.0028 68.8383 64.0113C68.8383 66.8349 68.8383 69.6072 68.8383 72.4051ZM69.3346 75.1688C71.0031 75.1688 72.6288 75.1688 74.2545 75.1688C74.2545 74.6469 74.2545 74.1592 74.2545 73.6715C72.5946 73.6715 70.9774 73.6715 69.3346 73.6715C69.3346 74.1763 69.3346 74.6554 69.3346 75.1688ZM59.6915 77.6416C59.7942 78.3604 59.8798 78.3946 60.513 78.0951C60.9322 77.8897 61.3686 77.7015 61.7793 77.4876C62.113 77.3165 62.1301 77.0683 61.805 76.8887C61.2916 76.6063 60.7696 76.3496 60.2477 76.1015C59.9739 75.9731 59.8113 76.1015 59.7514 76.3753C59.7343 76.4608 59.7258 76.555 59.7087 76.6833C59.1439 76.6833 58.6049 76.6833 58.0658 76.6833C58.0658 77.017 58.0658 77.3079 58.0658 77.6331C58.6305 77.6416 59.1696 77.6416 59.6915 77.6416ZM54.1641 66.8948C54.2069 67.2028 54.1898 67.6307 54.6347 67.4766C55.2166 67.2713 55.7727 66.9804 56.3203 66.6809C56.5685 66.544 56.5856 66.2959 56.3118 66.1418C55.7727 65.8509 55.2251 65.5942 54.6775 65.329C54.4465 65.2178 54.301 65.3204 54.2411 65.56C54.2155 65.6712 54.1983 65.7825 54.1727 65.9365C53.6165 65.9365 53.0775 65.9365 52.547 65.9365C52.547 66.2787 52.547 66.5697 52.547 66.8863C53.1117 66.8948 53.6336 66.8948 54.1641 66.8948ZM53.685 74.1421C54.2668 74.1421 54.8058 74.1421 55.3449 74.1421C55.3962 74.6982 55.5246 74.8522 55.8241 74.7239C56.3545 74.4929 56.885 74.2447 57.3984 73.9795C57.7407 73.8084 57.7321 73.5174 57.3899 73.3378C56.9022 73.0811 56.3973 72.8415 55.9011 72.6105C55.593 72.465 55.4219 72.5677 55.3706 72.9099C55.362 72.9869 55.3449 73.064 55.3363 73.1752C54.7716 73.1752 54.2411 73.1752 53.685 73.1752C53.685 73.5003 53.685 73.7741 53.685 74.1421ZM57.9888 70.2061C57.9974 70.788 58.1428 70.942 58.4851 70.788C59.0156 70.5569 59.5461 70.3088 60.068 70.0436C60.3589 69.8981 60.3675 69.6157 60.0766 69.4617C59.5546 69.1794 59.0156 68.9141 58.4765 68.666C58.2113 68.5376 58.0744 68.6831 58.0316 68.9398C58.0145 69.0339 58.0145 69.128 57.9974 69.282C57.4327 69.282 56.8936 69.282 56.3374 69.282C56.3374 69.6157 56.3374 69.8895 56.3374 70.2147C56.8936 70.2061 57.4241 70.2061 57.9888 70.2061Z" fill="black"/>
<path d="M91.5896 88.4739C91.7265 88.6792 91.8891 88.8504 91.9746 89.0472C92.1286 89.4065 92.1458 89.7745 91.8121 90.0568C91.4869 90.3306 90.9222 90.3991 90.6227 90.1167C89.9125 89.4579 89.228 88.7734 88.5777 88.0546C88.2783 87.7209 88.3638 87.2931 88.7061 86.9423C89.2965 86.3434 89.8869 85.7444 90.4944 85.1626C90.888 84.7775 91.3671 84.7519 91.7607 85.077C92.1372 85.385 92.1885 85.8642 91.8976 86.3434C91.8548 86.4118 91.8121 86.4888 91.7094 86.6685C92.7276 86.4803 93.6517 86.3605 94.5587 86.138C100.745 84.5893 104.92 80.7218 107.333 74.8864C108.138 72.9355 108.446 70.8649 108.506 68.76C108.514 68.5375 108.514 68.298 108.583 68.0926C108.737 67.622 109.122 67.4081 109.575 67.4851C110.037 67.5707 110.319 67.9044 110.319 68.4263C110.345 69.9579 110.174 71.4724 109.806 72.9526C108.086 79.8662 103.851 84.5893 97.271 87.2332C95.6025 87.9006 93.8399 88.2172 92.0516 88.3969C91.8976 88.4054 91.7436 88.4397 91.5896 88.4739Z" fill="black"/>
<path d="M84.1798 67.1343C84.3424 65.3032 84.505 63.5064 84.6761 61.6667C85.5317 61.7438 86.2847 61.855 87.0462 61.8807C88.7147 61.9406 90.3746 61.9919 92.0431 61.9662C93.164 61.9491 94.2849 61.7951 95.4058 61.6839C95.7053 61.6582 95.8336 61.7181 95.8593 62.0518C95.9876 63.6433 96.1331 65.2262 96.2785 66.8091C96.2871 66.9033 96.2785 67.0059 96.2785 67.1343C92.2656 67.1343 88.2869 67.1343 84.1798 67.1343Z" fill="black"/>
<path d="M95.4487 59.9041C91.9919 60.3833 88.5865 60.3747 85.0698 59.9041C85.4206 58.8175 85.7372 57.7907 86.0966 56.7811C86.5073 55.626 87.1062 54.5564 87.8678 53.5895C87.9704 53.4526 88.0817 53.3243 88.2015 53.1959C89.5705 51.7499 91.0935 51.7756 92.4112 53.2815C93.438 54.4537 94.1225 55.8227 94.6359 57.2859C94.9268 58.1244 95.1664 58.9886 95.4487 59.9041Z" fill="black"/>
<path d="M56.577 85.5306C56.577 88.1403 54.4636 90.2366 51.871 90.288C49.3982 90.3393 47.0538 88.3713 47.0024 85.5905C46.9597 82.861 49.1415 80.6706 51.8539 80.6963C54.6604 80.7305 56.6712 83.0835 56.577 85.5306ZM51.8026 83.2461C50.5191 83.2546 49.5522 84.2386 49.5522 85.5306C49.5608 86.7456 50.5533 87.7553 51.7769 87.7724C53.0005 87.7895 54.0871 86.7114 54.07 85.4964C54.0529 84.2472 53.0347 83.2375 51.8026 83.2461Z" fill="black"/>
<path d="M80.03 90.2709C77.3947 90.2538 75.2385 88.089 75.2641 85.4793C75.2898 82.8012 77.4631 80.6621 80.1413 80.6877C82.751 80.7048 84.8901 82.9124 84.8558 85.5477C84.8216 88.3714 82.4087 90.3735 80.03 90.2709ZM80.0899 83.2461C78.8407 83.2375 77.8139 84.2215 77.7968 85.4622C77.7797 86.7029 78.8065 87.7553 80.0557 87.7724C81.2622 87.781 82.306 86.7456 82.3317 85.5135C82.3488 84.29 81.3221 83.2546 80.0899 83.2461Z" fill="black"/>
<path d="M88.9372 47.6857C88.8174 47.506 88.7233 47.3691 88.6377 47.2237C88.3468 46.7445 88.4324 46.2568 88.8602 45.9488C89.1169 45.7605 89.8442 45.8803 90.1009 46.1456C90.6399 46.6932 91.1875 47.2408 91.718 47.7884C92.2485 48.3446 92.2485 48.798 91.718 49.3456C91.2132 49.8676 90.6913 50.3724 90.1779 50.8858C89.6987 51.365 89.2367 51.442 88.8174 51.1168C88.4067 50.8002 88.3639 50.3467 88.7062 49.7478C88.7233 49.7136 88.7318 49.6708 88.7917 49.5253C88.0217 49.6537 87.3029 49.7307 86.6099 49.8847C82.9905 50.6804 79.8161 52.289 77.2321 54.9843C75.5294 56.764 74.2373 58.809 73.2961 61.0764C73.1935 61.3331 73.0908 61.4615 72.7828 61.4358C72.3122 61.4016 71.8416 61.4273 71.371 61.4187C71.3453 61.4187 71.3196 61.4016 71.2939 61.3845C73.3047 55.3864 78.4129 48.8323 88.9372 47.6857Z" fill="black"/>
<path d="M103.629 76.7516C101.738 75.8617 99.8209 75.2371 97.8187 74.8606C97.562 74.8093 97.5364 74.6809 97.562 74.467C97.6904 73.406 97.8273 72.3536 97.9385 71.2926C98.0155 70.5482 98.0412 69.7867 98.0925 69.0166C100.788 69.0166 103.466 69.0166 106.213 69.0166C106.024 71.8316 105.177 74.39 103.629 76.7516Z" fill="black"/>
<path d="M106.23 67.1258C106.127 67.1515 106.084 67.1686 106.05 67.1686C103.415 67.1686 100.779 67.1686 98.1439 67.1686C97.9642 65.2348 97.776 63.3268 97.5963 61.393C98.4605 61.1705 99.3675 60.9909 100.24 60.7085C101.276 60.3748 102.294 59.9555 103.303 59.5619C103.552 59.4593 103.68 59.4593 103.842 59.7245C105.075 61.7267 105.862 63.8829 106.127 66.2188C106.161 66.5012 106.195 66.8006 106.23 67.1258Z" fill="black"/>
<path d="M84.6248 69.0166C88.4923 69.0166 92.3683 69.0166 96.3641 69.0166C96.193 70.8733 96.0219 72.6873 95.8593 74.4328C94.0625 74.3301 92.394 74.2274 90.7169 74.1419C90.4859 74.1333 90.3747 74.0477 90.2806 73.8338C89.9725 73.1322 89.4848 72.6958 88.6891 72.5076C88.1415 72.3793 87.5939 72.0627 87.166 71.6947C86.2419 70.8904 85.3863 69.992 84.505 69.1364C84.5478 69.0936 84.582 69.0508 84.6248 69.0166Z" fill="black"/>
<path d="M97.1771 59.7159C96.6808 57.1747 95.6797 54.8816 94.3021 52.7168C97.6648 53.5382 100.428 55.2837 102.67 57.9447C100.908 58.8004 99.1108 59.3394 97.1771 59.7159Z" fill="black"/>
<path d="M102.61 78.2575C100.369 81.1838 96.2957 83.3058 94.3448 83.4854C94.6957 82.8951 95.0465 82.3389 95.3631 81.7571C96.2016 80.2255 96.8176 78.6169 97.1513 76.9056C97.1941 76.6917 97.2626 76.5206 97.5364 76.5805C99.2477 76.9313 100.933 77.3762 102.508 78.1634C102.542 78.1805 102.568 78.2147 102.61 78.2575Z" fill="black"/>
<path d="M77.8652 57.9362C80.1241 55.2752 82.8793 53.5297 86.1991 52.6741C86.2334 52.7083 86.259 52.734 86.2933 52.7682C86.2248 52.8794 86.1649 52.9907 86.0879 53.1019C84.8301 54.9415 83.9317 56.9351 83.4269 59.1085C83.3071 59.6304 83.2643 59.6903 82.7595 59.5448C81.2621 59.1085 79.7819 58.6293 78.2931 58.1673C78.1562 58.1159 78.0449 58.0304 77.8652 57.9362Z" fill="black"/>
<path d="M90.948 83.9219C91.1875 81.2181 91.2988 78.5828 90.8881 75.8533C92.4111 75.9731 93.8999 76.0928 95.4229 76.2126C94.8497 78.4801 94.148 80.6106 92.7619 82.4588C92.2999 83.0749 91.7437 83.5797 90.948 83.9219Z" fill="black"/>
<path d="M82.9562 61.4873C82.7936 63.0531 82.6225 64.6873 82.4428 66.3644C81.9979 65.8253 81.5786 65.2777 81.108 64.7729C80.4492 64.0627 79.7904 63.3525 79.0716 62.7023C78.1646 61.8894 77.1208 61.3332 75.7261 61.4445C76.1368 60.7086 76.4961 60.0583 76.8042 59.5193C78.909 60.1952 80.9284 60.837 82.9562 61.4873Z" fill="black"/>
<path d="M98.2467 51.5019C97.5964 51.4934 97.2028 51.1511 97.2199 50.6206C97.237 50.0559 97.7076 49.5939 98.2723 49.6024C98.8884 49.611 99.3419 50.0217 99.3504 50.5778C99.359 51.134 98.9141 51.5105 98.2467 51.5019Z" fill="black"/>
<path d="M109.977 64.4821C109.986 64.9783 109.592 65.3634 109.079 65.3634C108.557 65.3634 108.146 64.9355 108.146 64.405C108.146 63.866 108.523 63.481 109.045 63.481C109.584 63.481 109.969 63.9002 109.977 64.4821Z" fill="black"/>
<path d="M103.201 54.8558C103.201 54.3253 103.611 53.8975 104.133 53.8975C104.63 53.906 105.066 54.3253 105.083 54.813C105.1 55.3007 104.63 55.7713 104.133 55.7713C103.629 55.7799 103.201 55.352 103.201 54.8558Z" fill="black"/>
<path d="M100.463 52.3917C100.471 51.8783 100.873 51.4933 101.404 51.5018C101.917 51.5104 102.354 51.9724 102.336 52.4687C102.319 52.9479 101.857 53.4014 101.387 53.3843C100.908 53.3757 100.454 52.888 100.463 52.3917Z" fill="black"/>
<path d="M95.7567 49.4825C95.7481 49.9873 95.3374 50.3724 94.8069 50.3724C94.285 50.3724 93.8743 49.9702 93.8743 49.4654C93.8743 48.9606 94.3278 48.5071 94.824 48.5071C95.3374 48.5156 95.7652 48.9606 95.7567 49.4825Z" fill="black"/>
<path d="M107.325 57.6967C107.325 58.2015 106.923 58.6122 106.409 58.6122C105.87 58.6122 105.485 58.2272 105.485 57.6625C105.485 57.1662 105.879 56.764 106.375 56.764C106.906 56.7555 107.325 57.1662 107.325 57.6967Z" fill="black"/>
<path d="M108.086 60.1351C108.608 60.1351 109.028 60.5544 109.002 61.0507C108.985 61.4956 108.583 61.9063 108.163 61.9149C107.616 61.9234 107.162 61.5298 107.154 61.025C107.145 60.5202 107.556 60.1266 108.086 60.1351Z" fill="black"/>
</svg>
