<svg width="44" height="27" viewBox="0 0 44 27" fill="none" xmlns="http://www.w3.org/2000/svg">
<g clip-path="url(#clip0_143_77)">
<path fill-rule="evenodd" clip-rule="evenodd" d="M36.9936 12.0534C36.9936 11.1202 36.3511 10.5816 35.2296 10.5816H33.7878V15.5665H34.7587V13.5642H34.8857L36.2317 15.5665H37.4276L35.8581 13.4666C36.5903 13.3177 36.9936 12.8168 36.9936 12.0535V12.0534ZM37.4693 10.4702C37.2567 10.4702 37.0877 10.64 37.0877 10.8522C37.0877 11.0641 37.2587 11.2342 37.4693 11.2342C37.6768 11.2342 37.8466 11.0623 37.8466 10.8522C37.8466 10.6429 37.6768 10.4702 37.4693 10.4702ZM37.4681 11.1658C37.3008 11.1658 37.1636 11.0265 37.1636 10.8527C37.1636 10.678 37.2987 10.5389 37.468 10.5389C37.6347 10.5389 37.7703 10.6816 37.7703 10.8527C37.7703 11.0252 37.6347 11.1658 37.4681 11.1658ZM37.6143 10.769C37.6143 10.6816 37.554 10.6339 37.4485 10.6339H37.3077V11.0718H37.4125V10.902L37.5349 11.0718H37.6628L37.5188 10.8911C37.5804 10.8747 37.6143 10.8297 37.6143 10.769ZM37.4301 10.8286H37.4125V10.7141H37.4312C37.4829 10.7141 37.5098 10.7328 37.5098 10.7705C37.5098 10.8091 37.4825 10.8284 37.4301 10.8284V10.8286ZM27.5459 13.9299L26.2164 10.5815H25.1541L27.2697 15.6946H27.7931L29.9467 10.5815H28.8924L27.546 13.9299H27.5459ZM15.9858 13.0775C15.9858 14.5428 17.1363 15.679 18.617 15.679C19.0356 15.679 19.3939 15.5966 19.836 15.3885V14.2437C19.4472 14.6328 19.1032 14.7896 18.6623 14.7896C17.683 14.7896 16.988 14.0797 16.988 13.0701C16.988 12.1131 17.7052 11.3581 18.617 11.3581C19.0809 11.3581 19.4318 11.5235 19.836 11.9191V10.7749C19.4092 10.5582 19.0583 10.4688 18.64 10.4688C17.1669 10.4688 15.9858 11.6277 15.9858 13.0774V13.0775ZM14.2452 12.4945C13.6617 12.2786 13.4903 12.1363 13.4903 11.8668C13.4903 11.5527 13.7956 11.3143 14.2146 11.3143C14.5058 11.3143 14.7455 11.4339 14.9987 11.7179L15.5074 11.0517C15.0893 10.6859 14.5892 10.4989 14.0426 10.4989C13.1606 10.4989 12.4878 11.1115 12.4878 11.9273C12.4878 12.6141 12.8011 12.9657 13.7142 13.2944C14.095 13.4287 14.2887 13.5182 14.3866 13.5784C14.5807 13.7053 14.678 13.8847 14.678 14.0943C14.678 14.4981 14.3569 14.7973 13.923 14.7973C13.4593 14.7973 13.0856 14.5655 12.8618 14.1325L12.2336 14.7373C12.6816 15.3947 13.2197 15.6863 13.9596 15.6863C14.9699 15.6863 15.6788 15.0145 15.6788 14.0493C15.6788 13.2576 15.3511 12.8988 14.2449 12.4943H14.2451L14.2452 12.4945ZM10.8954 15.5664H11.8675V10.5815H10.8954V15.5664ZM7.77169 10.5815H6.34448V15.5664H7.76411C8.51913 15.5664 9.0642 15.3885 9.54276 14.9909C10.1115 14.5204 10.4479 13.8111 10.4479 13.0775C10.4479 11.6064 9.34849 10.5815 7.77169 10.5815ZM8.90768 14.3264C8.60209 14.6022 8.20531 14.7227 7.57702 14.7227H7.31599V11.4261H7.57702C8.20531 11.4261 8.58667 11.5386 8.90768 11.8292C9.24397 12.1286 9.44621 12.5926 9.44621 13.0701C9.44621 13.5488 9.24397 14.0268 8.90768 14.3263V14.3264ZM30.3862 15.5664H33.1437V14.7228H31.3577V13.3771H33.0778V12.5326H31.3577V11.4263H33.1437V10.5816H30.3862V15.5665V15.5664ZM35.043 12.8767H34.7586V11.3668H35.0583C35.6637 11.3668 35.9928 11.6204 35.9928 12.1058C35.9928 12.6068 35.6637 12.8767 35.043 12.8767Z" fill="#211D1C"/>
<path fill-rule="evenodd" clip-rule="evenodd" d="M22.8051 10.4399C24.2703 10.4399 25.4577 11.6273 25.4577 13.0909V13.0926C25.4577 14.5564 24.2703 15.7438 22.8051 15.7438C21.3413 15.7438 20.1539 14.5564 20.1539 13.0926V13.0909C20.1539 11.6273 21.3413 10.4399 22.8051 10.4399Z" fill="url(#paint0_linear_143_77)"/>
<path d="M4.4186 0.0917969H39.7721C40.8998 0.0917969 41.9244 0.552725 42.6668 1.29507C43.4093 2.03755 43.8702 3.06222 43.8702 4.18972V21.9939C43.8702 23.1212 43.4091 24.1459 42.6668 24.8884C41.9243 25.6307 40.8996 26.0918 39.7723 26.0918H4.41873C3.29136 26.0918 2.26655 25.6309 1.52408 24.8884C0.781729 24.146 0.320801 23.1215 0.320801 21.9939V4.18972C0.320801 3.06209 0.781729 2.03742 1.52408 1.29507C2.26642 0.552725 3.29123 0.0917969 4.41886 0.0917969H4.4186ZM39.7721 1.50424H4.4186C3.68082 1.50424 3.00955 1.80669 2.52249 2.29375C2.03543 2.78081 1.73298 3.45208 1.73298 4.18985V21.994C1.73298 22.7316 2.03543 23.4029 2.52249 23.89C3.00968 24.3772 3.68108 24.6796 4.4186 24.6796H39.7721C40.5096 24.6796 41.1809 24.3772 41.6681 23.89C42.1552 23.4028 42.4577 22.7315 42.4577 21.9941V4.18998C42.4577 3.45247 42.1553 2.78107 41.6682 2.29388C41.1812 1.80682 40.5098 1.50437 39.7721 1.50437V1.50424Z" fill="#808080"/>
</g>
<defs>
<linearGradient id="paint0_linear_143_77" x1="24.5036" y1="14.6786" x2="21.1079" y2="11.5052" gradientUnits="userSpaceOnUse">
<stop stop-color="#F7991E"/>
<stop offset="1" stop-color="#DE5214"/>
</linearGradient>
<clipPath id="clip0_143_77">
<rect width="43.5494" height="26" fill="white" transform="translate(0.320801 0.0917969)"/>
</clipPath>
</defs>
</svg>
