<svg width="35" height="36" viewBox="0 0 35 36" fill="none" xmlns="http://www.w3.org/2000/svg">
<path d="M34.8122 18.3035C34.8122 8.6679 27.0446 0.900391 17.409 0.900391C7.77337 0.900391 0.00585938 8.6679 0.00585938 18.3035C0.00585938 26.956 6.39685 34.1335 14.656 35.51V23.318H10.2314V18.3035H14.656V14.4689C14.656 10.1427 17.2124 7.68467 21.2436 7.68467C23.1117 7.68467 25.1765 7.97964 25.1765 7.97964V12.3058H23.0134C20.8503 12.3058 20.162 13.6824 20.162 15.0589V18.3035H24.9799L24.1933 23.318H20.162V35.51C28.4212 34.1335 34.8122 26.956 34.8122 18.3035Z" fill="#3E5AA3"/>
<path d="M24.1923 23.3182L24.9789 18.3038H20.1611V15.0591C20.1611 13.6826 20.8493 12.3061 23.0124 12.3061H25.1755V8.07817C25.1755 8.07817 23.2091 7.7832 21.2426 7.7832C17.3097 7.7832 14.655 10.143 14.655 14.5675V18.4021H10.2305V23.4165H14.655V35.6086C15.5399 35.7069 16.4248 35.8052 17.408 35.8052C18.2929 35.8052 19.2762 35.7069 20.1611 35.6086V23.3182H24.1923Z" fill="white"/>
</svg>
