<svg width="1440" height="556" viewBox="0 0 1440 556" fill="none" xmlns="http://www.w3.org/2000/svg">
<mask id="path-1-outside-1_57_1485" maskUnits="userSpaceOnUse" x="-24.9275" y="0.587891" width="1493" height="561" fill="black">
<rect fill="white" x="-24.9275" y="0.587891" width="1493" height="561"/>
<path fill-rule="evenodd" clip-rule="evenodd" d="M1462.5 109.125V168.737H1462.59C1462.55 245.708 1461.35 296.282 1460.26 341.661C1458.77 404.434 1457.51 457.264 1459.9 556.267H-19.9268C-19.9268 556.212 -19.9268 556.156 -19.9268 556.1C-19.9268 554.971 -19.927 553.842 -19.9272 552.705C-19.931 526.366 -19.9355 495.774 -17.9065 363.971C-18.0027 328.204 -18.1951 155.571 -18.1951 119.731C-18.1951 101.367 -18.0467 83.0247 -17.8982 64.6804C-17.7794 50.0003 -17.6606 35.3187 -17.6179 20.6226C-17.6179 18.2089 -16.7521 16.3804 -14.0585 15.0638C-12.6269 14.3835 -11.2219 13.6424 -9.80883 12.8971C-7.42388 11.6391 -5.016 10.3691 -2.41846 9.35865C12.6848 3.50723 24.3248 5.26265 35.2915 15.1369C38.1775 17.7701 39.9091 17.8432 43.276 15.7221C47.5088 13.0158 52.2225 10.6021 57.2249 8.70036C69.9231 3.87294 80.4088 5.18951 90.5097 12.7964C93.7804 15.2832 95.8968 15.5758 99.7448 13.3084C103.881 10.8946 108.691 8.91979 113.501 7.45694C126.007 3.58037 136.493 7.38379 145.824 13.3815C149.96 16.0878 153.424 16.8924 158.715 15.4295C166.314 13.3084 175.934 16.8192 181.417 22.8901C183.376 25.0527 184.362 26.1671 185.484 26.3248C186.675 26.4925 188.019 25.5791 190.845 23.6946C197.675 19.1598 204.698 14.5518 214.414 15.0638C218.454 15.2101 222.879 16.3804 226.342 18.0626C229.806 19.6718 231.826 19.5255 234.712 17.6969C241.349 13.4546 248.757 10.0901 257.511 8.77351C268.285 7.16437 277.136 10.0169 284.543 15.5758C286.795 17.2535 287.862 18.0627 288.991 18.163C290.225 18.2725 291.534 17.5358 294.548 16.1609C301.089 13.1621 307.919 10.1632 315.134 8.70036C324.658 6.79865 333.7 8.77351 340.723 14.3324C343.417 16.5266 345.244 16.4535 348.804 14.8444C354.768 12.1381 361.213 9.50493 367.947 8.40779C381.03 6.21351 390.939 10.8215 398.346 18.9404L398.581 19.1881C402.577 23.4037 402.591 23.4186 408.255 20.4763C419.51 14.6249 428.745 16.4535 434.324 23.5483C435.96 25.5963 437.691 25.3038 439.808 23.9872C442.982 21.9392 446.253 19.8912 449.716 18.2089C460.394 13.0889 469.726 14.1861 477.71 21.6466C480.596 24.3529 482.712 24.8649 486.079 22.2318C487.306 21.2443 488.857 20.5038 490.408 19.7632C490.925 19.5163 491.443 19.2695 491.948 19.0135C504.261 12.8695 512.053 13.5278 521.865 21.8661C524.559 24.2066 526.29 24.2066 529.08 21.9392C535.429 16.8924 542.644 12.5769 551.398 10.0901C563.038 6.72551 573.524 8.04208 582.278 14.9906C584.202 16.5266 586.03 17.2581 589.012 16.4535C599.017 13.6741 606.328 15.2101 612.869 21.3541C619.749 27.8201 619.795 27.7913 628.186 22.5579L628.357 22.4512C631.724 20.4032 635.284 18.4284 639.035 16.8924C646.635 13.8204 654.235 14.1129 660.872 18.5746C663.855 20.5495 666.067 20.5495 669.145 18.5015C672.897 16.0146 676.938 13.7472 681.17 11.8455C695.6 5.48208 708.972 7.23751 719.842 16.7461C721.884 18.5153 722.871 19.3755 723.914 19.4499C724.984 19.5262 726.113 18.7756 728.5 17.3312C732.541 14.9175 736.773 12.6501 741.295 10.8946C754.474 5.77465 766.018 7.31065 776.215 15.3564C779.005 17.5506 780.736 17.4044 783.815 15.6489C787.951 13.3815 792.376 11.2604 797.09 9.87065C811.808 5.40894 824.41 8.91979 833.453 19.5255C835.342 21.7518 836.281 22.8676 837.361 23.0284C838.482 23.1952 839.755 22.3354 842.4 20.6226C844.42 19.2329 846.729 18.0626 849.037 17.0386C858.176 13.0889 864.333 13.8935 871.163 19.8181C875.155 23.2872 875.203 23.257 879.751 20.3626L879.917 20.2569C882.515 18.6478 885.208 17.1118 888.094 15.7952C898.484 11.0409 908.681 12.2112 916.184 19.5255C919.07 22.3781 921.187 22.0855 924.265 19.9643C926.766 18.2821 929.46 16.6729 932.346 15.4295C942.158 11.1141 952.836 12.5769 959.666 19.3061C962.36 21.9392 964.091 21.9392 967.362 19.7449C972.749 16.0878 978.329 12.5769 984.389 9.72436C996.318 4.09237 1008.82 4.97008 1019.41 11.9918C1022.2 13.8204 1024.89 14.4786 1028.54 13.7472C1039.03 11.6261 1045.96 13.6741 1052.21 20.4032C1053.08 21.2809 1053.94 22.2318 1054.52 23.1826C1056.25 25.9621 1057.89 26.5472 1061.16 23.9872C1064.91 20.9883 1069.33 18.5015 1073.76 16.0878C1081.36 11.9918 1091.75 11.0409 1099.44 16.5266C1102.14 18.4284 1104.45 17.6969 1107.14 16.2341C1108.2 15.6835 1109.26 15.123 1110.31 14.5617C1115.02 12.066 1119.75 9.55433 1124.94 7.82265C1137.25 3.72666 1147.93 6.06722 1156.97 13.7472C1159.33 15.7527 1160.51 16.7596 1161.79 16.8983C1163.16 17.0479 1164.65 16.1868 1167.84 14.4786L1168.1 14.3418C1173.02 11.7521 1178.04 9.1101 1183.52 7.45694C1194.97 4.09237 1205.36 5.92094 1213.82 12.7964C1216.71 15.1369 1218.73 15.2832 1222.29 13.4546C1227.58 10.8215 1233.35 8.48094 1239.22 6.72551C1245.38 4.89694 1251.92 5.26265 1257.79 7.89579C1260.48 9.06617 1263.13 10.3097 1265.77 11.5532C1268.42 12.7965 1271.06 14.0399 1273.76 15.2101C1275.29 15.7952 1277.6 16.3804 1279.05 15.9415C1290.69 12.7232 1299.25 15.8684 1306.08 23.1095C1309.59 26.8575 1309.73 26.7701 1314.24 24.0369L1314.45 23.9141L1314.45 23.9132C1318.2 21.6461 1321.95 19.379 1326.09 17.4775C1334.26 13.7472 1342.73 13.1621 1350.81 17.6969C1353.99 19.5255 1356.49 19.0135 1359.47 17.3312C1363.99 14.8444 1368.7 12.4306 1373.71 10.6021C1386.21 6.06723 1399.1 7.96894 1408.82 15.6489C1409.07 15.8524 1409.31 16.0468 1409.54 16.2311C1412.39 18.5651 1413.27 19.2792 1418.44 16.1609C1428.35 10.2364 1439.51 6.28665 1452.78 8.91979C1453.07 8.99294 1453.38 9.06608 1453.7 9.13922C1454.01 9.21236 1454.32 9.28551 1454.61 9.35865C1458.97 10.4376 1460.95 10.9271 1461.85 12.187C1462.59 13.2331 1462.59 14.8102 1462.59 17.6969C1462.59 32.9472 1462.57 48.1792 1462.55 63.4111C1462.52 78.6431 1462.5 93.8751 1462.5 109.125Z"/>
</mask>
<path fill-rule="evenodd" clip-rule="evenodd" d="M1462.5 109.125V168.737H1462.59C1462.55 245.708 1461.35 296.282 1460.26 341.661C1458.77 404.434 1457.51 457.264 1459.9 556.267H-19.9268C-19.9268 556.212 -19.9268 556.156 -19.9268 556.1C-19.9268 554.971 -19.927 553.842 -19.9272 552.705C-19.931 526.366 -19.9355 495.774 -17.9065 363.971C-18.0027 328.204 -18.1951 155.571 -18.1951 119.731C-18.1951 101.367 -18.0467 83.0247 -17.8982 64.6804C-17.7794 50.0003 -17.6606 35.3187 -17.6179 20.6226C-17.6179 18.2089 -16.7521 16.3804 -14.0585 15.0638C-12.6269 14.3835 -11.2219 13.6424 -9.80883 12.8971C-7.42388 11.6391 -5.016 10.3691 -2.41846 9.35865C12.6848 3.50723 24.3248 5.26265 35.2915 15.1369C38.1775 17.7701 39.9091 17.8432 43.276 15.7221C47.5088 13.0158 52.2225 10.6021 57.2249 8.70036C69.9231 3.87294 80.4088 5.18951 90.5097 12.7964C93.7804 15.2832 95.8968 15.5758 99.7448 13.3084C103.881 10.8946 108.691 8.91979 113.501 7.45694C126.007 3.58037 136.493 7.38379 145.824 13.3815C149.96 16.0878 153.424 16.8924 158.715 15.4295C166.314 13.3084 175.934 16.8192 181.417 22.8901C183.376 25.0527 184.362 26.1671 185.484 26.3248C186.675 26.4925 188.019 25.5791 190.845 23.6946C197.675 19.1598 204.698 14.5518 214.414 15.0638C218.454 15.2101 222.879 16.3804 226.342 18.0626C229.806 19.6718 231.826 19.5255 234.712 17.6969C241.349 13.4546 248.757 10.0901 257.511 8.77351C268.285 7.16437 277.136 10.0169 284.543 15.5758C286.795 17.2535 287.862 18.0627 288.991 18.163C290.225 18.2725 291.534 17.5358 294.548 16.1609C301.089 13.1621 307.919 10.1632 315.134 8.70036C324.658 6.79865 333.7 8.77351 340.723 14.3324C343.417 16.5266 345.244 16.4535 348.804 14.8444C354.768 12.1381 361.213 9.50493 367.947 8.40779C381.03 6.21351 390.939 10.8215 398.346 18.9404L398.581 19.1881C402.577 23.4037 402.591 23.4186 408.255 20.4763C419.51 14.6249 428.745 16.4535 434.324 23.5483C435.96 25.5963 437.691 25.3038 439.808 23.9872C442.982 21.9392 446.253 19.8912 449.716 18.2089C460.394 13.0889 469.726 14.1861 477.71 21.6466C480.596 24.3529 482.712 24.8649 486.079 22.2318C487.306 21.2443 488.857 20.5038 490.408 19.7632C490.925 19.5163 491.443 19.2695 491.948 19.0135C504.261 12.8695 512.053 13.5278 521.865 21.8661C524.559 24.2066 526.29 24.2066 529.08 21.9392C535.429 16.8924 542.644 12.5769 551.398 10.0901C563.038 6.72551 573.524 8.04208 582.278 14.9906C584.202 16.5266 586.03 17.2581 589.012 16.4535C599.017 13.6741 606.328 15.2101 612.869 21.3541C619.749 27.8201 619.795 27.7913 628.186 22.5579L628.357 22.4512C631.724 20.4032 635.284 18.4284 639.035 16.8924C646.635 13.8204 654.235 14.1129 660.872 18.5746C663.855 20.5495 666.067 20.5495 669.145 18.5015C672.897 16.0146 676.938 13.7472 681.17 11.8455C695.6 5.48208 708.972 7.23751 719.842 16.7461C721.884 18.5153 722.871 19.3755 723.914 19.4499C724.984 19.5262 726.113 18.7756 728.5 17.3312C732.541 14.9175 736.773 12.6501 741.295 10.8946C754.474 5.77465 766.018 7.31065 776.215 15.3564C779.005 17.5506 780.736 17.4044 783.815 15.6489C787.951 13.3815 792.376 11.2604 797.09 9.87065C811.808 5.40894 824.41 8.91979 833.453 19.5255C835.342 21.7518 836.281 22.8676 837.361 23.0284C838.482 23.1952 839.755 22.3354 842.4 20.6226C844.42 19.2329 846.729 18.0626 849.037 17.0386C858.176 13.0889 864.333 13.8935 871.163 19.8181C875.155 23.2872 875.203 23.257 879.751 20.3626L879.917 20.2569C882.515 18.6478 885.208 17.1118 888.094 15.7952C898.484 11.0409 908.681 12.2112 916.184 19.5255C919.07 22.3781 921.187 22.0855 924.265 19.9643C926.766 18.2821 929.46 16.6729 932.346 15.4295C942.158 11.1141 952.836 12.5769 959.666 19.3061C962.36 21.9392 964.091 21.9392 967.362 19.7449C972.749 16.0878 978.329 12.5769 984.389 9.72436C996.318 4.09237 1008.82 4.97008 1019.41 11.9918C1022.2 13.8204 1024.89 14.4786 1028.54 13.7472C1039.03 11.6261 1045.96 13.6741 1052.21 20.4032C1053.08 21.2809 1053.94 22.2318 1054.52 23.1826C1056.25 25.9621 1057.89 26.5472 1061.16 23.9872C1064.91 20.9883 1069.33 18.5015 1073.76 16.0878C1081.36 11.9918 1091.75 11.0409 1099.44 16.5266C1102.14 18.4284 1104.45 17.6969 1107.14 16.2341C1108.2 15.6835 1109.26 15.123 1110.31 14.5617C1115.02 12.066 1119.75 9.55433 1124.94 7.82265C1137.25 3.72666 1147.93 6.06722 1156.97 13.7472C1159.33 15.7527 1160.51 16.7596 1161.79 16.8983C1163.16 17.0479 1164.65 16.1868 1167.84 14.4786L1168.1 14.3418C1173.02 11.7521 1178.04 9.1101 1183.52 7.45694C1194.97 4.09237 1205.36 5.92094 1213.82 12.7964C1216.71 15.1369 1218.73 15.2832 1222.29 13.4546C1227.58 10.8215 1233.35 8.48094 1239.22 6.72551C1245.38 4.89694 1251.92 5.26265 1257.79 7.89579C1260.48 9.06617 1263.13 10.3097 1265.77 11.5532C1268.42 12.7965 1271.06 14.0399 1273.76 15.2101C1275.29 15.7952 1277.6 16.3804 1279.05 15.9415C1290.69 12.7232 1299.25 15.8684 1306.08 23.1095C1309.59 26.8575 1309.73 26.7701 1314.24 24.0369L1314.45 23.9141L1314.45 23.9132C1318.2 21.6461 1321.95 19.379 1326.09 17.4775C1334.26 13.7472 1342.73 13.1621 1350.81 17.6969C1353.99 19.5255 1356.49 19.0135 1359.47 17.3312C1363.99 14.8444 1368.7 12.4306 1373.71 10.6021C1386.21 6.06723 1399.1 7.96894 1408.82 15.6489C1409.07 15.8524 1409.31 16.0468 1409.54 16.2311C1412.39 18.5651 1413.27 19.2792 1418.44 16.1609C1428.35 10.2364 1439.51 6.28665 1452.78 8.91979C1453.07 8.99294 1453.38 9.06608 1453.7 9.13922C1454.01 9.21236 1454.32 9.28551 1454.61 9.35865C1458.97 10.4376 1460.95 10.9271 1461.85 12.187C1462.59 13.2331 1462.59 14.8102 1462.59 17.6969C1462.59 32.9472 1462.57 48.1792 1462.55 63.4111C1462.52 78.6431 1462.5 93.8751 1462.5 109.125Z" fill="#F08B3C" fill-opacity="0.2"/>
<path d="M1462.5 168.737H1457.5V173.737H1462.5V168.737ZM1462.59 168.737L1467.59 168.739L1467.6 163.737H1462.59V168.737ZM1460.26 341.661L1455.27 341.542L1460.26 341.661ZM1459.9 556.267V561.267H1465.02L1464.9 556.146L1459.9 556.267ZM-19.9268 556.267L-24.9268 556.268L-24.9259 561.267H-19.9268V556.267ZM-19.9272 552.705L-24.9272 552.706L-19.9272 552.705ZM-17.9065 363.971L-12.9071 364.048L-12.9064 364.002L-12.9065 363.957L-17.9065 363.971ZM-17.8982 64.6804L-12.8984 64.7208L-17.8982 64.6804ZM-17.6179 20.6226L-12.6179 20.6372L-12.6179 20.6299V20.6226H-17.6179ZM-14.0585 15.0638L-16.2046 10.5478L-16.2294 10.5596L-16.2542 10.5717L-14.0585 15.0638ZM-9.80883 12.8971L-12.1415 8.47456L-12.1415 8.47456L-9.80883 12.8971ZM-2.41846 9.35865L-4.22478 4.69633L-4.23116 4.69881L-2.41846 9.35865ZM35.2915 15.1369L38.6615 11.4433L38.6494 11.4322L38.6371 11.4212L35.2915 15.1369ZM43.276 15.7221L45.9412 19.9526L45.9553 19.9436L45.9694 19.9346L43.276 15.7221ZM57.2249 8.70036L59.0016 13.374V13.374L57.2249 8.70036ZM90.5097 12.7964L93.5359 8.81618L93.5267 8.80921L93.5176 8.80228L90.5097 12.7964ZM99.7448 13.3084L97.2248 8.98979L97.2156 8.99518L97.2064 9.00061L99.7448 13.3084ZM113.501 7.45694L114.956 12.2406L114.969 12.2367L114.982 12.2328L113.501 7.45694ZM145.824 13.3815L148.561 9.1974L148.544 9.18633L148.527 9.17541L145.824 13.3815ZM158.715 15.4295L160.047 20.2487L160.059 20.2454L158.715 15.4295ZM181.417 22.8901L177.707 26.2415L177.711 26.2463L181.417 22.8901ZM185.484 26.3248L186.18 21.3736L186.18 21.3736L185.484 26.3248ZM190.845 23.6946L188.079 19.5292L188.071 19.5349L190.845 23.6946ZM214.414 15.0638L214.151 20.0569L214.192 20.059L214.233 20.0605L214.414 15.0638ZM226.342 18.0626L224.158 22.5601L224.196 22.5789L224.235 22.5971L226.342 18.0626ZM234.712 17.6969L237.388 21.9205L237.396 21.9152L237.404 21.91L234.712 17.6969ZM257.511 8.77351L256.772 3.82835L256.767 3.82911L257.511 8.77351ZM284.543 15.5758L281.542 19.5749L281.549 19.5803L281.556 19.5858L284.543 15.5758ZM288.991 18.163L289.433 13.1826L288.991 18.163ZM294.548 16.1609L296.623 20.7099L296.631 20.7061L294.548 16.1609ZM315.134 8.70036L314.155 3.79716L314.148 3.79861L314.141 3.80007L315.134 8.70036ZM340.723 14.3324L343.881 10.4558L343.854 10.4337L343.826 10.412L340.723 14.3324ZM348.804 14.8444L350.863 19.4004L350.87 19.3976L348.804 14.8444ZM367.947 8.40779L368.751 13.3427L368.763 13.3408L368.774 13.3389L367.947 8.40779ZM398.346 18.9404L394.652 22.3103L394.685 22.3458L394.718 22.3807L398.346 18.9404ZM398.581 19.1881L402.21 15.7482L402.209 15.7478L398.581 19.1881ZM408.255 20.4763L410.56 24.9132L410.561 24.9126L408.255 20.4763ZM434.324 23.5483L430.394 26.6392L430.406 26.6538L430.417 26.6683L434.324 23.5483ZM439.808 23.9872L442.449 28.2328L442.484 28.211L442.518 28.1887L439.808 23.9872ZM449.716 18.2089L447.555 13.7004L447.543 13.7059L447.532 13.7115L449.716 18.2089ZM477.71 21.6466L481.13 17.9994L481.124 17.9933L477.71 21.6466ZM486.079 22.2318L489.16 26.1704L489.187 26.1486L489.215 26.1265L486.079 22.2318ZM490.408 19.7632L488.254 15.251V15.251L490.408 19.7632ZM491.948 19.0135L489.715 14.5395L489.701 14.5466L489.687 14.5537L491.948 19.0135ZM521.865 21.8661L525.145 18.0919L525.124 18.0738L525.103 18.056L521.865 21.8661ZM529.08 21.9392L525.969 18.0251L525.948 18.042L525.926 18.0591L529.08 21.9392ZM551.398 10.0901L552.764 14.8998L552.775 14.8966L552.786 14.8934L551.398 10.0901ZM582.278 14.9906L585.397 11.0831L585.386 11.0744L582.278 14.9906ZM589.012 16.4535L590.314 21.2809L590.332 21.276L590.35 21.271L589.012 16.4535ZM612.869 21.3541L616.293 17.7106L616.292 17.7095L612.869 21.3541ZM628.186 22.5579L630.832 26.8004L630.832 26.8004L628.186 22.5579ZM628.357 22.4512L625.759 18.1794L625.735 18.1939L625.711 18.2088L628.357 22.4512ZM639.035 16.8924L637.161 12.2568L637.151 12.2609L637.141 12.2651L639.035 16.8924ZM660.872 18.5746L658.083 22.7243L658.097 22.7339L658.112 22.7434L660.872 18.5746ZM669.145 18.5015L666.383 14.3339L666.376 14.3386L669.145 18.5015ZM681.17 11.8455L679.153 7.2706L679.137 7.27758L679.121 7.28468L681.17 11.8455ZM719.842 16.7461L716.55 20.5095L716.559 20.5173L716.568 20.525L719.842 16.7461ZM723.914 19.4499L723.559 24.4372L723.559 24.4372L723.914 19.4499ZM728.5 17.3312L725.936 13.0388L725.924 13.0461L725.912 13.0535L728.5 17.3312ZM741.295 10.8946L743.104 15.5557L743.105 15.5553L741.295 10.8946ZM776.215 15.3564L773.118 19.2816L773.124 19.2863L776.215 15.3564ZM783.815 15.6489L781.411 11.2644L781.374 11.2847L781.338 11.3055L783.815 15.6489ZM797.09 9.87065L798.504 14.6666L798.522 14.6612L798.54 14.6556L797.09 9.87065ZM833.453 19.5255L837.266 16.2905L837.258 16.2815L833.453 19.5255ZM837.361 23.0284L836.625 27.9739V27.9739L837.361 23.0284ZM842.4 20.6226L845.118 24.8193L845.176 24.7815L845.233 24.7421L842.4 20.6226ZM849.037 17.0386L847.054 12.4489L847.032 12.4584L847.01 12.468L849.037 17.0386ZM871.163 19.8181L874.443 16.0439L874.439 16.041L871.163 19.8181ZM879.751 20.3626L877.067 16.144L877.067 16.1443L879.751 20.3626ZM879.917 20.2569L877.284 16.0065L877.258 16.0223L877.233 16.0384L879.917 20.2569ZM888.094 15.7952L890.169 20.3442L890.175 20.3418L888.094 15.7952ZM916.184 19.5255L919.699 15.9694L919.687 15.9572L919.674 15.9451L916.184 19.5255ZM924.265 19.9643L921.474 15.8155L921.451 15.8312L921.428 15.8471L924.265 19.9643ZM932.346 15.4295L934.324 20.0214L934.341 20.014L934.358 20.0064L932.346 15.4295ZM959.666 19.3061L956.157 22.8678L956.164 22.8747L956.171 22.8815L959.666 19.3061ZM967.362 19.7449L970.148 23.8971L970.159 23.8894L970.17 23.8817L967.362 19.7449ZM984.389 9.72436L986.518 14.2483L986.524 14.2458L984.389 9.72436ZM1019.41 11.9918L1016.64 16.158L1016.65 16.1658L1016.66 16.1736L1019.41 11.9918ZM1028.54 13.7472L1029.53 18.6501L1029.54 18.6479L1028.54 13.7472ZM1052.21 20.4032L1048.55 23.8068L1048.6 23.8614L1048.65 23.9146L1052.21 20.4032ZM1054.52 23.1826L1050.24 25.7774L1050.26 25.802L1050.27 25.8265L1054.52 23.1826ZM1061.16 23.9872L1064.24 27.9246L1064.26 27.9088L1064.28 27.8928L1061.16 23.9872ZM1073.76 16.0878L1071.39 11.6864L1071.37 11.6923L1071.36 11.6983L1073.76 16.0878ZM1099.44 16.5266L1096.54 20.5982L1096.55 20.6047L1096.56 20.6112L1099.44 16.5266ZM1107.14 16.2341L1104.83 11.7971L1104.79 11.8183L1104.75 11.8402L1107.14 16.2341ZM1110.31 14.5617L1107.97 10.1447L1107.97 10.1448L1110.31 14.5617ZM1124.94 7.82265L1123.36 3.07825L1123.35 3.08031L1124.94 7.82265ZM1156.97 13.7472L1160.21 9.93712L1160.21 9.9362L1156.97 13.7472ZM1161.79 16.8983L1161.24 21.869V21.869L1161.79 16.8983ZM1167.84 14.4786L1165.51 10.0543L1165.5 10.0617L1165.48 10.0692L1167.84 14.4786ZM1168.1 14.3418L1165.77 9.9175V9.91751L1168.1 14.3418ZM1183.52 7.45694L1182.11 2.65984L1182.09 2.66476L1182.08 2.6698L1183.52 7.45694ZM1213.82 12.7964L1210.67 16.6775L1210.67 16.6798L1213.82 12.7964ZM1222.29 13.4546L1220.06 8.97833L1220.03 8.99259L1220 9.00722L1222.29 13.4546ZM1239.22 6.72551L1237.8 1.93243L1237.79 1.93525L1239.22 6.72551ZM1257.79 7.89579L1255.74 12.4576L1255.77 12.4698L1255.79 12.4817L1257.79 7.89579ZM1265.77 11.5532L1263.64 16.0783L1263.64 16.0783L1265.77 11.5532ZM1273.76 15.2101L1271.76 19.7959L1271.87 19.8423L1271.98 19.8837L1273.76 15.2101ZM1279.05 15.9415L1277.71 11.1223L1277.65 11.1393L1277.59 11.1578L1279.05 15.9415ZM1306.08 23.1095L1309.73 19.6931L1309.72 19.6859L1309.72 19.6787L1306.08 23.1095ZM1314.24 24.0369L1316.83 28.3142L1316.84 28.3136L1314.24 24.0369ZM1314.45 23.9141L1311.95 19.5854L1311.9 19.611L1311.86 19.6374L1314.45 23.9141ZM1314.45 23.9132L1316.95 28.2419L1316.99 28.2176L1317.04 28.1924L1314.45 23.9132ZM1326.09 17.4775L1324.01 12.9285L1324.01 12.9315L1324 12.9346L1326.09 17.4775ZM1350.81 17.6969L1353.31 13.3643L1353.28 13.3503L1353.26 13.3366L1350.81 17.6969ZM1359.47 17.3312L1357.06 12.9502L1357.04 12.9631L1357.01 12.9763L1359.47 17.3312ZM1373.71 10.6021L1372 5.90156L1371.99 5.90599L1373.71 10.6021ZM1408.82 15.6489L1411.95 11.7498L1411.93 11.738L1411.92 11.7263L1408.82 15.6489ZM1409.54 16.2311L1406.37 20.103L1406.37 20.1035L1409.54 16.2311ZM1418.44 16.1609L1415.87 11.8695L1415.86 11.8744L1415.86 11.8792L1418.44 16.1609ZM1452.78 8.91979L1454.01 4.07305L1453.88 4.04084L1453.75 4.01534L1452.78 8.91979ZM1453.7 9.13922L1452.56 14.0077V14.0077L1453.7 9.13922ZM1454.61 9.35865L1453.38 14.2054L1453.39 14.2089L1453.41 14.2124L1454.61 9.35865ZM1461.85 12.187L1457.78 15.0884V15.0885L1461.85 12.187ZM1462.55 63.4111L1457.55 63.4032V63.4033L1462.55 63.4111ZM1467.5 168.737V109.125H1457.5V168.737H1467.5ZM1462.59 163.737H1462.5V173.737H1462.59V163.737ZM1465.26 341.781C1466.35 296.391 1467.55 245.77 1467.59 168.739L1457.59 168.734C1457.55 245.646 1456.35 296.174 1455.27 341.542L1465.26 341.781ZM1464.9 556.146C1462.51 457.259 1463.77 404.52 1465.26 341.781L1455.27 341.542C1453.77 404.347 1452.5 457.268 1454.9 556.388L1464.9 556.146ZM-19.9268 561.267H1459.9V551.267H-19.9268V561.267ZM-24.9268 556.1C-24.9268 556.156 -24.9268 556.212 -24.9268 556.268L-14.9268 556.266C-14.9268 556.211 -14.9268 556.156 -14.9268 556.1H-24.9268ZM-24.9272 552.706C-24.927 553.843 -24.9268 554.971 -24.9268 556.1H-14.9268C-14.9268 554.971 -14.927 553.841 -14.9272 552.705L-24.9272 552.706ZM-22.9059 363.894C-24.9351 495.711 -24.931 526.331 -24.9272 552.706L-14.9272 552.705C-14.931 526.4 -14.9358 495.836 -12.9071 364.048L-22.9059 363.894ZM-23.1951 119.731C-23.1951 155.574 -23.0027 328.212 -22.9065 363.984L-12.9065 363.957C-13.0027 328.196 -13.1951 155.568 -13.1951 119.731H-23.1951ZM-22.8981 64.6399C-23.0465 82.9809 -23.1951 101.343 -23.1951 119.731H-13.1951C-13.1951 101.39 -13.0468 83.0686 -12.8984 64.7208L-22.8981 64.6399ZM-22.6178 20.6081C-22.6606 35.2891 -22.7792 49.9577 -22.8981 64.6399L-12.8984 64.7208C-12.7796 50.0429 -12.6607 35.3484 -12.6179 20.6372L-22.6178 20.6081ZM-16.2542 10.5717C-18.2443 11.5444 -19.9722 12.9169 -21.1376 14.8624C-22.2935 16.7922 -22.6179 18.8228 -22.6179 20.6226H-12.6179C-12.6179 20.0087 -12.5093 19.9183 -12.5589 20.0011C-12.6181 20.0998 -12.5663 19.8997 -11.8628 19.5559L-16.2542 10.5717ZM-12.1415 8.47456C-13.5702 9.22815 -14.883 9.91975 -16.2046 10.5478L-11.9125 19.5798C-10.3707 18.8472 -8.87353 18.0566 -7.47617 17.3196L-12.1415 8.47456ZM-4.23116 4.69881C-7.13815 5.82964 -9.79403 7.23639 -12.1415 8.47456L-7.47617 17.3196C-5.05373 16.0419 -2.89385 14.9086 -0.605757 14.0185L-4.23116 4.69881ZM38.6371 11.4212C32.585 5.97187 26.0651 2.5258 18.7423 1.40792C11.4655 0.297049 3.87451 1.55843 -4.22478 4.69633L-0.612144 14.021C6.39179 11.3074 12.1725 10.5208 17.2332 11.2934C22.2479 12.0589 27.0314 14.4277 31.9459 18.8527L38.6371 11.4212ZM40.6109 11.4916C39.9147 11.9302 39.5078 12.1223 39.2888 12.2028C39.108 12.2692 39.1964 12.2072 39.4414 12.2238C39.6966 12.2411 39.8111 12.322 39.7066 12.2641C39.5582 12.1818 39.2326 11.9644 38.6615 11.4433L31.9215 18.8305C33.5883 20.3514 35.8085 22.0006 38.7654 22.2009C41.6508 22.3964 44.084 21.1225 45.9412 19.9526L40.6109 11.4916ZM55.4481 4.0267C50.1127 6.05504 45.0928 8.62587 40.5826 11.5095L45.9694 19.9346C49.9248 17.4057 54.3324 15.1491 59.0016 13.374L55.4481 4.0267ZM93.5176 8.80228C87.8908 4.56484 81.9365 1.92481 75.4549 1.12331C68.9954 0.324536 62.369 1.39561 55.4481 4.0267L59.0016 13.374C64.7789 11.1777 69.7446 10.4933 74.2277 11.0477C78.6886 11.5993 83.0277 13.421 87.5018 16.7904L93.5176 8.80228ZM97.2064 9.00061C96.4385 9.4531 95.9355 9.66997 95.6168 9.77177C95.4664 9.81984 95.3727 9.83703 95.3253 9.84343C95.2809 9.84942 95.2644 9.84774 95.2643 9.84772C95.264 9.84771 95.2483 9.84708 95.2069 9.83545C95.1624 9.82295 95.0759 9.79419 94.9389 9.72903C94.6459 9.58968 94.2043 9.32438 93.5359 8.81618L87.4834 16.7765C89.3661 18.208 91.6707 19.6181 94.5573 19.8227C97.4632 20.0287 100.016 18.9518 102.283 17.6161L97.2064 9.00061ZM112.046 2.67328C106.951 4.22289 101.767 6.33927 97.2248 8.98979L102.265 17.6269C105.995 15.45 110.431 13.6167 114.956 12.2406L112.046 2.67328ZM148.527 9.17541C138.55 2.76239 126.497 -1.8061 112.021 2.68112L114.982 12.2328C125.517 8.96684 134.435 12.0052 143.12 17.5876L148.527 9.17541ZM157.382 10.6103C155.247 11.2006 153.828 11.2408 152.696 11.0433C151.546 10.8427 150.288 10.3274 148.561 9.1974L143.087 17.5656C145.496 19.1419 148.038 20.382 150.977 20.8946C153.933 21.4102 156.891 21.1213 160.047 20.2487L157.382 10.6103ZM185.128 19.5386C178.62 12.3333 167.125 7.8909 157.37 10.6136L160.059 20.2454C165.503 18.7258 173.248 21.3051 177.707 26.2415L185.128 19.5386ZM186.18 21.3736C187.1 21.503 187.488 21.9837 187.11 21.6435C186.949 21.4982 186.718 21.2696 186.369 20.897C186.021 20.5256 185.628 20.0904 185.124 19.5339L177.711 26.2463C178.604 27.2323 179.549 28.2921 180.419 29.0751C181.304 29.8721 182.747 30.989 184.787 31.2761L186.18 21.3736ZM188.071 19.5349C187.348 20.0169 186.778 20.3981 186.281 20.717C185.782 21.0376 185.45 21.235 185.215 21.3587C184.662 21.651 185.191 21.2344 186.18 21.3736L184.787 31.2761C186.968 31.583 188.765 30.7935 189.888 30.2C191.01 29.6072 192.313 28.7253 193.619 27.8543L188.071 19.5349ZM214.677 10.0707C203.111 9.46123 194.801 15.0666 188.079 19.5292L193.611 27.8601C200.55 23.253 206.285 19.6423 214.151 20.0569L214.677 10.0707ZM228.527 13.5652C224.472 11.5952 219.367 10.2398 214.595 10.0671L214.233 20.0605C217.541 20.1803 221.287 21.1655 224.158 22.5601L228.527 13.5652ZM232.036 13.4733C230.971 14.1481 230.595 14.1701 230.497 14.175C230.353 14.1821 229.84 14.1744 228.449 13.5282L224.235 22.5971C226.308 23.56 228.536 24.2838 230.99 24.1629C233.489 24.0397 235.567 23.0743 237.388 21.9205L232.036 13.4733ZM256.767 3.82911C247.147 5.27598 239.081 8.97068 232.019 13.4839L237.404 21.91C243.618 17.9386 250.367 14.9042 258.255 13.7179L256.767 3.82911ZM287.544 11.5767C279.156 5.2815 268.975 2.00583 256.772 3.82835L258.25 13.7187C267.595 12.3229 275.116 14.7524 281.542 19.5749L287.544 11.5767ZM289.433 13.1826C289.978 13.231 290.205 13.4465 289.81 13.2036C289.617 13.0848 289.351 12.9045 288.955 12.6187C288.559 12.3332 288.107 11.9959 287.53 11.5658L281.556 19.5858C282.595 20.3598 283.641 21.1487 284.566 21.7182C285.55 22.3244 286.874 22.9947 288.549 23.1434L289.433 13.1826ZM292.472 11.6119C291.718 11.956 291.002 12.2917 290.489 12.528C289.93 12.7855 289.547 12.9555 289.249 13.0745C288.609 13.33 288.862 13.1318 289.433 13.1826L288.549 23.1434C290.354 23.3037 291.879 22.7919 292.954 22.3627C293.961 21.9613 295.31 21.3087 296.623 20.7099L292.472 11.6119ZM314.141 3.80007C306.294 5.39096 298.987 8.62524 292.464 11.6158L296.631 20.7061C303.191 17.6989 309.544 14.9355 316.128 13.6007L314.141 3.80007ZM343.826 10.412C335.54 3.85296 324.97 1.63752 314.155 3.79716L316.113 13.6036C324.345 11.9598 331.861 13.6941 337.62 18.2528L343.826 10.412ZM346.744 10.2883C345.965 10.6404 345.443 10.833 345.077 10.9351C344.73 11.0318 344.623 11.0179 344.66 11.0195C344.902 11.0303 344.779 11.1873 343.881 10.4558L337.565 18.2089C339.361 19.6717 341.498 20.8893 344.217 21.0097C346.702 21.1198 348.963 20.2593 350.863 19.4004L346.744 10.2883ZM367.143 3.47286C359.717 4.68274 352.766 7.55569 346.738 10.2912L350.87 19.3976C356.77 16.7205 362.709 14.3271 368.751 13.3427L367.143 3.47286ZM402.04 15.5704C393.629 6.35148 382.073 0.968754 367.12 3.47667L368.774 13.3389C379.987 11.4583 388.249 15.2915 394.652 22.3103L402.04 15.5704ZM402.209 15.7478L401.974 15.5L394.718 22.3807L394.953 22.6284L402.209 15.7478ZM405.949 16.0395C404.448 16.8195 403.632 17.2358 403.048 17.4713C402.48 17.6999 402.79 17.471 403.459 17.5611C404.199 17.6606 404.52 18.0238 404.201 17.7552C403.816 17.4318 403.29 16.8878 402.21 15.7482L394.952 22.628C395.87 23.5962 396.845 24.635 397.764 25.408C398.748 26.236 400.175 27.2094 402.126 27.4718C404.007 27.7248 405.631 27.2114 406.784 26.747C407.92 26.2896 409.23 25.6043 410.56 24.9132L405.949 16.0395ZM438.255 20.4575C434.719 15.9621 429.883 13.007 424.105 12.205C418.409 11.4144 412.237 12.7705 405.948 16.0401L410.561 24.9126C415.527 22.3308 419.6 21.6755 422.73 22.11C425.779 22.5331 428.35 24.0398 430.394 26.6392L438.255 20.4575ZM437.167 19.7417C436.808 19.9646 436.613 20.0504 436.545 20.0757C436.485 20.0979 436.655 20.0238 436.987 20.0305C437.361 20.0381 437.735 20.1445 438.03 20.3114C438.29 20.4578 438.343 20.5677 438.232 20.4284L430.417 26.6683C431.894 28.5174 434.016 29.9723 436.784 30.0285C439.174 30.0769 441.164 29.0318 442.449 28.2328L437.167 19.7417ZM447.532 13.7115C443.774 15.5366 440.285 17.7292 437.097 19.7857L442.518 28.1887C445.68 26.1492 448.732 24.2458 451.901 22.7064L447.532 13.7115ZM481.124 17.9933C476.483 13.6568 471.203 10.9605 465.326 10.2466C459.491 9.53763 453.525 10.8378 447.555 13.7004L451.878 22.7174C456.586 20.4601 460.624 19.7488 464.12 20.1736C467.575 20.5933 470.953 22.1759 474.297 25.3L481.124 17.9933ZM482.999 18.2932C482.398 18.7636 482.059 18.927 481.938 18.9743C481.864 19.0032 481.996 18.9436 482.235 18.9686C482.451 18.9913 482.495 19.057 482.302 18.9434C482.082 18.8136 481.709 18.5424 481.13 17.9994L474.29 25.2939C475.913 26.8159 478.184 28.5993 481.194 28.9143C484.379 29.2476 487.039 27.8288 489.16 26.1704L482.999 18.2932ZM488.254 15.251C486.828 15.9317 484.711 16.9149 482.944 18.3371L489.215 26.1265C489.901 25.5738 490.886 25.0758 492.563 24.2753L488.254 15.251ZM489.687 14.5537C489.244 14.7783 488.781 14.9997 488.254 15.251L492.563 24.2753C493.07 24.033 493.641 23.7606 494.208 23.4733L489.687 14.5537ZM525.103 18.056C519.767 13.5215 514.425 10.6 508.308 10.0305C502.261 9.46747 496.246 11.2811 489.715 14.5395L494.18 23.4875C499.963 20.6019 504 19.6727 507.381 19.9874C510.691 20.2956 514.151 21.8723 518.627 25.6762L525.103 18.056ZM525.926 18.0591C525.673 18.2651 525.471 18.4134 525.312 18.519C525.153 18.6246 525.057 18.6746 525.016 18.6937C524.954 18.7231 525.137 18.628 525.477 18.6308C525.635 18.6321 525.771 18.6544 525.872 18.6812C525.969 18.7066 526.007 18.7291 525.981 18.7158C525.904 18.677 525.642 18.5243 525.145 18.0919L518.586 25.6403C520.198 27.0414 522.454 28.6064 525.396 28.6305C528.309 28.6543 530.595 27.1512 532.234 25.8193L525.926 18.0591ZM550.032 5.28039C540.48 7.99377 532.684 12.6874 525.969 18.0251L532.191 25.8533C538.175 21.0973 544.808 17.1601 552.764 14.8998L550.032 5.28039ZM585.386 11.0744C575.109 2.91687 562.861 1.57202 550.01 5.28671L552.786 14.8934C563.215 11.879 571.938 13.1673 579.169 18.9069L585.386 11.0744ZM587.709 11.6261C586.863 11.8544 586.555 11.773 586.489 11.7563C586.374 11.7268 586.076 11.625 585.397 11.0831L579.158 18.8982C580.404 19.8923 581.982 20.9242 584.007 21.4432C586.082 21.9751 588.178 21.8572 590.314 21.2809L587.709 11.6261ZM616.292 17.7095C612.464 14.1144 608.195 11.6818 603.25 10.6608C598.358 9.65052 593.194 10.1023 587.673 11.636L590.35 21.271C594.835 20.0252 598.328 19.8553 601.228 20.4542C604.076 21.0423 606.732 22.4498 609.446 24.9986L616.292 17.7095ZM625.54 18.3155C623.353 19.6793 622.024 20.5017 621.007 21.0034C620.016 21.4925 619.978 21.33 620.342 21.3578C620.75 21.3891 620.753 21.58 619.979 21.0018C619.153 20.384 618.093 19.4016 616.293 17.7106L609.445 24.9975C611.086 26.5396 612.611 27.9783 613.99 29.0101C615.423 30.0816 617.251 31.1506 619.58 31.3287C621.864 31.5034 623.841 30.7566 625.433 29.9705C627.001 29.1969 628.823 28.0533 630.832 26.8004L625.54 18.3155ZM625.711 18.2088L625.54 18.3155L630.832 26.8004L631.003 26.6936L625.711 18.2088ZM637.141 12.2651C633.041 13.9435 629.228 16.0692 625.759 18.1794L630.956 26.723C634.22 24.7372 637.526 22.9132 640.93 21.5196L637.141 12.2651ZM663.662 14.425C655.424 8.8877 646.033 8.67058 637.161 12.2568L640.909 21.5279C647.237 18.9701 653.046 19.3382 658.083 22.7243L663.662 14.425ZM666.376 14.3386C665.825 14.7051 665.453 14.8849 665.221 14.972C665.109 15.0136 665.037 15.0314 664.998 15.0391C664.96 15.0465 664.943 15.0467 664.938 15.0468C664.934 15.0468 664.92 15.0468 664.891 15.0414C664.86 15.0358 664.799 15.0218 664.701 14.9861C664.495 14.9111 664.152 14.7497 663.633 14.4058L658.112 22.7434C660.047 24.0252 662.326 25.0652 665.008 25.0465C667.674 25.0279 669.956 23.9679 671.915 22.6644L666.376 14.3386ZM679.121 7.28468C674.621 9.30647 670.343 11.7089 666.383 14.3339L671.908 22.6691C675.451 20.3204 679.254 18.188 683.219 16.4063L679.121 7.28468ZM723.134 12.9827C710.659 2.07046 695.18 0.202962 679.153 7.2706L683.188 16.4204C696.021 10.7612 707.285 12.4046 716.55 20.5095L723.134 12.9827ZM724.27 14.4625C725.08 14.5203 725.469 14.8831 725.133 14.6459C724.98 14.5383 724.753 14.3625 724.398 14.0663C724.045 13.7714 723.639 13.4198 723.116 12.9672L716.568 20.525C717.504 21.3359 718.486 22.1959 719.374 22.8211C720.302 23.475 721.706 24.3051 723.559 24.4372L724.27 14.4625ZM725.912 13.0535C725.277 13.4373 724.809 13.7248 724.373 13.984C723.944 14.2391 723.666 14.3938 723.47 14.4924C723.026 14.7153 723.457 14.4046 724.27 14.4625L723.559 24.4372C725.442 24.5715 726.972 23.9236 727.957 23.4292C728.902 22.9549 730.034 22.2474 731.089 21.6089L725.912 13.0535ZM739.485 6.23363C734.601 8.12973 730.102 10.5502 725.936 13.0388L731.065 21.6236C734.979 19.2848 738.945 17.1704 743.104 15.5557L739.485 6.23363ZM779.312 11.4311C767.604 2.19332 754.166 0.530341 739.484 6.23399L743.105 15.5553C754.782 11.019 764.431 12.428 773.118 19.2816L779.312 11.4311ZM781.338 11.3055C780.693 11.6729 780.297 11.8524 780.051 11.9393C779.833 12.0165 779.841 11.9821 779.985 11.9844C780.389 11.9907 780.311 12.2171 779.306 11.4264L773.124 19.2863C774.908 20.6899 777.091 21.9403 779.828 21.9832C782.405 22.0236 784.596 20.959 786.291 19.9924L781.338 11.3055ZM795.676 5.07474C790.473 6.60866 785.693 8.91751 781.411 11.2644L786.218 20.0334C790.209 17.8455 794.279 15.9121 798.504 14.6666L795.676 5.07474ZM837.258 16.2815C826.811 4.02872 812.085 0.10033 795.639 5.08567L798.54 14.6556C811.532 10.7175 822.01 13.8109 829.648 22.7695L837.258 16.2815ZM838.098 18.0829C839.094 18.2312 839.518 18.7736 839.16 18.4318C839.011 18.29 838.793 18.0613 838.459 17.6825C838.127 17.306 837.749 16.8603 837.266 16.2905L829.641 22.7605C830.506 23.7805 831.416 24.866 832.261 25.6712C833.114 26.4841 834.548 27.6647 836.625 27.9739L838.098 18.0829ZM839.682 16.426C838.999 16.8683 838.467 17.2145 837.999 17.5079C837.53 17.8021 837.224 17.9798 837.011 18.0896C836.495 18.3567 837.068 17.9297 838.097 18.0829L836.625 27.9739C838.775 28.294 840.545 27.5204 841.607 26.9712C842.67 26.4208 843.914 25.599 845.118 24.8193L839.682 16.426ZM847.01 12.468C844.566 13.5519 841.945 14.8662 839.566 16.5032L845.233 24.7421C846.894 23.5996 848.891 22.5734 851.065 21.6093L847.01 12.468ZM874.439 16.041C870.542 12.6599 866.407 10.375 861.595 9.76517C856.841 9.16281 852.074 10.2793 847.054 12.4489L851.021 21.6283C855.14 19.8483 858.02 19.3922 860.337 19.6858C862.596 19.972 864.955 21.0517 867.887 23.5951L874.439 16.041ZM877.067 16.1443C876.486 16.5136 876.032 16.8027 875.636 17.0439C875.239 17.286 874.981 17.4313 874.803 17.5205C874.413 17.7173 874.797 17.4409 875.546 17.4855C876.321 17.5316 876.696 17.8704 876.391 17.6592C876.247 17.56 876.028 17.3935 875.685 17.1086C875.344 16.8253 874.949 16.4836 874.443 16.0439L867.884 23.5922C868.807 24.3947 869.792 25.2554 870.709 25.8882C871.677 26.5566 873.097 27.3574 874.951 27.4678C876.78 27.5767 878.278 26.9669 879.3 26.4524C880.284 25.957 881.387 25.2481 882.436 24.5808L877.067 16.1443ZM877.233 16.0384L877.067 16.144L882.435 24.5811L882.601 24.4755L877.233 16.0384ZM886.019 11.2462C882.871 12.6825 879.98 14.336 877.284 16.0065L882.55 24.5073C885.049 22.9596 887.546 21.5411 890.169 20.3442L886.019 11.2462ZM919.674 15.9451C910.443 6.9466 897.944 5.7891 886.014 11.2486L890.175 20.3418C899.023 16.2928 906.918 17.4758 912.694 23.1059L919.674 15.9451ZM921.428 15.8471C920.811 16.2724 920.421 16.4787 920.19 16.5747C919.985 16.6601 920.025 16.6077 920.224 16.6106C920.45 16.6138 920.581 16.6821 920.545 16.6634C920.467 16.6223 920.19 16.4549 919.699 15.9694L912.669 23.0816C914.556 24.9463 916.974 26.565 920.081 26.6095C922.979 26.6511 925.369 25.2754 927.102 24.0816L921.428 15.8471ZM930.367 10.8376C927.093 12.248 924.117 14.0381 921.474 15.8155L927.055 24.1132C929.415 22.526 931.826 21.0978 934.324 20.0214L930.367 10.8376ZM963.175 15.7443C954.651 7.34657 941.699 5.8537 930.333 10.8526L934.358 20.0064C942.617 16.3744 951.02 17.8073 956.157 22.8678L963.175 15.7443ZM964.576 15.5928C963.899 16.0473 963.502 16.2493 963.291 16.334C963.114 16.4054 963.231 16.3273 963.53 16.3412C963.852 16.3562 964.039 16.4607 964.012 16.4452C963.935 16.4012 963.668 16.2265 963.161 15.7306L956.171 22.8815C957.781 24.4554 960.014 26.1883 963.065 26.3304C965.957 26.465 968.373 25.0876 970.148 23.8971L964.576 15.5928ZM982.26 5.20043C975.852 8.21633 970.023 11.8948 964.554 15.6081L970.17 23.8817C975.475 20.2808 980.805 16.9375 986.518 14.2483L982.26 5.20043ZM1022.17 7.82557C1010.09 -0.19028 995.722 -1.15562 982.254 5.20297L986.524 14.2458C996.914 9.34036 1007.56 10.1304 1016.64 16.158L1022.17 7.82557ZM1027.56 8.84439C1025.26 9.30449 1023.9 8.95842 1022.15 7.81001L1016.66 16.1736C1020.49 18.6823 1024.51 19.6528 1029.53 18.65L1027.56 8.84439ZM1055.87 16.9997C1052.27 13.1194 1048.22 10.3371 1043.33 8.94723C1038.5 7.5729 1033.29 7.68539 1027.55 8.84648L1029.54 18.6479C1034.28 17.6879 1037.78 17.7638 1040.6 18.5655C1043.36 19.3517 1045.9 20.9579 1048.55 23.8068L1055.87 16.9997ZM1058.79 20.5879C1057.89 19.1035 1056.67 17.8032 1055.77 16.8918L1048.65 23.9146C1049.48 24.7586 1049.99 25.3601 1050.24 25.7774L1058.79 20.5879ZM1058.07 20.0498C1057.78 20.2819 1057.55 20.4422 1057.37 20.5504C1057.19 20.6593 1057.1 20.6985 1057.09 20.704C1057.08 20.71 1057.47 20.5518 1058.09 20.6563C1058.38 20.7059 1058.64 20.8009 1058.84 20.9076C1059.04 21.0098 1059.15 21.1048 1059.18 21.1351C1059.21 21.1631 1059.19 21.1432 1059.1 21.0383C1059.02 20.9342 1058.91 20.7744 1058.76 20.5388L1050.27 25.8265C1051.24 27.3838 1053.1 29.9593 1056.43 30.5181C1059.69 31.0655 1062.42 29.3488 1064.24 27.9246L1058.07 20.0498ZM1071.36 11.6983C1066.96 14.0985 1062.17 16.7736 1058.03 20.0816L1064.28 27.8928C1067.64 25.2031 1071.7 22.9045 1076.15 20.4773L1071.36 11.6983ZM1102.35 12.4551C1092.64 5.53582 1080.1 6.98923 1071.39 11.6864L1076.13 20.4892C1082.61 16.9943 1090.86 16.546 1096.54 20.5982L1102.35 12.4551ZM1104.75 11.8402C1104.17 12.1543 1103.74 12.3615 1103.39 12.4963C1103.04 12.6282 1102.86 12.6603 1102.78 12.6681C1102.75 12.6716 1102.73 12.6702 1102.74 12.6704C1102.74 12.6706 1102.74 12.6714 1102.73 12.6693C1102.73 12.6675 1102.6 12.6325 1102.33 12.442L1096.56 20.6112C1098.82 22.204 1101.26 22.8763 1103.8 22.6161C1106.08 22.3823 1108.06 21.4229 1109.53 20.6279L1104.75 11.8402ZM1107.97 10.1448C1106.91 10.7077 1105.87 11.2581 1104.83 11.7971L1109.44 20.671C1110.53 20.1088 1111.6 19.5382 1112.66 18.9786L1107.97 10.1448ZM1123.35 3.08031C1117.71 4.96443 1112.62 7.67886 1107.97 10.1447L1112.66 18.9787C1117.42 16.4532 1121.79 14.1442 1126.52 12.565L1123.35 3.08031ZM1160.21 9.9362C1149.83 1.12358 1137.33 -1.56839 1123.36 3.07825L1126.51 12.567C1137.17 9.02171 1146.02 11.0109 1153.73 17.5582L1160.21 9.9362ZM1162.33 11.9276C1162.88 11.9883 1163.08 12.2254 1162.63 11.9142C1162.13 11.5677 1161.47 11.0079 1160.21 9.93712L1153.73 17.5573C1154.83 18.492 1155.94 19.4384 1156.94 20.1314C1157.99 20.8597 1159.41 21.6696 1161.24 21.869L1162.33 11.9276ZM1165.48 10.0692C1163.76 10.9929 1162.84 11.4943 1162.14 11.8002C1161.48 12.085 1161.73 11.8625 1162.33 11.9276L1161.24 21.869C1163.22 22.0836 1164.89 21.5054 1166.13 20.97C1167.31 20.4558 1168.73 19.6725 1170.2 18.8881L1165.48 10.0692ZM1165.77 9.91751L1165.51 10.0543L1170.17 18.903L1170.43 18.7661L1165.77 9.91751ZM1182.08 2.6698C1176.06 4.48437 1170.62 7.36333 1165.77 9.9175L1170.43 18.7661C1175.42 16.1409 1180.02 13.7358 1184.96 12.2441L1182.08 2.6698ZM1216.98 8.91517C1207.1 0.892039 1194.96 -1.11713 1182.11 2.65984L1184.93 12.254C1194.98 9.30187 1203.62 10.9498 1210.67 16.6775L1216.98 8.91517ZM1220 9.00722C1218.52 9.76908 1218.12 9.69885 1218.19 9.70358C1218.33 9.71425 1218.05 9.79021 1216.97 8.91296L1210.67 16.6798C1212.48 18.1431 1214.66 19.4625 1217.42 19.6743C1220.1 19.8801 1222.5 18.9688 1224.57 17.9021L1220 9.00722ZM1237.79 1.93525C1231.62 3.77967 1225.58 6.22979 1220.06 8.97833L1224.52 17.931C1229.58 15.4132 1235.08 13.1822 1240.65 11.5158L1237.79 1.93525ZM1259.83 3.334C1252.84 0.195192 1245.06 -0.225763 1237.8 1.93244L1240.64 11.5186C1245.69 10.0196 1251 10.3301 1255.74 12.4576L1259.83 3.334ZM1267.9 7.02814C1265.26 5.78975 1262.55 4.51456 1259.78 3.3099L1255.79 12.4817C1258.41 13.6178 1260.99 14.8296 1263.64 16.0783L1267.9 7.02814ZM1275.75 10.6242C1273.13 9.48827 1270.55 8.27659 1267.9 7.02813L1263.64 16.0783C1266.28 17.3165 1268.99 18.5915 1271.76 19.7959L1275.75 10.6242ZM1277.59 11.1578C1277.85 11.0784 1277.97 11.0953 1277.85 11.0947C1277.75 11.0942 1277.57 11.0811 1277.29 11.0332C1276.73 10.9353 1276.08 10.7436 1275.53 10.5364L1271.98 19.8837C1272.97 20.2617 1274.25 20.6552 1275.58 20.8864C1276.79 21.095 1278.66 21.2867 1280.5 20.7252L1277.59 11.1578ZM1309.72 19.6787C1305.83 15.5541 1301.24 12.3887 1295.76 10.8007C1290.27 9.21035 1284.26 9.312 1277.71 11.1223L1280.38 20.7607C1285.47 19.3527 1289.57 19.4178 1292.97 20.4057C1296.39 21.396 1299.5 23.4238 1302.44 26.5403L1309.72 19.6787ZM1311.66 19.7597C1311.08 20.1086 1310.63 20.3818 1310.23 20.6095C1309.84 20.8382 1309.58 20.9738 1309.41 21.0557C1309.01 21.2461 1309.46 20.9452 1310.29 21.029C1311.18 21.1189 1311.61 21.5521 1311.38 21.3627C1311.27 21.2743 1311.09 21.1111 1310.8 20.8148C1310.51 20.5214 1310.17 20.1609 1309.73 19.6931L1302.43 26.5259C1303.25 27.4035 1304.14 28.3561 1305.02 29.0772C1305.94 29.8401 1307.35 30.7834 1309.28 30.9783C1311.15 31.1671 1312.7 30.5661 1313.7 30.0886C1314.69 29.6205 1315.8 28.9428 1316.83 28.3142L1311.66 19.7597ZM1311.86 19.6374L1311.65 19.7603L1316.84 28.3136L1317.04 28.1907L1311.86 19.6374ZM1311.95 19.5845L1311.95 19.5854L1316.95 28.2427L1316.95 28.2419L1311.95 19.5845ZM1324 12.9346C1319.57 14.9724 1315.58 17.3872 1311.86 19.634L1317.04 28.1924C1320.82 25.9049 1324.34 23.7856 1328.18 22.0204L1324 12.9346ZM1353.26 13.3366C1343.46 7.83834 1333.26 8.70819 1324.01 12.9285L1328.16 22.0265C1335.27 18.7862 1342 18.4858 1348.36 22.0572L1353.26 13.3366ZM1357.01 12.9763C1355.8 13.6586 1355.17 13.8183 1354.82 13.846C1354.59 13.8639 1354.17 13.8623 1353.31 13.3643L1348.32 22.0296C1350.62 23.3601 1353.04 24.0168 1355.6 23.8152C1358.04 23.6235 1360.15 22.6861 1361.93 21.6861L1357.01 12.9763ZM1371.99 5.90599C1366.63 7.86641 1361.65 10.4255 1357.06 12.9502L1361.88 21.7122C1366.33 19.2632 1370.78 16.9949 1375.42 15.2982L1371.99 5.90599ZM1411.92 11.7263C1400.75 2.89422 1386.01 0.820504 1372 5.90157L1375.41 15.3026C1386.41 11.3139 1397.46 13.0437 1405.72 19.5715L1411.92 11.7263ZM1412.7 12.3591C1412.47 12.1758 1412.22 11.9685 1411.95 11.7498L1405.69 19.5481C1405.92 19.7362 1406.15 19.9178 1406.37 20.103L1412.7 12.3591ZM1415.86 11.8792C1414.65 12.6069 1413.91 12.9787 1413.44 13.1613C1413 13.3347 1413.08 13.2271 1413.45 13.2514C1413.88 13.2797 1414.12 13.4432 1414.02 13.3816C1413.8 13.2488 1413.5 13.0105 1412.7 12.3587L1406.37 20.1035C1407.4 20.9459 1409.65 23.0228 1412.79 23.2298C1415.77 23.4261 1418.54 21.9364 1421.02 20.4427L1415.86 11.8792ZM1453.75 4.01534C1438.82 1.05333 1426.38 5.58746 1415.87 11.8695L1421 20.4523C1430.32 14.8853 1440.19 11.52 1451.81 13.8242L1453.75 4.01534ZM1454.83 4.2707C1454.51 4.19511 1454.25 4.13277 1454.01 4.07305L1451.55 13.7665C1451.89 13.8531 1452.25 13.937 1452.56 14.0077L1454.83 4.2707ZM1455.84 4.51191C1455.5 4.42534 1455.14 4.3414 1454.83 4.2707L1452.56 14.0077C1452.88 14.0833 1453.15 14.1457 1453.38 14.2054L1455.84 4.51191ZM1465.92 9.28556C1464.58 7.40762 1462.69 6.53076 1461.22 6.00043C1459.77 5.47699 1457.88 5.01635 1455.81 4.50491L1453.41 14.2124C1455.7 14.7799 1456.98 15.1035 1457.83 15.4095C1458.67 15.7087 1458.22 15.7065 1457.78 15.0884L1465.92 9.28556ZM1467.59 17.6969C1467.59 16.3573 1467.6 14.9359 1467.47 13.7288C1467.34 12.4686 1467.01 10.8214 1465.92 9.28553L1457.78 15.0885C1457.43 14.5986 1457.47 14.2631 1457.53 14.7747C1457.55 15.0162 1457.57 15.3582 1457.58 15.8674C1457.59 16.3762 1457.59 16.9609 1457.59 17.6969H1467.59ZM1467.55 63.4191C1467.57 48.1877 1467.59 32.9518 1467.59 17.6969H1457.59C1457.59 32.9426 1457.57 48.1706 1457.55 63.4032L1467.55 63.4191ZM1467.5 109.125C1467.5 93.8797 1467.52 78.6517 1467.55 63.419L1457.55 63.4033C1457.52 78.6346 1457.5 93.8705 1457.5 109.125H1467.5Z" fill="#B23632" fill-opacity="0.5" mask="url(#path-1-outside-1_57_1485)"/>
</svg>
