<svg width="33" height="33" viewBox="0 0 33 33" fill="none" xmlns="http://www.w3.org/2000/svg">
<path fill-rule="evenodd" clip-rule="evenodd" d="M7.63183 16.3486C7.63183 15.3209 7.8024 14.3356 8.1072 13.4115L2.77501 9.33984C1.73577 11.4497 1.15039 13.8273 1.15039 16.3486C1.15039 18.8678 1.73527 21.2437 2.77279 23.3523L8.10201 19.2727C7.80017 18.3529 7.63183 17.3712 7.63183 16.3486Z" fill="#FBBC05"/>
<path fill-rule="evenodd" clip-rule="evenodd" d="M16.9943 7.00159C19.2268 7.00159 21.2432 7.79264 22.8276 9.087L27.4364 4.48456C24.628 2.03947 21.0272 0.529297 16.9943 0.529297C10.7331 0.529297 5.352 4.1098 2.77539 9.34162L8.10733 13.4133C9.33593 9.684 12.8381 7.00159 16.9943 7.00159Z" fill="#EA4335"/>
<path fill-rule="evenodd" clip-rule="evenodd" d="M16.9943 25.6969C12.8383 25.6969 9.33618 23.0145 8.10758 19.2852L2.77539 23.3561C5.352 28.5887 10.7331 32.1692 16.9943 32.1692C20.8586 32.1692 24.5481 30.7969 27.317 28.226L22.2558 24.3133C20.8277 25.2129 19.0293 25.6969 16.9943 25.6969Z" fill="#34A853"/>
<path fill-rule="evenodd" clip-rule="evenodd" d="M32.1173 16.353C32.1173 15.4181 31.9732 14.4112 31.7572 13.4766H16.9941V19.5892H25.492C25.0671 21.6733 23.9107 23.2755 22.2556 24.3182L27.3169 28.2309C30.2255 25.5315 32.1173 21.5099 32.1173 16.353Z" fill="#4285F4"/>
</svg>
