<svg width="105" height="91" viewBox="0 0 105 91" fill="none" xmlns="http://www.w3.org/2000/svg">
<g opacity="0.4">
<path d="M55.4854 35.178C55.4854 35.178 59.9165 30.2007 67.7467 30.9291C74.6665 31.5968 78.9155 37.606 78.3085 43.9795C77.5801 51.4455 70.2354 59.5793 52.5718 65.5885C36.3651 56.3015 30.72 46.8931 31.4484 39.427C32.0554 32.9929 37.3969 27.9548 44.3167 28.6225C52.0255 29.4116 55.4854 35.178 55.4854 35.178Z" fill="#F48C7F"/>
<path d="M-2.24032 32.5679C4.37593 34.3282 9.83889 35.3601 15.1805 36.1492C16.9407 36.392 19.9757 37.3632 21.4325 36.0278C22.1609 35.3601 22.4037 34.3889 21.8574 33.4784C20.7648 31.8395 18.0333 32.0216 16.2123 31.7181C10.7494 30.929 4.61873 29.715 -1.51193 28.1976C-2.66522 27.8941 -3.87921 28.8652 -4.06131 30.0185C-4.24341 31.2932 -3.39362 32.2644 -2.24032 32.5679Z" fill="#F48C7F"/>
<path d="M86.685 60.1256C89.2951 60.5505 91.9052 60.9147 94.5152 61.3396C97.0039 61.7038 99.9175 62.6143 102.406 62.068C104.227 61.7038 104.773 59.3972 103.013 58.4867C100.767 57.2727 97.793 57.2727 95.3043 56.9085C92.6942 56.5443 90.0842 56.1194 87.4741 55.8159C84.6212 55.3911 83.8928 59.64 86.685 60.1256Z" fill="#F48C7F"/>
<path d="M16.6982 70.3231C20.8258 65.3457 25.0141 64.2532 28.4132 62.6143C30.2342 61.7645 29.6879 59.2151 27.6242 59.2151C22.0398 59.2758 16.6375 63.4641 13.2991 67.5916C11.5388 69.7768 14.8772 72.5083 16.6982 70.3231Z" fill="#F48C7F"/>
<path d="M44.6199 88.5938C44.9234 85.8623 45.7125 83.3129 47.1086 80.9456C47.9584 79.4888 51.7217 75.6648 48.7475 74.3901C45.9553 73.1761 43.7094 77.6679 42.7382 79.6102C41.4028 82.1596 40.553 84.9518 40.3102 87.8047C40.0067 90.6576 44.3164 91.4467 44.6199 88.5938Z" fill="#F48C7F"/>
<path d="M69.2641 75.6039C70.5388 76.8786 71.8135 78.1533 73.1488 79.428C74.4235 80.7027 75.5768 82.463 77.5799 82.3416C78.6725 82.2809 79.2795 81.249 79.2795 80.2778C79.3402 78.4568 77.155 77.1214 76.0017 75.9681C74.727 74.6934 73.3916 73.4187 72.117 72.2047C71.2672 71.3549 69.689 71.6584 68.9606 72.5082C68.1108 73.4794 68.3536 74.7541 69.2641 75.6039Z" fill="#F48C7F"/>
<path d="M39.9455 16.4826C36.425 2.3396 36.5463 2.2789 35.6359 1.00421C34.6647 -0.270482 32.4795 0.154415 32.176 1.7933C31.9332 3.43219 31.9939 3.18939 35.7572 18.0608C36.0607 19.2141 37.6389 19.7604 38.6708 19.3962C39.8848 18.9106 40.249 17.6966 39.9455 16.4826Z" fill="#F48C7F"/>
<path d="M63.7404 19.9425C64.9543 17.8787 65.9255 15.6935 66.6539 13.387C67.3216 11.2625 68.657 8.1061 66.8967 6.28511C66.5325 5.92091 65.6827 5.79951 65.1971 5.98161C63.1334 6.9528 63.0727 9.98778 62.4657 11.9302C61.798 14.0547 60.8268 16.1184 59.7949 18.1215C59.2486 19.1534 59.8556 20.5495 60.8875 21.0351C62.0408 21.5814 63.1941 20.9744 63.7404 19.9425Z" fill="#F48C7F"/>
<path d="M97.0031 27.2264C97.5494 26.2553 96.8818 25.1627 96.032 24.7378C94.3324 23.7666 91.7223 25.1627 90.0834 25.7697C88.141 26.5588 86.32 27.4692 84.5597 28.5618C83.5278 29.1688 83.4064 30.747 84.0741 31.6575C84.8632 32.6894 86.0772 32.7501 87.1698 32.1431C93.9682 28.3797 95.6677 29.5937 97.0031 27.2264Z" fill="#F48C7F"/>
</g>
</svg>
