<svg xmlns="http://www.w3.org/2000/svg" width="128" height="68" viewBox="0 0 128 68" fill="none">
<path d="M86.4439 42.1028C87.5069 41.175 88.5698 40.2601 89.5815 39.2678C90.8493 38.0307 92.5526 37.6184 94.1534 38.2756C95.7158 38.9199 96.8171 40.4662 96.5738 42.2317C96.4457 43.2368 95.8566 44.229 95.3059 45.1053C94.4735 46.4197 93.4746 47.6439 92.8855 48.43C97.1245 49.1387 102.17 49.9892 107.216 50.8268C107.216 50.9944 107.229 51.1619 107.229 51.3165C104.911 53.9196 102.593 56.5226 100.275 59.1385C98.9174 60.6591 98.6612 62.4245 99.468 64.2544C100.262 66.0456 101.735 67.0121 103.707 67.0121C111.327 66.9992 118.947 66.9476 126.566 66.9219C127.296 66.9219 127.629 66.7028 127.591 65.9167C127.54 64.9245 127.616 63.9193 127.578 62.9142C127.45 59.538 125.452 57.6179 122.123 57.605C120.752 57.605 119.382 57.6179 118.024 57.6179C116.859 57.6179 115.694 57.6179 114.221 57.6179C115.246 56.4582 115.988 55.5046 116.834 54.667C118.844 52.7082 119.894 50.2598 120.611 47.6181C121.7 43.6492 120.368 40.3116 116.859 38.3787C109.892 34.5256 102.414 32.8375 94.4863 33.5334C90.4139 33.8942 87.494 36.1493 85.8932 39.9894C85.5603 40.7755 85.5091 41.6776 85.2529 42.8502C85.8932 42.4378 86.2006 42.309 86.4439 42.1028Z" fill="black"/>
<path d="M18.9548 48.9711C18.0968 48.0175 17.8534 47.0768 18.1608 45.917C18.9804 42.8243 19.7872 39.7316 20.6709 36.6646C20.8629 35.9816 20.7989 35.6466 20.2226 35.2342C17.9303 33.5461 15.9965 31.4972 14.511 29.0488C13.1535 26.8066 13.6273 24.4226 15.6379 23.134C17.6357 21.8582 19.9537 22.5283 21.4136 24.6803C22.1692 25.7886 23.0785 26.7937 23.9237 27.8375C24.0645 27.7859 24.2054 27.7473 24.3463 27.6957C24.4103 26.6391 24.5896 25.5824 24.5384 24.5386C24.3719 21.201 22.3357 19.165 19.0188 18.9588C14.7799 18.7011 11.5527 20.5052 9.28596 24.0489C5.23914 30.3503 3.12609 37.2703 2.88277 44.783C2.7419 49.1128 4.70127 52.0638 8.88897 53.056C11.4502 53.6617 12.193 55.9039 13.781 57.4503C10.9764 57.6049 8.24865 57.5534 5.52088 57.6178C2.56261 57.708 0.539195 59.7698 0.62884 62.4759C0.718485 65.1176 2.83154 67.0119 5.71298 67.0119C11.7576 67.0248 17.815 66.999 23.8596 67.0248C26.0111 67.0377 27.6888 66.2516 28.5852 64.2414C29.456 62.2955 29.0206 60.5172 27.6247 58.9322C24.7305 55.6204 21.9003 52.2442 18.9548 48.9711Z" fill="black"/>
<path d="M30.4017 20.982C36.0621 20.982 40.6468 16.4202 40.6468 10.7889C40.6468 5.02869 36.1133 0.441162 30.4145 0.441162C24.7284 0.441162 20.2462 5.02869 20.2334 10.8275C20.2462 16.4073 24.8309 20.982 30.4017 20.982Z" fill="black"/>
<path d="M74.9941 39.7834C80.5648 39.8349 85.1879 35.3118 85.2776 29.7449C85.3672 23.9847 80.8722 19.2941 75.2118 19.2297C69.5257 19.1781 64.941 23.7012 64.8386 29.4743C64.7361 35.0154 69.3848 39.7318 74.9941 39.7834Z" fill="black"/>
<path d="M94.4208 44.358C95.8167 42.8761 95.8423 41.1107 94.5873 39.9251C93.2938 38.7009 91.5394 38.8814 90.1179 40.4148C88.1329 42.5411 85.8149 44.1776 83.1128 45.2601C78.5281 47.1157 73.9818 46.8064 69.4483 45.0152C67.6682 44.3065 66.0931 45.0024 65.4655 46.6389C64.8636 48.1853 65.6064 49.7574 67.2969 50.4533C70.3064 51.7161 73.4439 52.3733 77.3883 52.3991C83.7787 52.2831 89.6184 49.461 94.4208 44.358Z" fill="black"/>
<path d="M42.3381 34.6415C42.9528 33.5848 42.7479 32.4637 41.9539 31.4972C41.1471 30.5307 39.9433 30.1828 38.6883 30.6725C36.3447 31.5745 33.9755 32.2704 31.4399 32.1157C26.535 31.8194 23.0132 29.2292 20.3751 25.2216C19.3634 23.6881 17.6986 23.2242 16.3027 24.0618C14.8556 24.9252 14.4202 26.755 15.4191 28.3143C19.3378 34.3837 24.7677 37.8373 32.0674 38.0306C35.0641 38.0177 37.9199 37.3605 40.6348 36.162C41.3008 35.8785 41.9667 35.2729 42.3381 34.6415Z" fill="black"/>
<path d="M46.8975 44.6672C51.3541 44.6672 55.6827 44.6672 60.1393 44.6672C59.9856 44.1775 59.896 43.778 59.7551 43.4043C58.5129 40.0023 57.2706 36.6132 56.0284 33.2241C55.2857 31.2139 55.2857 31.2783 53.0958 31.201C52.02 31.1623 51.6102 31.5747 51.2772 32.5283C49.9582 36.2524 48.5623 39.9379 47.192 43.6492C47.0639 43.9584 46.9999 44.3064 46.8975 44.6672Z" fill="black"/>
<path d="M47.0393 57.6824C43.9913 57.6824 41.0331 57.6824 38.0107 57.6824C38.0107 60.8009 38.0107 63.7261 38.0107 66.7286C41.0587 66.7286 44.0426 66.7286 47.0393 66.7286C47.0393 63.6616 47.0393 60.6978 47.0393 57.6824Z" fill="black"/>
<path d="M69.5905 57.708C66.5297 57.708 63.5714 57.708 60.626 57.708C60.626 60.7878 60.626 63.7646 60.626 66.7671C63.6611 66.7671 66.5938 66.7671 69.5905 66.7671C69.5905 63.6486 69.5905 60.6847 69.5905 57.708Z" fill="black"/>
<path d="M58.2816 57.6694C55.2593 57.6694 52.3395 57.6694 49.3428 57.6694C49.3428 60.7493 49.3428 63.7389 49.3428 66.7543C52.3651 66.7543 55.2977 66.7543 58.2816 66.7543C58.2816 63.6487 58.2816 60.6719 58.2816 57.6694Z" fill="black"/>
<path d="M58.731 46.832C52.9041 46.832 47.1541 46.832 41.3271 46.832C41.3271 48.0691 41.3271 49.216 41.3271 50.4144C47.1669 50.4144 52.9297 50.4144 58.731 50.4144C58.731 49.1773 58.731 48.0305 58.731 46.832Z" fill="black"/>
<path d="M44.6436 55.7624C50.5089 55.7624 56.2333 55.7624 61.9706 55.7624C61.9706 54.5124 61.9706 53.3784 61.9706 52.2444C56.1437 52.2444 50.4064 52.2444 44.6436 52.2444C44.6436 53.4557 44.6436 54.5639 44.6436 55.7624Z" fill="black"/>
</svg>