<svg width="520" height="91" viewBox="0 0 520 91" fill="none" xmlns="http://www.w3.org/2000/svg">
<path opacity="0.2" d="M519.516 50.5607C519.516 44.9038 502.379 39.9464 476.553 37.0871C486.208 34.5775 491.759 31.5742 491.759 28.3446C491.759 19.4787 449.641 12.2996 397.626 12.2996C389.42 12.2996 381.454 12.4847 373.851 12.8139C362.99 6.00504 326.423 0.98584 282.977 0.98584C250.996 0.98584 222.756 3.70115 205.739 7.87696C191.861 6.49873 175.81 5.71705 158.673 5.71705C106.658 5.71705 64.5394 12.8962 64.5394 21.762C64.5394 22.9963 65.3842 24.1894 66.9531 25.3619C28.4551 27.3778 0.577148 33.4667 0.577148 40.6869C0.577148 45.6444 13.7317 50.067 34.3685 53.0086C24.4725 55.5388 18.6797 58.5832 18.6797 61.8745C18.6797 70.7404 60.7982 77.9195 112.813 77.9195C119.088 77.9195 125.243 77.8166 131.157 77.6109C138.881 85.1397 177.379 90.8789 223.842 90.8789C256.547 90.8789 285.27 88.0402 302.165 83.7409C316.527 85.2632 333.543 86.1477 351.766 86.1477C403.781 86.1477 445.9 78.9686 445.9 70.1027C445.9 68.8068 444.934 67.5314 443.244 66.3177C486.691 64.8984 519.516 58.3775 519.516 50.5607Z" fill="#B23632"/>
</svg>
