<svg width="27" height="23" viewBox="0 0 27 23" fill="none" xmlns="http://www.w3.org/2000/svg">
<path d="M13.4626 22.3965C13.1169 22.3974 12.7744 22.3298 12.4548 22.1978C12.1352 22.0658 11.845 21.8719 11.6006 21.6273L2.59667 12.6233C1.88539 11.9043 1.3243 11.0509 0.9461 10.1129C0.567896 9.17492 0.380136 8.17103 0.393758 7.15974C0.400611 6.23298 0.590235 5.31667 0.951769 4.46331C1.3133 3.60995 1.83964 2.8363 2.50064 2.18667C3.16163 1.53704 3.9443 1.0242 4.80381 0.677526C5.66331 0.33085 6.58277 0.157149 7.50951 0.166373C8.45284 0.156871 9.38847 0.336903 10.2609 0.695791C11.1334 1.05468 11.9248 1.58512 12.5884 2.25564L13.4626 3.12981L14.1794 2.41299C15.4172 1.14244 17.0734 0.36351 18.8414 0.220462C20.6095 0.077414 22.3694 0.579946 23.7953 1.63498C24.607 2.26005 25.2762 3.05089 25.7583 3.95482C26.2405 4.85875 26.5245 5.85503 26.5915 6.87731C26.6585 7.89959 26.5069 8.92442 26.1469 9.88354C25.7868 10.8427 25.2265 11.7141 24.5034 12.4397L15.3246 21.6273C15.0803 21.8719 14.79 22.0658 14.4704 22.1978C14.1509 22.3298 13.8084 22.3974 13.4626 22.3965ZM7.47454 1.90597C6.08506 1.90455 4.74954 2.44378 3.75057 3.40955C3.24128 3.89956 2.83627 4.48744 2.55986 5.1379C2.28346 5.78835 2.14136 6.48796 2.1421 7.19471C2.13444 7.97212 2.28117 8.74332 2.57378 9.4636C2.86639 10.1839 3.29907 10.8389 3.84673 11.3907L12.8507 20.3947C12.932 20.4766 13.0286 20.5416 13.1352 20.586C13.2417 20.6304 13.3559 20.6533 13.4714 20.6533C13.5868 20.6533 13.701 20.6304 13.8075 20.586C13.9141 20.5416 14.0107 20.4766 14.092 20.3947L23.2795 11.1984C23.8188 10.6477 24.2355 9.98914 24.5022 9.26596C24.7689 8.54279 24.8795 7.77137 24.8268 7.00239C24.7801 6.22552 24.5662 5.46792 24.1995 4.78143C23.8329 4.09493 23.3223 3.49576 22.7026 3.02491C21.6152 2.2232 20.2735 1.84413 18.9274 1.95832C17.5813 2.0725 16.3226 2.67216 15.3858 3.64557L14.0833 4.98305C14.002 5.06499 13.9053 5.13002 13.7988 5.1744C13.6923 5.21878 13.578 5.24163 13.4626 5.24163C13.3472 5.24163 13.2329 5.21878 13.1264 5.1744C13.0199 5.13002 12.9232 5.06499 12.8419 4.98305L11.3559 3.49696C10.3323 2.48229 8.95076 1.91084 7.50951 1.90597H7.47454Z" fill="#B23632"/>
</svg>
