<svg fill="#B23632" width="25px" height="25px" viewBox="0 0 0.75 0.75" xmlns="http://www.w3.org/2000/svg"><path fill-rule="evenodd" d="M0.189 0.586A0.28 0.28 0 0 0 0.375 0.656a0.28 0.28 0 0 0 0.186 -0.071C0.552 0.553 0.487 0.531 0.375 0.531c-0.112 0 -0.177 0.021 -0.186 0.054Zm-0.045 -0.05C0.179 0.489 0.262 0.469 0.375 0.469c0.113 0 0.196 0.02 0.231 0.066a0.281 0.281 0 1 0 -0.462 0ZM0.375 0.719C0.185 0.719 0.031 0.565 0.031 0.375S0.185 0.031 0.375 0.031s0.344 0.154 0.344 0.344 -0.154 0.344 -0.344 0.344ZM0.25 0.313c0 -0.07 0.049 -0.125 0.125 -0.125 0.075 0 0.125 0.06 0.125 0.131 0 0.102 -0.056 0.15 -0.125 0.15 -0.07 0 -0.125 -0.049 -0.125 -0.156Zm0.063 0c0 0.071 0.026 0.094 0.063 0.094 0.037 0 0.063 -0.022 0.063 -0.087 0 -0.039 -0.025 -0.069 -0.063 -0.069 -0.04 0 -0.063 0.025 -0.063 0.063Z"/></svg>