<svg width="33" height="32" viewBox="0 0 33 32" fill="none" xmlns="http://www.w3.org/2000/svg">
<rect x="0.612305" y="0.0151367" width="31.666" height="31.426" rx="10" fill="#FCE8D8"/>
<path d="M20.7446 16.6655H13.6328C13.3842 16.6655 13.1457 16.5668 12.9699 16.391C12.7941 16.2151 12.6953 15.9767 12.6953 15.728C12.6953 15.4794 12.7941 15.2409 12.9699 15.0651C13.1457 14.8893 13.3842 14.7905 13.6328 14.7905H20.7446L19.5325 13.5784C19.3575 13.4024 19.2594 13.1642 19.2598 12.9161C19.2601 12.6679 19.3588 12.43 19.5343 12.2545C19.7098 12.0791 19.9477 11.9803 20.1959 11.98C20.444 11.9796 20.6822 12.0777 20.8582 12.2527L23.6707 15.0652C23.7577 15.1522 23.8268 15.2556 23.8739 15.3693C23.9211 15.483 23.9453 15.6049 23.9453 15.728C23.9453 15.8512 23.9211 15.9731 23.8739 16.0868C23.8268 16.2005 23.7577 16.3039 23.6707 16.3909L20.8582 19.2034C20.7712 19.2908 20.6678 19.3603 20.554 19.4077C20.4402 19.4551 20.3181 19.4796 20.1948 19.4798C20.0715 19.48 19.9493 19.4558 19.8353 19.4087C19.7214 19.3616 19.6178 19.2924 19.5306 19.2052C19.4434 19.118 19.3743 19.0145 19.3272 18.9005C19.2801 18.7865 19.2559 18.6644 19.2561 18.5411C19.2562 18.4178 19.2807 18.2957 19.3282 18.1819C19.3756 18.068 19.445 17.9647 19.5325 17.8777L20.7446 16.6655Z" fill="#B23632"/>
<path d="M9.88281 8.22803H17.3828C17.5059 8.22796 17.6279 8.25216 17.7417 8.29925C17.8554 8.34634 17.9588 8.41539 18.0459 8.50246C18.1329 8.58953 18.202 8.6929 18.2491 8.80668C18.2962 8.92045 18.3204 9.04239 18.3203 9.16553V11.0405C18.3203 11.2892 18.2215 11.5276 18.0457 11.7034C17.8699 11.8793 17.6315 11.978 17.3828 11.978C17.1342 11.978 16.8957 11.8793 16.7199 11.7034C16.5441 11.5276 16.4453 11.2892 16.4453 11.0405V10.103H10.8203V21.353H16.4453V20.4155C16.4453 20.1669 16.5441 19.9284 16.7199 19.7526C16.8957 19.5768 17.1342 19.478 17.3828 19.478C17.6315 19.478 17.8699 19.5768 18.0457 19.7526C18.2215 19.9284 18.3203 20.1669 18.3203 20.4155V22.2905C18.3204 22.4137 18.2962 22.5356 18.2491 22.6494C18.202 22.7632 18.1329 22.8665 18.0459 22.9536C17.9588 23.0407 17.8554 23.1097 17.7417 23.1568C17.6279 23.2039 17.5059 23.2281 17.3828 23.228H9.88281C9.75968 23.2281 9.63774 23.2039 9.52396 23.1568C9.41019 23.1097 9.30681 23.0407 9.21974 22.9536C9.13267 22.8665 9.06362 22.7632 9.01653 22.6494C8.96944 22.5356 8.94524 22.4137 8.94531 22.2905V9.16553C8.94524 9.04239 8.96944 8.92045 9.01653 8.80668C9.06362 8.6929 9.13267 8.58953 9.21974 8.50246C9.30681 8.41539 9.41019 8.34634 9.52396 8.29925C9.63774 8.25216 9.75968 8.22796 9.88281 8.22803Z" fill="#B23632"/>
</svg>
