<svg width="44" height="27" viewBox="0 0 44 27" fill="none" xmlns="http://www.w3.org/2000/svg">
<g clip-path="url(#clip0_143_43)">
<path fill-rule="evenodd" clip-rule="evenodd" d="M15.2802 19.1749C15.2238 19.1183 15.1569 19.0743 15.0793 19.0429C15.0018 19.0117 14.9169 18.9959 14.8247 18.9959C14.7758 18.9959 14.7252 19.0001 14.6726 19.0086C14.6199 19.0168 14.5686 19.0318 14.518 19.053C14.4676 19.0743 14.4195 19.1037 14.3741 19.1413C14.3286 19.1788 14.2889 19.2262 14.2553 19.2833C14.2011 19.1937 14.1275 19.1234 14.0349 19.0723C13.9421 19.0215 13.8361 18.9959 13.7168 18.9959C13.6767 18.9959 13.6352 18.9996 13.5923 19.0067C13.5494 19.0141 13.5068 19.0266 13.4646 19.0445C13.4223 19.0625 13.3819 19.0868 13.3434 19.1177C13.3048 19.1485 13.27 19.1874 13.2385 19.2345V19.0378H12.9001V20.6479H13.2416V19.7555C13.2416 19.6872 13.2524 19.6264 13.2741 19.5731C13.2958 19.5198 13.325 19.4754 13.3613 19.4396C13.3976 19.4035 13.4401 19.3765 13.4889 19.3581C13.5378 19.3396 13.5898 19.3302 13.645 19.3302C13.76 19.3302 13.8492 19.3665 13.9126 19.4396C13.976 19.5123 14.0077 19.6166 14.0077 19.7521V20.6479H14.3494V19.7555C14.3494 19.6872 14.3602 19.6264 14.3819 19.5731C14.4036 19.5198 14.4326 19.4754 14.4689 19.4396C14.5052 19.4035 14.5478 19.3765 14.5966 19.3581C14.6454 19.3396 14.6974 19.3302 14.7528 19.3302C14.8677 19.3302 14.9569 19.3665 15.0204 19.4396C15.0839 19.5123 15.1155 19.6166 15.1155 19.7521V20.6479H15.4571V19.6361C15.4571 19.542 15.4416 19.4558 15.4108 19.3773C15.3799 19.2989 15.3362 19.2313 15.2799 19.1748L15.2802 19.1749ZM31.3193 20.5392V20.5659H31.35C31.3563 20.5659 31.3613 20.565 31.3645 20.563C31.3679 20.5611 31.3696 20.5577 31.3696 20.5528C31.3696 20.548 31.3679 20.5446 31.3645 20.5425C31.3611 20.5403 31.3563 20.5392 31.35 20.5392H31.3193ZM31.3508 20.5037C31.3708 20.5037 31.386 20.5082 31.3963 20.517C31.4066 20.5259 31.4118 20.5377 31.4118 20.5527C31.4118 20.5643 31.4082 20.574 31.4007 20.5817C31.3933 20.5893 31.3824 20.5945 31.3683 20.5967L31.4137 20.6491H31.3647L31.3242 20.5983H31.3195V20.6491H31.2786V20.5036H31.3509L31.3508 20.5037ZM31.3413 20.6954C31.3576 20.6954 31.373 20.6922 31.3874 20.686C31.4016 20.6797 31.4143 20.6712 31.4249 20.6606C31.4355 20.6499 31.4438 20.6372 31.4501 20.6229C31.4561 20.6085 31.4591 20.5931 31.4591 20.5764C31.4591 20.56 31.4561 20.5446 31.4501 20.5301C31.444 20.5156 31.4356 20.5031 31.4249 20.4925C31.4144 20.4819 31.4018 20.4734 31.3874 20.4673C31.373 20.4611 31.3576 20.458 31.3413 20.458C31.3244 20.458 31.3089 20.4611 31.2944 20.4673C31.2799 20.4735 31.2672 20.4819 31.2565 20.4925C31.2459 20.5031 31.2373 20.5156 31.2313 20.5301C31.2253 20.5446 31.2221 20.56 31.2221 20.5764C31.2221 20.5929 31.2251 20.6085 31.2313 20.6229C31.2373 20.6372 31.2458 20.6499 31.2565 20.6606C31.2672 20.6712 31.2799 20.6797 31.2944 20.686C31.3089 20.6922 31.3244 20.6954 31.3413 20.6954ZM31.3413 20.4124C31.3647 20.4124 31.3866 20.4167 31.4071 20.4255C31.4276 20.4339 31.4455 20.4458 31.4607 20.4606C31.476 20.4755 31.488 20.4927 31.4967 20.5126C31.5056 20.5326 31.5099 20.5538 31.5099 20.5765C31.5099 20.599 31.5056 20.6202 31.4967 20.6401C31.488 20.66 31.4761 20.6776 31.4607 20.6925C31.4455 20.7077 31.4276 20.7194 31.4071 20.728C31.3866 20.7368 31.3647 20.7411 31.3413 20.7411C31.3174 20.7411 31.295 20.7368 31.2744 20.728C31.2536 20.7194 31.2357 20.7077 31.2204 20.6925C31.2053 20.6776 31.1933 20.6601 31.1846 20.6401C31.176 20.6202 31.1716 20.5988 31.1716 20.5765C31.1716 20.5538 31.1759 20.5327 31.1846 20.5126C31.1933 20.4927 31.2053 20.4754 31.2204 20.4606C31.2357 20.4458 31.2536 20.4339 31.2744 20.4255C31.295 20.4167 31.3174 20.4124 31.3413 20.4124ZM24.5665 19.4708C24.6112 19.4255 24.6645 19.3901 24.7261 19.3648C24.7878 19.3396 24.8544 19.327 24.9262 19.327C25.0052 19.327 25.0784 19.3395 25.1462 19.3648C25.2118 19.3891 25.2686 19.4232 25.3168 19.4665L25.4859 19.1852C25.4225 19.1345 25.351 19.093 25.2716 19.0607C25.1656 19.0176 25.0507 18.996 24.9262 18.996C24.8018 18.996 24.6867 19.0176 24.5807 19.0607C24.4748 19.1038 24.3836 19.1633 24.3068 19.2389C24.2301 19.3144 24.1698 19.4039 24.1262 19.507C24.0824 19.6101 24.0605 19.722 24.0605 19.843C24.0605 19.9641 24.0823 20.0761 24.1262 20.1793C24.1698 20.2824 24.2301 20.3716 24.3068 20.4474C24.3835 20.523 24.4748 20.5824 24.5807 20.6256C24.6867 20.6687 24.8018 20.6903 24.9262 20.6903C25.0507 20.6903 25.1656 20.6687 25.2716 20.6256C25.351 20.5932 25.4225 20.5518 25.4859 20.501L25.3168 20.2197C25.2686 20.2629 25.2118 20.2969 25.1462 20.3213C25.0784 20.3465 25.0051 20.3592 24.9262 20.3592C24.8546 20.3592 24.7878 20.3467 24.7261 20.3213C24.6645 20.2961 24.6112 20.2608 24.5665 20.2155C24.5217 20.1702 24.4864 20.1158 24.4607 20.0526C24.4349 19.9891 24.4221 19.9195 24.4221 19.8432C24.4221 19.767 24.4349 19.6972 24.4607 19.634C24.4864 19.5705 24.5218 19.5163 24.5666 19.4709L24.5665 19.4708ZM30.2365 20.0481C30.213 20.111 30.1798 20.1653 30.1372 20.2112C30.0946 20.2572 30.0437 20.2932 29.9844 20.3195C29.925 20.3459 29.8588 20.3591 29.7862 20.3591C29.7099 20.3591 29.6418 20.3454 29.582 20.3179C29.522 20.2905 29.4713 20.2535 29.4298 20.207C29.3883 20.1605 29.3565 20.1059 29.334 20.0432C29.3115 19.9803 29.3004 19.9138 29.3004 19.8432C29.3004 19.7726 29.3116 19.706 29.334 19.6431C29.3565 19.5804 29.3883 19.5258 29.4298 19.4793C29.4713 19.4328 29.522 19.3958 29.582 19.3684C29.6418 19.3408 29.71 19.3271 29.7862 19.3271C29.8588 19.3271 29.925 19.3403 29.9844 19.3667C30.0438 19.3929 30.0948 19.4291 30.1372 19.4751C30.1798 19.5211 30.2129 19.5753 30.2365 19.6382C30.26 19.7009 30.2717 19.7691 30.2717 19.8432C30.2717 19.9172 30.2599 19.9856 30.2365 20.0483V20.0481ZM30.25 18.3835V19.233C30.1938 19.1614 30.1244 19.1038 30.0415 19.0608C29.9585 19.0176 29.8593 18.996 29.744 18.996C29.6307 18.996 29.5254 19.0169 29.4279 19.059C29.3305 19.1011 29.2453 19.1596 29.1724 19.2346C29.0995 19.3096 29.0424 19.3989 29.001 19.5027C28.9593 19.6063 28.9386 19.7197 28.9386 19.843C28.9386 19.9664 28.9593 20.0798 29.001 20.1834C29.0424 20.2871 29.0995 20.3765 29.1724 20.4516C29.2451 20.5266 29.3303 20.5851 29.4279 20.6272C29.5254 20.6692 29.6307 20.6901 29.744 20.6901C29.8592 20.6901 29.9585 20.6689 30.0415 20.6263C30.1243 20.5838 30.1938 20.5266 30.25 20.455V20.6482H30.6012V18.3835H30.25ZM28.6092 18.996C28.5104 18.996 28.4214 19.0139 28.3418 19.0497C28.2623 19.0857 28.1956 19.1719 28.142 19.2492V19.0381H27.8229V20.6482H28.1453V19.7624C28.1453 19.6941 28.1548 19.6329 28.174 19.5792C28.193 19.5254 28.2193 19.4801 28.2529 19.4431C28.2865 19.4061 28.327 19.378 28.374 19.359C28.4211 19.3399 28.4726 19.3304 28.5285 19.3304C28.5713 19.3304 28.6171 19.3355 28.6664 19.3456C28.6916 19.3507 28.715 19.357 28.7369 19.3645L28.8408 19.0284C28.8126 19.0194 28.7841 19.0118 28.7547 19.0069C28.7115 18.9996 28.663 18.996 28.6093 18.996H28.6092ZM23.7256 18.996C23.6271 18.996 23.538 19.0139 23.4585 19.0497C23.3789 19.0857 23.3123 19.1719 23.2584 19.2492V19.0381H22.9395V20.6482H23.2618V19.7624C23.2618 19.6941 23.2714 19.6329 23.2904 19.5792C23.3095 19.5254 23.3358 19.4801 23.3695 19.4431C23.4032 19.4061 23.4434 19.378 23.4906 19.359C23.5375 19.3399 23.5891 19.3304 23.6452 19.3304C23.6879 19.3304 23.7337 19.3355 23.7831 19.3456C23.8082 19.3507 23.8317 19.357 23.8537 19.3645L23.9575 19.0284C23.9293 19.0194 23.9007 19.0118 23.8713 19.0069C23.8282 18.9996 23.7797 18.996 23.7259 18.996H23.7256ZM20.5541 20.3272C20.4976 20.3485 20.4418 20.3591 20.3869 20.3591C20.351 20.3591 20.3177 20.3535 20.2868 20.3422C20.256 20.3311 20.2292 20.3135 20.2061 20.2893C20.1831 20.2653 20.1649 20.2342 20.1515 20.196C20.1379 20.158 20.1312 20.1119 20.1312 20.0582V19.3573H20.6955V19.038H20.1312V18.5505H19.7783V19.038H19.4573V19.3573H19.7783V20.0649C19.7783 20.279 19.8289 20.4366 19.9303 20.5381C20.0318 20.6395 20.1738 20.6901 20.3565 20.6901C20.4585 20.6901 20.55 20.6745 20.6312 20.6431C20.6849 20.6223 20.7347 20.5986 20.7813 20.5724L20.6613 20.2783C20.6273 20.2965 20.5916 20.3128 20.554 20.3271L20.5541 20.3272ZM26.9907 20.0481C26.9672 20.111 26.9341 20.1653 26.8915 20.2112C26.8489 20.2572 26.798 20.2932 26.7385 20.3195C26.6792 20.3459 26.6131 20.3591 26.5402 20.3591C26.464 20.3591 26.396 20.3454 26.336 20.3179C26.276 20.2905 26.2253 20.2535 26.1839 20.207C26.1424 20.1605 26.1105 20.1059 26.0882 20.0432C26.0657 19.9803 26.0546 19.9138 26.0546 19.8432C26.0546 19.7726 26.0658 19.706 26.0882 19.6431C26.1106 19.5804 26.1425 19.5258 26.1839 19.4793C26.2253 19.4328 26.276 19.3958 26.336 19.3684C26.396 19.3408 26.464 19.3271 26.5402 19.3271C26.6131 19.3271 26.6793 19.3403 26.7385 19.3667C26.798 19.3929 26.8489 19.4291 26.8915 19.4751C26.9341 19.5211 26.9672 19.5753 26.9907 19.6382C27.0142 19.7009 27.026 19.7691 27.026 19.8432C27.026 19.9172 27.0142 19.9856 26.9907 20.0483V20.0481ZM27.004 19.233C26.948 19.1614 26.8786 19.1038 26.7956 19.0608C26.7128 19.0176 26.6135 18.996 26.4981 18.996C26.385 18.996 26.2796 19.0169 26.1821 19.059C26.0846 19.1011 25.9994 19.1596 25.9267 19.2346C25.8538 19.3096 25.7965 19.3989 25.7551 19.5027C25.7136 19.6063 25.6929 19.7197 25.6929 19.843C25.6929 19.9664 25.7136 20.0798 25.7551 20.1834C25.7965 20.2871 25.8538 20.3765 25.9267 20.4516C25.9994 20.5266 26.0846 20.5851 26.1821 20.6272C26.2796 20.6692 26.385 20.6901 26.4981 20.6901C26.6135 20.6901 26.7128 20.6689 26.7956 20.6263C26.8786 20.5838 26.948 20.5266 27.004 20.455V20.6482H27.3553V19.0381H27.004V19.233ZM21.3544 19.7053C21.3634 19.6472 21.3791 19.5935 21.4015 19.5449C21.424 19.4961 21.4529 19.4542 21.488 19.4188C21.5234 19.3835 21.5654 19.3564 21.6141 19.3373C21.663 19.3182 21.7186 19.3087 21.7813 19.3087C21.8933 19.3087 21.9847 19.3434 22.0553 19.4129C22.126 19.4824 22.1707 19.5799 22.1897 19.7053H21.3544ZM22.3368 19.2305C22.2701 19.1561 22.19 19.0983 22.0966 19.0574C22.0029 19.0165 21.9002 18.996 21.7882 18.996C21.6694 18.996 21.5609 19.0164 21.4628 19.0574C21.3647 19.0983 21.2804 19.1559 21.2099 19.2305C21.1392 19.305 21.0844 19.3944 21.0451 19.4986C21.0059 19.6029 20.9863 19.7177 20.9863 19.8432C20.9863 19.9709 21.0066 20.0868 21.0468 20.1911C21.0872 20.2953 21.1436 20.3843 21.2165 20.4582C21.2894 20.5322 21.3763 20.5894 21.4772 20.6297C21.5779 20.67 21.689 20.6903 21.8099 20.6903C21.9321 20.6903 22.0484 20.6734 22.1588 20.6398C22.2692 20.6063 22.3736 20.5473 22.4723 20.4633L22.2976 20.2129C22.2304 20.2666 22.156 20.3084 22.0748 20.338C21.9935 20.3678 21.9125 20.3826 21.8319 20.3826C21.7747 20.3826 21.7198 20.3749 21.6671 20.3591C21.6145 20.3434 21.5668 20.3191 21.5242 20.2861C21.4816 20.253 21.4452 20.2107 21.4149 20.1591C21.3847 20.1076 21.3639 20.0454 21.3527 19.9725H22.5427C22.545 19.9524 22.5467 19.9311 22.5478 19.9086C22.5489 19.8863 22.5495 19.8638 22.5495 19.8413C22.5495 19.7159 22.5307 19.6013 22.4932 19.4976C22.4559 19.394 22.4037 19.3049 22.337 19.2303L22.3368 19.2305ZM19.0478 19.8407C18.949 19.764 18.8118 19.7128 18.636 19.687L18.4695 19.6617C18.4324 19.6561 18.3977 19.6497 18.3653 19.6423C18.3328 19.635 18.3048 19.6252 18.2812 19.6129C18.2579 19.6007 18.2389 19.5849 18.2249 19.5659C18.211 19.5468 18.204 19.5233 18.204 19.4952C18.204 19.438 18.2307 19.3918 18.2839 19.3565C18.337 19.3212 18.4119 19.3037 18.5082 19.3037C18.5586 19.3037 18.6083 19.308 18.657 19.3172C18.7057 19.3262 18.7518 19.3373 18.7956 19.3506C18.8392 19.3641 18.8791 19.379 18.915 19.3953C18.9508 19.4115 18.9811 19.427 19.0058 19.4414L19.157 19.1676C19.073 19.1137 18.975 19.0721 18.8629 19.0423C18.7509 19.0126 18.6315 18.9977 18.5048 18.9977C18.4017 18.9977 18.3093 19.0099 18.2274 19.0339C18.1458 19.058 18.076 19.0922 18.0182 19.1363C17.9605 19.1808 17.9162 19.2347 17.8854 19.2986C17.8544 19.3626 17.8393 19.4342 17.8393 19.5138C17.8393 19.6438 17.8854 19.7488 17.9777 19.829C18.0702 19.9091 18.2063 19.9615 18.3854 19.9861L18.5535 20.008C18.6499 20.0214 18.7205 20.043 18.7654 20.0727C18.8102 20.1024 18.8326 20.1401 18.8326 20.1862C18.8326 20.2466 18.8017 20.2945 18.7401 20.3298C18.6784 20.3651 18.5872 20.3827 18.4661 20.3827C18.4 20.3827 18.3409 20.3783 18.2888 20.3693C18.2368 20.3603 18.189 20.3484 18.146 20.3332C18.1028 20.3181 18.0641 20.3008 18.0299 20.2812C17.9958 20.2616 17.964 20.2406 17.935 20.2182L17.772 20.482C17.8302 20.5257 17.8914 20.5611 17.9551 20.588C18.0192 20.6148 18.0817 20.6358 18.1434 20.6508C18.2051 20.6661 18.2633 20.676 18.3182 20.681C18.3731 20.6861 18.4213 20.6887 18.4627 20.6887C18.5781 20.6887 18.6816 20.6759 18.7729 20.65C18.8643 20.6242 18.941 20.5881 19.0032 20.5415C19.0655 20.495 19.113 20.4396 19.1461 20.3752C19.1793 20.3107 19.1957 20.2399 19.1957 20.1626C19.1957 20.0248 19.1465 19.9175 19.0479 19.8407H19.0478ZM17.0682 20.0483C17.0447 20.1111 17.0116 20.1655 16.969 20.2113C16.9264 20.2573 16.8755 20.2934 16.8161 20.3196C16.7567 20.346 16.6906 20.3592 16.6178 20.3592C16.5417 20.3592 16.4735 20.3455 16.4136 20.3181C16.3537 20.2906 16.303 20.2536 16.2615 20.2071C16.22 20.1606 16.1881 20.106 16.1658 20.0433C16.1433 19.9805 16.1322 19.914 16.1322 19.8433C16.1322 19.7727 16.1434 19.7061 16.1658 19.6433C16.1883 19.5805 16.2201 19.5259 16.2615 19.4794C16.303 19.4329 16.3538 19.3959 16.4136 19.3685C16.4736 19.3409 16.5417 19.3272 16.6178 19.3272C16.6906 19.3272 16.7567 19.3404 16.8161 19.3668C16.8755 19.3931 16.9264 19.4293 16.969 19.4752C17.0116 19.5212 17.0447 19.5755 17.0682 19.6383C17.0917 19.701 17.1034 19.7692 17.1034 19.8433C17.1034 19.9174 17.0917 19.9857 17.0682 20.0484V20.0483ZM17.0816 19.2332C17.0256 19.1616 16.9561 19.1039 16.8731 19.061C16.7901 19.0177 16.691 18.9962 16.5756 18.9962C16.4625 18.9962 16.3572 19.0171 16.2596 19.0591C16.1621 19.1012 16.0769 19.1597 16.0042 19.2347C15.9313 19.3097 15.8742 19.3991 15.8326 19.5028C15.7912 19.6064 15.7704 19.7198 15.7704 19.8432C15.7704 19.9665 15.7912 20.0799 15.8326 20.1835C15.8742 20.2872 15.9313 20.3766 16.0042 20.4517C16.0769 20.5267 16.1621 20.5852 16.2596 20.6273C16.3572 20.6694 16.4625 20.6903 16.5756 20.6903C16.691 20.6903 16.7903 20.669 16.8731 20.6264C16.9561 20.5839 17.0256 20.5267 17.0816 20.4551V20.6483H17.4329V19.0382H17.0816V19.2332Z" fill="#141515"/>
<path fill-rule="evenodd" clip-rule="evenodd" d="M19.4354 11.5113C19.4354 9.5821 20.3366 7.86472 21.7397 6.75303C20.705 5.93334 19.398 5.44263 17.9755 5.44263C14.624 5.44263 11.9069 8.15973 11.9069 11.5111C11.9069 14.8627 14.6238 17.5796 17.9755 17.5796C19.398 17.5796 20.705 17.089 21.7397 16.2694C20.3366 15.1578 19.4354 13.4403 19.4354 11.5111V11.5113Z" fill="#DE2C1D"/>
<path fill-rule="evenodd" clip-rule="evenodd" d="M19.4354 11.5112C19.4354 13.4404 20.3366 15.1578 21.7397 16.2694C23.1429 15.1578 24.044 13.4403 24.044 11.5112C24.044 9.582 23.1428 7.86462 21.7397 6.75293C20.3366 7.86449 19.4354 9.582 19.4354 11.5112Z" fill="#ED6100"/>
<path fill-rule="evenodd" clip-rule="evenodd" d="M25.504 5.44263C24.0815 5.44263 22.7745 5.93334 21.7399 6.75303C23.1431 7.86459 24.0442 9.5821 24.0442 11.5113C24.0442 13.4405 23.143 15.1579 21.7399 16.2695C22.7745 17.0892 24.0815 17.5798 25.504 17.5798C28.8556 17.5798 31.5725 14.8628 31.5725 11.5113C31.5725 8.15973 28.8556 5.44276 25.504 5.44276V5.44263ZM31.9991 15.0139V14.7563L31.9155 14.9787H31.8233L31.7396 14.7568V15.0139H31.6526V14.6425H31.7773L31.8696 14.8803L31.9611 14.6425H32.086V15.0139H31.9989H31.9991ZM31.3753 15.0139V14.7226H31.2573V14.6425H31.58V14.7226H31.4621V15.0139H31.3751H31.3753Z" fill="#F79F06"/>
<path d="M4.31972 0.0917969H39.6733C40.8009 0.0917969 41.8256 0.552725 42.5679 1.29507C43.3104 2.03755 43.7713 3.06222 43.7713 4.18972V21.9939C43.7713 23.1212 43.3102 24.1459 42.5679 24.8884C41.8254 25.6307 40.8008 26.0918 39.6734 26.0918H4.31985C3.19248 26.0918 2.16767 25.6309 1.4252 24.8884C0.682852 24.146 0.221924 23.1215 0.221924 21.9939V4.18972C0.221924 3.06209 0.682852 2.03742 1.4252 1.29507C2.16754 0.552725 3.19235 0.0917969 4.31998 0.0917969H4.31972ZM39.6733 1.50424H4.31972C3.58195 1.50424 2.91067 1.80669 2.42362 2.29375C1.93656 2.78081 1.63411 3.45208 1.63411 4.18985V21.994C1.63411 22.7316 1.93656 23.4029 2.42362 23.89C2.9108 24.3772 3.58208 24.6796 4.31972 24.6796H39.6733C40.4108 24.6796 41.082 24.3772 41.5692 23.89C42.0563 23.4028 42.3589 22.7315 42.3589 21.9941V4.18998C42.3589 3.45247 42.0564 2.78107 41.5694 2.29388C41.0823 1.80682 40.4109 1.50437 39.6733 1.50437V1.50424Z" fill="#808080"/>
</g>
<defs>
<clipPath id="clip0_143_43">
<rect width="43.5495" height="26" fill="white" transform="translate(0.221802 0.0917969)"/>
</clipPath>
</defs>
</svg>
