<svg width="1440" height="613" viewBox="0 0 1440 613" fill="none" xmlns="http://www.w3.org/2000/svg">
<path d="M-0.0576172 542.166C-0.0576172 542.166 133.286 476.117 234.628 490.475C234.628 490.475 362.638 510.577 431.977 570.883C431.977 570.883 476.912 606.286 545.549 559.394C545.549 559.394 629.326 510.577 698.665 539.294C698.665 539.294 857.961 654.264 944.018 596.728C944.018 596.728 1026.13 537.286 1122.04 521.646C1122.04 521.646 1200.04 507.705 1312.05 576.626C1312.05 576.626 1370.72 608.215 1440.06 588.113V0.522827C1440.06 0.522827 431.977 101.163 -0.0576172 12.0096V542.166Z" fill="#95D6E7"/>
</svg>
