<svg width="33" height="32" viewBox="0 0 33 32" fill="none" xmlns="http://www.w3.org/2000/svg">
<rect x="0.612305" y="0.131348" width="31.666" height="31.426" rx="10" fill="#FCE8D8"/>
<path d="M13.4453 20.3442C12.6166 20.3442 11.9528 21.0155 11.9528 21.8442C11.9528 22.673 12.6166 23.3442 13.4453 23.3442C14.2741 23.3442 14.9453 22.673 14.9453 21.8442C14.9453 21.0155 14.2741 20.3442 13.4453 20.3442ZM8.94531 8.34424V9.84424H10.4453L13.1416 15.533L12.1291 17.3705C12.0128 17.588 11.9453 17.8317 11.9453 18.0942C11.9453 18.923 12.6166 19.5942 13.4453 19.5942H22.4453V18.0942H13.7641C13.6591 18.0942 13.5766 18.0117 13.5766 17.9067C13.5766 17.873 13.5841 17.843 13.5991 17.8167L14.2703 16.5942H19.8578C20.4203 16.5942 20.9116 16.283 21.1703 15.8217L23.8516 10.9542C23.9116 10.8492 23.9453 10.7255 23.9453 10.5942C23.9453 10.178 23.6078 9.84424 23.1953 9.84424H12.1066L11.3941 8.34424H8.94531ZM20.9453 20.3442C20.1166 20.3442 19.4528 21.0155 19.4528 21.8442C19.4528 22.673 20.1166 23.3442 20.9453 23.3442C21.7741 23.3442 22.4453 22.673 22.4453 21.8442C22.4453 21.0155 21.7741 20.3442 20.9453 20.3442Z" fill="#B23632"/>
</svg>
