<svg width="33" height="33" viewBox="0 0 33 33" fill="none" xmlns="http://www.w3.org/2000/svg">
<rect x="0.770508" y="0.689453" width="31.666" height="31.426" rx="10" fill="#FCE8D8"/>
<path d="M8.65262 12.0756C8.65262 11.858 8.63264 11.6629 8.65548 11.4715C8.70401 11.0775 8.95523 10.8486 9.33491 10.8411C9.78596 10.8299 10.2399 10.8336 10.6909 10.8336C13.5514 10.8336 16.409 10.8374 19.2695 10.8374C20.0545 10.8374 20.8396 10.8486 21.6246 10.8336C21.9672 10.8261 22.2556 10.9687 22.521 11.2313C22.9493 11.6553 23.2861 12.1994 23.6258 12.7397C24.0683 13.4489 24.508 14.1656 24.9676 14.856C25.2274 15.2425 25.5414 15.5427 25.9439 15.6515C26.1066 15.6965 26.2037 15.8766 26.2779 16.0605C26.4321 16.432 26.4977 16.841 26.5377 17.2575C26.6405 18.3118 26.6091 19.3662 26.5377 20.4168C26.5348 20.4731 26.5206 20.5257 26.512 20.5819C26.2237 20.5819 25.9439 20.5819 25.6499 20.5819C25.5728 19.7114 25.273 19.0097 24.7135 18.522C24.3253 18.1843 23.8913 18.0379 23.4289 18.0867C22.9236 18.1392 22.4868 18.4056 22.1242 18.8784C21.7674 19.3475 21.5761 19.9178 21.5219 20.5819C19.7605 20.5819 18.0077 20.5819 16.2606 20.5819C16.1978 20.3005 16.1521 20.0116 16.0693 19.7452C15.721 18.642 14.8417 17.9554 13.971 18.0867C13.0261 18.233 12.2782 19.1411 12.1383 20.3493C12.1126 20.5782 12.0469 20.5932 11.9099 20.5932C11.1106 20.5857 10.3112 20.5932 9.51191 20.5857C9.24356 20.5819 8.98092 20.5369 8.77538 20.2668C8.6098 20.0491 8.61551 19.7827 8.66404 19.5163C8.66975 19.4788 8.74969 19.4375 8.79536 19.4375C9.21787 19.43 9.64322 19.445 10.0657 19.4262C10.2028 19.4225 10.3484 19.37 10.474 19.2949C10.6224 19.2086 10.6881 19.006 10.6595 18.8559C10.6196 18.642 10.5168 18.5407 10.3198 18.537C9.95725 18.5295 9.59755 18.5332 9.23499 18.5332C8.79251 18.5332 8.35002 18.5332 7.90753 18.5332C7.83616 18.5332 7.76765 18.5145 7.69628 18.4994C7.56496 18.4694 7.51357 18.3494 7.51357 18.1918C7.51357 18.0229 7.59351 17.9254 7.71626 17.9028C7.81047 17.8841 7.90468 17.8803 8.00174 17.8803C8.50132 17.8766 9.0009 17.8803 9.50049 17.8728C9.60611 17.8728 9.7203 17.8503 9.82022 17.8015C9.96296 17.7302 10.0315 17.5501 10.0201 17.3513C10.0086 17.1486 9.92014 17.0323 9.7774 16.9873C9.71459 16.9648 9.64608 16.9573 9.58042 16.9573C8.73256 16.9535 7.88755 16.9573 7.03968 16.9535C6.9569 16.9535 6.8684 16.9423 6.78847 16.9047C6.67142 16.8485 6.58863 16.6458 6.60576 16.5183C6.6286 16.3607 6.73423 16.2406 6.88267 16.2181C6.94833 16.2106 7.01685 16.2143 7.08251 16.2143C8.1302 16.2143 9.17504 16.2181 10.2227 16.2106C10.3512 16.2106 10.4854 16.158 10.6053 16.098C10.7337 16.0342 10.7794 15.8841 10.7651 15.7003C10.7537 15.5239 10.6738 15.4264 10.5539 15.3888C10.4454 15.3551 10.3284 15.3401 10.217 15.3401C9.72601 15.3363 9.23785 15.3401 8.74683 15.3325C8.64977 15.3325 8.53843 15.3175 8.46135 15.25C8.38999 15.19 8.31291 15.0511 8.31291 14.9498C8.31291 14.8598 8.40711 14.7322 8.48134 14.6947C8.60695 14.6309 8.74969 14.6046 8.88386 14.6046C9.59184 14.6046 10.2998 14.6234 11.0107 14.6234C11.0992 14.6234 11.2048 14.5934 11.2761 14.5258C11.4817 14.3269 11.4617 14.0005 11.2305 13.8204C11.1334 13.7454 11.0078 13.7041 10.8936 13.7041C9.94583 13.6966 9.0009 13.7041 8.05312 13.6928C7.93893 13.6928 7.81618 13.6553 7.71626 13.584C7.65631 13.5427 7.59636 13.4076 7.60207 13.3176C7.60778 13.2313 7.68201 13.13 7.74481 13.0737C7.80476 13.0249 7.8904 13.0174 7.96463 13.0174C8.70686 13.0174 9.4491 13.0174 10.1913 13.0212C10.3398 13.0212 10.4882 13.0249 10.6053 12.8786C10.7566 12.691 10.7537 12.3908 10.571 12.2557C10.4454 12.1619 10.2913 12.0906 10.1457 12.0869C9.70032 12.0643 9.25212 12.0794 8.80678 12.0794C8.75825 12.0756 8.71257 12.0756 8.65262 12.0756ZM19.8461 15.0511C21.3848 15.0511 22.915 15.0511 24.4594 15.0511C24.4423 15.0211 24.4337 15.0024 24.4223 14.9836C23.6287 13.8054 22.8351 12.6272 22.0386 11.4527C22.0015 11.4002 21.9273 11.3664 21.8673 11.3627C21.2364 11.3552 20.6026 11.3589 19.9717 11.3589C19.9318 11.3589 19.889 11.3664 19.8461 11.3702C19.8461 12.6084 19.8461 13.8241 19.8461 15.0511ZM20.0117 16.2631C20.5684 16.2631 21.1108 16.2631 21.6532 16.2631C21.6532 16.0342 21.6532 15.8203 21.6532 15.6065C21.0994 15.6065 20.5598 15.6065 20.0117 15.6065C20.0117 15.8278 20.0117 16.038 20.0117 16.2631ZM16.7944 17.3475C16.8287 17.6627 16.8572 17.6777 17.0685 17.5464C17.2083 17.4563 17.3539 17.3738 17.491 17.28C17.6023 17.2049 17.608 17.0961 17.4995 17.0173C17.3282 16.8935 17.1541 16.7809 16.98 16.6721C16.8886 16.6158 16.8344 16.6721 16.8144 16.7922C16.8087 16.8297 16.8058 16.871 16.8001 16.9273C16.6117 16.9273 16.4318 16.9273 16.252 16.9273C16.252 17.0736 16.252 17.2012 16.252 17.3438C16.4404 17.3475 16.6203 17.3475 16.7944 17.3475ZM14.9502 12.6347C14.9645 12.7698 14.9588 12.9574 15.1072 12.8898C15.3014 12.7998 15.4869 12.6722 15.6696 12.5409C15.7524 12.4808 15.7581 12.372 15.6668 12.3045C15.4869 12.1769 15.3042 12.0643 15.1215 11.948C15.0444 11.8992 14.9959 11.9443 14.9759 12.0493C14.9674 12.0981 14.9616 12.1469 14.9531 12.2144C14.7675 12.2144 14.5877 12.2144 14.4107 12.2144C14.4107 12.3645 14.4107 12.4921 14.4107 12.6309C14.5991 12.6347 14.7732 12.6347 14.9502 12.6347ZM14.7904 15.8128C14.9845 15.8128 15.1643 15.8128 15.3442 15.8128C15.3613 16.0567 15.4041 16.1243 15.504 16.068C15.681 15.9667 15.858 15.8579 16.0293 15.7415C16.1435 15.6665 16.1407 15.5389 16.0265 15.4601C15.8637 15.3476 15.6953 15.2425 15.5297 15.1412C15.427 15.0774 15.3699 15.1224 15.3527 15.2725C15.3499 15.3063 15.3442 15.3401 15.3413 15.3888C15.1529 15.3888 14.9759 15.3888 14.7904 15.3888C14.7904 15.5314 14.7904 15.6515 14.7904 15.8128ZM16.2263 14.0868C16.2292 14.342 16.2777 14.4095 16.3919 14.342C16.5689 14.2406 16.7459 14.1318 16.92 14.0155C17.0171 13.9517 17.0199 13.8279 16.9229 13.7604C16.7487 13.6365 16.5689 13.5202 16.389 13.4114C16.3005 13.3551 16.2548 13.4189 16.2406 13.5315C16.2349 13.5727 16.2349 13.614 16.2292 13.6816C16.0407 13.6816 15.8609 13.6816 15.6753 13.6816C15.6753 13.8279 15.6753 13.948 15.6753 14.0906C15.8609 14.0868 16.0379 14.0868 16.2263 14.0868Z" fill="#B23632"/>
<path d="M15.7553 20.3848C15.7553 21.2555 15.0501 21.9549 14.1851 21.972C13.3601 21.9891 12.5779 21.3325 12.5608 20.4047C12.5465 19.4941 13.2744 18.7632 14.1794 18.7718C15.1158 18.7832 15.7867 19.5683 15.7553 20.3848ZM14.1623 19.6225C13.7341 19.6254 13.4115 19.9537 13.4115 20.3848C13.4143 20.7901 13.7455 21.127 14.1537 21.1327C14.562 21.1384 14.9245 20.7787 14.9188 20.3733C14.9131 19.9565 14.5734 19.6197 14.1623 19.6225Z" fill="#B23632"/>
<path d="M23.5804 21.966C22.7012 21.9603 21.9817 21.238 21.9903 20.3673C21.9989 19.4738 22.724 18.7601 23.6175 18.7686C24.4882 18.7743 25.2019 19.5109 25.1905 20.3901C25.1791 21.3322 24.3741 22.0002 23.5804 21.966ZM23.6004 19.6222C23.1836 19.6194 22.841 19.9477 22.8353 20.3616C22.8296 20.7755 23.1722 21.1267 23.589 21.1324C23.9915 21.1352 24.3398 20.7898 24.3484 20.3787C24.3541 19.9705 24.0115 19.6251 23.6004 19.6222Z" fill="#B23632"/>
</svg>
