<svg width="33" height="33" viewBox="0 0 33 33" fill="none" xmlns="http://www.w3.org/2000/svg">
<rect x="0.613281" y="0.851562" width="31.666" height="31.426" rx="10" fill="#FCE8D8"/>
<path d="M16.4249 22.9248C16.227 22.9252 16.0311 22.8866 15.8482 22.8111C15.6654 22.7355 15.4992 22.6246 15.3594 22.4846L10.2072 17.3324C9.80022 16.9209 9.47916 16.4326 9.26274 15.8959C9.04633 15.3591 8.93889 14.7847 8.94668 14.206C8.95061 13.6757 9.05911 13.1514 9.26599 12.6631C9.47286 12.1748 9.77404 11.7321 10.1523 11.3604C10.5305 10.9886 10.9784 10.6952 11.4702 10.4968C11.962 10.2984 12.4881 10.199 13.0184 10.2043C13.5582 10.1989 14.0936 10.3019 14.5928 10.5072C15.0921 10.7126 15.545 11.0161 15.9247 11.3998L16.4249 11.9L16.8351 11.4899C17.5433 10.7628 18.4911 10.3171 19.5028 10.2353C20.5144 10.1534 21.5215 10.441 22.3374 11.0447C22.8019 11.4023 23.1848 11.8549 23.4607 12.3721C23.7366 12.8894 23.8991 13.4594 23.9375 14.0444C23.9758 14.6294 23.8891 15.2158 23.683 15.7646C23.477 16.3135 23.1564 16.8121 22.7426 17.2273L17.4903 22.4846C17.3505 22.6246 17.1844 22.7355 17.0016 22.8111C16.8187 22.8866 16.6227 22.9252 16.4249 22.9248Z" fill="#B23632"/>
</svg>
