<svg width="81" height="81" viewBox="0 0 81 81" fill="none" xmlns="http://www.w3.org/2000/svg">
<path fill-rule="evenodd" clip-rule="evenodd" d="M10.3309 24.1212L11.7398 29.2016L7.25705 32.0193L9.904 36.5875L6.23242 40.4298L9.94669 44.2295L7.34243 48.8403L11.8679 51.5726L10.5017 56.6958L15.5821 58.2327L15.5394 63.5266L20.8333 63.7401L22.1141 68.8632L27.28 67.7532L29.7988 72.4067L34.5377 70.0586L38.1239 73.9436L42.137 70.4855L46.5344 73.4313L49.5656 69.0767L54.6033 70.7844L56.4391 65.832L61.733 66.2162L62.288 60.965L67.4966 60.0258L66.7281 54.7746L71.5524 52.5546L69.5031 47.6876L73.6016 44.3575L70.3997 40.131L73.5589 35.8617L69.4177 32.5743L71.4243 27.6647L66.6 25.4873L67.3258 20.2361L62.1173 19.3396L61.5196 14.0884L56.2257 14.5153L54.3472 9.56293L49.3521 11.3133L46.2782 7.00136L41.8809 9.94716L37.8251 6.53174L34.2816 10.4595L29.5 8.15406L27.0238 12.8503L21.7726 11.8256L20.5772 16.9915L15.2833 17.2903L15.4114 22.5842L10.3309 24.1212ZM14.9417 30.4824L17.8449 28.2197L18.1864 24.5481L21.5591 23.0538L22.7972 19.5957L26.4261 18.998L28.4754 15.9668L32.1469 16.3084L34.8793 13.8749L38.3374 15.113L41.6247 13.448L44.6986 15.4972L48.2848 14.6861L50.7183 17.4184L54.3899 17.5038L56.0976 20.7484L59.6411 21.7731L60.4522 25.3593L63.6115 27.2377L63.5261 30.9093L66.1304 33.5136L65.1484 37.0571L67.0269 40.2163L65.1911 43.3756L66.2158 46.9191L63.6542 49.5234L63.7823 53.1949L60.623 55.0734L59.8119 58.6596L56.2684 59.7269L54.6033 63.0143L50.9318 63.1424L48.4983 65.9174L44.9121 65.1489L41.8809 67.2409L38.5935 65.5759L35.1354 66.8139L32.3604 64.3805L28.6888 64.722L26.5969 61.6908L22.968 61.1358L21.6872 57.6777L18.3145 56.2261L17.9302 52.5546L15.0271 50.2918L15.5821 46.663L13.3194 43.7598L14.771 40.3871L13.3194 37.0144L15.5394 34.1113L14.9417 30.4824Z" fill="url(#paint0_linear_1028_3)"/>
<path fill-rule="evenodd" clip-rule="evenodd" d="M2.47618 25.6157L7.47124 22.5845L7.30047 16.7356L12.8932 15.0279L14.174 9.30702L20.0229 9.05087L22.6699 3.84235L28.3907 5.03775L32.2757 0.683084L37.527 3.28734L42.3512 0L46.7913 3.79966L52.2987 1.83579L55.6287 6.61738L61.4349 6.10507L63.4842 11.5697L69.2477 12.509L69.8881 18.3152L75.2247 20.6633L74.3708 26.4695L78.9816 30.0557L76.8043 35.435L80.3905 40.0458L76.847 44.6993L79.1524 50.0786L74.5843 53.7075L75.4808 59.471L70.1442 61.8618L69.5892 67.6681L63.8257 68.65L61.8191 74.1574L56.0129 73.6877L52.7256 78.512L47.2182 76.5908L42.8209 80.4332L37.9112 77.2739L32.7027 79.9209L28.7749 75.5662L23.0541 76.847L20.3218 71.6812L14.4729 71.4677L13.1067 65.7896L7.51393 64.1245L7.64201 58.2756L2.60426 55.2871L4.1412 49.6517L0 45.5105L2.90311 40.4301L0 35.3923L4.09851 31.2084L2.47618 25.6157ZM25.6584 32.4465L26.2987 34.88L24.1641 36.2889L25.3595 38.5089L23.6518 40.3874L25.3595 42.2232L24.1641 44.4432L26.2987 45.8094L25.7011 48.2428L28.0918 49.0113L28.1345 51.5302L30.6534 51.701L31.2938 54.1344L33.77 53.6648L35.0081 55.8422L37.3135 54.7748L39.0639 56.6106L41.0278 54.9883L43.1624 56.3118L44.6566 54.2625L47.0474 55.031L47.9867 52.6829L50.5056 52.811L50.8471 50.2921L53.3233 49.7798L53.0244 47.2609L55.2871 46.1509L54.3479 43.8028L56.2691 42.1805L54.7748 40.1312L56.2264 38.082L54.3052 36.4596L55.2018 34.1115L52.939 33.0442L53.2379 30.5253L50.7617 30.0557L50.4202 27.5795L47.9013 27.7503L46.9621 25.4022L44.5713 26.1707L43.077 24.1641L40.9424 25.5303L38.9785 23.9506L37.2281 25.7864L34.9227 24.7618L33.6846 26.9818L31.2084 26.5549L30.568 28.9884L28.0492 29.1592V31.678L25.6584 32.4465Z" fill="url(#paint1_linear_1028_3)"/>
<path opacity="0.9" fill-rule="evenodd" clip-rule="evenodd" d="M11.2714 24.6338L2.81825 25.7438L8.28293 32.2758L0.384766 35.4777L7.301 40.4301L0.427458 45.4679L8.36832 48.5844L2.98903 55.1591L11.4422 56.1837L7.856 63.9111L16.3092 62.8011L14.7295 71.1689L22.6277 67.9669L23.2254 76.5055L30.0989 71.4251L32.7459 79.5367L38.1679 72.9193L42.736 80.1344L46.3222 72.3643L52.5553 78.1705L54.135 69.8027L61.6062 73.9013L61.0085 65.3627L69.2909 67.4546L66.6013 59.3857L75.1398 59.343L70.529 52.1706L78.7687 49.9933L72.5356 44.1871L79.9641 40.0459L72.4929 35.9901L78.6833 30.1411L70.4009 28.0492L74.9264 20.8341L66.4305 20.8768L69.0348 12.7652L60.7951 14.9425L61.2647 6.44665L53.8361 10.5879L52.1711 2.22007L46.0233 8.06898L42.3518 0.384277L37.8263 7.59936L32.3617 1.06736L29.7574 9.17899L22.8412 4.22663L22.3715 12.7225L14.4307 9.60592L16.053 17.9737L7.59985 16.9491L11.2714 24.6338Z" fill="url(#paint2_linear_1028_3)"/>
<defs>
<linearGradient id="paint0_linear_1028_3" x1="-8.62735" y1="9.25413" x2="35.7372" y2="37.6474" gradientUnits="userSpaceOnUse">
<stop stop-color="#FF9021"/>
<stop offset="0.5269" stop-color="#FF2127"/>
<stop offset="1" stop-color="#D61658"/>
</linearGradient>
<linearGradient id="paint1_linear_1028_3" x1="48.7517" y1="-21.9926" x2="33.1913" y2="87.8196" gradientUnits="userSpaceOnUse">
<stop stop-color="#FF9021"/>
<stop offset="0.5269" stop-color="#FF2127"/>
<stop offset="1" stop-color="#D61658"/>
</linearGradient>
<linearGradient id="paint2_linear_1028_3" x1="82.3894" y1="5.3924" x2="11.8279" y2="63.2084" gradientUnits="userSpaceOnUse">
<stop stop-color="#FF9021"/>
<stop offset="0.5269" stop-color="#FF2127"/>
<stop offset="1" stop-color="#D61658"/>
</linearGradient>
</defs>
</svg>
