<svg width="353" height="317" viewBox="0 0 353 317" fill="none" xmlns="http://www.w3.org/2000/svg">
<path d="M310.884 272.962C307.068 273.115 303.862 273.42 300.657 273.42C228.455 273.42 156.254 273.42 84.053 273.42C79.0157 273.42 73.0625 272.199 69.0938 274.336C65.8882 276.168 65.2776 282.273 62.988 287.463C62.2247 275.862 56.5769 269.604 44.3652 270.367C45.5864 269.299 45.8917 268.688 46.3496 268.535C56.8821 267.162 59.3245 260.445 60.393 250.676C65.2776 207.783 70.9255 165.042 76.1154 122.149C78.5578 102.763 81.0001 83.3767 82.9845 63.9908C83.7477 57.1218 86.19 54.0689 93.517 54.8321C100.081 55.4427 106.797 54.6794 113.361 54.9847C118.856 55.29 121.451 53.3056 122.978 47.8104C128.625 28.1192 140.837 14.0758 159.765 5.68033C191.973 -8.82097 233.493 9.19117 244.483 42.7731C248.452 54.9847 248.452 54.9847 261.732 54.9847C267.38 54.9847 272.875 55.1374 278.523 54.9847C282.797 54.8321 284.934 56.3585 285.545 60.9379C290.582 101.694 295.619 142.603 300.809 183.359C304.32 210.836 307.831 238.312 311.189 265.635C311.036 267.62 310.884 269.757 310.884 272.962ZM308.747 270.672C306.457 262.888 304.473 256.934 302.641 250.829C291.803 214.346 280.965 177.864 270.28 141.382C261.427 111.463 252.421 81.6976 244.33 51.6265C236.698 23.2345 212.733 3.238 184.341 3.238C155.644 3.238 131.526 22.6239 124.657 51.6265C123.588 56.0532 121.756 57.885 116.872 57.7323C109.087 57.2744 101.149 57.885 93.2117 57.5797C88.0218 57.2744 85.8847 59.2588 85.4268 64.2961C84.5109 73.4548 83.1371 82.4609 82.0686 91.4669C75.8101 141.84 69.857 192.213 63.2932 242.586C62.2247 250.523 61.7668 258.766 67.8726 263.651C72.7572 267.772 80.5422 270.367 86.9533 270.367C157.628 270.825 228.303 270.672 298.977 270.672C301.878 270.672 304.625 270.672 308.747 270.672Z" fill="#952926"/>
<path d="M240.972 213.736C214.717 170.69 153.964 170.232 128.015 212.973C126.03 197.25 153.201 175.117 177.166 172.98C207.696 170.385 239.751 190.228 240.972 213.736Z" fill="#952926"/>
<path d="M228.303 57.1218C198.69 57.1218 169.382 57.1218 140.074 57.1218C140.99 35.9041 162.666 18.1972 186.478 18.8078C208.307 19.571 228.608 38.8043 228.303 57.1218ZM225.098 54.5268C223.113 36.0567 202.964 20.4869 182.968 21.5554C162.818 22.6239 144.043 38.1938 143.89 54.5268C170.909 54.5268 197.621 54.5268 225.098 54.5268Z" fill="#952926"/>
<path d="M156.253 128.102C156.101 135.429 150.911 140.619 143.584 140.313C136.41 140.161 131.372 134.665 131.525 127.338C131.678 120.622 137.02 115.432 143.889 115.432C151.216 115.585 156.253 120.622 156.253 128.102Z" fill="#952926"/>
<path d="M237.613 127.796C237.613 134.36 231.507 140.313 224.791 140.313C217.617 140.313 212.427 134.971 212.579 127.644C212.732 120.622 217.617 115.585 224.638 115.432C231.355 115.432 237.613 121.233 237.613 127.796Z" fill="#952926"/>
<path d="M311.494 95.4358L298.52 82.4609" stroke="#952926" stroke-width="2" stroke-miterlimit="10" stroke-linecap="round"/>
<path d="M311.494 82.4609L298.52 95.4358" stroke="#952926" stroke-width="2" stroke-miterlimit="10" stroke-linecap="round"/>
<path d="M311.036 114.822C313.325 114.822 315.615 114.669 317.905 114.669C319.279 114.669 325.079 116.348 323.705 119.096C323.553 119.554 319.431 120.164 318.668 120.622C317.6 121.233 316.531 122.149 316.073 123.217C315.157 125.66 316.531 127.644 318.668 128.712C323.095 131.155 327.216 132.529 331.185 136.039C333.322 138.024 336.68 134.818 334.39 132.834C330.727 129.628 326.911 127.491 322.484 125.354C318.973 123.675 323.705 123.98 325.537 123.217C326.758 122.759 327.369 121.996 327.827 120.775C329.048 117.569 326.911 113.601 324.316 111.616C320.652 108.869 315.31 109.937 311.036 110.09C307.983 110.395 307.983 114.974 311.036 114.822Z" fill="#952926"/>
<path d="M346.602 211.446C349.553 211.446 351.945 209.054 351.945 206.104C351.945 203.153 349.553 200.761 346.602 200.761C343.652 200.761 341.26 203.153 341.26 206.104C341.26 209.054 343.652 211.446 346.602 211.446Z" stroke="#952926" stroke-miterlimit="10" stroke-linecap="round"/>
<path d="M44.3648 149.167C49.1701 149.167 53.0656 145.271 53.0656 140.466C53.0656 135.661 49.1701 131.765 44.3648 131.765C39.5595 131.765 35.6641 135.661 35.6641 140.466C35.6641 145.271 39.5595 149.167 44.3648 149.167Z" stroke="#952926" stroke-miterlimit="10" stroke-linecap="round"/>
<path d="M32.1536 93.9092C49.4358 93.9092 63.4459 79.8992 63.4459 62.617C63.4459 45.3347 49.4358 31.3247 32.1536 31.3247C14.8714 31.3247 0.861328 45.3347 0.861328 62.617C0.861328 79.8992 14.8714 93.9092 32.1536 93.9092Z" stroke="#952926" stroke-miterlimit="10" stroke-linecap="round"/>
<path d="M63.4453 213.43L64.2086 225.642C65.4297 246.402 82.0681 262.887 102.675 264.109L114.887 264.872L102.675 265.635C81.9154 266.856 65.4297 283.495 64.2086 304.102L63.4453 316.313L62.6821 304.102C61.461 283.342 44.8226 266.856 24.2155 265.635L12.0039 264.872L24.2155 264.109C44.9753 262.887 61.461 246.249 62.6821 225.642L63.4453 213.43Z" fill="#952926"/>
</svg>
