<svg width="82" height="69" viewBox="0 0 82 69" fill="none" xmlns="http://www.w3.org/2000/svg">
<path d="M44.9836 20.3207C37.8867 20.3207 30.8034 20.3207 23.7064 20.3207C23.6384 20.3207 23.5705 20.3343 23.5025 20.3207C23.2442 20.2386 22.9859 20.1428 22.7275 20.0471C22.8635 19.8145 22.9587 19.5135 23.149 19.3357C26.0857 16.7501 29.0359 14.1918 31.9726 11.6335C36.0649 8.06293 40.1572 4.506 44.2495 0.935384C45.0108 0.278719 45.0108 0.27872 45.745 0.921704C52.7467 7.02321 59.7485 13.1247 66.7639 19.2262C66.8998 19.3494 67.0494 19.4588 67.1581 19.5956C67.4436 19.9513 67.3213 20.2386 66.8726 20.307C66.6551 20.3344 66.424 20.3207 66.1929 20.3207C59.1231 20.307 52.0534 20.307 44.9836 20.3207ZM40.7418 12.2492C40.7418 14.6296 42.6452 16.5448 45.0244 16.5448C47.3493 16.5312 49.2663 14.6159 49.2799 12.2902C49.2799 9.9098 47.3765 7.96717 45.0244 7.95349C42.6588 7.93981 40.7418 9.86876 40.7418 12.2492Z" fill="black"/>
<path d="M44.9963 21.511C48.1641 21.511 51.3319 21.511 54.5133 21.511C55.7233 21.511 56.2943 22.0719 56.2943 23.3168C56.3079 27.9135 56.3079 32.5238 56.3079 37.1204C56.3079 38.2422 55.6825 38.8168 54.5677 38.8168C49.1838 38.8168 43.7999 38.8168 38.4024 38.8305C37.4099 38.8305 36.4039 38.8442 35.4114 38.8168C34.2421 38.7895 33.7119 38.2286 33.7119 37.0657C33.7119 32.4828 33.7119 27.9135 33.7119 23.3305C33.7119 22.0719 34.2829 21.5247 35.5609 21.511C38.7015 21.511 41.8421 21.511 44.9963 21.511Z" fill="black"/>
<path d="M63.6628 43.1672C63.6628 43.7145 63.6628 44.1249 63.6628 44.5216C63.6628 51.7449 63.6628 58.9819 63.6628 66.2052C63.6628 67.5322 63.119 68.0658 61.8138 68.0794C61.066 68.0794 60.3183 68.0794 59.5705 68.0794C58.1974 68.0521 57.5176 67.3817 57.5176 66.0137C57.5176 56.6015 57.5176 47.1893 57.5176 37.7634C57.5176 33.0163 57.5176 28.2828 57.5176 23.5357C57.5176 22.0172 58.007 21.5247 59.5025 21.511C60.2775 21.511 61.0389 21.511 61.8138 21.511C63.1326 21.511 63.6764 22.0582 63.6764 23.3715C63.6764 29.1173 63.69 34.8632 63.6628 40.609C63.6628 41.2109 63.8532 41.6077 64.2882 42.0044C69.5361 46.7652 74.7569 51.5671 80.0048 56.3142C81.2692 57.4634 81.9082 58.8041 81.8674 60.5141C81.8266 62.7304 81.8538 64.9329 81.8538 67.1492C81.8538 67.327 81.9082 67.5596 81.8266 67.6827C81.6771 67.9016 81.4459 68.2026 81.2556 68.2026C81.0517 68.2026 80.8069 67.9153 80.6574 67.6964C80.5758 67.5733 80.6302 67.3407 80.6302 67.1628C80.6302 64.8645 80.6166 62.5525 80.6302 60.2542C80.6438 59.1597 80.2631 58.2431 79.4746 57.5181C74.3218 52.812 69.1691 48.1196 64.0163 43.4135C63.9483 43.3588 63.8667 43.3177 63.6628 43.1672Z" fill="black"/>
<path d="M26.3438 44.6582C26.3438 37.6127 26.3438 30.5673 26.3438 23.5355C26.3438 22.0033 26.8468 21.5108 28.3967 21.5244C29.1716 21.5244 29.933 21.5244 30.708 21.5244C31.9452 21.5244 32.5026 22.0853 32.5026 23.3166C32.5026 29.1992 32.5026 35.0818 32.5026 40.9508C32.5026 49.2412 32.5026 57.5452 32.5026 65.8356C32.5026 67.4499 31.8908 68.0519 30.2865 68.0792C29.6339 68.0929 28.9677 68.0929 28.3151 68.0792C27.0235 68.0519 26.3573 67.3542 26.3438 66.0682C26.3438 58.927 26.3438 51.7857 26.3438 44.6582Z" fill="black"/>
<path d="M0.934188 67.6143C0.852614 67.4501 0.798231 67.3954 0.798231 67.3407C0.499127 62.6756 1.08374 58.2295 4.10198 54.4126C5.65188 52.4563 7.52808 50.9514 9.78496 49.857C14.5298 47.545 19.2475 45.1646 23.9924 42.8252C24.9849 42.3327 25.1616 42.4558 25.1616 43.5776C25.1616 43.7144 25.1481 43.8512 25.1616 43.9881C25.284 44.7131 24.9577 45.0825 24.3187 45.3971C19.2068 47.9554 14.122 50.5547 9.0372 53.154C8.79248 53.2771 8.49337 53.3592 8.33023 53.5507C8.13989 53.7696 7.92236 54.139 7.97674 54.3716C8.0991 54.8093 8.49337 54.782 8.87405 54.5904C10.859 53.5781 12.8304 52.5794 14.8154 51.5671C17.888 50.0075 20.9606 48.4342 24.0332 46.8746C24.9713 46.3958 25.1616 46.5189 25.1616 47.5997C25.1616 49.6518 25.1481 51.7039 25.1752 53.7559C25.1752 54.2484 25.0393 54.5357 24.5906 54.782C16.8955 58.9682 9.21394 63.1681 1.5324 67.3544C1.34206 67.4364 1.15172 67.5048 0.934188 67.6143Z" fill="black"/>
<path d="M72.2689 68.0793C70.0936 68.0793 67.9183 68.0793 65.743 68.0793C64.9545 68.0793 64.8457 67.9698 64.8457 67.1627C64.8457 63.5374 64.8457 59.912 64.8457 56.3004C64.8457 55.5069 64.9545 55.4111 65.7566 55.4111C66.5452 55.4111 67.3473 55.4385 68.1358 55.3975C68.7748 55.3701 68.9788 55.63 68.9516 56.2456C68.9244 57.1622 68.938 58.0652 68.938 58.9817C68.938 59.9394 69.074 60.0625 70.0528 60.0625C71.1813 60.0625 72.3233 60.0899 73.4518 60.0488C74.05 60.0351 74.2539 60.2677 74.2403 60.856C74.2131 61.841 74.2267 62.8123 74.2403 63.7973C74.2403 64.5497 74.4034 64.7139 75.1648 64.7139C76.3612 64.7139 77.5712 64.7276 78.7677 64.7139C79.3251 64.7002 79.5562 64.9054 79.529 65.4663C79.5018 66.1503 79.4882 66.8344 79.529 67.5184C79.5562 68.0519 79.3251 68.1751 78.8492 68.1614C76.6467 68.1477 74.4578 68.1477 72.2553 68.1477C72.2689 68.1203 72.2689 68.1066 72.2689 68.0793Z" fill="black"/>
<path d="M44.9838 51.7175C48.4099 51.7175 51.8224 51.7175 55.2485 51.7175C56.173 51.7175 56.2954 51.8543 56.2954 52.7846C56.2954 53.0172 56.2954 53.2361 56.2954 53.4686C56.2818 53.9475 56.037 54.18 55.5748 54.18C54.963 54.18 54.3512 54.18 53.7394 54.18C47.4718 54.18 41.1906 54.18 34.923 54.18C34.5015 54.18 33.9305 54.3168 33.8217 53.7833C33.713 53.2087 33.7946 52.5794 33.9033 51.9911C33.9305 51.8543 34.4471 51.7312 34.7327 51.7312C38.1452 51.7039 41.5577 51.7175 44.9838 51.7175Z" fill="black"/>
<path d="M56.2941 45.2875C56.2941 46.6966 56.2941 48.1057 56.2941 49.5285C56.2941 50.3219 56.131 50.4861 55.3424 50.4998C54.2956 50.4998 53.2623 50.4998 52.2154 50.4998C51.4677 50.4998 51.2773 50.3219 51.2773 49.5832C51.2773 46.7103 51.2773 43.851 51.2773 40.9781C51.2773 40.2394 51.4677 40.0479 52.2019 40.0342C53.2487 40.0205 54.282 40.0205 55.3289 40.0342C56.131 40.0342 56.2941 40.212 56.2941 40.9918C56.2941 42.4283 56.2941 43.851 56.2941 45.2875Z" fill="black"/>
<path d="M38.8789 45.2601C38.8789 43.8647 38.8789 42.483 38.8789 41.0876C38.8789 40.1983 39.0421 40.0342 39.8986 40.0342C40.9454 40.0342 41.9787 40.0479 43.0256 40.0342C43.6238 40.0342 43.8957 40.3078 43.8957 40.9097C43.8957 43.8237 43.8957 46.7513 43.8957 49.6653C43.8957 50.2672 43.5966 50.5135 43.012 50.5135C41.9243 50.4998 40.8367 50.4998 39.749 50.5135C39.1372 50.5271 38.8789 50.2398 38.8789 49.6516C38.8789 48.1741 38.8789 46.7239 38.8789 45.2601Z" fill="black"/>
<path d="M45.0787 45.2056C45.0787 43.7965 45.0787 42.3737 45.0787 40.9647C45.0787 40.1985 45.2554 40.0344 46.0032 40.0207C47.0636 40.007 48.1377 40.0207 49.1981 40.007C49.8371 39.9933 50.0955 40.308 50.0955 40.9236C50.0955 43.8239 50.0955 46.7105 50.0955 49.6107C50.0955 50.1853 49.8507 50.4863 49.2253 50.4726C48.1377 50.4452 47.05 50.4452 45.9624 50.4726C45.3098 50.4863 45.0651 50.1853 45.0787 49.556C45.0923 48.1332 45.0787 46.6694 45.0787 45.2056Z" fill="black"/>
<path d="M37.67 45.3285C37.67 46.7376 37.6836 48.1467 37.67 49.5558C37.67 50.3219 37.5069 50.4724 36.7455 50.4861C35.9977 50.4998 35.25 50.4861 34.5022 50.4861C33.972 50.4861 33.7001 50.2398 33.7001 49.7063C33.7001 46.7513 33.7001 43.7826 33.7001 40.8277C33.7001 40.3352 33.9176 40.0479 34.4206 40.0342C35.2636 40.0205 36.0929 40.0205 36.9358 40.0342C37.4933 40.0342 37.67 40.3899 37.67 40.8824C37.67 42.3736 37.67 43.851 37.67 45.3285Z" fill="black"/>
<path d="M42.7669 12.2219C42.7805 10.9633 43.8001 9.96464 45.0373 9.992C46.2745 10.0194 47.2806 11.0591 47.2534 12.2903C47.2398 13.5353 46.2202 14.5339 44.9694 14.5203C43.7186 14.4929 42.7533 13.4942 42.7669 12.2219Z" fill="black"/>
</svg>
