<svg width="148" height="146" viewBox="0 0 148 146" fill="none" xmlns="http://www.w3.org/2000/svg">
<g opacity="0.7">
<path d="M70.9837 125.509C42.684 125.509 19.7425 102.567 19.7425 74.2675C19.7425 45.9678 42.684 23.0264 70.9837 23.0264C99.2834 23.0264 122.225 45.9678 122.225 74.2675C122.225 102.567 99.2834 125.509 70.9837 125.509Z" fill="white"/>
</g>
<path d="M86.562 8.7326C82.5314 7.98619 78.3888 7.613 74.2088 7.57567C62.3036 7.57567 50.6596 10.7479 40.4711 16.7192C39.9486 17.0178 39.3514 17.1671 38.7916 17.1671C37.672 17.1671 36.5524 16.5699 35.9553 15.525C35.0222 13.9575 35.5447 11.9422 37.1122 11.0092C48.3084 4.40343 61.1466 0.932617 74.2088 0.932617C78.762 0.932617 83.3151 1.34313 87.7562 2.2015C89.5476 2.53739 90.7419 4.25413 90.406 6.04552C90.1074 7.87423 88.3534 9.06849 86.562 8.7326Z" fill="#F5A73D"/>
<path d="M4.27041 70.9458C6.09912 70.9458 7.55462 72.4386 7.55462 74.23C7.55462 90.3525 13.3766 105.915 23.9383 118.044C25.1326 119.425 24.9833 121.515 23.6025 122.709C22.968 123.269 22.2216 123.53 21.4379 123.53C20.5049 123.53 19.6092 123.157 18.9374 122.411C7.33069 109.087 0.91156 91.9946 0.91156 74.2673C0.948879 72.4386 2.4417 70.9458 4.27041 70.9458Z" fill="#BCF0FF"/>
<path d="M8.15143 65.3106C7.92751 66.9527 6.50933 68.1843 4.86723 68.1843C4.71795 68.1843 4.56866 68.1843 4.41938 68.147C2.62799 67.9231 1.3591 66.2436 1.58302 64.4522C3.93422 46.9489 12.5926 30.8637 25.916 19.1824C27.2969 17.9881 29.3869 18.1001 30.5811 19.4809C31.7754 20.8618 31.6634 22.9518 30.2825 24.146C18.1533 34.7451 10.2787 49.3747 8.15143 65.3106Z" fill="#B23632"/>
<path d="M90.0701 139.056C105.67 135.25 119.404 125.882 128.734 112.708C129.779 111.215 131.832 110.879 133.325 111.924C134.818 112.969 135.153 115.022 134.108 116.515C123.883 130.995 108.768 141.295 91.6376 145.475C91.3764 145.55 91.1151 145.587 90.8539 145.587C89.3611 145.587 88.0175 144.58 87.6443 143.05C87.2338 141.258 88.3161 139.467 90.0701 139.056Z" fill="#55C6E8"/>
<path d="M134.967 101.81C138.886 93.1521 140.901 83.8592 140.901 74.2678C140.901 67.7367 139.968 61.3176 138.102 55.1224C137.579 53.3683 138.587 51.5396 140.304 51.0171C142.058 50.4946 143.886 51.5023 144.409 53.219C146.424 60.0114 147.469 67.1023 147.469 74.2305C147.469 84.7922 145.267 94.9808 140.938 104.498C140.378 105.729 139.184 106.438 137.915 106.438C137.467 106.438 136.982 106.326 136.534 106.14C134.967 105.431 134.22 103.453 134.967 101.81Z" fill="#FFC4E8"/>
<path d="M52.2867 68.6437C51.5493 67.169 50.7857 65.9313 50.259 64.6146C49.4953 62.7713 50.338 61.0069 52.3393 59.9536C59.5285 56.2142 66.6913 52.4747 73.8804 48.7353C75.3288 47.998 76.7508 47.208 78.1992 46.497C80.1215 45.5753 82.0703 46.102 83.0446 47.9453C84.8616 51.2897 86.5733 54.6868 88.3904 58.1365C84.7826 60.0326 81.1749 61.8233 77.6725 63.772C75.9345 64.7463 74.1701 65.1413 72.1687 65.0887C67.9026 65.0097 63.6366 65.1413 59.3968 65.0623C56.4474 65.0097 54.0774 65.9577 52.2867 68.6437Z" fill="black"/>
<path d="M54.6831 102.456C52.4447 102.456 50.2063 102.43 47.9679 102.483C46.8092 102.483 46.3089 101.956 46.3089 100.824C46.3089 97.7953 46.3089 94.7669 46.3089 91.7648C46.3089 91.3961 46.3616 90.7378 46.5722 90.6588C48.1523 90.0268 47.6519 88.6838 47.6783 87.5514C47.7573 83.733 50.4433 80.8889 54.2881 80.5203C58.1065 80.1779 61.6615 83.3116 61.7669 87.1301C61.7932 87.8411 61.7405 88.5257 61.7932 89.2368C61.8195 89.5528 61.9512 90.0268 62.1619 90.1058C63.1889 90.4745 63.2152 91.2645 63.2152 92.1335C63.2152 94.9512 63.2416 97.7426 63.2152 100.56C63.2152 102.14 62.8729 102.456 61.2665 102.456C59.0808 102.456 56.8951 102.456 54.6831 102.456ZM59.0808 90.0531C59.2651 87.5514 59.4232 85.1813 56.9478 83.7593C55.3677 82.864 53.7614 82.9166 52.234 83.97C50.022 85.4974 50.2326 87.7357 50.417 90.0531C53.3137 90.0531 56.1314 90.0531 59.0808 90.0531ZM56.9741 94.6089C56.9478 93.9505 56.5001 93.0552 55.4994 92.9235C54.7357 92.8182 53.656 93.0025 53.182 93.5028C52.708 94.0032 52.4447 95.3199 52.787 95.8202C53.577 96.9526 53.8404 98.0586 53.8404 99.349C53.8404 99.665 54.2617 100.139 54.6041 100.244C54.8411 100.323 55.5521 99.981 55.5521 99.7966C55.5521 98.0849 56.2104 96.5839 56.9741 95.0829C57.0004 95.0829 56.9741 95.0302 56.9741 94.6089Z" fill="black"/>
<path d="M56.7371 77.7814C56.0261 77.6497 55.4731 77.5181 54.841 77.4127C54.841 75.4114 54.7357 73.4363 54.8674 71.4876C54.9727 69.7232 56.4737 68.5119 58.4224 68.4856C60.7925 68.4329 63.1625 68.4592 65.5326 68.4592C74.0121 68.4592 82.4652 68.4592 90.9447 68.4592C94.3945 68.4592 95.6585 69.6969 95.6585 73.094C95.6585 79.6774 95.6585 86.2609 95.6585 92.8444C95.6585 96.1624 94.3418 97.4791 91.0501 97.4791C83.2289 97.4791 75.4341 97.4791 67.6129 97.4791C67.1916 97.4791 66.7439 97.4791 66.2436 97.4791C66.2436 96.8208 66.2436 96.2678 66.2436 95.5041C66.7439 95.5041 67.2443 95.5041 67.7446 95.5041C75.4341 95.5041 83.0972 95.5041 90.7867 95.5041C93.2621 95.5041 93.6308 95.1354 93.6308 92.7127C93.6308 86.1292 93.6308 79.5458 93.6308 72.9623C93.6308 70.8029 93.2094 70.3816 90.9974 70.3816C80.4112 70.3816 69.8513 70.3816 59.2651 70.3816C57.2374 70.3816 56.7371 70.9083 56.7371 72.9623C56.7371 74.516 56.7371 76.096 56.7371 77.7814Z" fill="black"/>
<path d="M83.1763 91.0012C81.0432 92.4759 79.0155 92.4495 77.6198 90.8695C76.3558 89.4475 76.3558 87.2618 77.6198 85.8397C79.0155 84.286 81.0169 84.2334 83.1763 85.7081C85.3356 84.2334 87.3107 84.286 88.7327 85.8397C89.9967 87.2354 89.9967 89.4738 88.7327 90.8695C87.337 92.4495 85.362 92.4759 83.1763 91.0012Z" fill="black"/>
<path d="M83.8083 78.5188C83.8083 79.0718 83.8083 79.4931 83.8083 79.9935C75.8555 79.9935 67.929 79.9935 59.9498 79.9935C59.9498 79.5195 59.9498 79.0455 59.9498 78.5188C67.8763 78.5188 75.8028 78.5188 83.8083 78.5188Z" fill="black"/>
<path d="M69.7986 75.4113C69.7986 74.8846 69.7986 74.4632 69.7986 73.9629C74.4597 73.9629 79.0418 73.9629 83.7556 73.9629C83.7556 74.4106 83.7556 74.8582 83.7556 75.4113C79.1472 75.4113 74.5387 75.4113 69.7986 75.4113Z" fill="black"/>
<path d="M91.9455 65.0096C89.5227 65.0096 87.3107 65.0096 85.0987 65.0096C85.0723 64.9306 85.046 64.878 85.0197 64.799C86.7577 63.8773 88.4957 62.9819 90.3654 62.0076C90.8658 62.9819 91.3398 63.9036 91.9455 65.0096Z" fill="black"/>
<path d="M65.6379 74.0947C65.6379 74.5951 65.6379 75.0164 65.6379 75.5431C63.7419 75.5431 61.8985 75.5431 59.9761 75.5431C59.9761 75.0954 59.9761 74.6477 59.9761 74.0947C61.7932 74.0947 63.6629 74.0947 65.6379 74.0947Z" fill="black"/>
</svg>
