<svg width="654" height="579" viewBox="0 0 654 579" fill="none" xmlns="http://www.w3.org/2000/svg">
<path d="M365.896 553.686C383.132 530.484 396.986 530.275 396.986 530.275C396.986 530.275 403.288 489.504 398.238 472.185C393.23 454.867 370.57 470.057 370.57 470.057C370.57 470.057 400.617 411.132 388.306 404.538C365.354 392.228 329.173 454.7 329.173 454.7C329.173 454.7 337.644 427.199 321.411 427.282C296.914 427.449 294.786 490.505 294.786 490.505C294.786 490.505 289.945 478.069 274.839 485.205C258.563 492.884 254.14 539.039 253.222 574.719H338.98C351.29 567.207 361.306 559.821 365.896 553.686Z" fill="#C9EDF9"/>
<path d="M332.136 449.65C332.136 449.65 333.137 418.31 316.904 418.393C292.407 418.56 294.744 490.463 294.744 490.463C294.744 490.463 284.52 470.098 269.413 477.234C252.846 485.038 250.843 536.076 251.511 574.677H280.013L388.264 404.497C365.312 392.186 332.136 449.65 332.136 449.65Z" fill="#65CEFE"/>
<path d="M465.469 572.674C465.469 572.674 543.632 581.688 562.578 575.053C581.524 568.418 568.963 557.818 568.963 557.818C568.963 557.818 609.025 552.685 612.864 540.791C616.745 528.856 597.799 528.815 597.799 528.815C597.799 528.815 637.986 506.655 633.479 498.017C625.091 481.992 579.98 503.859 579.98 503.859C579.98 503.859 595.546 491.34 586.156 485.08C572.009 475.649 546.261 511.079 546.261 511.079C546.261 511.079 548.306 502.065 536.871 500.27C516.339 497.057 465.469 572.674 465.469 572.674Z" fill="#C9EDF9"/>
<path d="M536.871 493.593C548.306 495.388 546.303 511.037 546.303 511.037C546.303 511.037 572.927 468.763 587.074 478.194C596.464 484.454 583.694 502.065 583.694 502.065C583.694 502.065 625.133 481.95 633.521 497.933L472.98 567.583C478.865 558.82 517.675 490.589 536.871 493.593Z" fill="#65CEFE"/>
<path d="M465.011 573.801C465.011 573.801 536.121 524.307 546.387 502.565C556.611 480.823 537.039 482.618 537.039 482.618C537.039 482.618 566.293 444.1 559.366 430.787C552.438 417.475 536.455 433.625 536.455 433.625C536.455 433.625 551.27 380.626 540.128 377.288C519.387 371.028 499.064 438.132 499.064 438.132C499.064 438.132 491.302 400.991 478.073 403.787C458.125 407.96 478.031 462.837 478.031 462.837C478.031 462.837 472.147 444.976 461.005 453.239C440.932 468.053 465.011 573.801 465.011 573.801Z" fill="#C9EDF9"/>
<path d="M441.475 454.032C454.036 448.106 456.54 435.586 456.54 435.586C456.54 435.586 456.623 404.538 476.571 400.407C489.8 397.653 499.064 422.566 499.064 422.566C499.064 422.566 519.262 370.986 540.044 377.246L464.761 572.966C462.173 560.488 426.535 461.084 441.475 454.032Z" fill="#65CEFE"/>
<path d="M443.059 573.968H299.628C295.038 573.968 291.365 570.254 291.365 565.705C291.365 561.115 295.079 557.442 299.628 557.442H443.059C447.649 557.442 451.322 561.156 451.322 565.705C451.363 570.254 447.649 573.968 443.059 573.968Z" fill="#FF6E53"/>
<path d="M468.14 557.901H324.709C320.119 557.901 316.446 554.187 316.446 549.638C316.446 545.048 320.16 541.375 324.709 541.375H468.14C472.73 541.375 476.403 545.09 476.403 549.638C476.444 554.187 472.73 557.901 468.14 557.901Z" fill="#E74A60"/>
<path d="M448.067 542.669H304.636C300.045 542.669 296.373 538.955 296.373 534.406C296.373 529.816 300.087 526.144 304.636 526.144H448.067C452.657 526.144 456.329 529.858 456.329 534.406C456.371 538.955 452.657 542.669 448.067 542.669Z" fill="#FF6E53"/>
<path d="M431.374 526.185H287.943C283.353 526.185 279.681 522.471 279.681 517.923C279.681 513.332 283.395 509.66 287.943 509.66H431.374C435.965 509.66 439.637 513.374 439.637 517.923C439.637 522.471 435.923 526.185 431.374 526.185Z" fill="#E74A60"/>
<path d="M202.604 571.046C202.604 571.046 91.1393 516.086 71.9846 487.458C52.8299 458.789 80.9986 457.161 80.9986 457.161C80.9986 457.161 31.2965 408.795 38.2656 388.43C45.2765 368.065 71.3586 387.512 71.3586 387.512C71.3586 387.512 39.0585 315.567 54.1236 308.389C82.2088 295.077 121.603 371.654 121.603 371.654C121.603 371.654 113.132 338.394 132.495 339.479C161.665 341.106 160.455 416.39 160.455 416.39C160.455 416.39 163.752 387.512 181.321 396.901C212.87 413.719 202.604 571.046 202.604 571.046Z" fill="#65CEFE"/>
<path d="M187.663 385.258C173.934 377.621 160.246 399.906 160.246 399.906C160.246 399.906 161.623 341.106 132.453 339.479C113.131 338.394 121.561 371.654 121.561 371.654C121.561 371.654 82.1663 295.077 54.0811 308.389L202.687 569.836C203.772 551.558 214.872 400.323 187.663 385.258Z" fill="#C9EDF9"/>
<path d="M199.723 571.714C199.723 571.714 108.581 583.023 84.9614 572.966C61.3415 562.867 78.2844 550.431 78.2844 550.431C78.2844 550.431 27.6225 540.457 23.6998 524.892C19.777 509.367 43.9812 510.87 43.9812 510.87C43.9812 510.87 -5.42875 479.154 1.08135 468.554C13.1835 448.815 68.8949 480.573 68.8949 480.573C68.8949 480.573 50.074 463.254 62.5934 456.076C81.456 445.226 111.294 492.675 111.294 492.675C111.294 492.675 109.458 480.99 124.231 479.696C150.688 477.359 199.723 571.714 199.723 571.714Z" fill="#65CEFE"/>
<path d="M124.774 471.225C110.001 472.519 111.253 492.717 111.253 492.717C111.253 492.717 80.8722 436.504 62.0096 447.313C49.4902 454.491 64.3048 478.111 64.3048 478.111C64.3048 478.111 13.1421 448.857 1.04004 468.596L199.974 571.255C193.255 559.403 149.562 469.055 124.774 471.225Z" fill="#C9EDF9"/>
<path d="M0.000976562 576.43C0.000976562 577.849 1.14539 578.975 2.5865 578.975H651.383C652.824 578.975 653.968 577.807 653.968 576.43C653.968 575.011 652.824 573.884 651.383 573.884H2.5865C1.18777 573.842 0.000976562 575.011 0.000976562 576.43Z" fill="#064C91"/>
<path d="M321.788 573.884H153.319C146.6 573.884 141.175 568.459 141.175 561.741C141.175 555.022 146.6 549.597 153.319 549.597H321.788C328.507 549.597 333.932 555.022 333.932 561.741C333.974 568.418 328.507 573.884 321.788 573.884Z" fill="#FFCB83"/>
<path d="M347.119 549.805H188.539C181.821 549.805 176.396 544.38 176.396 537.661C176.396 530.943 181.821 525.518 188.539 525.518H347.16C353.879 525.518 359.304 530.943 359.304 537.661C359.262 544.38 353.837 549.805 347.119 549.805Z" fill="#E6A748"/>
<path d="M324.542 525.476H172.807C166.255 525.476 160.913 520.176 160.913 513.582V513.04C160.913 506.488 166.213 501.146 172.807 501.146H324.542C331.094 501.146 336.435 506.446 336.435 513.04V513.582C336.394 520.176 331.094 525.476 324.542 525.476Z" fill="#FFCB83"/>
<path d="M324.375 501.23H171.972C165.545 501.23 160.287 496.013 160.287 489.545V488.585C160.287 482.159 165.504 476.9 171.972 476.9H324.417C330.843 476.9 336.101 482.117 336.101 488.585V489.545C336.06 496.013 330.843 501.23 324.375 501.23Z" fill="#E6A748"/>
<path d="M329.383 478.361H175.561C168.842 478.361 163.417 472.936 163.417 466.217C163.417 459.499 168.842 454.073 175.561 454.073H329.383C336.101 454.073 341.527 459.499 341.527 466.217C341.568 472.936 336.101 478.361 329.383 478.361Z" fill="#FFCB83"/>
<path d="M322.747 454.366H168.925C162.206 454.366 156.781 448.94 156.781 442.222C156.781 435.503 162.206 430.078 168.925 430.078H322.747C329.466 430.078 334.891 435.503 334.891 442.222C334.933 448.94 329.466 454.366 322.747 454.366Z" fill="#E6A748"/>
<path d="M330.468 407.418H183.114C176.521 407.418 171.221 402.076 171.221 395.524V395.024C171.221 388.43 176.562 383.13 183.114 383.13H330.468C337.061 383.13 342.361 388.472 342.361 395.024V395.524C342.361 402.076 337.061 407.418 330.468 407.418Z" fill="#E6A748"/>
<path d="M343.655 430.787H202.102C195.633 430.787 190.417 425.571 190.417 419.103V418.185C190.417 411.716 195.633 406.5 202.102 406.5H343.655C350.123 406.5 355.339 411.716 355.339 418.185V419.103C355.381 425.529 350.123 430.787 343.655 430.787Z" fill="#FFCB83"/>
<path d="M319.743 206.565C319.743 206.565 320.578 204.854 320.536 200.889C320.452 195.965 319.493 188.578 319.284 187.911C318.908 186.742 334.808 181.734 334.808 181.734C334.808 181.734 360.306 180.441 364.062 177.603C367.859 174.765 371.031 173.597 369.278 176.518C366.065 181.86 358.595 189.663 356.967 190.748C355.298 191.833 335.517 196.799 335.142 196.799C334.766 196.799 334.891 209.235 334.891 209.235L319.743 206.565Z" fill="#F7A491"/>
<path d="M336.269 201.265C336.269 201.265 319.785 198.469 319.451 200.096C312.774 236.611 311.647 248.671 310.938 249.047C308.434 250.341 272.503 218.834 266.577 216.747C263.74 215.745 260.652 215.912 257.689 215.996C250.636 216.204 253.015 216.038 249.301 216.204C249.092 216.204 248.967 216.246 248.967 216.246L249.009 222.882C256.979 230.018 275.174 338.394 276.718 338.352C278.429 338.269 314.402 347.325 313.776 344.278C313.692 343.777 289.363 323.913 282.477 295.202C280.182 285.562 279.013 275.213 277.761 266.115C285.774 270.121 316.989 285.479 321.913 283.475C337.354 277.216 336.269 201.265 336.269 201.265Z" fill="#FF0000"/>
<path d="M398.239 393.688C398.239 393.688 431.708 419.895 432.835 424.569C434.462 431.246 465.093 422.483 457.706 421.106C455.996 420.772 450.57 419.395 450.111 419.186C447.733 417.892 417.936 382.003 417.936 382.003L398.239 393.688Z" fill="#F7A491"/>
<path d="M472.063 421.106L450.696 419.353C450.696 419.353 444.603 424.402 432.835 424.653C432.835 424.653 430.957 430.036 431.834 436.296C432.001 437.381 432.167 440.636 433.252 440.552C437.217 440.302 447.733 437.673 459.71 435.252C459.71 435.252 475.819 431.831 485.125 426.28C494.472 420.73 472.063 421.106 472.063 421.106Z" fill="#063E70"/>
<path d="M248.216 327.919C248.216 327.919 272.712 332.051 299.838 325.708C331.22 318.363 365.898 311.602 376.081 317.487C384.26 322.244 435.339 399.447 435.339 399.447L415.6 413.844L359.347 350.83C359.347 350.83 287.569 377.329 271.46 374.366C234.778 367.731 234.236 338.394 248.216 327.919Z" fill="#063E70"/>
<path d="M275.006 312.354L299.544 341.482L254.057 355.379L248.215 327.919L275.006 312.354Z" fill="#063E70"/>
<path d="M324.876 445.519C324.876 445.519 323.374 485.998 322.456 492.884C321.538 499.728 339.649 520.259 337.312 513.123C336.77 511.496 335.392 506.029 335.392 505.528C335.392 502.816 342.111 456.619 342.111 456.619L324.876 445.519Z" fill="#F7A491"/>
<path d="M344.156 525.726L335.518 506.071C335.518 506.071 328.173 503.108 322.372 492.884C322.372 492.884 316.78 493.76 311.647 497.557C310.771 498.225 304.762 502.565 305.179 503.608C306.723 507.323 314.861 515.293 323.791 523.973C323.791 523.973 336.436 534.156 345.742 539.706C355.131 545.256 344.156 525.726 344.156 525.726Z" fill="#063E70"/>
<path d="M364.605 365.686C356.05 354.252 286.859 343.402 286.859 343.402L267.579 306.302L224.93 332.593C224.93 332.593 229.186 366.521 232.4 375.618C236.656 387.72 265.326 388.305 282.853 388.138C298.961 387.971 328.382 391.268 328.382 391.268L318.408 479.07C318.408 479.07 337.98 483.536 343.489 482.785C344.073 482.743 375.288 379.875 364.605 365.686Z" fill="#064C91"/>
<path d="M249.217 216.371L225.138 217.707C225.138 217.707 224.596 217.915 224.429 217.915C222.467 218.291 224.262 288.4 226.014 314.607C227.767 340.814 231.314 351.79 231.314 351.79C231.314 351.79 263.948 345.989 273.964 342.108C278.137 340.48 288.194 327.919 288.194 327.919C288.194 327.919 277.928 314.106 272.754 291.655C268.747 274.336 263.823 243.664 261.027 237.237C254.517 222.548 249.217 216.371 249.217 216.371Z" fill="#EEFBFF"/>
<path d="M225.847 196.466L225.18 217.707C225.18 217.707 240.745 244.54 248.758 240.826C255.477 237.696 249.509 217.248 249.509 217.248C249.509 217.248 248.341 212.574 246.755 207.191C245.628 203.435 244.71 199.345 244.752 196.382C244.877 189.121 225.847 196.466 225.847 196.466Z" fill="#F7A491"/>
<path d="M244.46 147.974C244.46 147.974 252.389 159.951 252.974 170.008C253.558 180.066 251.43 186.951 251.43 186.951L225.932 156.487L244.46 147.974Z" fill="#031322"/>
<path d="M255.602 167.963C255.978 171.511 254.601 174.515 252.556 174.724C250.511 174.933 248.55 172.262 248.174 168.715C247.798 165.167 249.176 162.163 251.22 161.954C253.307 161.745 255.268 164.416 255.602 167.963Z" fill="#F48C7F"/>
<path d="M217.71 161.411C217.126 161.286 217.167 190.623 225.681 197.509C234.194 204.395 248.967 205.021 253.307 198.052C258.064 190.373 253.557 159.45 240.913 152.898C228.268 146.346 217.71 161.411 217.71 161.411Z" fill="#F7A491"/>
<path d="M215.582 143.217C209.114 148.892 205.942 153.065 201.56 163.164C196.177 175.6 206.86 188.495 215.832 193.586C224.805 198.719 225.556 204.979 225.556 204.979L225.931 201.056C226.307 198.01 225.389 196.299 224.554 194.463C223.803 192.835 221.341 187.243 220.381 185.741C217.835 181.86 217.376 180.983 218.587 177.311C219.546 174.473 218.42 168.172 219.922 163.456L232.024 160.869C232.024 160.869 239.577 159.033 243.417 154.651C254.35 142.006 232.692 127.901 215.582 143.217Z" fill="#031322"/>
<path d="M221.466 180.566C222.968 183.78 222.634 187.076 220.756 187.953C218.878 188.829 216.166 186.91 214.664 183.696C213.161 180.483 213.495 177.186 215.373 176.31C217.251 175.433 219.964 177.311 221.466 180.566Z" fill="#F7A491"/>
<path d="M139.088 99.6488C140.465 105.283 142.927 114.213 142.927 114.213C142.719 116.675 142.009 126.858 141.133 139.377L159.536 132.032C159.536 132.032 159.328 111.667 160.121 110.415C160.83 109.372 161.998 110.666 167.632 102.612C169.26 100.275 169.552 96.1433 169.552 96.1433C169.552 96.1433 169.886 91.0104 168.717 90.5513C167.549 90.0923 166.255 90.8434 165.838 91.7198C165.42 92.5962 165.546 94.6827 165.128 95.5591C164.711 96.4354 162.04 97.5205 160.913 97.437C159.787 97.3953 161.039 82.2885 161.039 82.2885C161.039 82.2885 161.665 77.9902 161.998 76.613C162.249 75.4028 163.376 71.9391 163.376 71.9391C163.376 71.9391 164.669 66.8479 163.084 66.4723C162.165 66.2637 159.787 70.3533 158.159 74.7351C156.406 79.4508 155.405 84.4585 154.904 84.3751C153.736 84.2082 154.362 75.9453 154.362 75.9453C154.362 75.9453 155.53 72.1478 155.488 70.3533C156.573 68.1833 157.325 64.0936 155.363 63.7598C154.988 63.718 152.442 68.851 152.442 68.851C152.442 68.851 151.44 72.4816 150.856 74.1926C149.813 77.1973 149.646 81.9129 149.103 83.9995C148.644 85.7522 148.227 85.0011 148.06 85.0845C147.935 85.1263 148.185 82.7476 148.436 79.4508C148.561 77.7815 148.394 75.8619 148.853 73.984C149.27 72.2312 149.521 69.7274 149.646 68.225C149.98 63.9267 147.267 64.3857 146.349 68.3085C145.974 69.8108 145.64 71.4383 145.264 73.0659C143.804 79.4925 143.845 85.6688 143.178 85.7105C142.26 85.794 142.886 74.5265 142.886 74.5265C142.886 74.5265 141.508 68.3085 140.131 74.0674C138.545 80.7862 138.712 86.253 138.712 86.5034C138.921 88.1726 137.711 94.015 139.088 99.6488Z" fill="#F8A492"/>
<path d="M225.096 217.707C225.096 217.707 201.267 216.58 195.091 213.784C191.377 212.115 160.704 187.368 160.704 187.368L161.038 121.224L139.463 119.596C139.463 119.596 128.279 192.71 132.16 200.722C136.166 208.985 181.028 242.996 190 257.769C195.175 266.282 205.941 381.962 207.569 383.005C219.17 389.056 255.059 395.065 254.183 391.435C230.938 290.111 225.096 217.707 225.096 217.707Z" fill="#FF0000"/>
<path d="M329.842 189.33C329.842 189.33 336.477 186.492 338.272 185.908C340.066 185.323 345.741 184.238 345.741 184.238C345.741 184.238 354.589 175.183 356.842 174.932C359.096 174.682 351.667 184.823 351.667 184.823L348.579 187.786C348.579 187.786 353.545 183.529 354.505 182.945C355.465 182.36 362.935 171.552 364.813 172.261C366.691 172.971 361.599 180.566 359.137 184.572C356.633 188.62 345.282 191.082 345.282 191.082L329.842 189.33Z" fill="#F7A491"/>
<path d="M242.802 118.399L250.955 104.278L255.16 106.705L247.007 120.827L242.802 118.399ZM237.965 126.778L240.7 122.039L244.905 124.467L242.17 129.205L237.965 126.778Z" fill="#FF0000"/>
<path d="M225.26 110.007V94.3269H229.929V110.007H225.26ZM225.26 119.31V114.049H229.929V119.31H225.26Z" fill="#FF0000"/>
<path d="M192.078 124.088L177.416 98.6929L184.978 94.3268L199.64 119.722L192.078 124.088ZM200.778 139.156L195.858 130.635L203.42 126.269L208.34 134.79L200.778 139.156Z" fill="#FF0000"/>
<path d="M185.961 54.7385C189.974 54.7981 196.407 54.2026 199.337 51.2251C200.675 49.915 200.293 48.1285 200.102 46.5207C199.847 44.496 199.91 42.0545 199.082 40.1489C197.49 36.4568 191.375 37.8265 188.063 37.8265C184.241 37.8265 178.444 36.9332 175.705 40.0894C169.272 47.533 187.617 47.3544 190.865 47.1162C199.91 46.4611 212.523 43.4241 217.491 35.5636C222.778 27.1076 215.071 21.0335 207.363 17.7583C196.98 13.4112 185.642 10.8506 174.304 10.3146C164.941 9.95733 153.793 11.0888 147.678 18.5325C142.965 24.3088 142.2 32.8243 148.634 37.7669C155.959 43.4241 167.934 43.3646 176.788 42.2331C186.152 41.0421 197.872 37.8265 203.286 29.9659C207.618 23.6537 206.217 14.8999 198.382 11.9225C190.865 9.06409 181.311 10.3146 174.877 14.8999C170.419 18.1156 164.24 27.4649 171.31 31.3356C175.323 33.5389 181.82 33.1816 186.216 32.9434C191.694 32.5861 197.172 31.3951 202.267 29.3109C208.956 26.6312 219.275 20.1403 217.045 11.982C214.879 3.94284 202.777 6.86076 197.49 9.65959C192.267 12.3989 181.693 21.2122 188.763 26.8694C191.948 29.43 196.662 29.7278 200.611 29.7873C206.28 29.8468 212.013 28.9536 217.3 26.9289C224.307 24.2492 231.759 17.3415 227.81 9.65959C223.861 2.03726 209.847 3.4069 202.713 4.83608C193.286 6.80121 182.903 11.5056 176.916 18.8302C175.196 20.9144 171.756 25.6784 173.858 28.4177C176.024 31.2165 182.394 31.3356 185.642 31.276C194.178 31.2165 205.898 28.4772 208.956 19.9021C211.886 11.5056 203.541 4.89563 195.77 2.87095C190.228 1.44176 184.368 1.20357 178.636 0.905819C172.138 0.488973 165.514 0.250775 158.953 0.310325C149.526 0.429424 136.149 0.905819 129.843 8.64725C124.365 15.3763 130.353 22.9987 137.423 25.7975C142.519 27.8222 148.315 28.5368 153.73 29.1918C159.654 29.9064 165.705 30.1446 171.629 29.43C178.444 28.6559 192.139 25.9761 192.84 17.6988C193.541 9.65959 180.992 6.97986 174.686 6.86076C165.705 6.62257 156.851 10.7315 153.793 19.0089C150.927 26.6907 155.131 34.0749 162.966 37.231C172.584 41.0421 182.903 37.3501 191.439 32.8243C199.082 28.775 207.936 22.7605 209.656 14.1853C210.102 11.982 209.911 8.8259 207.299 7.81356C203.669 6.38437 198.445 9.89778 195.706 11.8034C191.184 14.9595 181.056 24.7851 186.279 30.5614C188.891 33.4794 194.942 33.3603 198.637 33.4794C204.242 33.658 209.911 33.0625 215.325 31.6929C219.657 30.621 224.498 29.1918 227.874 26.3334C229.466 24.9638 232.587 21.0335 230.294 19.0684C228.065 17.1033 223.224 20.7953 221.631 21.9863C218.701 24.3088 215.58 27.8817 214.943 31.5738C213.542 39.9107 230.995 34.3726 234.243 31.9311C236.537 30.2041 238.448 27.4649 237.11 24.7256C235.9 22.165 232.778 20.9144 229.976 21.6886C229.848 21.7481 229.912 21.8672 230.039 21.8672C232.524 21.2122 235.199 22.1054 236.6 24.1897C238.511 27.048 236.6 29.9659 234.116 31.812C230.549 34.4322 225.581 35.6231 221.058 35.6827C218.892 35.6827 215.262 35.6827 215.007 32.467C214.943 31.6929 215.325 30.8592 215.58 30.1446C216.344 28.1795 217.682 26.2739 219.147 24.666C220.357 23.356 221.695 22.2245 223.224 21.2122C223.861 20.7953 224.498 20.438 225.198 20.0807C226.026 19.6639 226.855 19.3066 227.746 19.0684C228.702 20.1998 229.594 21.3313 230.549 22.4627C230.613 24.4279 227.492 26.6907 226.026 27.584C224.498 28.5368 222.842 29.2514 221.122 29.9064C217.491 31.276 213.669 32.2288 209.784 32.8243C203.286 33.8367 183.031 35.8613 185.515 25.3806C187.107 18.592 193.923 12.5775 200.293 9.60004C202.904 8.3495 207.108 6.56302 209.083 10.136C209.975 11.8034 209.656 13.828 209.147 15.555C208 19.247 205.58 22.5223 202.713 25.202C197.299 30.3232 189.91 34.3131 182.712 36.8141C175.323 39.4343 166.788 40.0298 159.908 35.8018C152.774 31.3951 151.246 23.1178 155.513 16.3291C159.845 9.36184 168.508 6.74166 176.788 7.45626C183.986 8.1113 198.637 13.6494 190.547 22.4032C185.196 27.7626 174.814 29.2514 167.234 29.6087C159.08 29.9659 150.672 29.0132 142.71 27.2267C138.633 26.3334 134.366 24.9042 131.436 21.9863C127.932 18.5325 126.595 13.6494 129.461 9.48094C134.047 2.6923 144.812 1.20357 152.583 0.727171C161.055 0.191226 169.59 0.548523 178.062 1.02492C186.152 1.50131 195.77 1.50131 202.713 6.02707C210.803 11.327 211.376 21.3313 202.968 26.6907C196.216 31.0378 185.642 32.3479 177.807 30.1446C177.043 29.9064 175.897 29.6682 175.196 29.2514C172.775 27.584 173.476 25.3806 174.24 23.5346C175.005 21.5695 176.215 19.783 177.68 18.2347C180.228 15.3763 183.477 13.1135 186.852 11.1483C193.859 7.09896 201.949 4.41924 210.229 4.12149C218.446 3.76419 230.485 5.72932 228.32 16.0314C226.6 24.0706 216.854 27.584 209.21 28.9536C203.35 29.9659 184.623 31.276 186.725 21.2122C188.19 14.0067 198.127 8.3495 205.197 7.21806C209.019 6.62257 213.924 7.03941 216.09 10.4337C218.829 14.7808 215.325 20.1998 212.013 23.2964C206.408 28.4772 198.191 31.2165 190.547 32.3479C186.534 32.9434 182.521 33.0625 178.444 32.7052C176.215 32.5266 173.412 32.3479 171.374 31.2165C168.571 29.6682 168.062 26.5716 168.699 23.8324C170.1 17.401 176.725 12.9944 183.158 11.4461C189.974 9.77869 200.547 10.3146 204.242 16.9246C208.51 24.5469 202.522 32.5266 195.643 36.3973C188.572 40.3275 179.846 42.1736 171.629 42.5904C164.112 42.9477 154.813 42.4118 148.698 37.7074C142.073 32.5861 143.156 23.7728 148.315 18.0561C153.602 12.2202 162.265 10.6124 170.036 10.4933C178.19 10.3742 186.47 11.5652 194.369 13.6494C201.567 15.555 210.739 17.9965 216.026 23.2964C223.67 30.9783 215.134 39.5534 207.427 42.9477C199.656 46.342 190.865 47.7117 182.33 46.9375C180.546 46.7589 177.935 46.6398 176.406 45.5679C171.183 41.9354 177.616 38.422 180.929 38.0647C185.005 37.6478 189.337 37.9456 193.413 38.0051C196.598 38.0647 198.573 38.6006 199.21 41.6972C199.592 43.4241 199.974 45.687 199.974 47.4735C199.847 53.6071 190.929 54.5599 185.897 54.5599C185.897 54.5599 185.833 54.7385 185.961 54.7385Z" fill="black"/>
<path d="M277.309 98.6984C281.442 98.7597 288.068 98.1464 291.086 95.0797C292.464 93.7304 292.07 91.8904 291.873 90.2344C291.611 88.1491 291.677 85.6344 290.824 83.6718C289.184 79.8691 282.885 81.2798 279.474 81.2798C275.538 81.2798 269.568 80.3598 266.747 83.6104C260.12 91.2771 279.015 91.0931 282.361 90.8477C291.677 90.1731 304.666 87.0451 309.784 78.9491C315.229 70.2398 307.291 63.9839 299.352 60.6105C288.659 56.1332 276.981 53.4959 265.303 52.9439C255.659 52.5759 244.178 53.7412 237.88 61.4079C233.025 67.3572 232.238 76.1278 238.864 81.2185C246.409 87.0451 258.743 86.9838 267.862 85.8184C277.506 84.5918 289.577 81.2798 295.154 73.1838C299.615 66.6825 298.172 57.6665 290.102 54.5999C282.361 51.6559 272.52 52.9439 265.894 57.6665C261.301 60.9785 254.938 70.6078 262.22 74.5945C266.353 76.8638 273.045 76.4958 277.571 76.2505C283.214 75.8825 288.856 74.6558 294.104 72.5092C300.993 69.7492 311.621 63.0639 309.324 54.6612C307.094 46.3813 294.629 49.3866 289.184 52.2692C283.804 55.0906 272.913 64.1679 280.196 69.9945C283.476 72.6318 288.331 72.9385 292.398 72.9998C298.237 73.0612 304.142 72.1412 309.587 70.0558C316.803 67.2958 324.479 60.1812 320.412 52.2692C316.344 44.4186 301.911 45.8293 294.563 47.3013C284.854 49.3252 274.16 54.1706 267.993 61.7145C266.222 63.8612 262.679 68.7678 264.844 71.5892C267.075 74.4718 273.635 74.5945 276.981 74.5331C285.772 74.4718 297.844 71.6505 300.993 62.8185C304.01 54.1706 295.416 47.3626 287.412 45.2773C281.705 43.8053 275.669 43.5599 269.764 43.2533C263.073 42.8239 256.25 42.5786 249.492 42.6399C239.783 42.7626 226.006 43.2533 219.511 51.2266C213.869 58.1572 220.035 66.0078 227.318 68.8905C232.566 70.9758 238.536 71.7118 244.113 72.3865C250.214 73.1225 256.446 73.3678 262.548 72.6318C269.568 71.8345 283.673 69.0745 284.394 60.5492C285.116 52.2692 272.192 49.5092 265.697 49.3866C256.446 49.1412 247.327 53.3732 244.178 61.8985C241.226 69.8105 245.556 77.4158 253.625 80.6665C263.532 84.5918 274.16 80.7891 282.951 76.1278C290.824 71.9572 299.943 65.7625 301.714 56.9305C302.173 54.6612 301.977 51.4106 299.287 50.3679C295.547 48.8959 290.168 52.5146 287.347 54.4772C282.689 57.7279 272.257 67.8478 277.637 73.7971C280.327 76.8025 286.559 76.6798 290.364 76.8025C296.138 76.9865 301.977 76.3731 307.553 74.9625C312.014 73.8585 317 72.3865 320.477 69.4425C322.118 68.0318 325.332 63.9839 322.97 61.9599C320.674 59.9359 315.688 63.7385 314.048 64.9652C311.03 67.3572 307.816 71.0372 307.159 74.8398C305.716 83.4264 323.692 77.7225 327.038 75.2078C329.4 73.4291 331.368 70.6078 329.99 67.7865C328.744 65.1492 325.529 63.8612 322.642 64.6585C322.511 64.7199 322.577 64.8425 322.708 64.8425C325.267 64.1679 328.022 65.0878 329.465 67.2345C331.433 70.1785 329.465 73.1838 326.907 75.0851C323.233 77.7838 318.116 79.0105 313.458 79.0718C311.227 79.0718 307.488 79.0718 307.225 75.7598C307.159 74.9625 307.553 74.1038 307.816 73.3678C308.603 71.3438 309.981 69.3812 311.489 67.7252C312.736 66.3758 314.114 65.2105 315.688 64.1679C316.344 63.7385 317 63.3705 317.722 63.0025C318.575 62.5732 319.428 62.2052 320.346 61.9599C321.33 63.1252 322.249 64.2905 323.233 65.4558C323.298 67.4798 320.084 69.8105 318.575 70.7305C317 71.7118 315.295 72.4478 313.523 73.1225C309.784 74.5331 305.847 75.5145 301.845 76.1278C295.154 77.1705 274.291 79.2558 276.85 68.4612C278.49 61.4692 285.51 55.2746 292.07 52.2079C294.76 50.9199 299.09 49.0799 301.124 52.7599C302.042 54.4772 301.714 56.5626 301.189 58.3412C300.008 62.1439 297.515 65.5172 294.563 68.2772C288.987 73.5518 281.377 77.6611 273.963 80.2371C266.353 82.9358 257.562 83.5491 250.476 79.1945C243.129 74.6558 241.554 66.1305 245.95 59.1385C250.411 51.9626 259.333 49.2639 267.862 49.9999C275.275 50.6746 290.364 56.3786 282.033 65.3945C276.522 70.9145 265.828 72.4478 258.021 72.8158C249.624 73.1838 240.964 72.2025 232.763 70.3625C228.564 69.4425 224.169 67.9705 221.151 64.9652C217.542 61.4079 216.165 56.3786 219.117 52.0852C223.841 45.0933 234.928 43.5599 242.932 43.0693C251.657 42.5173 260.448 42.8853 269.174 43.3759C277.506 43.8666 287.412 43.8666 294.563 48.5279C302.895 53.9866 303.486 64.2905 294.826 69.8105C287.871 74.2878 276.981 75.6371 268.912 73.3678C268.124 73.1225 266.943 72.8772 266.222 72.4478C263.729 70.7305 264.45 68.4612 265.238 66.5598C266.025 64.5359 267.271 62.6959 268.78 61.1012C271.405 58.1572 274.75 55.8266 278.227 53.8026C285.444 49.6319 293.776 46.8719 302.305 46.5653C310.768 46.1973 323.167 48.2213 320.937 58.8319C319.165 67.1118 309.128 70.7305 301.255 72.1412C295.219 73.1838 275.931 74.5331 278.096 64.1679C279.605 56.7465 289.84 50.9199 297.122 49.7546C301.058 49.1412 306.11 49.5706 308.34 53.0666C311.161 57.5439 307.553 63.1252 304.142 66.3145C298.368 71.6505 289.905 74.4718 282.033 75.6371C277.899 76.2505 273.766 76.3731 269.568 76.0051C267.271 75.8211 264.385 75.6371 262.285 74.4718C259.399 72.8772 258.874 69.6878 259.53 66.8665C260.973 60.2425 267.796 55.7039 274.422 54.1092C281.442 52.3919 292.333 52.9439 296.138 59.7519C300.533 67.6025 294.366 75.8211 287.281 79.8078C279.999 83.8558 271.011 85.7571 262.548 86.1864C254.806 86.5544 245.228 86.0024 238.93 81.1571C232.107 75.8825 233.222 66.8052 238.536 60.9172C243.981 54.9066 252.904 53.2506 260.908 53.1279C269.305 53.0052 277.834 54.2319 285.969 56.3786C293.382 58.3412 302.83 60.8559 308.275 66.3145C316.147 74.2265 307.356 83.0584 299.418 86.5544C291.414 90.0504 282.361 91.4611 273.569 90.6637C271.733 90.4797 269.043 90.3571 267.468 89.2531C262.089 85.5118 268.715 81.8931 272.126 81.5251C276.325 81.0958 280.786 81.4025 284.985 81.4638C288.265 81.5251 290.299 82.0771 290.955 85.2664C291.349 87.0451 291.742 89.3757 291.742 91.2157C291.611 97.5331 282.426 98.5144 277.243 98.5144C277.243 98.5144 277.178 98.6984 277.309 98.6984Z" fill="black"/>
</svg>
