<svg width="654" height="535" viewBox="0 0 654 535" fill="none" xmlns="http://www.w3.org/2000/svg">
<path d="M365.406 508.832C382.641 485.63 396.496 485.421 396.496 485.421C396.496 485.421 402.798 444.65 397.748 427.331C392.74 410.012 370.08 425.203 370.08 425.203C370.08 425.203 400.127 366.278 387.816 359.684C364.864 347.374 328.683 409.846 328.683 409.846C328.683 409.846 337.154 382.345 320.921 382.428C296.424 382.595 294.296 445.651 294.296 445.651C294.296 445.651 289.455 433.215 274.348 440.351C258.073 448.03 253.65 494.185 252.731 529.865H338.489C350.8 522.353 360.816 514.967 365.406 508.832Z" fill="#C9EDF9"/>
<path d="M331.646 404.796C331.646 404.796 332.647 373.456 316.414 373.539C291.917 373.706 294.254 445.609 294.254 445.609C294.254 445.609 284.03 425.244 268.923 432.38C252.356 440.184 250.353 491.222 251.02 529.823H279.523L387.774 359.643C364.822 347.332 331.646 404.796 331.646 404.796Z" fill="#65CEFE"/>
<path d="M464.979 527.82C464.979 527.82 543.141 536.834 562.088 530.199C581.034 523.563 568.472 512.964 568.472 512.964C568.472 512.964 608.535 507.831 612.374 495.937C616.255 484.002 597.309 483.96 597.309 483.96C597.309 483.96 637.496 461.801 632.989 453.163C624.601 437.138 579.489 459.005 579.489 459.005C579.489 459.005 595.055 446.486 585.666 440.226C571.519 430.795 545.771 466.225 545.771 466.225C545.771 466.225 547.815 457.211 536.381 455.416C515.849 452.203 464.979 527.82 464.979 527.82Z" fill="#C9EDF9"/>
<path d="M536.381 448.739C547.815 450.534 545.812 466.183 545.812 466.183C545.812 466.183 572.437 423.909 586.584 433.34C595.973 439.6 583.204 457.211 583.204 457.211C583.204 457.211 624.643 437.096 633.031 453.079L472.49 522.729C478.374 513.965 517.185 445.734 536.381 448.739Z" fill="#65CEFE"/>
<path d="M464.521 528.947C464.521 528.947 535.631 479.453 545.897 457.711C556.121 435.969 536.549 437.763 536.549 437.763C536.549 437.763 565.803 399.245 558.875 385.933C551.948 372.621 535.965 388.771 535.965 388.771C535.965 388.771 550.78 335.772 539.637 332.433C518.897 326.174 498.574 393.278 498.574 393.278C498.574 393.278 490.812 356.137 477.583 358.933C457.635 363.106 477.541 417.983 477.541 417.983C477.541 417.983 471.657 400.122 460.515 408.385C440.442 423.199 464.521 528.947 464.521 528.947Z" fill="#C9EDF9"/>
<path d="M440.984 409.177C453.546 403.252 456.05 390.732 456.05 390.732C456.05 390.732 456.133 359.684 476.081 355.553C489.309 352.798 498.574 377.712 498.574 377.712C498.574 377.712 518.772 326.132 539.554 332.392L464.271 528.112C461.683 515.634 426.045 416.23 440.984 409.177Z" fill="#65CEFE"/>
<path d="M442.568 529.114H299.137C294.546 529.114 290.874 525.399 290.874 520.851C290.874 516.26 294.588 512.588 299.137 512.588H442.568C447.158 512.588 450.83 516.302 450.83 520.851C450.872 525.399 447.158 529.114 442.568 529.114Z" fill="#FF6E53"/>
<path d="M467.649 513.047H324.218C319.627 513.047 315.955 509.333 315.955 504.784C315.955 500.194 319.669 496.521 324.218 496.521H467.649C472.239 496.521 475.912 500.235 475.912 504.784C475.953 509.333 472.239 513.047 467.649 513.047Z" fill="#E74A60"/>
<path d="M447.575 497.815H304.145C299.554 497.815 295.882 494.101 295.882 489.552C295.882 484.962 299.596 481.289 304.145 481.289H447.575C452.166 481.289 455.838 485.003 455.838 489.552C455.88 494.101 452.166 497.815 447.575 497.815Z" fill="#FF6E53"/>
<path d="M430.883 481.331H287.452C282.862 481.331 279.189 477.617 279.189 473.068C279.189 468.478 282.904 464.805 287.452 464.805H430.883C435.474 464.805 439.146 468.52 439.146 473.068C439.146 477.617 435.432 481.331 430.883 481.331Z" fill="#E74A60"/>
<path d="M202.114 526.192C202.114 526.192 90.6491 471.232 71.4944 442.604C52.3397 413.935 80.5083 412.307 80.5083 412.307C80.5083 412.307 30.8063 363.94 37.7754 343.576C44.7863 323.211 70.8684 342.658 70.8684 342.658C70.8684 342.658 38.5683 270.713 53.6333 263.535C81.7186 250.222 121.113 326.8 121.113 326.8C121.113 326.8 112.642 293.54 132.005 294.625C161.175 296.252 159.965 371.536 159.965 371.536C159.965 371.536 163.262 342.658 180.831 352.047C212.38 368.865 202.114 526.192 202.114 526.192Z" fill="#65CEFE"/>
<path d="M187.173 340.404C173.443 332.767 159.755 355.052 159.755 355.052C159.755 355.052 161.133 296.252 131.962 294.625C112.641 293.54 121.07 326.8 121.07 326.8C121.07 326.8 81.676 250.222 53.5908 263.535L202.196 524.982C203.281 506.704 214.382 355.469 187.173 340.404Z" fill="#C9EDF9"/>
<path d="M199.233 526.86C199.233 526.86 108.091 538.169 84.4712 528.112C60.8512 518.013 77.7942 505.577 77.7942 505.577C77.7942 505.577 27.1323 495.603 23.2095 480.037C19.2868 464.513 43.491 466.016 43.491 466.016C43.491 466.016 -5.91898 434.3 0.591117 423.7C12.6932 403.961 68.4046 435.719 68.4046 435.719C68.4046 435.719 49.5838 418.4 62.1032 411.222C80.9658 400.372 110.804 447.821 110.804 447.821C110.804 447.821 108.968 436.136 123.74 434.842C150.198 432.505 199.233 526.86 199.233 526.86Z" fill="#65CEFE"/>
<path d="M124.283 426.371C109.51 427.664 110.762 447.862 110.762 447.862C110.762 447.862 80.382 391.65 61.5194 402.459C49 409.636 63.8146 433.256 63.8146 433.256C63.8146 433.256 12.6519 404.003 0.549805 423.742L199.483 526.401C192.765 514.549 149.072 424.201 124.283 426.371Z" fill="#C9EDF9"/>
<path d="M0 531.575C0 532.994 1.14355 534.121 2.58358 534.121H650.894C652.334 534.121 653.477 532.953 653.477 531.575C653.477 530.157 652.334 529.03 650.894 529.03H2.58358C1.18591 528.988 0 530.157 0 531.575Z" fill="#064C91"/>
<path d="M456.715 85.8845L453.46 93.9804L439.856 90.2246L433.638 101.45L422.996 100.282L422.412 105.665L436.643 107.251L442.527 96.5678L456.674 100.532L461.598 88.3467L456.715 85.8845Z" fill="#65CEFE"/>
<path d="M321.297 529.03H152.827C146.109 529.03 140.684 523.605 140.684 516.886C140.684 510.168 146.109 504.742 152.827 504.742H321.297C328.016 504.742 333.441 510.168 333.441 516.886C333.483 523.563 328.016 529.03 321.297 529.03Z" fill="#FFCB83"/>
<path d="M346.627 504.951H188.048C181.329 504.951 175.904 499.526 175.904 492.807C175.904 486.088 181.329 480.663 188.048 480.663H346.669C353.388 480.663 358.813 486.088 358.813 492.807C358.771 499.526 353.346 504.951 346.627 504.951Z" fill="#E6A748"/>
<path d="M324.051 480.622H172.315C165.763 480.622 160.422 475.322 160.422 468.728V468.186C160.422 461.634 165.722 456.292 172.315 456.292H324.051C330.602 456.292 335.944 461.592 335.944 468.186V468.728C335.902 475.322 330.602 480.622 324.051 480.622Z" fill="#FFCB83"/>
<path d="M323.884 456.376H171.481C165.054 456.376 159.796 451.159 159.796 444.691V443.731C159.796 437.305 165.012 432.046 171.481 432.046H323.925C330.352 432.046 335.61 437.263 335.61 443.731V444.691C335.569 451.159 330.352 456.376 323.884 456.376Z" fill="#E6A748"/>
<path d="M328.892 433.507H175.07C168.351 433.507 162.926 428.082 162.926 421.363C162.926 414.644 168.351 409.219 175.07 409.219H328.892C335.61 409.219 341.035 414.644 341.035 421.363C341.077 428.082 335.61 433.507 328.892 433.507Z" fill="#FFCB83"/>
<path d="M322.257 409.512H168.435C161.716 409.512 156.291 404.086 156.291 397.368C156.291 390.649 161.716 385.224 168.435 385.224H322.257C328.976 385.224 334.401 390.649 334.401 397.368C334.442 404.086 328.976 409.512 322.257 409.512Z" fill="#E6A748"/>
<path d="M329.977 362.564H182.624C176.03 362.564 170.73 357.222 170.73 350.67V350.169C170.73 343.576 176.072 338.276 182.624 338.276H329.977C336.571 338.276 341.871 343.617 341.871 350.169V350.67C341.871 357.222 336.571 362.564 329.977 362.564Z" fill="#E6A748"/>
<path d="M343.164 385.933H201.612C195.143 385.933 189.927 380.717 189.927 374.248V373.33C189.927 366.862 195.143 361.646 201.612 361.646H343.164C349.633 361.646 354.849 366.862 354.849 373.33V374.248C354.891 380.675 349.633 385.933 343.164 385.933Z" fill="#FFCB83"/>
<path d="M403.466 185.664L411.478 181.616L419.366 185.915C420.284 186.415 421.327 185.664 421.16 184.621L419.783 175.732L426.293 169.556C427.044 168.847 426.669 167.595 425.625 167.428L416.736 166.009L412.897 157.871C412.438 156.953 411.144 156.911 410.685 157.829L406.596 165.842L397.665 167.01C396.664 167.136 396.246 168.387 396.956 169.097L403.299 175.482L401.63 184.329C401.505 185.372 402.548 186.123 403.466 185.664Z" fill="#FFCB83"/>
<path d="M242.55 22.7448L234.287 23.5794L231.449 10.3923L219.18 10.1419L215.466 0.585449L210.625 2.50508L215.633 15.2332L227.234 15.4835L230.197 29.1715L242.633 27.9195L242.55 22.7448Z" fill="#65CEFE"/>
<path d="M412.813 220.259L421.66 223.181C421.66 223.181 435.724 218.632 437.101 215.752C438.478 212.873 438.895 205.946 440.857 205.737C442.86 205.528 446.741 206.196 447.659 210.953C448.327 214.417 443.277 224.391 444.07 225.434C444.571 226.102 449.62 227.938 453.335 229.19C455.755 230.025 457.549 232.195 457.925 234.782C458.175 236.535 457.174 238.246 455.546 238.872L453.001 239.873L453.835 242.502C454.461 244.464 453.376 246.55 451.415 247.218L449.453 247.886L450.079 249.471C450.872 251.516 449.746 253.895 447.617 254.479L445.906 254.98L445.99 255.439C446.282 257.359 445.072 259.195 443.235 259.696L441.525 260.155L417.905 252.351C415.693 251.641 413.648 250.431 411.937 248.887L404.091 244.756C403.257 244.297 402.881 243.295 403.173 242.377L410.435 221.428C410.727 220.468 411.812 219.926 412.813 220.259Z" fill="#FFCB83"/>
<path d="M538.633 83.8813L547.48 86.8025C547.48 86.8025 561.543 82.2538 562.92 79.3743C564.297 76.4948 564.715 69.5674 566.676 69.3588C568.679 69.1501 572.56 69.8178 573.478 74.5752C574.146 78.0389 569.097 88.0127 569.889 89.056C570.39 89.7237 575.44 91.5599 579.154 92.8118C581.574 93.6465 583.369 95.8165 583.744 98.4038C583.995 100.157 582.993 101.868 581.366 102.494L578.82 103.495L579.655 106.124C580.281 108.085 579.196 110.172 577.234 110.84L575.273 111.507L575.899 113.093C576.692 115.18 575.565 117.517 573.437 118.101L571.726 118.602L571.809 119.061C572.101 120.98 570.891 122.817 569.055 123.317L567.344 123.777L543.724 115.973C541.512 115.263 539.467 114.053 537.756 112.509L529.911 108.378C529.076 107.919 528.701 106.917 528.993 105.999L536.254 85.0498C536.546 84.09 537.631 83.5474 538.633 83.8813Z" fill="#FFCB83"/>
<path d="M128.581 191.673C128.456 191.34 125.702 186.582 122.113 181.449C105.462 157.454 80.7155 134.293 51.7539 135.169V135.002C64.8576 133.583 77.7108 137.047 88.9783 143.265C107.591 153.28 125.702 172.393 135.592 187.083L128.581 191.673Z" fill="#FFCB83"/>
<path d="M319.252 161.71C319.252 161.71 320.086 159.999 320.045 156.035C319.961 151.111 319.001 143.724 318.793 143.056C318.417 141.888 334.317 136.88 334.317 136.88C334.317 136.88 359.815 135.586 363.57 132.749C367.368 129.911 370.54 128.742 368.787 131.664C365.574 137.005 358.104 144.809 356.476 145.894C354.807 146.979 335.026 151.945 334.651 151.945C334.275 151.945 334.4 164.381 334.4 164.381L319.252 161.71Z" fill="#F7A491"/>
<path d="M335.779 156.41C335.779 156.41 319.295 153.614 318.961 155.242C312.284 191.757 311.157 203.817 310.448 204.193C307.944 205.486 272.013 173.979 266.087 171.893C263.249 170.891 260.161 171.058 257.198 171.142C250.146 171.35 252.525 171.183 248.81 171.35C248.602 171.35 248.477 171.392 248.477 171.392L248.518 178.027C256.489 185.163 274.684 293.54 276.228 293.498C277.939 293.415 313.911 302.47 313.285 299.424C313.202 298.923 288.873 279.059 281.987 250.348C279.692 240.708 278.523 230.358 277.271 221.261C285.284 225.267 316.499 240.624 321.423 238.621C336.864 232.362 335.779 156.41 335.779 156.41Z" fill="#B23632"/>
<path d="M397.749 348.834C397.749 348.834 431.218 375.041 432.344 379.715C433.972 386.392 464.603 377.628 457.216 376.251C455.505 375.917 450.08 374.54 449.621 374.332C447.242 373.038 417.446 337.149 417.446 337.149L397.749 348.834Z" fill="#F7A491"/>
<path d="M471.572 376.251L450.206 374.499C450.206 374.499 444.113 379.548 432.345 379.798C432.345 379.798 430.467 385.182 431.343 391.442C431.51 392.527 431.677 395.782 432.762 395.698C436.727 395.448 447.243 392.819 459.22 390.398C459.22 390.398 475.328 386.976 484.634 381.426C493.982 375.876 471.572 376.251 471.572 376.251Z" fill="#063E70"/>
<path d="M247.726 283.065C247.726 283.065 272.222 287.197 299.347 280.853C330.729 273.509 365.408 266.748 375.591 272.632C383.77 277.39 434.849 354.593 434.849 354.593L415.11 368.99L358.856 305.976C358.856 305.976 287.078 332.475 270.97 329.512C234.288 322.877 233.746 293.54 247.726 283.065Z" fill="#063E70"/>
<path d="M274.516 267.499L299.054 296.628L253.567 310.524L247.725 283.065L274.516 267.499Z" fill="#063E70"/>
<path d="M324.386 400.664C324.386 400.664 322.884 441.144 321.965 448.029C321.047 454.873 339.159 475.405 336.822 468.269C336.279 466.642 334.902 461.175 334.902 460.674C334.902 457.961 341.621 411.765 341.621 411.765L324.386 400.664Z" fill="#F7A491"/>
<path d="M343.666 480.872L335.027 461.216C335.027 461.216 327.683 458.253 321.882 448.029C321.882 448.029 316.29 448.906 311.157 452.703C310.281 453.371 304.271 457.711 304.689 458.754C306.233 462.468 314.37 470.439 323.301 479.119C323.301 479.119 335.946 489.302 345.252 494.852C354.641 500.402 343.666 480.872 343.666 480.872Z" fill="#063E70"/>
<path d="M364.114 320.832C355.56 309.398 286.369 298.547 286.369 298.547L267.089 261.448L224.439 287.739C224.439 287.739 228.696 321.667 231.909 330.764C236.166 342.866 264.835 343.45 282.363 343.284C298.471 343.117 327.892 346.413 327.892 346.413L317.918 434.216C317.918 434.216 337.49 438.681 342.998 437.93C343.583 437.889 374.798 335.021 364.114 320.832Z" fill="#064C91"/>
<path d="M248.727 171.517L224.648 172.852C224.648 172.852 224.105 173.061 223.938 173.061C221.977 173.437 223.771 243.545 225.524 269.753C227.277 295.96 230.824 306.935 230.824 306.935C230.824 306.935 263.458 301.135 273.474 297.254C277.647 295.626 287.704 283.065 287.704 283.065C287.704 283.065 277.438 269.252 272.263 246.801C268.257 229.482 263.333 198.809 260.537 192.383C254.027 177.693 248.727 171.517 248.727 171.517Z" fill="#EEFBFF"/>
<path d="M225.356 151.611L224.688 172.853C224.688 172.853 240.254 199.686 248.267 195.972C254.985 192.842 249.018 172.394 249.018 172.394C249.018 172.394 247.849 167.72 246.264 162.336C245.137 158.581 244.219 154.491 244.26 151.528C244.386 144.267 225.356 151.611 225.356 151.611Z" fill="#F7A491"/>
<path d="M243.969 103.12C243.969 103.12 251.898 115.097 252.482 125.154C253.067 135.211 250.938 142.097 250.938 142.097L225.44 111.633L243.969 103.12Z" fill="#031322"/>
<path d="M255.111 123.109C255.487 126.656 254.109 129.661 252.065 129.87C250.02 130.078 248.058 127.407 247.683 123.86C247.307 120.313 248.684 117.308 250.729 117.1C252.816 116.891 254.777 119.562 255.111 123.109Z" fill="#F48C7F"/>
<path d="M217.219 116.557C216.634 116.432 216.676 145.769 225.189 152.655C233.703 159.54 248.475 160.166 252.816 153.197C257.573 145.519 253.066 114.596 240.421 108.044C227.777 101.492 217.219 116.557 217.219 116.557Z" fill="#F7A491"/>
<path d="M215.091 98.3623C208.622 104.038 205.451 108.211 201.069 118.31C195.686 130.746 206.369 143.641 215.341 148.732C224.313 153.865 225.065 160.125 225.065 160.125L225.44 156.202C225.816 153.156 224.898 151.445 224.063 149.608C223.312 147.981 220.85 142.389 219.89 140.887C217.344 137.006 216.885 136.129 218.095 132.457C219.055 129.619 217.928 123.318 219.431 118.602L231.533 116.015C231.533 116.015 239.086 114.179 242.926 109.797C253.859 97.1521 232.201 83.0469 215.091 98.3623Z" fill="#031322"/>
<path d="M220.975 135.712C222.477 138.925 222.143 142.222 220.265 143.098C218.387 143.975 215.675 142.055 214.172 138.842C212.67 135.628 213.004 132.332 214.882 131.455C216.76 130.579 219.472 132.457 220.975 135.712Z" fill="#F7A491"/>
<path d="M58.1804 146.186L56.219 132.665L66.2346 123.401C67.3613 122.358 66.8188 120.438 65.2747 120.188L51.8372 117.892L46.12 105.498C45.4523 104.079 43.4909 104.038 42.7398 105.415L36.3966 117.475L22.8339 119.103C21.2898 119.27 20.6221 121.147 21.7072 122.274L31.2219 132.039L28.5511 145.435C28.259 146.979 29.8448 148.189 31.2219 147.48L43.4492 141.429L55.3427 148.106C56.7615 148.857 58.3891 147.73 58.1804 146.186Z" fill="#FFCB83"/>
<path d="M138.597 54.7945C139.974 60.4283 142.436 69.3588 142.436 69.3588C142.227 71.8209 141.518 82.0034 140.642 94.5228L159.045 87.1781C159.045 87.1781 158.836 66.8132 159.629 65.5612C160.339 64.5179 161.507 65.8116 167.141 57.7575C168.769 55.4205 169.061 51.2891 169.061 51.2891C169.061 51.2891 169.395 46.1561 168.226 45.6971C167.058 45.238 165.764 45.9892 165.347 46.8656C164.929 47.7419 165.054 49.8285 164.637 50.7048C164.22 51.5812 161.549 52.6662 160.422 52.5828C159.296 52.541 160.547 37.4343 160.547 37.4343C160.547 37.4343 161.173 33.1359 161.507 31.7588C161.758 30.5486 162.884 27.0849 162.884 27.0849C162.884 27.0849 164.178 21.9936 162.592 21.6181C161.674 21.4094 159.296 25.4991 157.668 29.8809C155.915 34.5965 154.914 39.6043 154.413 39.5208C153.244 39.3539 153.87 31.0911 153.87 31.0911C153.87 31.0911 155.039 27.2935 154.997 25.4991C156.082 23.329 156.833 19.2394 154.872 18.9055C154.496 18.8638 151.951 23.9967 151.951 23.9967C151.951 23.9967 150.949 27.6274 150.365 29.3384C149.322 32.343 149.155 37.0587 148.612 39.1453C148.153 40.898 147.736 40.1468 147.569 40.2303C147.444 40.272 147.694 37.8933 147.945 34.5965C148.07 32.9273 147.903 31.0076 148.362 29.1297C148.779 27.377 149.03 24.8731 149.155 23.3708C149.489 19.0724 146.776 19.5315 145.858 23.4542C145.482 24.9566 145.149 26.5841 144.773 28.2116C143.312 34.6383 143.354 40.8145 142.686 40.8562C141.768 40.9397 142.394 29.6722 142.394 29.6722C142.394 29.6722 141.017 23.4542 139.64 29.2132C138.054 35.9319 138.221 41.3987 138.221 41.6491C138.43 43.3184 137.22 49.1608 138.597 54.7945Z" fill="#F8A492"/>
<path d="M224.605 172.853C224.605 172.853 200.776 171.726 194.6 168.93C190.886 167.261 160.213 142.514 160.213 142.514L160.547 76.3697L138.972 74.7422C138.972 74.7422 127.788 147.856 131.669 155.868C135.675 164.131 180.536 198.142 189.509 212.915C194.683 221.428 205.45 337.107 207.078 338.151C218.679 344.202 254.568 350.211 253.692 346.58C230.447 245.257 224.605 172.853 224.605 172.853Z" fill="#B23632"/>
<path d="M329.352 144.475C329.352 144.475 335.987 141.638 337.781 141.053C339.576 140.469 345.251 139.384 345.251 139.384C345.251 139.384 354.098 130.328 356.352 130.078C358.605 129.828 351.177 139.968 351.177 139.968L348.089 142.931C348.089 142.931 353.055 138.675 354.015 138.09C354.975 137.506 362.445 126.698 364.322 127.407C366.2 128.117 361.109 135.712 358.647 139.718C356.143 143.766 344.792 146.228 344.792 146.228L329.352 144.475Z" fill="#F7A491"/>
<path d="M408.641 173.771C408.641 175.565 368.328 176.024 359.982 211.788L354.599 210.035C366.576 173.729 406.471 175.19 408.432 173.854C408.474 173.854 408.474 173.812 408.474 173.812H408.641V173.771Z" fill="#FFCB83"/>
</svg>
