<svg width="44" height="27" viewBox="0 0 44 27" fill="none" xmlns="http://www.w3.org/2000/svg">
<g clip-path="url(#clip0_143_82)">
<path d="M4.2206 0.0917969H39.5743C40.7019 0.0917969 41.7266 0.552725 42.4689 1.29507C43.2114 2.03755 43.6723 3.06222 43.6723 4.18972V21.9939C43.6723 23.1212 43.2113 24.1459 42.4689 24.8884C41.7264 25.6307 40.7018 26.0918 39.5744 26.0918H4.22073C3.09336 26.0918 2.06855 25.6309 1.32608 24.8884C0.583731 24.146 0.122803 23.1215 0.122803 21.9939V4.18972C0.122803 3.06209 0.583731 2.03742 1.32608 1.29507C2.06842 0.552725 3.09323 0.0917969 4.22086 0.0917969H4.2206ZM39.5743 1.50424H4.2206C3.48283 1.50424 2.81155 1.80669 2.32449 2.29375C1.83744 2.78081 1.53498 3.45208 1.53498 4.18985V21.994C1.53498 22.7316 1.83744 23.4029 2.32449 23.89C2.81168 24.3772 3.48296 24.6796 4.2206 24.6796H39.5743C40.3118 24.6796 40.983 24.3772 41.4702 23.89C41.9573 23.4028 42.2599 22.7315 42.2599 21.9941V4.18998C42.2599 3.45247 41.9574 2.78107 41.4704 2.29388C40.9833 1.80682 40.3119 1.50437 39.5743 1.50437V1.50424Z" fill="#808080"/>
<path fill-rule="evenodd" clip-rule="evenodd" d="M6.53712 10.7056H9.08118C10.4471 10.7056 10.962 11.3961 10.8802 12.4137C10.75 14.0916 9.73537 15.0183 8.39065 15.0183H7.71224C7.52749 15.0183 7.40331 15.1395 7.35486 15.4726L7.06714 17.3958C7.04896 17.52 6.98233 17.5927 6.88542 17.6018H5.2863C5.13487 17.6018 5.08338 17.4867 5.12275 17.2383L6.09494 11.069C6.13432 10.8237 6.26758 10.7056 6.53712 10.7056Z" fill="#009EE3"/>
<path fill-rule="evenodd" clip-rule="evenodd" d="M17.5795 10.5904C18.4366 10.5904 19.2301 11.0568 19.1211 12.2168C18.9909 13.5948 18.2519 14.3581 17.0859 14.3611H16.0682C15.9229 14.3611 15.8502 14.4792 15.8138 14.7245L15.617 15.9753C15.5867 16.1631 15.4898 16.257 15.3474 16.257H14.3995C14.248 16.257 14.1965 16.1601 14.2299 15.9451L15.0112 10.9266C15.0506 10.6783 15.1415 10.5874 15.3111 10.5874H17.5795V10.5904ZM16.0349 13.2768H16.8072C17.2888 13.2587 17.6098 12.9255 17.6431 12.3228C17.6613 11.9503 17.4099 11.6838 17.0101 11.6868L16.2833 11.6898L16.0349 13.2768ZM21.6954 15.8754C21.7833 15.7967 21.8711 15.7573 21.859 15.8542L21.8287 16.0874C21.8136 16.2086 21.862 16.2722 21.9741 16.2722H22.816C22.9584 16.2722 23.028 16.2146 23.0614 15.9965L23.5793 12.7408C23.6065 12.5772 23.5641 12.4985 23.4399 12.4985H22.5132C22.4284 12.4985 22.389 12.5439 22.3678 12.6711L22.3345 12.871C22.3163 12.974 22.2679 12.9952 22.2255 12.8892C22.068 12.5166 21.6682 12.3501 21.1079 12.3652C19.8086 12.3925 18.9364 13.3768 18.8425 14.6397C18.7698 15.618 19.4694 16.3842 20.3931 16.3842C21.0625 16.3812 21.3623 16.1843 21.6954 15.8754ZM20.9898 15.3757C20.4325 15.3757 20.0418 14.9305 20.1236 14.3823C20.2054 13.8371 20.7263 13.3889 21.2866 13.3889C21.8469 13.3889 22.2345 13.8341 22.1528 14.3823C22.071 14.9274 21.5501 15.3757 20.9898 15.3757ZM25.2238 12.4864H24.3697C24.1941 12.4864 24.1214 12.6166 24.1789 12.7801L25.239 15.8815L24.2001 17.3564C24.1123 17.4806 24.182 17.5926 24.3031 17.5926H25.2632C25.2753 17.5926 25.2844 17.5957 25.2965 17.5957C25.3995 17.5957 25.4934 17.5412 25.5479 17.4533L28.8067 12.7801C28.9066 12.6378 28.8612 12.4864 28.6946 12.4864H27.786C27.6316 12.4864 27.568 12.5469 27.4801 12.6772L26.1203 14.6458L25.5146 12.6711C25.4782 12.55 25.3904 12.4864 25.2238 12.4864Z" fill="#113984"/>
<path fill-rule="evenodd" clip-rule="evenodd" d="M32.1957 10.5904C33.0528 10.5904 33.8463 11.0568 33.7373 12.2168C33.6071 13.5948 32.8681 14.3581 31.7021 14.3611H30.6845C30.5391 14.3611 30.4664 14.4792 30.43 14.7245L30.2332 15.9753C30.2029 16.1631 30.106 16.257 29.9636 16.257H29.0157C28.8642 16.257 28.8128 16.1601 28.8461 15.9451L29.6305 10.9266C29.6699 10.6813 29.7607 10.5874 29.9303 10.5874L32.1957 10.5904ZM30.6542 13.2768H31.4265C31.908 13.2587 32.2291 12.9255 32.2624 12.3228C32.2805 11.9503 32.0292 11.6838 31.6294 11.6868L30.9025 11.6898L30.6542 13.2768ZM36.3117 15.8754C36.3995 15.7967 36.4873 15.7573 36.4752 15.8542L36.4449 16.0874C36.4298 16.2086 36.4782 16.2722 36.5903 16.2722H37.4323C37.5746 16.2722 37.6443 16.2146 37.6776 15.9965L38.1955 12.7408C38.2227 12.5772 38.1803 12.4985 38.0562 12.4985H37.1324C37.0476 12.4985 37.0082 12.5439 36.987 12.6711L36.9537 12.871C36.9356 12.974 36.8871 12.9952 36.8447 12.8892C36.6872 12.5166 36.2874 12.3501 35.7302 12.3652C34.4309 12.3925 33.5586 13.3768 33.4647 14.6397C33.3921 15.618 34.0917 16.3842 35.0154 16.3842C35.6847 16.3842 35.9846 16.1874 36.3207 15.8784L36.3117 15.8754ZM35.609 15.3757C35.0517 15.3757 34.6611 14.9305 34.7428 14.3823C34.8246 13.8371 35.3455 13.3889 35.9058 13.3889C36.4631 13.3889 36.8538 13.8341 36.772 14.3823C36.6902 14.9274 36.1663 15.3757 35.609 15.3757ZM39.4887 16.2752H38.5165C38.5135 16.2752 38.5135 16.2752 38.5105 16.2752C38.4468 16.2752 38.3954 16.2237 38.3954 16.1601C38.3954 16.154 38.3954 16.148 38.3954 16.145L39.2494 10.7388C39.2676 10.6631 39.3342 10.6086 39.41 10.6086H40.3821C40.3852 10.6086 40.3852 10.6086 40.3882 10.6086C40.4518 10.6086 40.5033 10.6601 40.5033 10.7237C40.5033 10.7297 40.5033 10.7358 40.5033 10.7388L39.6492 16.145C39.6341 16.2207 39.5674 16.2752 39.4887 16.2752Z" fill="#009EE3"/>
<path fill-rule="evenodd" clip-rule="evenodd" d="M4.9471 8.58228H7.49418C8.21197 8.58228 9.06302 8.6065 9.62937 9.10623C10.008 9.44241 10.2078 9.97545 10.1624 10.5509C10.0049 12.4953 8.84495 13.5826 7.28521 13.5826H6.02832C5.81329 13.5826 5.67397 13.7249 5.6134 14.1065L5.26208 16.3386C5.23785 16.484 5.17728 16.5688 5.06522 16.5779H3.49638C3.32375 16.5779 3.26015 16.4476 3.30558 16.1569L4.43526 9.00628C4.48069 8.71856 4.63818 8.58228 4.9471 8.58228Z" fill="#113984"/>
<path fill-rule="evenodd" clip-rule="evenodd" d="M5.64972 13.8825L6.09493 11.0689C6.1343 10.8235 6.26756 10.7024 6.53711 10.7024H9.08116C9.50215 10.7024 9.84135 10.769 10.1079 10.8902C9.85347 12.6195 8.73287 13.5826 7.26701 13.5826H6.01618C5.84658 13.5826 5.72544 13.6674 5.64972 13.8825Z" fill="#172C70"/>
</g>
<defs>
<clipPath id="clip0_143_82">
<rect width="43.5496" height="26" fill="white" transform="translate(0.122559 0.0917969)"/>
</clipPath>
</defs>
</svg>
