<svg width="24" height="26" viewBox="0 0 24 26" fill="none" xmlns="http://www.w3.org/2000/svg">
<path d="M0.511719 8.38181C0.553397 6.24926 1.23414 4.38068 2.74151 2.85942C3.31112 2.28982 3.94324 1.77578 4.58231 1.28259C5.26306 0.761607 6.04106 0.782446 6.67318 1.37289C7.13859 1.81051 7.57621 2.31065 7.92353 2.84553C8.47924 3.70688 9.02106 4.59602 9.42395 5.52684C9.95883 6.75635 9.66708 7.68717 8.6529 8.56242C8.25696 8.90279 7.86796 9.24317 7.43728 9.54186C6.3328 10.3129 6.35364 11.2646 6.70096 12.2301C7.18027 13.5499 8.03467 14.6266 8.92381 15.6755C9.79211 16.7036 10.6951 17.6969 11.8274 18.4402C12.265 18.725 12.7582 18.9542 13.2584 19.114C13.9322 19.3363 14.5226 19.0932 15.0297 18.6139C15.4951 18.1693 15.9675 17.7178 16.4537 17.294C17.2803 16.5716 18.2042 16.4605 19.1975 16.912C20.1075 17.3218 20.8508 17.9678 21.5732 18.6347C22.115 19.1348 22.6499 19.6558 23.1014 20.2324C23.678 20.9617 23.6502 21.7675 22.9972 22.3997C21.9831 23.393 20.955 24.3863 19.6074 24.942C18.3501 25.4561 17.0442 25.6297 15.7035 25.4839C13.1681 25.2129 11.0564 24.0112 9.1322 22.4413C6.55509 20.3435 4.40865 17.8498 2.67205 15.0156C1.7065 13.4388 0.970181 11.7647 0.671486 9.91697C0.595076 9.41683 0.56729 8.89584 0.511719 8.38181Z" fill="#B23632"/>
</svg>
