<svg width="687" height="621" viewBox="0 0 687 621" fill="none" xmlns="http://www.w3.org/2000/svg">
<path d="M564.484 541.303V236.056H487.909L487.909 541.303H564.484Z" fill="#F0F0F0"/>
<path d="M560.191 312.203V244.936H492.046V312.203H560.191Z" fill="#F5F5F5"/>
<path d="M541.293 244.049H511.084C511.084 247.913 514.245 251.074 518.109 251.074H534.267C538.131 251.074 541.293 247.913 541.293 244.049Z" fill="#E6E6E6"/>
<path d="M560.127 385.551V318.284H491.982V385.551H560.127Z" fill="#F5F5F5"/>
<path d="M560.236 458.899V391.632H492.091V458.899H560.236Z" fill="#F5F5F5"/>
<path d="M560.172 532.247V464.98H492.027V532.247H560.172Z" fill="#F5F5F5"/>
<path d="M541.293 317.463H511.084C511.084 321.327 514.245 324.488 518.109 324.488H534.267C538.131 324.488 541.293 321.327 541.293 317.463Z" fill="#E6E6E6"/>
<path d="M541.293 390.701H511.084C511.084 394.565 514.245 397.727 518.109 397.727H534.267C538.131 397.727 541.293 394.565 541.293 390.701Z" fill="#E6E6E6"/>
<path d="M541.293 464.115H511.084C511.084 467.979 514.245 471.14 518.109 471.14H534.267C538.131 471.14 541.293 467.979 541.293 464.115Z" fill="#E6E6E6"/>
<path d="M602.697 541.378V236.131H564.41V541.378H602.697Z" fill="#F5F5F5"/>
<path d="M647.893 541.319V236.071H571.317V541.319H647.893Z" fill="#F0F0F0"/>
<path d="M643.6 312.219V244.952H575.455V312.219H643.6Z" fill="#F5F5F5"/>
<path d="M624.718 244.049H594.51C594.51 247.913 597.671 251.075 601.535 251.075H617.693C621.557 251.075 624.718 247.913 624.718 244.049Z" fill="#E6E6E6"/>
<path d="M643.535 385.567V318.3H575.39V385.567H643.535Z" fill="#F5F5F5"/>
<path d="M643.645 458.915V391.648H575.499V458.915H643.645Z" fill="#F5F5F5"/>
<path d="M643.58 532.263V464.996H575.435V532.263H643.58Z" fill="#F5F5F5"/>
<path d="M624.718 317.463H594.51C594.51 321.327 597.671 324.488 601.535 324.488H617.693C621.557 324.488 624.718 321.327 624.718 317.463Z" fill="#E6E6E6"/>
<path d="M624.718 390.702H594.51C594.51 394.566 597.671 397.727 601.535 397.727H617.693C621.557 397.727 624.718 394.566 624.718 390.702Z" fill="#E6E6E6"/>
<path d="M624.718 464.115H594.51C594.51 467.979 597.671 471.14 601.535 471.14H617.693C621.557 471.14 624.718 467.979 624.718 464.115Z" fill="#E6E6E6"/>
<path d="M686.105 541.219V235.971H647.818V541.219H686.105Z" fill="#F5F5F5"/>
<path d="M638.243 175.201H615.938V236.146H638.243V175.201Z" fill="#E0E0E0"/>
<path d="M545.686 235.97H630.867L643.688 137.441H558.331L545.686 235.97Z" fill="#E6E6E6"/>
<path d="M536.025 235.97H628.759L641.404 137.441H548.671L536.025 235.97Z" fill="#F0F0F0"/>
<path d="M621.909 228.242L632.622 145.168H555.52L544.807 228.242H621.909Z" fill="white"/>
<path d="M602.346 201.277C611.404 192.785 612.669 179.418 605.171 171.422C597.674 163.426 584.254 163.829 575.197 172.321C566.139 180.814 564.875 194.18 572.372 202.176C579.869 210.172 593.289 209.769 602.346 201.277Z" fill="#E6E6E6"/>
<path d="M223.273 541.256H461.605L461.605 37.5449L223.273 37.5449L223.273 541.256Z" fill="#E6E6E6"/>
<path d="M217.949 541.256H456.281L456.281 37.5449L217.949 37.5449L217.949 541.256Z" fill="#F5F5F5"/>
<path d="M446.73 530.436L446.73 48.1519L227.367 48.1519L227.367 530.436H446.73Z" fill="white"/>
<path d="M231.41 530.43L231.41 48.1462H227.371L227.371 530.43H231.41Z" fill="#E6E6E6"/>
<path d="M221.989 204.665L452.418 204.665V190.263L221.989 190.263V204.665Z" fill="#F5F5F5"/>
<path d="M143.759 527.589H176.953L176.953 312.265H143.759L143.759 527.589Z" fill="#F0F0F0"/>
<path d="M6.72954 541.287H170.594V527.588H6.72954V541.287Z" fill="#F0F0F0"/>
<path d="M143.663 312.194H0.347656V527.518H143.663V312.194Z" fill="#F5F5F5"/>
<path d="M130.492 338.715H13.3457V409.318H130.492V338.715Z" fill="#F0F0F0"/>
<path d="M130.492 430.394H13.3457V500.998H130.492V430.394Z" fill="#F0F0F0"/>
<path d="M37.2299 386.486V361.547C37.2299 359.439 35.4736 357.507 33.1904 357.507H31.4341C29.3265 357.507 27.3945 359.263 27.3945 361.547V386.486C27.3945 388.594 29.1508 390.526 31.4341 390.526H33.1904C35.4736 390.35 37.2299 388.594 37.2299 386.486Z" fill="#F5F5F5"/>
<path d="M37.2299 478.166V453.226C37.2299 451.119 35.4736 449.187 33.1904 449.187H31.4341C29.3265 449.187 27.3945 450.943 27.3945 453.226V478.166C27.3945 480.273 29.1508 482.205 31.4341 482.205H33.1904C35.4736 482.205 37.2299 480.449 37.2299 478.166Z" fill="#F5F5F5"/>
<path d="M142.96 190.482C139.272 192.414 129.085 190.306 132.422 197.156C134.003 200.317 136.638 203.83 139.272 207.167C142.96 211.733 142.258 216.827 137.867 218.583C136.813 219.11 135.935 219.637 135.408 220.339C133.301 223.325 138.218 227.189 140.501 230.175C142.785 232.985 143.838 235.97 142.082 238.254C140.15 240.712 136.111 239.834 132.949 240.537C125.221 242.293 133.125 252.831 132.422 258.276C131.895 261.964 128.91 263.018 124.695 263.545C121.358 263.896 116.791 264.247 116.616 267.76C116.44 270.745 120.304 274.082 121.358 277.244C122.411 280.23 122.06 283.215 120.655 285.498C119.426 287.43 117.318 288.835 114.684 289.538C110.82 290.416 105.024 289.538 104.848 293.753C104.673 295.685 106.078 297.441 105.199 299.198C104.497 300.778 102.565 301.481 100.809 301.832C97.823 302.359 93.2566 302.359 89.7439 301.657C85.3531 300.778 78.6791 296.915 81.138 293.051C81.8405 291.997 83.0699 291.294 84.6506 291.119C85.7044 290.943 88.8658 291.294 89.217 290.592C89.5683 289.889 88.5145 287.079 88.5145 286.025C88.3389 283.04 88.8658 280.405 89.7439 277.771C90.9733 274.258 92.9053 271.272 95.5398 268.638C96.5936 267.584 98.3499 266.706 98.5255 265.301C98.7011 263.72 97.823 261.964 96.5935 260.559C94.8372 258.1 92.2028 255.817 91.3246 253.182C89.7439 249.143 93.4322 247.913 96.7692 246.86C99.7549 245.981 103.794 244.928 102.741 241.239C102.038 238.605 98.5255 236.322 97.6473 233.687C96.2423 230.175 99.5793 229.999 102.038 228.77C105.199 227.189 105.902 224.203 104.848 220.515C102.916 214.368 91.8515 205.937 97.6473 201.898C99.0524 200.844 100.457 200.493 101.336 199.088C102.214 197.507 102.389 195.4 103.619 193.994C105.551 191.711 109.415 191.36 111.522 189.077C115.737 184.686 106.605 176.783 115.035 175.026C116.967 174.675 118.723 174.148 119.953 172.919C120.655 172.216 121.358 168.704 122.236 168.528C126.1 167.474 132.949 174.851 135.232 177.134C137.691 180.12 147.527 188.374 142.96 190.482Z" fill="#E0E0E0"/>
<path d="M77.0996 293.402C79.3828 289.186 89.3938 284.971 82.7198 280.054C79.5584 277.77 75.5189 275.838 71.3037 274.082C65.5079 271.623 63.4003 266.003 66.386 261.437C67.0886 260.383 67.6154 259.153 67.6154 258.1C67.7911 253.885 61.4683 252.831 57.7801 251.25C54.2675 249.845 51.8086 247.386 52.1599 244.049C52.5111 240.361 56.5507 238.78 59.0095 235.97C64.8053 229.472 52.1599 223.5 50.0523 217.353C48.4716 213.138 50.5792 210.152 54.0918 207.167C56.9019 204.708 60.5902 201.546 59.0095 197.858C57.6045 194.697 52.3355 193.643 49.701 191.008C47.2422 188.55 45.8371 185.213 46.0128 182.051C46.0128 179.241 47.0666 176.607 49.1741 174.323C52.1599 171.162 57.6045 168.352 55.4969 163.786C54.6187 161.678 52.5111 160.8 52.3355 158.517C52.1599 156.585 53.3893 154.653 54.7944 153.072C57.2532 150.613 61.1171 147.979 64.6297 146.398C69.0205 144.466 76.9239 144.466 76.9239 149.735C76.9239 151.316 76.0458 152.721 74.992 153.95C74.1138 154.828 71.3037 156.409 71.3037 157.463C71.3037 158.517 73.7625 160.624 74.2894 161.678C76.0458 164.664 76.9239 167.649 77.4508 170.811C78.1533 175.026 78.1533 179.417 77.2752 183.808C76.9239 185.564 75.8701 187.496 76.5727 189.077C77.2752 190.657 79.0315 191.887 80.7878 192.94C83.5979 194.345 87.1105 195.048 89.3938 197.156C92.9064 200.317 90.2719 204.005 87.8131 206.991C85.5299 209.801 82.5441 213.314 85.5299 216.475C87.6374 218.758 91.8526 218.934 94.1358 221.041C97.2972 223.852 94.3114 225.959 92.9064 228.769C90.9744 232.282 91.8526 235.794 94.8383 238.956C99.756 244.049 114.158 245.805 111.172 253.533C110.47 255.465 109.416 256.695 109.416 258.802C109.416 261.085 110.47 263.193 110.118 265.476C109.591 268.989 106.43 271.975 105.727 275.312C104.322 282.512 116.617 284.796 110.294 291.821C108.889 293.402 107.484 294.982 107.133 296.914C106.781 298.144 108.186 302.008 107.484 302.886C104.674 306.398 94.4871 303.061 91.3257 302.008C87.4618 300.778 74.2894 298.495 77.0996 293.402Z" fill="#F5F5F5"/>
<path d="M51.457 283.917C51.457 283.917 52.6865 312.194 99.0532 312.194C145.42 312.194 146.649 283.917 146.649 283.917H51.457Z" fill="#F0F0F0"/>
<path d="M345.464 620.428C533.544 620.428 686.013 611.542 686.013 600.581C686.013 589.62 533.544 580.735 345.464 580.735C157.383 580.735 4.91406 589.62 4.91406 600.581C4.91406 611.542 157.383 620.428 345.464 620.428Z" fill="#F5F5F5"/>
<path d="M461.358 586.179L447.132 586.004L443.971 553.336L458.021 553.512L461.358 586.179Z" fill="#FFB573"/>
<path d="M533.719 586.179H519.668L508.779 553.688H522.83L533.719 586.179Z" fill="#FFB573"/>
<path d="M517.914 584.599H535.126C535.653 584.599 536.18 584.95 536.355 585.477L539.165 597.947C539.517 599.176 538.463 600.405 537.058 600.405C531.613 600.23 527.574 600.054 520.548 600.054C516.333 600.054 503.337 600.581 497.365 600.581C491.569 600.581 490.691 594.785 493.15 594.258C504.039 591.8 512.118 588.638 515.631 585.477C516.158 584.95 517.036 584.599 517.914 584.599Z" fill="#263238"/>
<path d="M447.31 584.423L462.766 584.598C463.293 584.598 463.82 584.95 463.995 585.652L466.63 598.298C466.981 599.527 465.927 600.757 464.522 600.757C458.902 600.581 450.998 600.054 443.973 600.054C435.894 599.878 428.693 600.23 419.209 600.054C413.413 599.878 411.833 594.083 414.291 593.556C425.356 591.273 434.313 591.272 443.973 585.477C445.027 584.774 446.081 584.423 447.31 584.423Z" fill="#263238"/>
<path d="M455.916 166.069C451.35 176.08 446.608 185.564 440.987 195.048C438.177 199.79 435.367 204.356 432.381 208.923C429.396 213.489 426.059 218.056 422.37 222.446L420.965 224.027L420.263 224.905C420.087 225.257 419.912 225.432 419.385 225.959C417.804 227.715 415.521 229.647 411.833 230.877C410.076 231.404 408.144 231.579 406.212 231.404C404.28 231.228 402.875 230.701 401.47 230.174C398.836 228.945 397.08 227.54 395.674 226.135C392.864 223.325 391.108 220.69 389.527 218.056C387.947 215.421 386.717 212.787 385.488 210.152C380.921 199.79 378.111 189.428 375.828 178.714L386.015 175.553C388.122 180.119 390.406 184.861 392.689 189.428C394.972 193.994 397.431 198.561 400.065 202.6C401.295 204.708 402.7 206.64 404.105 208.396C405.51 210.152 406.915 211.733 407.969 212.611C408.496 212.962 408.847 213.138 408.671 212.962C408.496 212.787 408.32 212.787 407.793 212.611C407.266 212.435 406.739 212.611 406.212 212.787C405.159 213.138 404.983 213.314 405.159 213.138L407.091 210.503C412.711 202.6 417.804 193.643 422.722 184.686C427.639 175.728 432.206 166.42 436.597 157.287L455.916 166.069Z" fill="#FFB573"/>
<path d="M461.889 157.287C465.753 170.284 438.881 205.41 438.881 205.41L411.834 188.023C411.834 188.023 419.737 170.108 430.451 156.233C441.691 142.358 457.674 143.061 461.889 157.287Z" fill="#3794AC"/>
<path opacity="0.2" d="M461.889 157.287C465.753 170.284 438.881 205.41 438.881 205.41L411.834 188.023C411.834 188.023 419.737 170.108 430.451 156.233C441.691 142.358 457.674 143.061 461.889 157.287Z" fill="#3794AC"/>
<path opacity="0.2" d="M445.379 172.391C439.759 174.85 431.68 188.198 427.465 198.033L438.881 205.41C438.881 205.41 449.243 191.886 456.093 178.363C452.405 174.499 448.365 171.162 445.379 172.391Z" fill="black"/>
<path d="M385.838 180.646L389.351 164.664L373.368 164.488C373.368 164.488 369.153 176.431 377.759 182.051L385.838 180.646Z" fill="#FFB573"/>
<path d="M387.595 149.911L374.599 154.477L373.369 164.664H389.352L387.595 149.911Z" fill="#FFB573"/>
<path opacity="0.2" d="M443.971 553.336L445.551 570.197L459.778 570.372L458.021 553.512L443.971 553.336Z" fill="black"/>
<path opacity="0.2" d="M522.83 553.688H508.779L514.399 570.372H528.45L522.83 553.688Z" fill="black"/>
<path d="M524.76 151.491C509.656 205.059 512.642 261.964 511.237 273.38C500.172 272.502 458.723 269.516 436.066 267.76C426.231 187.496 445.902 146.222 445.902 146.222C445.902 146.222 450.819 145.344 457.318 144.642C459.425 144.466 461.533 144.291 463.992 144.115C465.221 144.115 466.626 143.939 467.856 143.939C476.286 143.764 490.337 145.169 499.821 146.398C501.753 146.574 503.86 146.925 505.792 147.276C507.548 147.628 509.48 147.979 511.061 148.33C518.789 149.911 524.76 151.491 524.76 151.491Z" fill="#95D6E7"/>
<path opacity="0.2" d="M524.76 151.491C509.656 205.059 512.642 261.964 511.237 273.38C500.172 272.502 458.723 269.516 436.066 267.76C426.231 187.496 445.902 146.222 445.902 146.222C445.902 146.222 450.819 145.344 457.318 144.642C459.425 144.466 461.533 144.291 463.992 144.115C465.221 144.115 466.626 143.939 467.856 143.939C476.286 143.764 490.337 145.169 499.821 146.398C501.753 146.574 503.86 146.925 505.792 147.276C507.548 147.628 509.48 147.979 511.061 148.33C518.789 149.911 524.76 151.491 524.76 151.491Z" fill="#95D6E7"/>
<path opacity="0.2" d="M508.606 174.499C507.201 179.592 508.782 203.303 514.226 209.098C514.929 201.546 515.983 193.643 517.212 185.564L508.606 174.499Z" fill="black"/>
<path d="M499.297 110.218C496.486 120.404 493.149 139.021 499.823 146.398C493.852 151.491 485.949 157.463 473.83 156.936C461.536 156.409 464.346 148.154 467.858 143.939C479.45 142.007 479.801 133.577 478.396 125.322L499.297 110.218Z" fill="#FFB573"/>
<path d="M498.592 143.588C498.592 143.588 493.498 151.843 473.125 156.936C476.462 160.097 478.043 167.474 478.043 167.474C478.043 167.474 504.563 161.151 503.861 146.222C502.631 144.817 498.592 143.588 498.592 143.588Z" fill="#263238"/>
<path d="M465.926 165.718C465.926 165.718 468.56 159.219 473.126 157.112C471.019 154.828 467.858 148.33 469.789 143.412C466.628 143.237 465.047 143.764 465.047 143.764C465.047 143.764 457.144 153.775 465.926 165.718Z" fill="#263238"/>
<path d="M472.424 165.893C472.248 167.298 471.37 168.352 470.668 168.176C469.965 168.001 469.438 166.771 469.79 165.366C470.141 163.961 470.843 162.907 471.546 163.083C472.248 163.259 472.6 164.488 472.424 165.893Z" fill="#263238"/>
<path d="M471.195 173.796C471.019 175.201 470.317 176.255 469.614 176.255C468.912 176.255 468.385 175.026 468.385 173.621C468.56 172.216 469.263 171.162 469.965 171.162C470.844 171.162 471.195 172.391 471.195 173.796Z" fill="#263238"/>
<path opacity="0.2" d="M490.689 116.541L478.395 125.498C478.746 127.43 478.921 129.362 478.921 131.294C483.312 130.943 489.811 126.552 490.513 121.985C491.04 119.878 491.04 117.595 490.689 116.541Z" fill="black"/>
<path d="M471.02 71.9301C460.131 71.7544 457.847 98.0992 464.873 102.841C471.898 107.583 491.569 72.457 471.02 71.9301Z" fill="#263238"/>
<path d="M501.58 94.9381C499.648 108.813 499.297 117.068 491.745 123.566C480.329 133.577 463.644 125.849 461.361 111.799C459.253 98.9776 462.766 78.6044 476.816 74.038C490.691 69.4715 503.512 81.0632 501.58 94.9381Z" fill="#FFB573"/>
<path d="M499.648 108.462C492.623 112.15 484.544 73.8625 503.161 75.7944C526.52 78.2533 513.699 101.085 499.648 108.462Z" fill="#263238"/>
<path d="M468.385 75.7941C468.385 84.4 496.31 92.8304 505.794 90.0203C515.278 87.0345 517.737 79.4824 512.644 74.2134C503.862 65.0806 468.385 58.9335 468.385 75.7941Z" fill="#263238"/>
<path d="M469.441 76.8482C469.441 76.8482 470.144 80.712 473.481 84.4003C471.022 84.2247 468.563 80.712 467.685 78.6045C466.982 76.6725 469.441 76.8482 469.441 76.8482Z" fill="#263238"/>
<path d="M506.846 110.745C504.563 113.731 501.226 115.487 498.065 116.014C493.498 116.716 491.742 112.326 493.498 108.286C495.079 104.598 499.47 99.8558 503.86 101.085C508.251 102.315 509.305 107.232 506.846 110.745Z" fill="#FFB573"/>
<path d="M440.46 566.86L464.346 567.211C464.346 567.211 456.442 472.897 458.55 428.989C459.252 415.641 461.887 397.024 465.399 377.002C469.79 351.711 472.073 341.7 477.694 309.911C481.733 287.255 485.421 271.623 485.421 271.623L436.069 267.935C436.069 267.935 415.169 381.569 415.52 424.598C416.047 469.209 440.46 566.86 440.46 566.86Z" fill="#263238"/>
<path opacity="0.2" d="M468.035 301.656C459.077 323.786 458.902 375.597 463.117 390.175C463.819 385.784 464.522 381.393 465.4 377.002C469.791 351.711 472.074 341.7 477.694 309.911C477.87 309.208 477.87 308.682 478.046 307.979C474.884 305.345 471.547 303.061 468.035 301.656Z" fill="black"/>
<path d="M462.588 269.867C462.588 269.867 466.979 388.77 470.316 429.867C474.004 475.005 507.725 567.211 507.725 567.211H533.543C533.543 567.211 516.331 482.908 511.062 439C505.091 389.121 511.238 273.38 511.238 273.38L462.588 269.867Z" fill="#263238"/>
<path d="M504.739 567.738H535.123V558.605L501.051 558.078L504.739 567.738Z" fill="#95D6E7"/>
<path d="M437.298 567.387L465.75 567.738L465.926 558.605L434.137 557.552L437.298 567.387Z" fill="#95D6E7"/>
<path d="M480.152 97.2213C480.152 98.2751 479.449 99.1533 478.571 99.1533C477.869 99.1533 477.342 98.0995 477.342 97.0457C477.342 95.9919 478.044 95.1138 478.922 95.1138C479.801 95.1138 480.327 96.1676 480.152 97.2213Z" fill="#263238"/>
<path d="M467.332 96.3432C467.332 97.397 466.629 98.2751 465.751 98.2751C465.048 98.2751 464.521 97.2213 464.521 96.1675C464.521 95.1138 465.224 94.2356 466.102 94.2356C466.98 94.2356 467.507 95.1138 467.332 96.3432Z" fill="#263238"/>
<path d="M471.37 97.2212C471.37 97.2212 468.384 103.544 465.223 106.53C467.155 108.637 470.492 107.935 470.492 107.935L471.37 97.2212Z" fill="#ED893E"/>
<path d="M475.235 111.272C479.626 111.096 481.733 108.11 481.909 108.11C482.084 107.935 481.909 107.759 481.909 107.583C481.733 107.408 481.558 107.583 481.382 107.583C481.382 107.583 478.747 110.92 473.83 110.569C473.654 110.569 473.479 110.745 473.479 110.92C473.479 111.096 473.654 111.272 473.83 111.272C474.181 111.272 474.708 111.272 475.235 111.272Z" fill="#263238"/>
<path d="M484.542 93.3572C484.718 93.3572 484.718 93.3572 484.893 93.1816C485.245 93.006 485.245 92.6547 485.069 92.3035C483.137 89.1421 479.976 89.1421 479.8 89.1421C479.449 89.1421 479.098 89.4933 479.098 89.8446C479.098 90.1959 479.449 90.5471 479.8 90.5471C479.976 90.5471 482.259 90.5471 483.84 93.006C484.015 93.3572 484.191 93.3572 484.542 93.3572Z" fill="#263238"/>
<path d="M462.236 91.4251C462.412 91.4251 462.588 91.2494 462.763 91.0738C464.168 88.4393 466.627 88.2637 466.803 88.2637C467.154 88.2637 467.505 87.9124 467.505 87.5612C467.505 87.2099 467.154 86.8586 466.803 86.8586C466.627 86.8586 463.641 87.0343 461.709 90.1956C461.534 90.5469 461.709 90.8982 461.885 91.0738C461.885 91.4251 462.061 91.4251 462.236 91.4251Z" fill="#263238"/>
<path d="M513.171 587.057C514.4 587.057 515.805 586.706 516.859 586.53C517.035 586.53 517.035 586.355 517.035 586.179C517.035 586.003 517.035 585.828 516.859 585.828C516.332 585.477 511.766 582.666 510.185 583.545C510.009 583.72 509.658 583.896 509.658 584.423C509.658 585.125 509.834 585.828 510.361 586.179C511.063 586.882 512.117 587.057 513.171 587.057ZM515.805 586.179C513.346 586.706 511.59 586.53 510.712 586.003C510.361 585.652 510.185 585.301 510.185 584.774C510.185 584.598 510.361 584.423 510.361 584.423C511.415 583.896 514.049 585.125 515.805 586.179Z" fill="#B23632"/>
<path d="M516.86 586.531H517.036C517.211 586.531 517.211 586.355 517.211 586.18C517.211 586.004 516.86 581.964 515.279 580.559C514.928 580.208 514.401 580.032 513.874 580.208C512.996 580.384 512.821 580.735 512.821 581.086C512.294 582.667 515.104 585.828 516.86 586.531C516.685 586.531 516.685 586.531 516.86 586.531ZM513.874 580.911C514.226 580.911 514.401 581.086 514.577 581.262C515.631 582.14 516.158 584.423 516.158 585.653C514.753 584.599 512.996 582.14 513.172 581.262C513.348 581.086 513.348 580.911 513.874 580.911Z" fill="#B23632"/>
<path d="M445.905 586.355C446.081 586.355 446.081 586.179 446.081 586.003C446.081 585.828 446.081 585.652 445.905 585.652C445.202 585.301 439.582 582.315 438.002 583.193C437.65 583.369 437.475 583.72 437.475 584.072C437.475 584.774 437.65 585.301 438.002 585.652C439.582 587.233 443.622 586.706 445.905 586.355ZM438.353 583.896C439.407 583.545 442.392 584.774 444.676 585.828C441.514 586.355 439.231 586.179 438.353 585.301C438.002 584.95 438.002 584.598 438.002 584.247C438.002 584.072 438.177 583.896 438.353 583.896Z" fill="#B23632"/>
<path d="M445.906 586.355C446.082 586.179 446.082 586.179 446.082 586.004C446.082 585.828 445.731 581.964 443.974 580.559C443.447 580.032 442.745 579.857 442.218 580.032C441.34 580.032 440.989 580.559 440.989 580.91C440.637 582.491 443.974 585.652 445.731 586.355H445.906ZM441.867 580.559C441.867 580.559 442.042 580.559 442.218 580.559C442.745 580.559 443.096 580.735 443.623 581.086C444.852 582.14 445.204 584.423 445.379 585.477C443.623 584.423 441.34 581.964 441.515 581.086C441.515 580.91 441.691 580.735 441.867 580.559Z" fill="#B23632"/>
<path d="M528.275 160.273C533.193 170.108 537.583 179.944 541.623 190.13C543.731 195.224 545.663 200.317 547.419 205.586C548.297 208.22 549.175 210.855 550.053 213.489L550.756 215.421L551.458 217.704C551.985 219.285 552.161 220.866 552.688 222.447C554.971 234.916 553.566 246.859 551.107 257.924C549.878 263.544 548.121 268.813 546.189 274.082C545.136 276.717 544.082 279.351 543.028 281.81C541.974 284.444 540.745 286.903 539.34 289.538L529.68 285.323C531.085 280.581 532.315 275.312 533.368 270.394C534.422 265.301 535.3 260.207 535.827 255.29C536.354 250.196 536.705 245.279 536.354 240.361C536.178 235.443 535.652 230.877 534.422 226.662C534.071 225.608 533.895 224.554 533.368 223.5C533.193 222.973 533.017 222.622 532.841 221.92L532.139 220.163C531.085 217.704 530.031 215.421 529.153 212.962C527.046 208.045 524.938 203.303 522.655 198.561L509.482 169.757L528.275 160.273Z" fill="#FFB573"/>
<path d="M524.763 151.491C537.584 155.531 550.229 199.088 550.229 199.088L520.547 212.084C520.547 212.084 510.888 191.009 505.443 174.499C499.296 156.585 509.131 146.749 524.763 151.491Z" fill="#3794AC"/>
<path opacity="0.2" d="M524.763 151.491C537.584 155.531 550.229 199.088 550.229 199.088L520.547 212.084C520.547 212.084 510.888 191.009 505.443 174.499C499.296 156.585 509.131 146.749 524.763 151.491Z" fill="#3794AC"/>
<path d="M530.205 283.04L523.18 295.509L539.513 299.725C539.513 299.725 544.431 287.606 538.635 283.742L530.205 283.04Z" fill="#FFB573"/>
<path d="M521.951 309.735L537.055 310.965L539.514 299.724L523.181 295.509L521.951 309.735Z" fill="#FFB573"/>
<path opacity="0.19" d="M427.662 377.705H56.0254L82.1945 6.06885H453.831L427.662 377.705Z" fill="#B23632"/>
<path opacity="0.1" d="M139.8 377.705H86.2324L219.361 6.06885H272.929L139.8 377.705Z" fill="#B23632"/>
<path opacity="0.1" d="M269.593 377.705H151.568L284.697 6.06885H402.721L269.593 377.705Z" fill="#B23632"/>
<path d="M83.2466 69.4716L72.3574 68.7691L77.0995 0.624023H145.244V11.5132H87.2861L83.2466 69.4716Z" fill="#B23632"/>
<path d="M119.076 383.15H50.0527L54.9704 314.302L65.8596 315.005L61.82 372.26H119.076V383.15Z" fill="#B23632"/>
<path d="M454.707 69.4716L443.818 68.7691L447.858 11.5132H390.777V0.624023H459.625L454.707 69.4716Z" fill="#B23632"/>
<path d="M432.754 383.15H364.434V372.26H422.568L426.607 314.302L437.496 315.005L432.754 383.15Z" fill="#B23632"/>
<path d="M247.639 322.908C247.287 322.908 246.936 322.908 246.76 322.732C246.585 322.732 244.126 321.327 239.735 318.517C237.979 317.463 235.696 316.058 233.412 314.478C225.86 309.56 218.484 304.291 211.458 298.846C209.702 297.617 208.121 296.212 206.365 294.807C200.042 289.538 194.071 284.445 188.978 279.176C187.573 277.771 186.343 276.541 184.938 275.136C180.02 270.043 175.454 264.774 171.414 259.505C170.361 258.1 169.482 256.87 168.429 255.465C164.74 250.196 161.579 244.927 158.945 239.834C158.242 238.605 157.54 237.2 157.013 235.795C154.729 230.526 152.797 225.257 151.568 219.988C151.217 218.758 151.041 217.353 150.69 215.948C150.514 214.894 150.339 213.841 150.163 212.962C149.636 208.923 149.109 204.883 148.758 200.493C148.582 199.263 148.407 197.858 148.407 196.453C147.88 191.184 147.529 186.091 147.353 180.822V180.295C147.353 179.066 147.177 178.012 147.177 176.782C147.002 171.689 146.826 166.596 146.65 161.327V157.287C146.65 151.843 146.65 146.574 146.65 141.832C146.65 140.427 146.65 139.197 146.65 137.792C146.826 131.996 147.002 126.903 147.177 122.337V121.985C147.177 120.756 147.353 119.527 147.353 118.297C147.704 112.677 148.055 107.232 148.407 102.842C148.582 101.261 148.582 100.031 148.758 98.802C149.109 94.4112 149.46 91.9524 149.46 91.9524C149.636 91.0742 150.339 90.3717 151.217 90.1961C151.568 90.1961 183.884 87.7372 218.484 81.5901C225.509 80.3607 232.359 78.9556 238.681 77.5506C248.165 75.443 256.771 73.1598 264.499 70.8766C264.85 70.701 265.377 70.701 265.729 70.8766C273.105 73.3354 281.36 75.443 290.493 77.5506C296.64 78.9556 303.314 80.3607 310.163 81.5901C343.885 87.7372 375.85 90.1961 376.201 90.1961C377.255 90.1961 377.957 91.0742 377.957 92.128C377.957 92.128 377.957 94.5869 377.606 98.9776C377.606 100.207 377.43 101.436 377.43 103.017C377.255 107.584 376.728 112.853 376.376 118.473C376.201 119.527 376.201 120.756 376.025 121.985V122.512C375.674 127.079 374.971 132.348 374.444 137.968C374.269 139.373 374.093 140.602 373.918 142.007C373.391 146.749 372.513 152.018 371.81 157.463L371.283 161.502C370.405 166.771 369.527 172.04 368.649 176.958C368.473 178.012 368.297 179.241 367.946 180.295L367.77 180.822C366.717 185.915 365.663 191.184 364.433 196.278C364.082 197.683 363.731 198.912 363.555 200.317C362.502 204.708 361.448 208.747 360.394 212.787C360.043 213.841 359.867 214.894 359.516 215.773C358.989 217.353 358.638 218.583 358.111 219.812C356.179 225.081 353.544 230.35 350.559 235.619C349.856 237.024 348.978 238.253 348.1 239.658C344.763 244.927 340.899 250.196 336.332 255.29C335.103 256.695 334.049 257.924 332.82 259.329C328.078 264.598 322.809 269.691 317.189 274.96C315.608 276.365 314.203 277.595 312.622 279C306.651 284.093 300.152 289.362 292.951 294.456C291.02 295.861 289.263 297.09 287.331 298.495C279.603 303.94 271.524 309.033 263.27 313.951C260.635 315.531 258.352 316.761 256.244 317.99C251.502 320.625 248.692 322.03 248.692 322.03C248.165 322.732 247.814 322.908 247.639 322.908ZM153.149 94.06C152.973 95.2894 152.797 97.0457 152.622 99.3289C152.446 100.558 152.446 101.788 152.271 103.193C151.919 107.759 151.568 113.028 151.217 118.648C151.217 119.878 151.041 121.107 151.041 122.337V122.688C150.866 127.254 150.69 132.348 150.514 138.143C150.514 139.373 150.514 140.778 150.514 142.183C150.514 146.925 150.339 152.018 150.514 157.639V161.678C150.69 166.947 150.866 172.04 151.041 177.134C151.041 178.363 151.217 179.417 151.217 180.646V181.173C151.568 186.267 151.919 191.36 152.271 196.629C152.446 198.034 152.446 199.263 152.622 200.493C152.973 204.883 153.5 208.923 154.027 212.962C154.203 213.841 154.378 214.894 154.554 215.773C154.729 217.178 155.081 218.407 155.432 219.636C156.661 224.73 158.242 229.647 160.525 234.741C161.052 236.146 161.755 237.375 162.457 238.605C164.916 243.698 168.077 248.791 171.766 253.885C172.644 255.29 173.698 256.519 174.576 257.749C178.44 262.842 182.83 267.935 187.748 273.028C188.978 274.434 190.383 275.663 191.612 277.068C196.705 282.161 202.501 287.255 208.824 292.348C210.58 293.753 212.161 294.982 213.742 296.387C220.591 301.656 227.792 306.925 235.344 311.667C237.628 313.248 239.911 314.478 241.667 315.531C244.477 317.288 246.585 318.517 247.639 319.044C248.868 318.341 251.151 317.288 254.137 315.531C256.069 314.478 258.352 313.072 260.986 311.492C269.241 306.574 277.145 301.481 284.872 296.212C286.629 294.982 288.561 293.577 290.493 292.172C297.518 287.079 304.016 281.81 309.812 276.892C311.393 275.663 312.798 274.258 314.203 272.853C319.823 267.76 324.916 262.666 329.658 257.573C330.888 256.343 331.942 254.938 333.171 253.709C337.562 248.616 341.25 243.522 344.587 238.429C345.465 237.2 346.168 235.795 347.046 234.565C350.032 229.472 352.491 224.379 354.422 219.461C354.949 218.231 355.301 217.002 355.827 215.597C356.179 214.543 356.354 213.665 356.706 212.611C357.759 208.572 358.813 204.532 359.867 200.141C360.218 198.736 360.57 197.507 360.745 196.102C361.975 191.009 363.028 185.74 364.082 180.646L364.258 180.119C364.433 179.066 364.785 177.836 364.96 176.782C365.839 171.865 366.892 166.596 367.595 161.327L368.122 157.287C369 151.843 369.702 146.574 370.229 141.832C370.405 140.427 370.581 139.197 370.756 137.968C371.459 132.348 371.986 127.079 372.337 122.512V121.985C372.513 120.756 372.513 119.702 372.688 118.648C373.215 113.028 373.566 107.759 373.742 103.193C373.742 101.788 373.918 100.383 373.918 99.1533C374.093 97.0457 374.093 95.2894 374.093 94.2356C366.717 93.5331 338.791 91.0742 309.461 85.8053C302.611 84.5759 295.937 83.1708 289.614 81.7658C280.482 79.6582 272.227 77.5506 265.026 75.0918C257.474 77.375 248.868 79.6582 239.559 81.7658C233.061 83.1708 226.211 84.5759 219.186 85.8053C188.802 90.8986 160.174 93.5331 153.149 94.06Z" fill="#B23632"/>
<path d="M274.687 171.43C284.177 162.268 284.935 147.657 276.379 138.795C267.824 129.933 253.195 130.176 243.705 139.337C234.215 148.499 233.457 163.11 242.012 171.972C250.568 180.835 265.197 180.592 274.687 171.43Z" fill="#B23632"/>
<path d="M264.322 163.434H258.702H253.082L237.1 237.726H269.767L264.322 163.434Z" fill="#B23632"/>
<g opacity="0.2">
<path d="M309.811 83.6977H218.834C225.508 82.4683 232.358 81.2389 239.207 79.6582H290.14C296.639 81.2389 303.137 82.4683 309.811 83.6977Z" fill="#B23632"/>
<path d="M375.498 103.017H150.338C150.514 101.612 150.514 100.207 150.689 98.9778H375.673C375.673 100.383 375.673 101.612 375.498 103.017Z" fill="#B23632"/>
<path d="M374.445 118.473C374.269 119.702 374.269 121.107 374.093 122.512H149.109C149.109 121.107 149.285 119.878 149.285 118.473H374.445Z" fill="#B23632"/>
<path d="M372.336 137.968C372.161 139.197 371.985 140.602 371.81 142.007H148.406C148.406 140.602 148.406 139.373 148.406 137.968H372.336Z" fill="#B23632"/>
<path d="M369.702 157.463C369.526 158.868 369.351 160.098 369.175 161.503H148.406C148.406 160.098 148.406 158.868 148.406 157.463H369.702Z" fill="#B23632"/>
<path d="M366.541 176.782C366.366 178.188 366.014 179.417 365.839 180.822H149.285C149.285 179.417 149.109 178.188 149.109 176.782H366.541Z" fill="#B23632"/>
<path d="M362.325 196.277C361.974 197.682 361.623 198.912 361.447 200.317H150.689C150.514 198.912 150.338 197.682 150.338 196.277H362.325Z" fill="#B23632"/>
<path d="M357.409 215.773C357.058 217.178 356.531 218.407 356.004 219.812H153.501C153.15 218.407 152.974 217.178 152.623 215.773H357.409Z" fill="#B23632"/>
<path d="M348.627 235.092C347.925 236.497 347.046 237.727 346.168 239.132H160.526C159.823 237.902 159.296 236.497 158.594 235.092H348.627Z" fill="#B23632"/>
<path d="M334.577 254.587C333.523 255.992 332.293 257.222 331.064 258.627H172.996C171.942 257.397 171.064 255.992 170.01 254.587H334.577Z" fill="#B23632"/>
<path d="M315.433 274.082C313.852 275.487 312.447 276.717 310.866 278.122H190.032C188.627 276.892 187.397 275.487 186.168 274.082H315.433Z" fill="#B23632"/>
<path d="M291.545 293.402C289.614 294.807 287.857 296.036 285.925 297.441H212.511C210.931 296.212 209.174 294.807 207.418 293.402H291.545Z" fill="#B23632"/>
<path d="M262.039 312.897C259.405 314.478 257.121 315.707 255.189 316.937H240.788C239.031 315.883 236.748 314.478 234.465 312.897H262.039Z" fill="#B23632"/>
</g>
</svg>
