<svg width="120" height="103" viewBox="0 0 120 103" fill="none" xmlns="http://www.w3.org/2000/svg">
<path d="M11.9208 102.275C22.5784 102.275 33.1868 102.275 43.8444 102.275C52.9303 98.9849 55.4351 95.3505 55.4351 85.4787C55.4351 69.7625 55.5825 54.0954 55.386 38.3792C55.1895 22.3682 47.8717 10.5811 33.1868 3.90167C29.5033 2.23182 25.2305 1.69158 21.2523 0.611084C18.4529 0.611084 15.7025 0.611084 12.9031 0.611084C10.2018 1.83891 9.17046 3.95078 9.36691 6.89758C9.56336 9.35324 9.36691 11.8089 9.41602 14.2646C9.46513 17.1131 11.0859 18.8321 13.8853 19.0777C15.3587 19.1759 16.8321 19.1268 18.3055 19.1268C21.989 19.1268 25.4269 19.9126 28.5211 22.0245C34.7093 26.2482 37.4106 32.1909 37.0177 39.6561C36.7721 44.0763 34.2182 46.7775 29.798 46.8266C24.7393 46.8266 19.6807 46.8266 14.5729 46.8266C10.1036 46.8266 6.12543 48.2018 3.42421 51.8853C1.95081 53.8498 1.21411 56.3546 0.133621 58.6138C0.133621 69.2714 0.133621 79.8798 0.133621 90.5374C0.379189 91.3232 0.575642 92.0599 0.870319 92.8457C2.68751 98.1008 6.66568 100.949 11.9208 102.275Z" fill="#F86738"/>
<path d="M119.97 90.4884C119.97 71.678 119.97 52.8186 119.97 34.0082C119.823 33.6153 119.626 33.2715 119.577 32.8786C117.514 19.2742 110.344 9.45156 97.7707 3.90177C94.0872 2.28103 89.9617 1.69167 86.0817 0.611183C83.2823 0.611183 80.5319 0.611183 77.7325 0.611183C74.8839 1.64256 73.6561 3.6562 73.8525 6.65211C73.9508 8.02728 73.8525 9.45156 73.8525 10.8267C73.8525 18.3902 74.491 19.0778 82.1036 19.0778C94.1854 19.1269 102.338 27.8199 101.602 39.8527C101.356 44.1255 98.5565 46.7285 94.2836 46.7285C89.1267 46.7285 83.9699 46.6794 78.813 46.7285C71.004 46.8267 65.0613 51.9836 64.8157 59.5962C64.4719 69.5662 64.7175 79.5361 64.7666 89.5061C64.8157 93.2387 66.3873 96.4802 69.3341 98.5921C71.4951 100.164 74.1963 101.048 76.652 102.226C87.1131 102.226 97.6233 102.226 108.084 102.226C114.469 100.704 118.496 96.8731 119.97 90.4884Z" fill="#F86738"/>
</svg>
