<svg width="121" height="103" viewBox="0 0 121 103" fill="none" xmlns="http://www.w3.org/2000/svg">
<path d="M108.482 102.653C97.8243 102.653 87.2159 102.653 76.5583 102.653C67.4724 99.3623 64.9676 95.7279 64.9676 85.8562C64.9676 70.14 64.8203 54.4728 65.0167 38.7566C65.2132 22.7457 72.531 10.9585 87.2159 4.27911C90.8994 2.60926 95.1722 2.06902 99.1504 0.988525C101.95 0.988525 104.7 0.988525 107.5 0.988525C110.201 2.21636 111.232 4.32823 111.036 7.27502C110.839 9.73068 111.036 12.1863 110.987 14.642C110.938 17.4906 109.317 19.2095 106.517 19.4551C105.044 19.5533 103.571 19.5042 102.097 19.5042C98.4137 19.5042 94.9758 20.29 91.8816 22.4019C85.6934 26.6256 82.9921 32.5683 83.3851 40.0335C83.6306 44.4537 86.1845 47.155 90.6047 47.2041C95.6634 47.2041 100.722 47.2041 105.83 47.2041C110.299 47.2041 114.277 48.5792 116.979 52.2627C118.452 54.2273 119.189 56.732 120.269 58.9912C120.269 69.6488 120.269 80.2573 120.269 90.9148C120.024 91.7007 119.827 92.4374 119.532 93.2232C117.715 98.4783 113.737 101.327 108.482 102.653Z" fill="#F86738"/>
<path d="M0.580566 90.8659C0.580566 72.0556 0.580566 53.1961 0.580566 34.3857C0.727906 33.9928 0.924359 33.649 0.973472 33.2561C3.03623 19.6517 10.2068 9.82909 22.7797 4.27929C26.4632 2.65856 30.5887 2.0692 34.4687 0.988708C37.2681 0.988708 40.0185 0.988708 42.8179 0.988708C45.6665 2.02009 46.8943 4.03373 46.6979 7.02964C46.5997 8.40481 46.6979 9.82909 46.6979 11.2043C46.6979 18.7677 46.0594 19.4553 38.4469 19.4553C26.365 19.5044 18.2122 28.1974 18.9489 40.2302C19.1945 44.503 21.9939 47.106 26.2668 47.106C31.4237 47.106 36.5806 47.0569 41.7374 47.106C49.5465 47.2043 55.4892 52.3611 55.7347 59.9737C56.0785 69.9437 55.8329 79.9137 55.7838 89.8837C55.7347 93.6163 54.1631 96.8577 51.2163 98.9696C49.0553 100.541 46.3541 101.425 43.8984 102.604C33.4373 102.604 22.9271 102.604 12.466 102.604C6.08125 101.081 2.05396 97.2506 0.580566 90.8659Z" fill="#F86738"/>
</svg>
