<svg width="143" height="141" viewBox="0 0 143 141" fill="none" xmlns="http://www.w3.org/2000/svg">
<g opacity="0.7">
<path d="M68.2064 121C40.8261 121 18.6301 98.8036 18.6301 71.4234C18.6301 44.0432 40.8261 21.8472 68.2064 21.8472C95.5866 21.8472 117.783 44.0432 117.783 71.4234C117.783 98.8036 95.5866 121 68.2064 121Z" fill="white"/>
</g>
<path d="M83.2782 8.01823C79.3786 7.29607 75.3706 6.935 71.3265 6.89889C59.8081 6.89889 48.5424 9.96807 38.6849 15.7453C38.1794 16.0342 37.6017 16.1786 37.06 16.1786C35.9768 16.1786 34.8936 15.6009 34.3158 14.5899C33.4131 13.0734 33.9187 11.1235 35.4352 10.2208C46.2676 3.82972 58.6887 0.47168 71.3265 0.47168C75.7317 0.47168 80.1368 0.868854 84.4337 1.69934C86.1669 2.02431 87.3223 3.68527 86.9974 5.41845C86.7085 7.18774 85.0114 8.3432 83.2782 8.01823Z" fill="#F5A73D"/>
<path d="M3.66051 68.21C5.4298 68.21 6.83801 69.6543 6.83801 71.3875C6.83801 86.9861 12.4708 102.043 22.6894 113.778C23.8448 115.114 23.7004 117.136 22.3644 118.292C21.7506 118.833 21.0284 119.086 20.2702 119.086C19.3675 119.086 18.5009 118.725 17.8509 118.003C6.62136 105.112 0.410791 88.5749 0.410791 71.4236C0.446899 69.6543 1.89122 68.21 3.66051 68.21Z" fill="#BCF0FF"/>
<path d="M7.41542 62.7578C7.19877 64.3465 5.82667 65.5381 4.23792 65.5381C4.09349 65.5381 3.94905 65.5381 3.80462 65.502C2.07144 65.2853 0.843777 63.6605 1.06042 61.9273C3.33523 44.9926 11.7123 29.4301 24.6028 18.1283C25.9388 16.9729 27.9609 17.0812 29.1163 18.4172C30.2718 19.7532 30.1634 21.7752 28.8274 22.9307C17.0924 33.1853 9.47357 47.3397 7.41542 62.7578Z" fill="#B23632"/>
<path d="M86.6724 134.107C101.766 130.424 115.053 121.361 124.08 108.615C125.091 107.171 127.077 106.846 128.522 107.857C129.966 108.868 130.291 110.854 129.28 112.298C119.386 126.308 104.763 136.274 88.189 140.318C87.9362 140.39 87.6835 140.426 87.4307 140.426C85.9864 140.426 84.6865 139.451 84.3254 137.971C83.9282 136.238 84.9753 134.505 86.6724 134.107Z" fill="#55C6E8"/>
<path d="M130.11 98.0718C133.902 89.6948 135.852 80.7039 135.852 71.4242C135.852 65.1053 134.949 58.8947 133.143 52.9008C132.638 51.2037 133.613 49.4344 135.274 48.9289C136.971 48.4234 138.74 49.3983 139.246 51.0593C141.196 57.6309 142.207 64.4914 142.207 71.388C142.207 81.6066 140.076 91.4641 135.888 100.672C135.346 101.863 134.191 102.549 132.963 102.549C132.53 102.549 132.06 102.441 131.627 102.26C130.11 101.574 129.388 99.6606 130.11 98.0718Z" fill="#FFC4E8"/>
<path d="M43.7586 71.421C43.8052 67.7788 44.4356 64.4402 45.8598 61.2883C49.6654 52.7667 56.2025 47.5136 65.3546 46.0194C79.3628 43.7314 91.9002 52.5799 94.8419 66.4714C97.807 80.4563 87.8144 94.7914 73.6194 96.8692C69.5103 97.4763 65.4947 97.2428 61.549 95.912C59.9381 95.375 59.2376 94.2077 59.6579 92.8302C60.1015 91.4294 61.4089 90.8924 63.0666 91.3827C77.6585 95.8653 91.7601 84.4953 90.4526 69.3431C89.402 57.2026 77.5884 48.3774 65.6581 50.7822C56.8329 52.5565 50.4358 59.047 48.8482 67.8489C48.6381 68.9462 48.5914 70.0668 48.4747 71.3276C48.9649 71.3509 49.3385 71.3743 49.712 71.3976C51.8133 71.3976 53.9145 71.3743 56.0158 71.421C56.3426 71.421 56.7395 71.6311 56.973 71.8879C57.0664 71.9813 56.9029 72.4716 56.7162 72.6817C53.4242 76.2538 50.1089 79.8259 46.817 83.398C46.3034 83.935 45.9065 83.8182 45.4629 83.328C42.2176 79.8025 38.9724 76.3238 35.7272 72.7751C35.517 72.5416 35.3303 72.0046 35.447 71.7945C35.5871 71.561 36.0774 71.421 36.4276 71.421C38.809 71.421 41.2137 71.421 43.7586 71.421Z" fill="black"/>
<path d="M70.2108 62.1755C73.0124 63.1094 75.6506 63.9966 78.569 64.9538C75.6506 66.2379 73.0358 67.3819 70.3975 68.5259C70.1641 68.6193 69.8372 68.6193 69.6037 68.5259C66.8021 67.3819 64.0005 66.2379 60.8719 64.9538C63.7436 63.9966 66.3118 63.1328 69.1368 62.1755C69.1368 63.3195 69.0901 64.3235 69.1602 65.2807C69.1835 65.6542 69.5337 65.9811 69.7438 66.3313C69.8839 65.9811 70.1407 65.6309 70.1641 65.2573C70.2575 64.3235 70.2108 63.3662 70.2108 62.1755Z" fill="black"/>
<path d="M69.4171 71.6779C69.4171 74.5029 69.4171 77.3279 69.4171 80.3163C69.0202 80.1528 68.67 80.0361 68.3664 79.896C65.845 78.7053 63.3235 77.4913 60.7787 76.3473C60.0782 76.0438 59.7514 75.6702 59.7981 74.8764C59.8681 73.8025 59.8214 72.7285 59.8214 71.3977C60.9421 71.888 61.876 72.3082 62.8098 72.7285C63.9072 73.2421 65.0045 73.7091 66.0551 74.2694C66.8489 74.713 67.3158 74.5262 67.7594 73.7791C68.203 73.0087 68.74 72.3082 69.2303 71.5611C69.2536 71.6078 69.347 71.6545 69.4171 71.6779Z" fill="black"/>
<path d="M70.7244 80.1761C70.7244 77.2577 70.7244 74.3393 70.7244 71.1174C71.4248 72.0046 72.0085 72.6116 72.452 73.3121C73.0591 74.2459 73.6427 74.4094 74.6467 73.8257C76.1876 72.9385 77.8219 72.2147 79.5962 71.3276C79.5962 72.8685 79.6196 74.2226 79.5729 75.5534C79.5729 75.7635 79.3394 76.0437 79.1293 76.137C76.421 77.4912 73.7128 78.8453 70.9812 80.1761C70.9111 80.2228 70.8178 80.1994 70.7244 80.1761Z" fill="black"/>
<path d="M66.662 73.3588C63.4168 71.8178 60.2649 70.347 56.9963 68.8061C57.7434 67.8255 58.3972 66.915 59.1209 66.0745C59.2843 65.8877 59.7513 65.7476 59.9848 65.841C62.9965 67.0551 66.0083 68.2924 69.1602 69.5999C68.2963 70.9073 67.5025 72.098 66.662 73.3588Z" fill="black"/>
<path d="M70.9111 69.5532C74.0163 68.1991 76.9113 66.915 79.9231 65.5842C80.6469 66.6115 81.3473 67.6154 82.1644 68.7828C79.3394 70.2069 76.5845 71.5844 73.6894 73.0319C72.8022 71.9346 71.9151 70.8373 70.9111 69.5532Z" fill="black"/>
</svg>
