<svg xmlns="http://www.w3.org/2000/svg" width="108" height="69" viewBox="0 0 108 69" fill="none">
<path d="M107.452 49.0863C106.522 42.5588 104.237 36.5887 100.175 31.3616C100.035 31.1759 99.8824 31.0029 99.7488 30.8364C94.6114 35.6791 88.7674 37.0691 82.1023 34.6286C75.6408 31.7204 72.3687 26.647 71.974 19.5303C71.4711 19.7609 70.9299 19.9531 70.4398 20.2349C69.5613 20.7474 68.7019 21.3047 67.8552 21.8684C67.6133 22.0285 67.4987 21.9965 67.3077 21.7979C65.9708 20.3822 64.6276 18.973 63.2844 17.5637C63.2144 17.4869 63.1443 17.4036 63.0552 17.3011C63.1443 17.205 63.2335 17.1153 63.3162 17.0257C64.5512 15.7829 65.7926 14.5402 67.0276 13.2847C67.747 12.5545 67.8679 11.4847 67.3459 10.6327C66.8239 9.77438 65.799 9.38363 64.8568 9.72954C64.5576 9.83844 64.2584 10.0242 64.0356 10.2484C61.5083 12.8235 58.9937 15.405 56.4792 17.9865C55.8617 16.9296 54.6076 16.5388 53.2771 17.0449C52.214 17.4548 51.1636 17.8968 50.0941 18.2812C49.8585 18.3644 49.4766 18.3516 49.292 18.2107C47.9487 17.205 46.6183 16.1865 45.3323 15.1103C42.7159 12.926 38.699 13.3039 36.8401 16.1289C36.0953 17.2627 35.5287 18.5246 34.943 19.8185C34.943 17.3331 34.943 14.8477 34.9367 12.3623C34.9303 10.4278 34.3255 8.71103 32.9378 7.3274C32.0338 6.42419 30.9388 5.86689 29.6911 5.61066C29.5511 5.57864 29.411 5.5338 29.271 5.49536C28.7617 5.49536 28.2524 5.49536 27.7431 5.49536C27.1956 5.6555 26.6163 5.75159 26.1071 5.9822C23.5989 7.12882 22.2174 9.121 22.0201 11.8755C21.9246 13.2335 21.9946 14.6043 21.9883 15.9687C21.9883 16.084 21.9883 16.1993 21.9883 16.3595C21.8482 16.3082 21.7527 16.2762 21.6636 16.2313C19.4737 15.2064 17.1692 14.7196 14.7629 14.7132C13.4387 14.7132 12.1146 14.6555 10.7969 14.8861C5.40488 15.8406 1.31155 20.2157 0.694049 25.6798C0.681317 25.7823 0.649487 25.8848 0.624023 25.9872C0.624023 34.872 0.624023 43.7503 0.624023 52.635C0.789539 53.1283 0.904127 53.6471 1.13967 54.1083C1.75717 55.319 2.76936 56.0493 4.08075 56.3568C4.15714 56.376 4.24627 56.376 4.33539 56.3824C4.42452 50.9695 6.48709 46.5176 10.6823 43.1418C13.738 40.6884 17.2647 39.5161 21.1798 39.6122C25.6869 39.7211 29.5447 41.4378 32.6704 44.6919C35.7961 47.946 37.2921 51.8856 37.3176 56.4272C48.4262 56.4272 59.5157 56.4272 70.6371 56.4272C70.7581 50.5468 73.1135 45.8258 77.9389 42.4563C81.0901 40.2528 84.6423 39.3432 88.4682 39.6635C92.7589 40.0222 96.3811 41.8222 99.284 45.0122C102.193 48.2023 103.6 52.0073 103.632 56.3632C104.23 56.3055 104.759 56.1005 105.255 55.8187C106.535 55.082 107.324 53.9802 107.617 52.5261C107.636 52.4365 107.674 52.3468 107.7 52.2571C107.7 51.8087 107.7 51.3603 107.7 50.9119C107.623 50.3098 107.534 49.6948 107.452 49.0863ZM52.2585 22.4321C52.2712 22.4321 52.284 22.4321 52.2967 22.4321C52.284 22.4577 52.2712 22.4769 52.2585 22.5025V22.4321ZM62.7497 24.9367C60.2033 26.2755 57.5741 27.3901 54.7985 28.1524C53.9519 28.383 53.1052 28.5752 52.2649 28.7353V24.3986C52.2903 24.4563 52.3222 24.5075 52.354 24.5652C53.0925 25.7566 54.7031 25.936 55.7089 24.9367C57.0394 23.6043 58.3699 22.2655 59.694 20.9267C59.7958 20.8242 59.8659 20.6833 59.9423 20.5808C61.2473 21.894 62.4823 23.1367 63.7364 24.405C63.4117 24.5716 63.0871 24.7638 62.7497 24.9367Z" fill="black"/>
<path d="M15.1701 45.0315C10.472 47.5105 7.94468 52.6479 8.77862 58.0223C9.56801 63.0956 13.6677 67.2273 18.7923 68.1049C19.1488 68.1625 19.4989 68.2202 19.8554 68.2778C20.5366 68.2778 21.2114 68.2778 21.8926 68.2778C21.9944 68.2522 22.0963 68.2202 22.1981 68.2074C31.136 67.1632 35.9614 57.1767 31.2505 49.4771C27.8893 43.9874 20.8422 42.0336 15.1701 45.0315Z" fill="black"/>
<path d="M83.5413 44.173C78.1302 45.8769 74.5526 51.104 74.9409 56.741C75.3356 62.4998 79.5244 67.1567 85.1583 68.1112C85.483 68.1688 85.8012 68.2201 86.1259 68.2777C86.8071 68.2777 87.4819 68.2777 88.163 68.2777C88.2649 68.2521 88.3667 68.2201 88.4686 68.2137C95.433 67.4258 100.303 61.0264 99.2462 54.0506C98.1258 46.6648 90.6203 41.9502 83.5413 44.173Z" fill="black"/>
<path d="M83.701 30.6763C88.7937 32.7518 94.1093 30.8557 96.8149 27.64C93.5173 24.5461 89.7359 22.272 85.5025 20.7475C82.5423 19.6841 79.4994 18.9475 76.3482 18.7361C75.8963 23.1048 78.3153 28.4856 83.701 30.6763Z" fill="black"/>
<path d="M47.5869 13.7716C51.3364 13.7652 54.3093 10.7481 54.2711 6.96875C54.2393 3.42639 51.2027 0.415702 47.676 0.441324C43.9392 0.466947 41.0044 3.44561 41.0235 7.19295C41.0426 10.7417 44.0665 13.7716 47.5869 13.7716Z" fill="black"/>
</svg>