<svg xmlns="http://www.w3.org/2000/svg" width="76" height="68" viewBox="0 0 76 68" fill="none">
    <path d="M13.5453 62.0313C13.442 62.0313 13.3101 62.1352 13.2412 62.2276C12.2773 63.5324 10.9921 64.2367 9.37986 64.2945C6.20127 64.4042 3.76856 61.5117 4.38821 58.3191C4.77836 56.3099 6.00619 54.9417 7.9799 54.4105C9.92492 53.8851 11.5945 54.474 12.9543 55.9751C13.0404 56.0732 13.2011 56.1541 13.333 56.1541C14.5666 56.1656 15.8002 56.1656 17.0337 56.1598C17.114 56.1598 17.1944 56.1483 17.2747 56.1425C17.2747 56.1021 17.2747 56.079 17.269 56.0617C15.9551 52.4533 12.1453 50.0805 8.35284 50.5135C4.70377 50.935 1.7719 53.5041 0.871104 57.0893C0.750616 57.5628 0.681766 58.0477 0.595703 58.5269V60.028C0.670291 60.4494 0.733404 60.8824 0.830942 61.2981C1.62272 64.7621 4.39395 67.3601 7.85368 67.9374H10.7282C14.7674 67.1754 16.9075 64.0116 17.4181 62.0371C17.3722 62.0313 17.3263 62.0198 17.2804 62.0198C16.0354 62.0255 14.7903 62.0198 13.5453 62.0313Z" fill="black"/>
    <path d="M75.0756 57.938C74.5306 54.2661 71.7307 51.3275 68.116 50.6347C67.9152 50.5943 67.7144 50.577 67.4906 50.5481C67.7259 51.8644 67.9554 53.123 68.1906 54.3758C68.2078 54.4624 68.3111 54.5663 68.3971 54.6068C70.6577 55.6229 71.8282 57.8976 71.3462 60.3224C70.8643 62.7472 68.5922 64.4849 66.1595 64.2886C63.6407 64.0866 61.6441 61.9909 61.5867 59.4621C61.5465 57.811 62.1605 56.4484 63.394 55.3631C63.4686 55.2996 63.5604 55.1725 63.5489 55.0917C63.3424 53.8331 63.1129 52.5745 62.8891 51.3159C60.6343 52.2512 57.7483 55.1725 57.8573 59.5256C57.9606 63.6247 60.9211 67.1753 64.9546 67.9374H67.9324C68.3742 67.8392 68.8332 67.7469 69.2635 67.5852C72.6315 66.3324 74.565 63.8961 75.1158 60.3339C75.133 60.23 75.156 60.1318 75.1789 60.0279V58.5268C75.1502 58.3306 75.1101 58.1343 75.0756 57.938Z" fill="black"/>
    <path d="M51.2294 57.095C50.0302 57.0835 48.8254 57.0893 47.6262 57.095V57.0893H43.8394L43.8509 57.1008C39.1748 57.1008 34.4987 57.1008 29.8227 57.1008C29.7423 57.1008 29.662 57.1412 29.5759 57.147C29.3637 57.1643 29.1571 57.1874 28.9448 57.1816C28.8301 57.1816 28.7096 57.1008 28.5948 57.1008C23.2761 57.095 17.9632 57.095 12.6445 57.1008C12.5355 57.1008 12.4265 57.1701 12.3175 57.2047C12.2716 57.2163 12.2257 57.2278 12.1855 57.2221C11.9445 57.1816 11.7035 57.1181 11.4626 57.1066C11.0437 57.0893 10.6192 57.0893 10.2003 57.1066C9.19051 57.1412 8.45037 57.8456 8.35283 58.8501C8.24955 59.9182 8.80609 60.8015 9.75852 61.0325C10.0052 61.0902 10.2692 61.1017 10.5274 61.1017C13.5682 61.1075 16.6091 61.1075 19.65 61.1075H19.9713C19.9828 61.1941 19.9885 61.2518 19.9885 61.3038C20.023 62.3315 20.4475 63.1975 21.1418 63.9249C21.8934 64.7101 22.8401 65.1027 23.9187 65.1027C33.0242 65.1084 42.1239 65.1084 51.2294 65.1027C53.4268 65.1027 55.1653 63.3014 55.1653 61.096C55.1596 58.8963 53.4154 57.1181 51.2294 57.095ZM24.613 62.6779C24.613 63.1686 24.2859 63.5265 23.8671 63.5323C23.4196 63.5381 23.0983 63.1917 23.0925 62.6779C23.0868 62.1467 23.0925 61.6213 23.0925 61.0902C23.0925 60.559 23.0868 60.0337 23.0925 59.5025C23.0983 59.006 23.4081 58.6654 23.8499 58.6654C24.2859 58.6654 24.613 59.0176 24.613 59.5025C24.6187 60.559 24.6187 61.6156 24.613 62.6779ZM27.367 62.7645C27.3613 63.209 27.017 63.5381 26.6326 63.5323C26.2252 63.5265 25.8982 63.1859 25.8925 62.7356C25.8867 62.1756 25.8925 61.6213 25.8925 61.0671C25.8925 60.536 25.8867 60.0106 25.8925 59.4794C25.8982 59.0002 26.2023 58.6654 26.6326 58.6538C27.0342 58.6423 27.367 58.9772 27.3727 59.4448C27.3785 60.559 27.3785 61.6618 27.367 62.7645ZM30.1497 62.6779C30.144 63.1801 29.8341 63.5323 29.4096 63.5323C28.9792 63.5265 28.6637 63.1801 28.6637 62.6836C28.6579 61.6271 28.6579 60.5706 28.6637 59.5141C28.6637 59.0118 28.9735 58.6654 29.4096 58.6654C29.8399 58.6654 30.1497 59.0118 30.1497 59.5141C30.1554 60.0394 30.1497 60.5706 30.1497 61.1017C30.1497 61.6213 30.1554 62.1525 30.1497 62.6779ZM32.9381 62.7414C32.9324 63.1975 32.5996 63.5381 32.198 63.5323C31.7792 63.5265 31.4636 63.1975 31.4579 62.7414C31.4521 62.1871 31.4579 61.6271 31.4579 61.0729C31.4579 60.5417 31.4521 60.0164 31.4579 59.4852C31.4636 59.006 31.7792 58.6712 32.2037 58.6654C32.6168 58.6596 32.9381 58.9887 32.9439 59.4563C32.9496 60.5533 32.9496 61.6444 32.9381 62.7414ZM35.7208 62.7067C35.7151 63.1801 35.3995 63.5265 34.9807 63.5323C34.5619 63.5381 34.2406 63.1917 34.2348 62.7125C34.2291 61.6387 34.2291 60.559 34.2348 59.4852C34.2406 59.0002 34.5504 58.6596 34.975 58.6596C35.411 58.6596 35.7151 59.006 35.7208 59.5083C35.7266 60.0337 35.7208 60.5648 35.7208 61.096C35.7208 61.6329 35.7266 62.1698 35.7208 62.7067ZM38.5208 62.8568C38.5208 63.2725 38.188 63.6074 37.7749 63.6074C37.706 63.6074 37.6372 63.5958 37.5741 63.5785L37.465 63.6305C37.4306 63.5785 37.3905 63.5323 37.3618 63.4804C37.161 63.3476 37.029 63.1166 37.029 62.8568V62.3141C37.0175 61.3673 37.0233 60.4263 37.029 59.4794C37.029 59.4621 37.029 59.439 37.029 59.4159V59.3928C37.029 58.9772 37.3618 58.6423 37.7749 58.6423C37.9814 58.6423 38.165 58.7289 38.3027 58.8617C38.4404 58.9945 38.5208 59.185 38.5208 59.3928V62.8568Z" fill="black"/>
    <path d="M60.6045 45.2191C60.9316 45.0748 61.2644 44.9478 61.6144 44.8092C61.7521 45.5482 61.884 46.2352 62.016 46.9338C62.3545 46.8703 62.6586 46.8068 62.9799 46.7491C62.1824 42.3844 61.3906 38.0544 60.5873 33.6782C60.2546 33.7417 59.9505 33.7937 59.6177 33.8572C60.071 36.3455 60.5242 38.7992 60.9775 41.2702C57.6153 42.3613 54.7982 44.2434 52.5032 46.9049C50.2139 49.5722 48.8139 52.6667 48.1943 56.1596H51.8032C52.1073 54.6816 52.6064 53.2787 53.3007 51.9739C53.3121 51.9508 53.3236 51.9277 53.3351 51.9046C53.3466 51.8816 53.3638 51.8527 53.3753 51.8296C53.4728 51.6506 53.5761 51.4716 53.6794 51.2985C53.6851 51.2927 53.6908 51.2811 53.6966 51.2754C54.0293 50.7327 54.3965 50.2246 54.758 49.7685C54.7637 49.7685 54.7695 49.7685 54.7752 49.7685C54.781 49.757 54.781 49.7454 54.7867 49.7339C54.9932 49.4741 55.1998 49.2316 55.3891 49.018C55.4006 49.0238 55.4121 49.0238 55.4178 49.0295C55.4236 49.0122 55.4236 48.9891 55.4293 48.9718C55.9342 48.406 56.3416 48.0192 56.4793 47.8864C56.5022 47.8691 56.5194 47.8518 56.5366 47.8402C57.7645 46.7606 59.1185 45.8831 60.6045 45.2191Z" fill="black"/>
    <path d="M19.8283 56.1655C20.2759 56.1713 20.7291 56.1655 21.1766 56.1655C23.6323 56.1655 26.088 56.1655 28.5494 56.1655C28.6182 56.1655 28.6813 56.1713 28.7444 56.1597H29.7657C29.7829 56.1597 29.7944 56.1655 29.8116 56.1655C34.7803 56.1713 39.7548 56.1713 44.7235 56.1713C45.2226 56.1713 45.5382 55.8595 45.5382 55.3977C45.5325 54.9358 45.2112 54.6414 44.712 54.6414C40.5752 54.6414 36.4327 54.6414 32.296 54.6414C28.1477 54.6414 23.9995 54.6414 19.8513 54.6414C19.3521 54.6414 19.0308 54.9416 19.0251 55.3977C19.0079 55.8538 19.3292 56.1597 19.8283 56.1655Z" fill="black"/>
    <path d="M63.6336 50.2651C63.6508 50.3979 63.6566 50.5018 63.6738 50.6C64.127 53.0767 64.5803 55.5535 65.0278 58.0245C65.1827 58.8674 65.9114 59.3581 66.795 59.2138C67.5753 59.0868 67.9999 58.4228 67.845 57.5511C67.495 55.5939 67.1392 53.6368 66.7835 51.6796C66.6688 51.0387 66.5483 50.4037 66.4221 49.7397C65.4811 49.9187 64.5688 50.0861 63.6336 50.2651Z" fill="black"/>
    <path d="M63.4044 33.1586C64.2019 37.529 64.9995 41.8648 65.797 46.2237C66.1125 46.166 66.4051 46.1082 66.7322 46.0447C65.9404 41.6627 65.1601 37.327 64.3683 32.9739C64.0298 33.0374 63.7257 33.0951 63.4044 33.1586Z" fill="black"/>
    <path d="M59.1365 33.0086C59.1652 33.0086 59.2226 33.0028 59.28 32.9913C60.9783 32.6738 62.6766 32.362 64.3692 32.0387C64.8683 31.9463 65.1609 31.496 65.0691 31.0168C64.9773 30.5318 64.5872 30.2605 64.0708 30.3529C62.3553 30.6704 60.6398 30.9995 58.9242 31.3343C58.4939 31.4152 58.2243 31.8135 58.2759 32.2523C58.3275 32.7084 58.6661 33.0144 59.1365 33.0086Z" fill="black"/>
    <path d="M61.299 48.9372C61.3965 49.3817 61.8441 49.6358 62.349 49.5434C63.026 49.4164 63.6973 49.2951 64.3743 49.1681C65.3899 48.9776 66.3997 48.7929 67.4095 48.5966C67.8398 48.51 68.1094 48.1693 68.1094 47.771C68.1037 47.2167 67.6447 46.8184 67.0882 46.9223C65.3899 47.2341 63.6973 47.5631 61.999 47.898C61.4883 47.9961 61.1957 48.458 61.299 48.9372Z" fill="black"/>
    <path d="M53.593 4.53446C53.7135 5.1522 54.3045 5.55634 54.9184 5.4351L56.1921 5.18684C56.3069 5.16375 56.4159 5.12334 56.5134 5.07138L56.6339 5.04828L57.9994 4.77116C58.0625 4.75962 58.1199 4.75384 58.1773 4.7423C59.474 4.49982 60.7649 4.25734 62.0616 4.0264C62.1706 4.00908 62.3255 4.04372 62.4116 4.113C63.1001 4.6557 63.8402 4.78271 64.6378 4.41322C65.4008 4.06104 65.8484 3.28742 65.791 2.45028C65.7279 1.55542 65.2861 0.920349 64.4484 0.573949C64.3165 0.521989 64.1845 0.481575 64.0468 0.441162C63.8747 0.441162 63.7025 0.441162 63.5304 0.441162C63.496 0.458482 63.4616 0.481575 63.4271 0.487349C62.7501 0.602816 62.2624 0.978082 61.9354 1.58428C61.8895 1.66511 61.769 1.74016 61.6715 1.75748C61.2411 1.84986 60.8108 1.91914 60.3748 1.99996C58.9691 2.25976 57.5634 2.52534 56.1519 2.78514C56.0142 2.75627 55.8651 2.75627 55.7216 2.78514L54.4594 3.04494C53.8455 3.16618 53.4438 3.76083 53.5643 4.37858L53.593 4.53446Z" fill="black"/>
    <path d="M61.677 23.6962C61.4704 22.5473 61.2582 21.3984 61.0516 20.2553C60.3287 16.2948 59.6 12.3342 58.8771 8.37374C58.7222 7.52506 58.5673 6.67638 58.4009 5.79883C57.4714 5.97203 56.5649 6.14523 55.6182 6.31843C56.9952 13.9219 58.3722 21.4965 59.7492 29.0885C59.818 29.458 59.8811 29.8275 59.95 30.1969C60.891 30.0238 61.809 29.8505 62.7671 29.6773C62.6983 29.3079 62.6294 28.9441 62.5663 28.5804L61.677 23.6962Z" fill="black"/>
</svg>