<svg width="99" height="97" viewBox="0 0 99 97" fill="none" xmlns="http://www.w3.org/2000/svg">
<g filter="url(#filter0_d_456_3871)">
<path d="M47.7558 77.3459C32.0372 77.3459 19.2947 64.6035 19.2947 48.8849C19.2947 33.1663 32.0372 20.4238 47.7558 20.4238C63.4744 20.4238 76.2168 33.1663 76.2168 48.8849C76.2168 64.6035 63.4744 77.3459 47.7558 77.3459Z" fill="#B23632"/>
<path d="M56.4077 12.4847C54.1689 12.0701 51.868 11.8628 49.5464 11.8421C42.9338 11.8421 36.4663 13.6041 30.8073 16.9207C30.5171 17.0866 30.1854 17.1695 29.8745 17.1695C29.2526 17.1695 28.6307 16.8378 28.299 16.2574C27.7808 15.3868 28.071 14.2674 28.9417 13.7492C35.1604 10.0801 42.2912 8.15234 49.5464 8.15234C52.0753 8.15234 54.6042 8.38036 57.071 8.85713C58.066 9.04369 58.7293 9.99722 58.5428 10.9922C58.3769 12.0079 57.4027 12.6713 56.4077 12.4847Z" fill="#B23632"/>
<path d="M10.7002 47.0403C11.7159 47.0403 12.5244 47.8694 12.5244 48.8644C12.5244 57.8194 15.7581 66.4634 21.6244 73.2004C22.2878 73.9674 22.2048 75.1282 21.4379 75.7915C21.0855 76.1025 20.6709 76.2476 20.2356 76.2476C19.7174 76.2476 19.2199 76.0403 18.8467 75.6257C12.4 68.2254 8.83459 58.7315 8.83459 48.8852C8.85532 47.8695 9.68448 47.0403 10.7002 47.0403Z" fill="#B23632"/>
<path d="M12.8564 43.9096C12.7321 44.8216 11.9444 45.5057 11.0323 45.5057C10.9494 45.5057 10.8665 45.5057 10.7835 45.485C9.78854 45.3606 9.08376 44.4278 9.20813 43.4328C10.5141 33.7108 15.3232 24.7766 22.7235 18.2884C23.4905 17.6251 24.6513 17.6873 25.3146 18.4542C25.978 19.2212 25.9158 20.382 25.1488 21.0454C18.4118 26.9324 14.038 35.0582 12.8564 43.9096Z" fill="#B23632"/>
<path d="M58.3575 84.8714C67.0222 82.757 74.6505 77.554 79.8328 70.2367C80.4132 69.4075 81.5533 69.2209 82.3825 69.8013C83.2117 70.3817 83.3982 71.5218 82.8178 72.351C77.138 80.3939 68.7428 86.1151 59.2281 88.4368C59.083 88.4782 58.9379 88.499 58.7928 88.499C57.9636 88.499 57.2174 87.9393 57.0101 87.0894C56.7821 86.0944 57.3832 85.0994 58.3575 84.8714Z" fill="#B23632"/>
<path d="M83.294 64.1831C85.4706 59.374 86.59 54.2124 86.59 48.885C86.59 45.2574 86.0717 41.692 85.0353 38.251C84.7451 37.2767 85.3048 36.261 86.2583 35.9708C87.2326 35.6806 88.2483 36.2403 88.5385 37.1938C89.6579 40.9665 90.2383 44.905 90.2383 48.8643C90.2383 54.7306 89.0153 60.3897 86.6107 65.6756C86.2998 66.3597 85.6364 66.7535 84.9316 66.7535C84.6829 66.7535 84.4134 66.6913 84.1647 66.5877C83.294 66.1938 82.8795 65.0952 83.294 64.1831Z" fill="#B23632"/>
<path d="M47.7312 43.6772C47.6196 43.8261 47.5558 43.9377 47.4707 44.0281C44.6002 46.904 41.719 49.7799 38.8484 52.6557C38.3381 53.1714 37.7427 53.384 37.0357 53.1661C35.829 52.7939 35.4409 51.3055 36.3181 50.3752C36.8762 49.7799 37.4663 49.2164 38.0404 48.6423C40.8419 45.8461 43.6327 43.0553 46.4288 40.2591C47.2581 39.4299 48.2415 39.4192 49.0655 40.2485C52.3986 43.5762 55.7316 46.9093 59.0647 50.2423C59.7663 50.944 59.862 51.853 59.3198 52.5654C58.7457 53.3202 57.6825 53.4691 56.933 52.8896C56.816 52.7993 56.7044 52.6929 56.5981 52.5866C53.7382 49.732 50.8835 46.8774 48.0289 44.0175C47.9492 43.9377 47.8801 43.8473 47.7312 43.6772Z" fill="white"/>
<path d="M47.7568 51.801C47.6157 51.9527 47.5099 52.0727 47.397 52.1821C45.5447 54.0378 43.6889 55.8901 41.8332 57.7459C41.431 58.1481 40.9264 58.2469 40.4678 58.014C39.7833 57.6647 39.6352 56.7757 40.182 56.2076C40.6124 55.7631 41.0535 55.3327 41.4909 54.8952C43.2797 53.1064 45.0649 51.3212 46.8537 49.5325C47.4393 48.9468 48.0673 48.9503 48.6565 49.536C50.8616 51.7411 53.0631 53.9461 55.2682 56.1477C55.7233 56.6028 55.7868 57.2061 55.434 57.6789C55.0459 58.194 54.3262 58.2857 53.8217 57.8835C53.7476 57.8235 53.6805 57.7565 53.617 57.6894C51.7154 55.7913 49.8173 53.8932 47.9156 51.9915C47.8662 51.9422 47.8274 51.8857 47.7568 51.801Z" fill="white"/>
</g>
<defs>
<filter id="filter0_d_456_3871" x="0.833984" y="0.152344" width="97.4043" height="96.3467" filterUnits="userSpaceOnUse" color-interpolation-filters="sRGB">
<feFlood flood-opacity="0" result="BackgroundImageFix"/>
<feColorMatrix in="SourceAlpha" type="matrix" values="0 0 0 0 0 0 0 0 0 0 0 0 0 0 0 0 0 0 127 0" result="hardAlpha"/>
<feOffset/>
<feGaussianBlur stdDeviation="4"/>
<feComposite in2="hardAlpha" operator="out"/>
<feColorMatrix type="matrix" values="0 0 0 0 0 0 0 0 0 0 0 0 0 0 0 0 0 0 0.5 0"/>
<feBlend mode="normal" in2="BackgroundImageFix" result="effect1_dropShadow_456_3871"/>
<feBlend mode="normal" in="SourceGraphic" in2="effect1_dropShadow_456_3871" result="shape"/>
</filter>
</defs>
</svg>
