<svg width="58" height="59" viewBox="0 0 58 59" fill="none" xmlns="http://www.w3.org/2000/svg">
<path opacity="0.4" d="M0.354695 33.1674C-1.48454 47.669 13.6538 59.1996 27.0944 58.28C41.9497 57.2896 54.6121 45.0517 56.7343 30.4793C59.0688 14.6336 49.5896 1.97114 34.8757 0.839302C20.5863 -0.292535 11.3901 12.4406 15.5637 25.3153C18.5348 34.5114 26.9529 37.9777 31.1973 35.431C34.5221 33.4503 34.3098 28.4278 30.2776 27.5789C28.6506 27.2252 27.0236 28.1449 26.1747 29.3474C22.6377 27.9326 19.313 21.5661 21.5766 14.7043C24.477 5.93257 35.5832 5.43739 42.5157 9.54029C51.2874 14.775 52.7021 26.0227 49.4481 34.9359C46.0526 44.3443 36.8564 51.7719 26.7407 52.4793C15.3516 53.2575 5.30653 44.5565 4.38691 33.2381C4.24543 30.4793 0.708394 30.55 0.354695 33.1674Z" fill="#86B1F2"/>
</svg>
