<svg width="95" height="96" viewBox="0 0 95 96" fill="none" xmlns="http://www.w3.org/2000/svg">
<g opacity="0.4">
<path d="M27.3949 45.0124C26.752 36.0759 33.5027 28.3608 42.4392 27.7179C51.3758 27.075 59.0908 33.8256 59.7338 42.7622C60.3767 51.6988 53.6261 59.4139 44.6895 60.0568C35.7529 60.6354 27.9735 53.949 27.3949 45.0124Z" fill="#F7CC7F"/>
<path d="M54.8478 90.7882C53.8834 86.0949 53.3048 81.0158 51.6975 76.5154C50.3473 72.5936 44.2396 73.8151 44.5611 77.9941C44.9468 83.1375 46.5541 88.3451 47.6471 93.3599C48.0971 95.4172 50.7974 96.3173 52.5333 95.7387C54.7192 94.9029 55.2978 92.8455 54.8478 90.7882Z" fill="#F7CC7F"/>
<path d="M82.6862 70.6648C77.2857 67.5145 72.6567 63.5927 67.6419 59.7994C63.7844 56.842 59.6054 61.9211 62.7557 65.3928C67.3204 70.4076 73.3638 74.2651 79.1501 77.7369C81.0146 78.8299 83.522 77.7369 84.4221 75.9367C85.4507 73.9437 84.4864 71.7577 82.6862 70.6648Z" fill="#F7CC7F"/>
<path d="M72.464 41.6692C71.2424 42.6336 70.9852 44.048 71.7568 45.3982C73.5569 48.6771 78.186 48.5485 81.4649 48.4199C84.8723 48.2913 88.2798 47.5841 91.5587 46.4911C96.3163 44.8838 93.7446 37.426 88.9227 39.0976C79.6004 42.3122 76 38.8404 72.464 41.6692Z" fill="#F7CC7F"/>
<path d="M67.3199 10.1017C62.6266 16.9809 58.7691 19.3597 59.3477 23.1529C59.6691 25.4032 61.4693 26.4318 63.5909 25.9818C66.0983 25.4032 67.5127 22.7029 69.0558 20.8384C70.5345 19.0383 71.9489 17.2381 73.2347 15.3093C74.392 13.5734 74.5849 11.3232 72.849 9.78021C71.3703 8.49437 68.5415 8.36579 67.3199 10.1017Z" fill="#F7CC7F"/>
<path d="M48.9328 8.94456C47.454 4.76558 47.0683 3.22257 45.1396 1.29381C43.468 -0.377778 39.8676 0.650894 39.6104 3.15828C39.3533 6.05142 39.9319 7.14438 41.5392 11.5162C42.2464 13.5093 44.5609 14.6023 46.5539 13.895C48.547 13.2521 49.64 10.9376 48.9328 8.94456Z" fill="#F7CC7F"/>
<path d="M29.0671 19.0385C22.2521 13.8951 20.902 12.4164 18.2017 12.6736C16.6587 12.8665 14.8585 14.3452 15.2443 16.0811C15.8872 19.36 17.7516 20.26 24.0522 24.8248C25.7238 26.0463 28.0384 26.1106 29.4528 24.439C30.7386 23.0246 30.7386 20.3243 29.0671 19.0385Z" fill="#F7CC7F"/>
<path d="M1.74249 42.7621C-0.957769 44.1766 0.135195 48.8056 3.02833 49.1913C5.79289 49.5771 6.88587 49.1271 20.3872 46.6197C22.4445 46.2339 24.1804 44.6909 24.0518 42.4407C23.9232 40.5119 21.9945 38.3903 19.8728 38.776C5.85717 41.3477 4.44276 41.3477 1.74249 42.7621Z" fill="#F7CC7F"/>
<path d="M22.8941 64.8785C15.5005 72.0149 14.4076 70.7934 11.5144 75.1652C10.1643 77.1583 12.4145 80.3729 14.729 79.9229C17.6865 79.3442 18.5223 78.8942 22.4441 75.8082C24.6943 74.008 26.8802 72.0792 28.9376 70.0862C30.4806 68.6075 30.0948 65.8429 28.5518 64.4928C26.7516 62.9498 24.4371 63.3355 22.8941 64.8785Z" fill="#F7CC7F"/>
</g>
</svg>
