<svg width="147" height="146" viewBox="0 0 147 146" fill="none" xmlns="http://www.w3.org/2000/svg">
<g opacity="0.7">
<path d="M70.4108 125.509C42.1111 125.509 19.1696 102.567 19.1696 74.2675C19.1696 45.9678 42.1111 23.0264 70.4108 23.0264C98.7105 23.0264 121.652 45.9678 121.652 74.2675C121.652 102.567 98.7105 125.509 70.4108 125.509Z" fill="white"/>
</g>
<path d="M85.9891 8.7326C81.9585 7.98619 77.8159 7.613 73.636 7.57567C61.7307 7.57567 50.0867 10.7479 39.8982 16.7192C39.3757 17.0178 38.7786 17.1671 38.2188 17.1671C37.0991 17.1671 35.9795 16.5699 35.3824 15.525C34.4494 13.9575 34.9719 11.9422 36.5393 11.0092C47.7355 4.40343 60.5738 0.932617 73.636 0.932617C78.1891 0.932617 82.7422 1.34313 87.1833 2.2015C88.9747 2.53739 90.169 4.25413 89.8331 6.04552C89.5345 7.87423 87.7805 9.06849 85.9891 8.7326Z" fill="#F5A73D"/>
<path d="M3.69747 70.9458C5.52618 70.9458 6.98168 72.4386 6.98168 74.23C6.98168 90.3525 12.8037 105.915 23.3654 118.044C24.5597 119.425 24.4104 121.515 23.0295 122.709C22.3951 123.269 21.6487 123.53 20.8649 123.53C19.9319 123.53 19.0362 123.157 18.3645 122.411C6.75776 109.087 0.338623 91.9946 0.338623 74.2673C0.375942 72.4386 1.86877 70.9458 3.69747 70.9458Z" fill="#BCF0FF"/>
<path d="M7.57856 65.3106C7.35464 66.9527 5.93646 68.1843 4.29435 68.1843C4.14507 68.1843 3.99578 68.1843 3.8465 68.147C2.05511 67.9231 0.786222 66.2436 1.01015 64.4522C3.36134 46.9489 12.0197 30.8637 25.3432 19.1824C26.724 17.9881 28.814 18.1001 30.0082 19.4809C31.2025 20.8618 31.0905 22.9518 29.7097 24.146C17.5805 34.7451 9.70583 49.3747 7.57856 65.3106Z" fill="#B23632"/>
<path d="M89.4973 139.056C105.097 135.25 118.831 125.882 128.161 112.708C129.206 111.215 131.259 110.879 132.752 111.924C134.245 112.969 134.581 115.022 133.536 116.515C123.31 130.995 108.195 141.295 91.0648 145.475C90.8035 145.55 90.5423 145.587 90.2811 145.587C88.7882 145.587 87.4447 144.58 87.0715 143.05C86.661 141.258 87.7432 139.467 89.4973 139.056Z" fill="#55C6E8"/>
<path d="M134.394 101.81C138.313 93.1521 140.328 83.8592 140.328 74.2678C140.328 67.7367 139.395 61.3176 137.529 55.1224C137.006 53.3683 138.014 51.5396 139.731 51.0171C141.485 50.4946 143.314 51.5023 143.836 53.219C145.851 60.0114 146.896 67.1023 146.896 74.2305C146.896 84.7922 144.694 94.9808 140.365 104.498C139.805 105.729 138.611 106.438 137.342 106.438C136.894 106.438 136.409 106.326 135.961 106.14C134.394 105.431 133.647 103.453 134.394 101.81Z" fill="#FFC4E8"/>
<path d="M59.9876 76.0373C60.5876 78.5675 62.5178 79.6369 64.6828 80.3151C68.0998 81.3845 71.5429 81.3324 74.8816 80.0282C76.7336 79.3239 78.2726 78.2284 78.7421 76.0112C82.3678 76.3764 85.4457 77.7849 87.9758 80.3412C91.4972 83.8886 93.0361 88.1664 92.384 93.1485C92.0189 96.0699 90.2973 97.8697 87.4802 98.5479C86.1499 98.8869 84.7414 99.1217 83.359 99.1217C74.0209 99.1739 64.6828 99.1739 55.3447 99.1217C54.1448 99.1217 52.9189 98.9391 51.7451 98.6522C48.0411 97.8175 46.3196 95.6786 46.1631 91.8703C45.8762 83.7843 51.7451 76.9763 59.9876 76.0373Z" fill="black"/>
<path d="M54.2752 61.9259C54.0666 60.1522 54.5361 58.4828 56.5967 57.5438C56.8315 57.4394 56.9097 56.8134 56.9358 56.3961C57.0402 54.9615 56.9358 53.5008 57.2227 52.1183C58.3965 46.0929 64.2915 42.1281 70.943 42.8063C76.9684 43.4062 81.6374 48.4404 81.6896 54.4398C81.6896 54.9093 81.7418 55.4049 81.6896 55.8744C81.5852 56.8656 81.8983 57.4655 82.8373 58.0394C85.1848 59.4218 84.4545 61.8476 84.4284 63.9605C84.4023 65.4212 83.4111 66.4906 81.9765 66.8558C81.0114 67.1166 80.568 67.6644 80.1767 68.5252C79.0551 71.1075 77.5422 73.429 75.4816 75.3331C71.6472 78.8805 67.2129 78.9327 63.3525 75.4374C61.1093 73.429 59.5442 70.9249 58.3965 68.1861C58.1357 67.5601 57.8748 67.1688 57.0923 66.9862C54.9795 66.4384 54.2752 65.1342 54.2752 61.9259ZM77.6466 69.9076C75.8728 70.2728 74.1252 70.6641 72.3515 71.0553C72.2211 71.0814 72.0906 71.1336 72.0124 71.2379C70.969 72.4117 69.5866 71.9683 68.3345 71.9161C67.4477 71.89 66.8999 71.2379 66.8999 70.3511C66.8999 69.4642 67.4216 68.7599 68.3085 68.7599C69.4822 68.7599 70.656 69.0468 71.8298 69.2034C72.1167 69.2555 72.4558 69.4381 72.6906 69.3599C74.5947 68.7078 76.5249 68.0817 78.3769 67.2731C78.7682 67.1166 79.0812 66.308 79.1073 65.8124C79.1855 63.9605 79.1333 62.0824 79.1333 60.2044C79.1333 58.1176 78.5595 57.6742 76.4728 57.8829C74.1774 58.0915 71.882 58.4306 69.5866 58.3524C66.5347 58.2481 63.4568 57.935 61.6831 54.7006C60.405 56.1092 59.3877 57.4394 59.5181 59.4479C59.6486 61.5346 59.5442 63.6214 59.5442 65.7081C59.5442 66.1254 59.5181 66.5949 59.6746 66.9862C60.9006 70.012 62.5961 72.7247 65.3349 74.6288C67.9694 76.4547 70.7082 76.4547 73.3688 74.681C75.2207 73.429 76.5771 71.7596 77.6466 69.9076ZM78.5595 51.3358C76.7336 47.0319 72.5602 44.6583 68.152 45.206C64.3698 45.6755 60.7963 48.4404 60.3007 51.3097C65.2305 46.6928 72.5602 46.0407 78.5595 51.3358Z" fill="black"/>
</svg>
