<svg width="506" height="392" viewBox="0 0 506 392" fill="none" xmlns="http://www.w3.org/2000/svg">
<path d="M502.788 391.765L485.95 382.099L471.919 391.765L449.469 382.099L441.05 391.765L431.228 382.099L418.6 386.932L398.957 382.099L382.119 386.932L369.491 382.099L352.653 386.932L341.428 382.099L327.397 391.765L311.963 382.099L295.125 386.932L282.497 382.099L269.869 386.932L255.838 382.099L234.791 391.765L222.162 382.099L213.744 390.154L198.309 382.099L178.665 386.932L164.634 383.71L149.2 390.154L135.169 382.099L122.54 391.765L107.106 382.099L91.6716 386.932L76.2372 380.488L66.4153 391.765L49.5777 383.71L34.1433 391.765L20.1121 383.71L3.27454 391.765L7.48389 374.043L0.468262 364.376L7.48389 353.098L0.468262 341.821L7.48389 327.32L0.468262 317.654L6.08078 307.987L0.468262 298.32L8.88705 285.431L0.468262 275.764L7.48389 261.264L0.468262 253.209L7.48389 241.931L0.468262 230.653L7.48389 219.375L0.468262 206.486L8.88705 196.819L0.468262 185.541L7.48389 175.875L0.468262 164.597L7.48389 151.708L0.468262 140.43L7.48389 130.763L0.468262 117.874L8.88705 106.596L1.8714 96.9297L7.48389 85.6518L0.468262 72.7628L7.48389 63.096L0.468262 53.4293L6.08078 42.1515L0.468262 30.8736L7.48389 17.9846L3.27454 3.48444L20.1121 9.92892L32.7402 0.262207L50.9809 9.92892L63.609 3.48444L79.0434 9.92892L93.0747 3.48444L109.912 9.92892L122.54 0.262207L137.975 9.92892L152.006 3.48444L167.44 11.5401L181.472 3.48444L195.503 9.92892L209.534 0.262207L224.969 9.92892L237.597 1.87335L251.628 11.5401L267.063 3.48444L283.9 11.5401L295.125 3.48444L311.963 11.5401L324.591 3.48444L341.428 11.5401L352.653 3.48444L369.491 9.92892L383.522 3.48444L398.957 9.92892L412.988 3.48444L427.019 9.92892L442.453 1.87335L456.485 11.5401L470.516 0.262207L485.95 9.92892L501.385 1.87335L497.175 16.3734L505.594 30.8736L498.579 38.9292L505.594 53.4293L498.579 61.4849L505.594 74.3739L498.579 85.6518L505.594 96.9297L498.579 106.596L505.594 119.485L498.579 129.152L505.594 142.041L498.579 153.319L505.594 162.986L498.579 174.264L505.594 185.541L498.579 196.819L505.594 209.708L498.579 219.375L505.594 229.042L498.579 240.32L505.594 253.209L499.982 261.264L505.594 274.153L498.579 285.431L505.594 296.709L498.579 307.987L505.594 317.654L498.579 328.932L505.594 343.432L498.579 351.487L505.594 362.765L498.579 374.043L502.788 391.765Z" fill="#95D6E7"/>
</svg>
