<svg width="715" height="300" viewBox="0 0 715 300" fill="none" xmlns="http://www.w3.org/2000/svg">
<path d="M711.028 300L687.194 292.593L667.333 300L635.556 292.593L623.639 300L609.736 292.593L591.861 296.296L564.056 292.593L540.222 296.296L522.347 292.593L498.514 296.296L482.625 292.593L462.764 300L440.917 292.593L417.083 296.296L399.208 292.593L381.333 296.296L361.472 292.593L331.681 300L313.806 292.593L301.889 298.765L280.042 292.593L252.236 296.296L232.375 293.827L210.528 298.765L190.667 292.593L172.792 300L150.944 292.593L129.097 296.296L107.25 291.358L93.3472 300L69.5139 293.827L47.6666 300L27.8056 293.827L3.97223 300L9.93054 286.42L0 279.012L9.93054 270.37L0 261.728L9.93054 250.617L0 243.21L7.94446 235.802L0 228.395L11.9167 218.519L0 211.111L9.93054 200L0 193.827L9.93054 185.185L0 176.543L9.93054 167.901L0 158.025L11.9167 150.617L0 141.975L9.93054 134.568L0 125.926L9.93054 116.049L0 107.407L9.93054 100L0 90.1234L11.9167 81.4815L1.98615 74.0741L9.93054 65.4321L0 55.5555L9.93054 48.1481L0 40.7408L7.94446 32.0988L0 23.4568L9.93054 13.5802L3.97223 2.46912L27.8056 7.40738L45.6805 0L71.5 7.40738L89.375 2.46912L111.222 7.40738L131.083 2.46912L154.917 7.40738L172.792 0L194.639 7.40738L214.5 2.46912L236.347 8.64197L256.208 2.46912L276.069 7.40738L295.931 0L317.778 7.40738L335.653 1.23456L355.514 8.64197L377.361 2.46912L401.194 8.64197L417.083 2.46912L440.917 8.64197L458.792 2.46912L482.625 8.64197L498.514 2.46912L522.347 7.40738L542.208 2.46912L564.056 7.40738L583.917 2.46912L603.778 7.40738L625.625 1.23456L645.486 8.64197L665.347 0L687.194 7.40738L709.042 1.23456L703.083 12.3457L715 23.4568L705.069 29.6296L715 40.7408L705.069 46.9136L715 56.7901L705.069 65.4321L715 74.0741L705.069 81.4815L715 91.358L705.069 98.7654L715 108.642L705.069 117.284L715 124.691L705.069 133.333L715 141.975L705.069 150.617L715 160.494L705.069 167.901L715 175.309L705.069 183.951L715 193.827L707.056 200L715 209.877L705.069 218.519L715 227.16L705.069 235.802L715 243.21L705.069 251.852L715 262.963L705.069 269.136L715 277.778L705.069 286.42L711.028 300Z" fill="#B23632"/>
</svg>
