<svg width="505" height="300" viewBox="0 0 505 300" fill="none" xmlns="http://www.w3.org/2000/svg">
<path d="M502.194 300L485.361 292.593L471.333 300L448.889 292.593L440.472 300L430.653 292.593L418.028 296.296L398.389 292.593L381.556 296.296L368.931 292.593L352.097 296.296L340.875 292.593L326.847 300L311.417 292.593L294.583 296.296L281.958 292.593L269.333 296.296L255.306 292.593L234.264 300L221.639 292.593L213.222 298.765L197.792 292.593L178.153 296.296L164.125 293.827L148.694 298.765L134.667 292.593L122.042 300L106.611 292.593L91.1806 296.296L75.75 291.358L65.9306 300L49.0972 293.827L33.6667 300L19.6389 293.827L2.80557 300L7.01392 286.42L0 279.012L7.01392 270.37L0 261.728L7.01392 250.617L0 243.21L5.61115 235.802L0 228.395L8.41672 218.519L0 211.111L7.01392 200L0 193.827L7.01392 185.185L0 176.543L7.01392 167.901L0 158.025L8.41672 150.617L0 141.975L7.01392 134.568L0 125.926L7.01392 116.049L0 107.407L7.01392 100L0 90.1234L8.41672 81.4815L1.40283 74.0741L7.01392 65.4321L0 55.5556L7.01392 48.1481L0 40.7408L5.61115 32.0988L0 23.4568L7.01392 13.5802L2.80557 2.46912L19.6389 7.40738L32.2639 0L50.5 7.40738L63.125 2.46912L78.5556 7.40738L92.5833 2.46912L109.417 7.40738L122.042 0L137.472 7.40738L151.5 2.46912L166.931 8.64197L180.958 2.46912L194.986 7.40738L209.014 0L224.444 7.40738L237.069 1.23456L251.097 8.64197L266.528 2.46912L283.361 8.64197L294.583 2.46912L311.417 8.64197L324.042 2.46912L340.875 8.64197L352.097 2.46912L368.931 7.40738L382.958 2.46912L398.389 7.40738L412.417 2.46912L426.444 7.40738L441.875 1.23456L455.903 8.64197L469.931 0L485.361 7.40738L500.792 1.23456L496.583 12.3457L505 23.4568L497.986 29.6296L505 40.7408L497.986 46.9136L505 56.7901L497.986 65.4321L505 74.0741L497.986 81.4815L505 91.358L497.986 98.7654L505 108.642L497.986 117.284L505 124.691L497.986 133.333L505 141.975L497.986 150.617L505 160.494L497.986 167.901L505 175.309L497.986 183.951L505 193.827L499.389 200L505 209.877L497.986 218.519L505 227.16L497.986 235.802L505 243.21L497.986 251.852L505 262.963L497.986 269.136L505 277.778L497.986 286.42L502.194 300Z" fill="#95D6E7"/>
</svg>
