<svg width="716" height="378" viewBox="0 0 716 378" fill="none" xmlns="http://www.w3.org/2000/svg">
<path d="M711.622 377.765L687.789 368.452L667.928 377.765L636.15 368.452L624.233 377.765L610.33 368.452L592.455 373.109L564.65 368.452L540.816 373.109L522.941 368.452L499.108 373.109L483.219 368.452L463.358 377.765L441.511 368.452L417.678 373.109L399.803 368.452L381.928 373.109L362.066 368.452L332.275 377.765L314.4 368.452L302.483 376.213L280.636 368.452L252.83 373.109L232.969 370.004L211.122 376.213L191.261 368.452L173.386 377.765L151.539 368.452L129.691 373.109L107.844 366.9L93.9415 377.765L70.1081 370.004L48.2609 377.765L28.3998 370.004L4.56647 377.765L10.5248 360.691L0.594238 351.378L10.5248 340.513L0.594238 329.648L10.5248 315.678L0.594238 306.365L8.5387 297.052L0.594238 287.739L12.5109 275.321L0.594238 266.008L10.5248 252.038L0.594238 244.277L10.5248 233.412L0.594238 222.547L10.5248 211.681L0.594238 199.264L12.5109 189.951L0.594238 179.086L10.5248 169.772L0.594238 158.907L10.5248 146.49L0.594238 135.624L10.5248 126.311L0.594238 113.894L12.5109 103.029L2.58038 93.7154L10.5248 82.8501L0.594238 70.4326L10.5248 61.1194L0.594238 51.8064L8.5387 40.9411L0.594238 30.0757L10.5248 17.6583L4.56647 3.68857L28.3998 9.89731L46.2748 0.584229L72.0942 9.89731L89.9692 3.68857L111.816 9.89731L131.678 3.68857L155.511 9.89731L173.386 0.584229L195.233 9.89731L215.094 3.68857L236.941 11.4495L256.803 3.68857L276.664 9.89731L296.525 0.584229L318.372 9.89731L336.247 2.13641L356.108 11.4495L377.955 3.68857L401.789 11.4495L417.678 3.68857L441.511 11.4495L459.386 3.68857L483.219 11.4495L499.108 3.68857L522.941 9.89731L542.803 3.68857L564.65 9.89731L584.511 3.68857L604.372 9.89731L626.219 2.13641L646.08 11.4495L665.941 0.584229L687.789 9.89731L709.636 2.13641L703.678 16.1061L715.594 30.0757L705.664 37.8367L715.594 51.8064L705.664 59.5673L715.594 71.9848L705.664 82.8501L715.594 93.7154L705.664 103.029L715.594 115.446L705.664 124.759L715.594 137.177L705.664 148.042L715.594 157.355L705.664 168.22L715.594 179.086L705.664 189.951L715.594 202.368L705.664 211.681L715.594 220.995L705.664 231.86L715.594 244.277L707.65 252.038L715.594 264.456L705.664 275.321L715.594 286.186L705.664 297.052L715.594 306.365L705.664 317.23L715.594 331.2L705.664 338.961L715.594 349.826L705.664 360.691L711.622 377.765Z" fill="#B23632"/>
</svg>
