<svg width="26" height="25" viewBox="0 0 26 25" fill="none" xmlns="http://www.w3.org/2000/svg">
<path d="M13.0117 24.0604C6.1123 24.0604 0.511719 18.68 0.511719 12.0459C0.511719 5.40246 6.1123 0.0172807 13.0264 0.0219757C19.9258 0.0266707 25.5166 5.41185 25.5117 12.0459C25.5117 18.68 19.9111 24.0604 13.0117 24.0604ZM13.0117 21.3326C18.3535 21.3279 22.6748 17.1729 22.6748 12.0318C22.6748 6.90486 18.3389 2.74978 12.9922 2.74978C7.68945 2.74978 3.35352 6.92364 3.34863 12.0271C3.34863 17.1635 7.67969 21.3326 13.0117 21.3326Z" fill="#B23632"/>
<path d="M13.3105 12.1399C13.8818 12.1399 14.4287 12.1399 14.9707 12.1399C16.1523 12.1399 17.3291 12.1399 18.5107 12.1399C19.0234 12.1399 19.209 12.3089 19.2041 12.7972C19.2041 13.2104 19.209 13.6282 19.1992 14.0414C19.1943 14.4076 19.0039 14.5907 18.623 14.5907C16.0693 14.5954 13.5107 14.5954 10.957 14.5954C10.9033 14.5954 10.8447 14.586 10.7617 14.5813C10.7617 14.4592 10.7617 14.3419 10.7617 14.2292C10.7617 11.6845 10.7617 9.14449 10.7617 6.5998C10.7617 6.18194 10.9521 5.99884 11.3818 5.99414C11.8066 5.99414 12.2266 5.99414 12.6514 5.99414C13.1299 5.99414 13.3057 6.16316 13.3057 6.61388C13.3057 8.2947 13.3057 9.98021 13.3057 11.661C13.3105 11.8019 13.3105 11.9474 13.3105 12.1399Z" fill="#B23632"/>
</svg>
