<svg width="71" height="93" viewBox="0 0 71 93" fill="none" xmlns="http://www.w3.org/2000/svg">
<path d="M43.342 0.500244C45.1713 1.54045 47.3593 2.22196 48.7582 3.65673C50.0495 4.94802 51.0539 7.02843 51.1973 8.82189C51.5202 13.8794 51.305 18.937 51.305 24.0663C50.4441 24.0663 49.6908 24.0663 48.7224 24.0663C48.7224 20.2283 48.7224 16.4261 48.7224 12.5164C33.3704 12.5164 18.2336 12.5164 2.95333 12.5164C2.95333 34.7553 2.95333 56.9583 2.95333 79.233C18.1619 79.233 33.2986 79.233 48.7224 79.233C48.7224 77.6907 48.8659 76.1483 48.6865 74.6418C48.4354 72.4896 49.0811 70.9473 51.4484 70.0505C51.4484 70.9473 51.4484 71.8081 51.4484 72.669C51.4484 75.4309 51.4484 78.157 51.4484 80.9189C51.4484 87.8775 49.7626 90.3166 43.342 92.6481C31.6128 92.6481 19.9194 92.6481 8.19023 92.6481C1.69791 90.1731 0.191406 87.9492 0.191406 80.9189C0.191406 64.4908 0.191406 48.0627 0.191406 31.6347C0.191406 24.6402 0.227275 17.6457 0.191406 10.6512C0.191406 8.24798 0.729444 6.05996 2.20008 4.12303C3.74245 2.15023 5.8946 1.18176 8.19023 0.500244C19.9194 0.500244 31.6487 0.500244 43.342 0.500244ZM25.7661 82.2819C23.6498 82.2819 21.8922 84.0395 21.8564 86.1199C21.8205 88.2721 23.6857 90.1731 25.802 90.1014C27.99 90.0655 29.7476 88.2362 29.7117 86.0482C29.6759 83.9678 27.9183 82.2819 25.7661 82.2819Z" fill="#B23632"/>
<path d="M69.957 34.2532C69.957 31.2402 68.5939 29.8772 65.5809 29.8772C50.6594 29.8772 35.7019 29.8772 20.7803 29.8772C17.7315 29.8772 16.3326 31.2044 16.3326 34.2174C16.2967 40.6021 16.2967 46.9868 16.3326 53.4074C16.3684 56.4562 17.6956 57.7117 20.7803 57.7117C25.6227 57.7475 30.465 57.7117 35.3074 57.7117C35.953 57.7117 36.5628 57.7117 37.4595 57.7117C36.6704 60.7247 35.415 63.1279 33.4063 65.2083C32.94 65.7105 32.8682 66.6072 32.6172 67.3246C33.3704 67.5039 34.1595 67.9702 34.8052 67.7909C40.4366 66.2127 45.3507 63.4149 49.2605 58.9671C49.7626 58.3932 50.7311 57.9986 51.4843 57.9627C56.1473 57.8551 60.8103 57.9269 65.4733 57.9269C68.5222 57.9269 69.9928 56.4562 70.0287 53.4432C69.957 47.0227 69.957 40.6379 69.957 34.2532ZM25.9455 47.8476L22.9325 46.2694L19.9195 47.8476L20.4934 44.4759L18.0543 42.0727L21.426 41.5705L22.9325 38.5217L24.439 41.5705L27.8107 42.0727L25.3716 44.4759L25.9455 47.8476ZM39.3247 47.8476L36.3117 46.2694L33.2987 47.8476L33.8726 44.4759L31.4335 42.0727L34.8052 41.5705L36.3117 38.5217L37.8182 41.5705L41.1899 42.0727L38.7508 44.4759L39.3247 47.8476ZM52.7039 47.8476L49.6909 46.2694L46.6779 47.8476L47.2518 44.4759L44.8127 42.0727L48.1844 41.5705L49.6909 38.5217L51.1974 41.5705L54.5691 42.0727L52.13 44.4759L52.7039 47.8476ZM66.0831 47.8476L63.0701 46.2694L60.0571 47.8476L60.631 44.4759L58.1919 42.0727L61.5636 41.5705L63.0701 38.5217L64.5766 41.5705L67.9483 42.0727L65.5092 44.4759L66.0831 47.8476Z" fill="#B23632"/>
</svg>
