<svg width="45" height="27" viewBox="0 0 45 27" fill="none" xmlns="http://www.w3.org/2000/svg">
<g clip-path="url(#clip0_143_31)">
<path d="M4.77028 0.0917969H40.1239C41.2516 0.0917969 42.2763 0.552725 43.0186 1.29507C43.7611 2.03755 44.222 3.06222 44.222 4.18972V21.9939C44.222 23.1212 43.7609 24.1459 43.0186 24.8884C42.2761 25.6307 41.2514 26.0918 40.1241 26.0918H4.77041C3.64304 26.0918 2.61824 25.6309 1.87576 24.8884C1.13341 24.146 0.672485 23.1215 0.672485 21.9939V4.18972C0.672485 3.06209 1.13341 2.03742 1.87576 1.29507C2.61811 0.552725 3.64291 0.0917969 4.77054 0.0917969H4.77028ZM40.1239 1.50424H4.77028C4.03251 1.50424 3.36124 1.80669 2.87418 2.29375C2.38712 2.78081 2.08467 3.45208 2.08467 4.18985V21.994C2.08467 22.7316 2.38712 23.4029 2.87418 23.89C3.36137 24.3772 4.03264 24.6796 4.77028 24.6796H40.1239C40.8615 24.6796 41.5327 24.3772 42.0199 23.89C42.507 23.4028 42.8096 22.7315 42.8096 21.9941V4.18998C42.8096 3.45247 42.5071 2.78107 42.0201 2.29388C41.533 1.80682 40.8616 1.50437 40.1239 1.50437V1.50424Z" fill="#808080"/>
<path fill-rule="evenodd" clip-rule="evenodd" d="M18.5226 17.0474L19.8675 9.15596H22.0184L20.6727 17.0474H18.5226ZM28.474 9.3505C28.0478 9.19032 27.3801 9.01904 26.5461 9.01904C24.4209 9.01878 22.9235 10.0893 22.911 11.6233C22.8989 12.7568 23.9798 13.3896 24.7957 13.7672C25.6329 14.1537 25.9144 14.4006 25.9104 14.746C25.905 15.2748 25.2417 15.5166 24.6235 15.5166C23.7627 15.5166 23.3053 15.397 22.5988 15.1024L22.3216 14.9768L22.0197 16.7434C22.5221 16.9638 23.4511 17.1547 24.4156 17.1646C26.6766 17.1645 28.1445 16.1066 28.1612 14.4685C28.1693 13.5707 27.5963 12.8877 26.3554 12.3245C25.6035 11.9592 25.143 11.7159 25.1479 11.3462C25.1479 11.0181 25.5376 10.6674 26.3797 10.6674C27.0832 10.6563 27.5925 10.8098 27.9895 10.9698L28.1824 11.0607L28.4738 9.35063L28.474 9.3505ZM33.9897 9.16341H32.3276C31.8127 9.16341 31.4273 9.30425 31.2011 9.81809L28.0068 17.0498H30.2654C30.2654 17.0498 30.6348 16.0776 30.7184 15.8641C30.9653 15.8641 33.1594 15.8675 33.4731 15.8675C33.5375 16.1437 33.7348 17.0499 33.7348 17.0499L35.7309 17.0498L33.9898 9.16341H33.9897ZM31.3373 14.25C31.5152 13.7953 32.1942 12.0442 32.1942 12.0442C32.1817 12.0651 32.3707 11.5873 32.4794 11.291L32.6249 11.9712C32.6249 11.9712 33.0366 13.8551 33.1227 14.2501L31.3371 14.25H31.3373ZM16.7186 9.16171L14.6128 14.5431L14.3884 13.4496C13.9964 12.1888 12.7748 10.8232 11.4093 10.1394L13.3349 17.0406L15.6107 17.0379L18.997 9.16171H16.7186Z" fill="#191E70"/>
<path fill-rule="evenodd" clip-rule="evenodd" d="M12.6592 9.15698H9.19077L9.16333 9.32121C11.8617 9.97419 13.6472 11.5529 14.3884 13.4496L13.6341 9.82329C13.504 9.32356 13.1263 9.17449 12.6592 9.15698Z" fill="#F7B600"/>
</g>
<defs>
<clipPath id="clip0_143_31">
<rect width="43.5496" height="26" fill="white" transform="translate(0.672241 0.0917969)"/>
</clipPath>
</defs>
</svg>
