<svg width="16" height="16" viewBox="0 0 16 16" fill="none" xmlns="http://www.w3.org/2000/svg">
<path fill-rule="evenodd" clip-rule="evenodd" d="M7.82623 14.0265C8.07126 14.0264 8.30623 13.9291 8.47946 13.7558L13.0992 9.13602C13.2675 8.96176 13.3606 8.72837 13.3585 8.48611C13.3564 8.24386 13.2593 8.01212 13.088 7.84081C12.9167 7.6695 12.6849 7.57233 12.4427 7.57023C12.2004 7.56812 11.967 7.66125 11.7927 7.82956L7.82623 11.7961L3.85971 7.82956C3.68545 7.66125 3.45206 7.56812 3.20981 7.57023C2.96755 7.57233 2.73581 7.6695 2.5645 7.84081C2.3932 8.01212 2.29602 8.24386 2.29392 8.48611C2.29181 8.72837 2.38494 8.96176 2.55325 9.13602L7.173 13.7558C7.34623 13.9291 7.5812 14.0264 7.82623 14.0265ZM7.82623 8.48279C8.07126 8.48274 8.30623 8.38536 8.47946 8.21207L13.0992 3.59232C13.2675 3.41806 13.3606 3.18467 13.3585 2.94241C13.3564 2.70016 13.2593 2.46842 13.088 2.29711C12.9167 2.1258 12.6849 2.02863 12.4427 2.02652C12.2004 2.02442 11.967 2.11755 11.7927 2.28585L7.82623 6.25237L3.85971 2.28585C3.68545 2.11755 3.45206 2.02442 3.20981 2.02652C2.96755 2.02863 2.73581 2.1258 2.5645 2.29711C2.3932 2.46842 2.29602 2.70016 2.29392 2.94241C2.29181 3.18467 2.38494 3.41806 2.55325 3.59232L7.173 8.21207C7.34623 8.38536 7.5812 8.48274 7.82623 8.48279Z" fill="#0B8234"/>
</svg>
