<svg width="35" height="35" viewBox="0 0 35 35" fill="none" xmlns="http://www.w3.org/2000/svg">
<g clip-path="url(#clip0_158_1594)">
<path d="M17.4995 30.0994C13.1245 30.0994 9.25695 27.8594 6.99945 24.4994C7.05195 20.9994 13.9995 19.0744 17.4995 19.0744C20.9995 19.0744 27.947 20.9994 27.9995 24.4994C26.8425 26.2221 25.2797 27.6339 23.4487 28.6105C21.6177 29.587 19.5746 30.0983 17.4995 30.0994ZM17.4995 5.24939C18.8918 5.24939 20.2272 5.80251 21.2118 6.78708C22.1963 7.77165 22.7495 9.107 22.7495 10.4994C22.7495 11.8918 22.1963 13.2271 21.2118 14.2117C20.2272 15.1963 18.8918 15.7494 17.4995 15.7494C16.1071 15.7494 14.7717 15.1963 13.7871 14.2117C12.8026 13.2271 12.2495 11.8918 12.2495 10.4994C12.2495 9.107 12.8026 7.77165 13.7871 6.78708C14.7717 5.80251 16.1071 5.24939 17.4995 5.24939ZM17.4995 -0.000610352C15.2013 -0.000610352 12.9257 0.452041 10.8025 1.3315C8.67929 2.21096 6.75011 3.5 5.12508 5.12502C1.8432 8.40691 -0.000549316 12.8581 -0.000549316 17.4994C-0.000549316 22.1407 1.8432 26.5919 5.12508 29.8738C6.75011 31.4988 8.67929 32.7878 10.8025 33.6673C12.9257 34.5467 15.2013 34.9994 17.4995 34.9994C22.1407 34.9994 26.5919 33.1556 29.8738 29.8738C33.1557 26.5919 34.9995 22.1407 34.9995 17.4994C34.9995 7.82189 27.1245 -0.000610352 17.4995 -0.000610352Z" fill="#451A01"/>
</g>
<defs>
<clipPath id="clip0_158_1594">
<rect width="35" height="35" fill="white"/>
</clipPath>
</defs>
</svg>
